<svg id="Illustrations" xmlns="http://www.w3.org/2000/svg" xmlns:xlink="http://www.w3.org/1999/xlink" viewBox="0 0 1000 1000"><defs><style>.cls-1,.cls-11,.cls-15,.cls-16,.cls-17,.cls-18,.cls-19,.cls-2,.cls-20,.cls-3,.cls-4,.cls-7,.cls-8,.cls-9{stroke:#000;}.cls-1,.cls-11,.cls-12,.cls-13,.cls-14,.cls-15,.cls-16,.cls-17,.cls-18,.cls-19,.cls-2,.cls-20,.cls-21,.cls-22,.cls-3,.cls-4,.cls-6,.cls-7,.cls-8,.cls-9{stroke-linecap:round;}.cls-1,.cls-11,.cls-12,.cls-13,.cls-14,.cls-15,.cls-16,.cls-17,.cls-18,.cls-19,.cls-2,.cls-20,.cls-21,.cls-22,.cls-3,.cls-4,.cls-5,.cls-6,.cls-7,.cls-8,.cls-9{stroke-miterlimit:10;stroke-width:3px;}.cls-1{fill:url(#linear-gradient);}.cls-2{fill:url(#linear-gradient-2);}.cls-3{fill:url(#linear-gradient-3);}.cls-4{fill:url(#linear-gradient-4);}.cls-10,.cls-5{fill:#040400;}.cls-5{stroke:#040400;}.cls-6{fill:#f6c34c;}.cls-12,.cls-13,.cls-14,.cls-21,.cls-22,.cls-6{stroke:#070707;}.cls-7{fill:#dbcaf4;}.cls-8{fill:#ece7e1;}.cls-9{fill:#f2b3c1;}.cls-11,.cls-21{fill:none;}.cls-12{fill:#ff6406;}.cls-13{fill:#fc762b;}.cls-14{fill:#84a1e5;}.cls-15{fill:#d87d61;}.cls-16{fill:url(#linear-gradient-5);}.cls-17{fill:url(#linear-gradient-6);}.cls-18{fill:url(#linear-gradient-7);}.cls-19{fill:url(#linear-gradient-8);}.cls-20{fill:url(#linear-gradient-9);}.cls-22{fill:#f6991a;}</style><linearGradient id="linear-gradient" x1="495.94" y1="440.03" x2="495.94" y2="21.13" gradientUnits="userSpaceOnUse"><stop offset="0.1" stop-color="#a4c2ff"/><stop offset="0.39" stop-color="#b5deed"/><stop offset="0.65" stop-color="#c6fcdb"/></linearGradient><linearGradient id="linear-gradient-2" x1="495.94" y1="54.79" x2="495.94" y2="440.03" gradientUnits="userSpaceOnUse"><stop offset="0" stop-color="#fec2d9"/><stop offset="0.47" stop-color="#dbcaf4"/><stop offset="0.81" stop-color="#c6fcdb"/></linearGradient><linearGradient id="linear-gradient-3" x1="495.94" y1="94.52" x2="495.94" y2="440.03" gradientUnits="userSpaceOnUse"><stop offset="0.13" stop-color="#dbcaf4"/><stop offset="0.56" stop-color="#c6fcdb"/><stop offset="1" stop-color="#fec2d9"/></linearGradient><linearGradient id="linear-gradient-4" x1="500" y1="978.87" x2="500" y2="440.03" gradientUnits="userSpaceOnUse"><stop offset="0.02" stop-color="#a4c2ff"/><stop offset="0.88" stop-color="#fec2d9"/></linearGradient><linearGradient id="linear-gradient-5" x1="660.93" y1="61.93" x2="660.93" y2="104.33" gradientUnits="userSpaceOnUse"><stop offset="0.16" stop-color="#fec2d9"/><stop offset="0.8" stop-color="#a4c2ff"/></linearGradient><linearGradient id="linear-gradient-6" x1="318.89" y1="205.94" x2="318.89" y2="249.82" xlink:href="#linear-gradient-5"/><linearGradient id="linear-gradient-7" x1="644.84" y1="120.94" x2="644.84" y2="144.85" gradientUnits="userSpaceOnUse"><stop offset="0.26" stop-color="#fec2d9"/><stop offset="0.8" stop-color="#a4c2ff"/></linearGradient><linearGradient id="linear-gradient-8" x1="683.19" y1="111.47" x2="683.19" y2="128.25" xlink:href="#linear-gradient-5"/><linearGradient id="linear-gradient-9" x1="350.61" y1="256.65" x2="350.61" y2="274.02" xlink:href="#linear-gradient-5"/></defs><path class="cls-1" d="M495.94,21.13h0A114.89,114.89,0,0,1,610.83,136V440H381.05V136A114.89,114.89,0,0,1,495.94,21.13Z"/><path class="cls-2" d="M495.94,54.79h0a77.67,77.67,0,0,1,77.69,77.69V440H418.24V132.48a77.69,77.69,0,0,1,77.7-77.69Z"/><path class="cls-3" d="M495.94,94.52h0A38.05,38.05,0,0,1,534,132.58V440H457.88V132.58a38.07,38.07,0,0,1,38.06-38.06Z"/><path class="cls-4" d="M235.57,978.87q36.38-134.72,72.74-269.42T381.05,440H610.83l76.8,268.87,76.8,268.88L500,978.33Z"/><path class="cls-5" d="M626.58,376.21l-36.76,5.09-36.76,5.1a25.73,25.73,0,0,1-29-21.95h0a25.73,25.73,0,0,1,22-29l36.76-5.09,36.75-5.1a25.73,25.73,0,0,1,29,21.95h0a25.73,25.73,0,0,1-21.95,29Z"/><path class="cls-6" d="M530.78,532.74,503.36,713.41,475.93,894.08H691.58l-22.47-95.86-22.47-95.86s10.27-19.43,14-50.34.85-73.32-25.39-119.28"/><path class="cls-7" d="M624.11,593a29.5,29.5,0,0,0,37.64,45.12,186,186,0,0,0-4.89-51.26A29.51,29.51,0,0,0,624.11,593Z"/><path class="cls-7" d="M551.58,565.17a29.5,29.5,0,0,0,29.5-29.5,28.31,28.31,0,0,0-.15-2.93H530.78L527.71,553a28.93,28.93,0,0,0,3,3.53A29.4,29.4,0,0,0,551.58,565.17Z"/><path class="cls-7" d="M535.71,669.15a29.5,29.5,0,0,0-18-50.22l-8.84,58.25a29.54,29.54,0,0,0,26.85-8Z"/><path class="cls-7" d="M577.22,719a29.5,29.5,0,1,0,20.86,8.64A29.42,29.42,0,0,0,577.22,719Z"/><path class="cls-7" d="M655.28,809a29.5,29.5,0,0,0,28,49.49l-13.47-57.44A29.46,29.46,0,0,0,655.28,809Z"/><path class="cls-7" d="M565.21,864.93A29.5,29.5,0,0,0,516,894.08h56.63a29.82,29.82,0,0,0,1.19-8.29A29.42,29.42,0,0,0,565.21,864.93Z"/><path class="cls-8" d="M530.78,532.74H635.23l2.72-4.62,2.71-4.62h42.77a28.38,28.38,0,0,0,7.41-1,25.38,25.38,0,0,0,15.83-12.7c2.5-4.62,4.19-10.8,4.19-19.06a124,124,0,0,0-4.9-34.6,122.21,122.21,0,0,0-14.4-31.84c-11.51-18-25.45-35-42-47.23s-35.64-19.85-57.5-19.15a156.18,156.18,0,0,0-39.67,6.46c-10.4,3.12-17.56,6.52-20.34,8.17A106.46,106.46,0,0,0,498,404.82a111.94,111.94,0,0,0-12.66,24.81q11.35,25.78,22.73,51.56T530.78,532.74Z"/><path class="cls-9" d="M600.6,326.07a38.52,38.52,0,0,0-14.33-22.3c-6.77-5-15-7.1-23.14-5.19s-14.56,7.48-18.41,15a38.42,38.42,0,0,0-2.89,26.34c.16.7.34,1.38.54,2.06s.42,1.35.64,2l-2.33,2.39-2.33,2.38,4,1.3,4,1.31a35.4,35.4,0,0,0,14.4,13.7,27.23,27.23,0,0,0,18.48,2.34c8.12-1.91,14.56-7.49,18.41-15A38.42,38.42,0,0,0,600.6,326.07Z"/><path class="cls-10" d="M555.17,338.07a1.83,1.83,0,0,1-.25,1.36,1.86,1.86,0,0,1-1.15.79,1.81,1.81,0,0,1-1.37-.26,1.77,1.77,0,0,1-.78-1.14,1.81,1.81,0,1,1,3.55-.75Z"/><path class="cls-11" d="M562.75,347.18a6.94,6.94,0,0,1-.51,2,6.58,6.58,0,0,1-2.48,3,6.41,6.41,0,0,1-2.92,1,7,7,0,0,1-1.78,0"/><polyline class="cls-11" points="547.84 329.69 553.39 329.23 558.95 328.76"/><path class="cls-12" d="M573.42,337.57a5.5,5.5,0,0,1-.77,4.16,5.54,5.54,0,0,1-7.67,1.62,5.54,5.54,0,0,1,1.88-10.06,5.57,5.57,0,0,1,4.17.78A5.47,5.47,0,0,1,573.42,337.57Z"/><path class="cls-13" d="M677.8,913.15H489.6a14.49,14.49,0,0,1-14.49-14.5h0a14.48,14.48,0,0,1,14.49-14.49H677.8a14.48,14.48,0,0,1,14.49,14.49h0a14.49,14.49,0,0,1-14.49,14.5Z"/><path class="cls-5" d="M547.38,309.23c5.39,7.44,10.59,12.27,15.36,15.38a32.36,32.36,0,0,0,12.81,5.08c4.78.74,11.13.53,16.28.14s9.11-1,9.11-1h0s-.16-.79-.39-1.85-.52-2.37-.79-3.41c-.2-.76-.47-1.66-.82-2.68s-.8-2.14-1.36-3.35a7,7,0,0,1,1.82-.79,6.69,6.69,0,0,1,3.66,0,6.82,6.82,0,0,1,2.81,1.57,6.61,6.61,0,0,1,1.18,1.4c-3-11.93-12.34-19.62-23.13-22.39s-23.08-.63-32.09,7.1A27,27,0,0,0,549.2,307C548.46,307.81,547.86,308.58,547.38,309.23Z"/><path class="cls-14" d="M667.17,884.16,670.85,931l3.67,46.82H649q-.88-10.34-1.76-20.68t-1.76-20.68a172.15,172.15,0,0,1-82.54,38.15,184.51,184.51,0,0,1-36,2.52,146.7,146.7,0,0,0,25.19-17.69,137.83,137.83,0,0,0,28.62-34.64,136.29,136.29,0,0,0,10.23-21.93,139.64,139.64,0,0,0,5.34-18.68h70.92Z"/><path class="cls-9" d="M615.91,406.5a12.82,12.82,0,0,0-.62,2.15,10.44,10.44,0,0,0-.21,2.24,7.1,7.1,0,0,0,.3,1.89,4.26,4.26,0,0,0,.92,1.63,4.07,4.07,0,0,0,2.33,1.22,5.35,5.35,0,0,0,2.69-.24,9.4,9.4,0,0,0,4.76-4.3,51.48,51.48,0,0,0,2.81-6l3.21-7.32c1.07-2.44,2.15-4.87,3.26-7.29a66,66,0,0,1,3.86-8.41c1.8-2.93,4.14-5,7.09-3.47a3.43,3.43,0,0,1,1.35,1.35,4.81,4.81,0,0,1,.53,1.26,13.14,13.14,0,0,1,1.57-2.7c1-1.33,2.48-2.61,4.3-2.41a4,4,0,0,1,2.43,1.21,4.17,4.17,0,0,1,1.14,2.47,6.28,6.28,0,0,1-.11,1.73,9.93,9.93,0,0,1-.72,2.22c.13-.31.65-.18,1.18,0a11.2,11.2,0,0,1,1.23.66,4.08,4.08,0,0,1,1.25,1.23,4.62,4.62,0,0,1,.66,1.62,6.72,6.72,0,0,1,.06,1.95,11.56,11.56,0,0,1-.38,1.93c-.31,1.14-.65,2.26-1,3.39s-.67,2.26-1,3.41a9.48,9.48,0,0,1,1.25,1.07,8.88,8.88,0,0,1,1.31,1.74,9.84,9.84,0,0,1,1.05,5.94,21.61,21.61,0,0,1-1.19,4.88,167.82,167.82,0,0,1-11,24.81,97.66,97.66,0,0,1-5.41,8.93c-2.69,3.76-5.86,8-9.56,12.66s-7.92,9.63-12.69,14.86L595.15,450.8l-12.41-10h0s.32-1.42.7-3,.81-3.38,1-4.11c.67-2.32,1.3-4.58,2-6.82a49.94,49.94,0,0,1,2.65-6.62A82.89,82.89,0,0,1,598,406.39c3.35-4.35,7-8.51,10.48-12.72a47.91,47.91,0,0,1,5.06-5.79c2-1.73,4.3-2.8,7-1.86a4.22,4.22,0,0,1,2.72,2.92,7.45,7.45,0,0,1-.15,4.15,14.11,14.11,0,0,1-1,2.34c-.39.76-.81,1.5-1.23,2.23-.8,1.41-1.75,2.83-2.65,4.3A27.12,27.12,0,0,0,615.91,406.5Z"/><path class="cls-14" d="M622.6,472.88l-21.42-17.39-21.43-17.4-19,16.19-19,16.18c.7-.59-4-5.95-9.21-11.39s-10.73-11-11.69-11.89c-23.63-22.91-53-34.07-83.29-35.34s-61.36,7.37-88.36,24.07l4.28-24.77,4.29-24.77-28.31-1.9-28.3-1.9c-6.24,29.87-10.28,48.56-13.17,61.31s-4.61,19.55-6.2,25.63c-.06.22-.23.87-.46,1.84s-.53,2.26-.84,3.75c-1.8,8.67-3.36,16.17-3.68,22.86s.6,12.53,3.76,17.9A35.46,35.46,0,0,0,289.69,526a38.32,38.32,0,0,0,12.14,6.22,30,30,0,0,0,15.35.27c5-1.07,9.85-3,14.91-4.6,2-.65,3.27-1.05,6.7-2.21s9.07-3.06,19.9-6.75l6.81-2.32,5.12-1.73q2,14.73,3.94,29.45t3.94,29.44l62.09-.17,62.1-.18q1.81-10.15,3.64-20.32T510,532.74a41.42,41.42,0,0,0,12.2,8.08,31.78,31.78,0,0,0,8.38,2.29c8,1,15.57-1.34,22.24-4.91s12.46-8.32,17-12c1.89-1.53,3.48-3,4.73-4.11s2.15-2.07,2.66-2.59c8.28-8.36,16.83-17.1,24.72-25.21S617,478.71,622.6,472.88Z"/><path class="cls-11" d="M648.19,381.24c-1,3.18-2,6.49-3.27,9.9s-2.62,6.93-4.17,10.54q-1.35,3.12-2.73,6.05c-.92,1.95-1.86,3.84-2.79,5.67"/><path class="cls-11" d="M656.8,383.76c-1,3-2.09,6.09-3.32,9.29s-2.6,6.51-4.11,9.89q-1.7,3.8-3.44,7.31c-1.16,2.33-2.33,4.58-3.5,6.73"/><path class="cls-11" d="M658.83,398s-1.7,4.46-3.79,9.53-4.56,10.76-6.11,13.2"/><path class="cls-11" d="M540.07,467.55l2.65,3.53c.89,1.17,1.77,2.35,2.66,3.53"/><path class="cls-11" d="M480.25,504.57q3.51,3.68,7.29,7.43t7.81,7.57c2.48,2.35,4.94,4.61,7.38,6.81s4.85,4.31,7.24,6.36"/><path class="cls-11" d="M331,446.84q3-1.65,6-3.42t6.12-3.68c1-.62,2-1.25,3-1.87L349,436"/><path class="cls-14" d="M617,884.16l3.4,46.81,3.41,46.82H601.15l-2.47-20.47-2.47-20.47A205,205,0,0,1,576,950a203.77,203.77,0,0,1-63.44,23.15,205.41,205.41,0,0,1-29,3.29A133.45,133.45,0,0,0,497,966.56a128.14,128.14,0,0,0,14.27-14,130.38,130.38,0,0,0,23.43-39,142.79,142.79,0,0,0,8-30.23l37.19.39Z"/><path class="cls-9" d="M419,399.56a41.81,41.81,0,0,1,.21-24.92c2.66-8.22,8-15.33,16.34-18.29,7.83-2.78,16.23-1.59,23.48,2.59a38.28,38.28,0,0,1,16.63,20.5c.24.67.46,1.35.66,2s.38,1.35.54,2l3.24.74,3.24.74-2.68,3.26L478,391.5a31.93,31.93,0,0,1-4,17.09,27.75,27.75,0,0,1-12.09,11.53,27.14,27.14,0,0,1-18.54,1.59,37.32,37.32,0,0,1-10.47-4.43A34.12,34.12,0,0,1,419,399.56Z"/><path class="cls-9" d="M422.5,407c-.48-.79-1-1.66-1.43-2.59s-.94-1.93-1.38-3a39.81,39.81,0,0,1-1.87-5.71,42.34,42.34,0,0,1-.9-4.89,11,11,0,0,0-2.79.78,6.77,6.77,0,0,0-3,2.46c-1.35,2.12-1.21,5-.09,7.62a10,10,0,0,0,5.74,5.67,7.75,7.75,0,0,0,3.29.28A10.35,10.35,0,0,0,422.5,407Z"/><path class="cls-10" d="M463.5,385.12a1.83,1.83,0,0,0,.95,1,1.81,1.81,0,0,0,2.43-2.29,1.82,1.82,0,0,0-.95-1,1.85,1.85,0,0,0-1.39,0,1.83,1.83,0,0,0-1,1A1.81,1.81,0,0,0,463.5,385.12Z"/><polyline class="cls-11" points="465.16 374.21 460.22 376.76 455.29 379.3"/><path class="cls-11" d="M576.92,930.71a67.14,67.14,0,0,0,4.67-6.89,41.59,41.59,0,0,0,3.51-7.54,25.4,25.4,0,0,0,1.06-8.18c-.13-3.1-1-6-3.37-6.68-3.82-1.18-7,2-9.47,6A80.94,80.94,0,0,0,568,919a70.35,70.35,0,0,0-3.56,11.1,88,88,0,0,0-1.85,11.52,40.08,40.08,0,0,0-1.14-13.11,123.82,123.82,0,0,0-4-12.61,47.08,47.08,0,0,0-2.39-5.65,25.83,25.83,0,0,0-3.37-5.11,17.55,17.55,0,0,0-5.1-4c-2.08-1-4.29-1.33-5.93.26-1.14,1.11-1.39,3.08-1.28,5.11a31.23,31.23,0,0,0,.92,5.48,33.11,33.11,0,0,0,2,5.73,45,45,0,0,0,2.84,5.36,60.7,60.7,0,0,0,7.15,9.4,65.64,65.64,0,0,0,8.77,7.92c1.73,1.31,3,1.59,4.29,1.22a12.77,12.77,0,0,0,4-2.71,40.89,40.89,0,0,0,4-3.9C574.61,933.64,575.79,932.19,576.92,930.71Z"/><path class="cls-12" d="M443.65,394.75a4.77,4.77,0,1,0,6.41-6.05,4.8,4.8,0,0,0-3.65-.11,4.79,4.79,0,0,0-2.76,6.16Z"/><path class="cls-11" d="M324.08,924.44a67.23,67.23,0,0,0,4.68-6.89,40.88,40.88,0,0,0,3.5-7.54,25.32,25.32,0,0,0,1.07-8.18c-.13-3.1-1-6-3.37-6.68-3.82-1.18-7,2-9.47,6a82.3,82.3,0,0,0-5.33,11.58,71.7,71.7,0,0,0-3.55,11.1,86.61,86.61,0,0,0-1.85,11.52,40,40,0,0,0-1.15-13.1,123,123,0,0,0-4-12.61,48.18,48.18,0,0,0-2.39-5.66,26.12,26.12,0,0,0-3.37-5.11,17.64,17.64,0,0,0-5.11-4c-2.07-1-4.28-1.33-5.93.26-1.14,1.11-1.39,3.08-1.27,5.11a31.23,31.23,0,0,0,.92,5.48,32.29,32.29,0,0,0,2,5.73,45,45,0,0,0,2.84,5.36,60.08,60.08,0,0,0,7.15,9.4,65.79,65.79,0,0,0,8.77,7.93c1.73,1.3,3,1.58,4.29,1.21a12.47,12.47,0,0,0,4-2.71,40.92,40.92,0,0,0,4-3.89C321.77,927.37,323,925.92,324.08,924.44Z"/><path class="cls-8" d="M461,397.23a9.92,9.92,0,0,0,1.49.62,4.69,4.69,0,0,0,1.6.25,5.61,5.61,0,0,0,1.87-.48,6.69,6.69,0,0,1,1.86-.52,3,3,0,0,1,3.26,2.24,3.47,3.47,0,0,1-1.39,3.82,12.6,12.6,0,0,1-7.37,1.71c-2.71-.19-5.21-1.27-6.12-3.67a3,3,0,0,1,1-3.58A3.65,3.65,0,0,1,461,397.23Z"/><path class="cls-5" d="M416.92,390.81a29.73,29.73,0,0,0,13.82-1.32c7.12-2.54,14.63-8.85,16.24-23.91A23.45,23.45,0,0,0,462.92,368c4.82-1.07,8.79-3.8,10.81-7.56a16.06,16.06,0,0,0,1.6-9.65,13.21,13.21,0,0,0-4.84-8.79,13.94,13.94,0,0,0-11.19-2.29,17.89,17.89,0,0,0-11,7.23A49.66,49.66,0,0,0,423,351.61c-7,3.51-12.11,8.75-14.43,15.07a23.45,23.45,0,0,0-1.31,5.91,28.82,28.82,0,0,0,.8,9.46l1.55,6,1.54,6a8.45,8.45,0,0,1,1.53-1.61A6.92,6.92,0,0,1,416.92,390.81Z"/><path class="cls-15" d="M377,566.32q-14.46,83.56-28.91,167.11t-28.9,167.11H424.5q2.34-41.35,4.67-82.72t4.67-82.73l3,82.73,3,82.72H549.72L526.89,733.15,504.06,565.76l-63.51.28Z"/><path class="cls-9" d="M396.17,566.24h-2.74L371.34,739.71,350.86,900.54h5.46L376.71,740.4,398.9,566.22Z"/><path class="cls-9" d="M418.45,566.14,401.81,740.71,386.57,900.54H392L407.2,741.23l16.7-175.12-2.73,0Z"/><path class="cls-9" d="M454,566h-2.71l-2.72,0L460.24,742.4l10.45,158.14h5.43L465.65,742Z"/><path class="cls-9" d="M498.42,741.48,482.1,565.86h-5.44L493,742l14.73,158.56h5.44Z"/><path class="cls-9" d="M425.61,904.51c0,5.13-6,9.77-15.72,13.13s-23.14,5.43-38,5.43S343.69,921,334,917.64s-15.72-8-15.72-13.13,6-9.76,15.72-13.12S357.11,886,371.93,886s28.24,2.08,38,5.44S425.61,899.39,425.61,904.51Z"/><path class="cls-9" d="M551.07,904.51c0,5.13-6.26,9.77-16.4,13.13s-24.13,5.43-39.6,5.43-29.46-2.07-39.6-5.43-16.4-8-16.4-13.13,6.27-9.76,16.4-13.12,24.14-5.44,39.6-5.44,29.47,2.08,39.6,5.44S551.07,899.39,551.07,904.51Z"/><path class="cls-8" d="M337.81,890.25l-5.46,22.63q-2.72,11.31-5.45,22.63s-12-1.34-23.52,3.28-22.36,15.18-20,39h126.3a5.31,5.31,0,0,0,2.11-.43,5.37,5.37,0,0,0,1.73-1.16,5.25,5.25,0,0,0,1.27-2.16,8.67,8.67,0,0,0,.32-1.68c.18-1.84.38-10.61.58-24.27s.36-32.19.5-53.58c-1.75-.79-3.9-1.7-6.4-2.62s-5.36-1.85-8.53-2.69a93.54,93.54,0,0,0-15.56-2.76c-4.7-.45-9-.52-12.92-.58-2.55,0-5.66-.08-9.34.09a111.23,111.23,0,0,0-12.72,1.35c-2.64.44-5.05.94-7.21,1.45S339.42,889.78,337.81,890.25Z"/><path class="cls-8" d="M453.26,892.38q-.28,9.33-.58,18.66l-.57,18.65q-.35,11-.68,21.93t-.68,21.94a8.27,8.27,0,0,0,0,1.14,4.34,4.34,0,0,0,.52,1.9,2.16,2.16,0,0,0,1.11.84,6.44,6.44,0,0,0,2.46.35h124a43.31,43.31,0,0,0-3.68-19.9c-4.59-10-14.7-20.25-36.74-20.92q-2-11.64-4-23.29l-4-23.28c-2.18-.57-4.64-1.16-7.36-1.72s-5.69-1.09-8.9-1.53-6.74-.84-10.77-1.09-8.48-.35-13.28-.19c-2.71.08-6.38.21-10.82.68a116.18,116.18,0,0,0-15.5,2.7c-2.19.54-4.19,1.09-6,1.63S454.55,891.93,453.26,892.38Z"/><polyline class="cls-11" points="323.67 948.5 325.28 942.01 326.9 935.51"/><path class="cls-7" d="M578.24,967.67l-63.67-.18-63.66-.18c0,1.26,0,2.52-.05,3.78l0,3.78a2.89,2.89,0,0,0,2.88,2.92H578.89c.05-.76.08-1.57.08-2.42s0-1.77-.08-2.71-.15-1.81-.26-2.64S578.38,968.4,578.24,967.67Z"/><path class="cls-7" d="M283.17,967.73l66-.05,66,0-.12,2.75-.11,2.75a5,5,0,0,1-.41,1.33A5.34,5.34,0,0,1,413,976.4a5.4,5.4,0,0,1-2.1,1.08,5.51,5.51,0,0,1-1.36.17c-20.07.06-41.58.07-63.09.07s-43,0-63.08.07c-.09-.72-.16-1.48-.22-2.27s-.1-1.61-.12-2.46,0-1.89,0-2.78S283.11,968.54,283.17,967.73Z"/><polyline class="cls-11" points="538.55 937.48 539.64 943.23 540.72 948.99"/><path class="cls-16" d="M683.19,83.13c0-.76-2-1.46-5.23-2a99.6,99.6,0,0,0-13-1.05,73.13,73.13,0,0,0-1.35-12.92c-.72-3.25-1.65-5.22-2.68-5.22s-2,2-2.67,5.22a73,73,0,0,0-1.36,12.92,99.6,99.6,0,0,0-13,1.05c-3.26.55-5.23,1.25-5.23,2s2,1.46,5.23,2a99.6,99.6,0,0,0,13,1,73,73,0,0,0,1.36,12.92c.71,3.25,1.65,5.22,2.67,5.22s2-2,2.68-5.22A73.13,73.13,0,0,0,665,86.19a99.6,99.6,0,0,0,13-1C681.22,84.59,683.19,83.89,683.19,83.13Z"/><path class="cls-17" d="M341.93,227.88c0-.79-2-1.51-5.41-2.07a103.58,103.58,0,0,0-13.46-1.1,74.62,74.62,0,0,0-1.4-13.36c-.74-3.37-1.71-5.41-2.77-5.41s-2,2-2.76,5.41a74.62,74.62,0,0,0-1.4,13.36,103.42,103.42,0,0,0-13.46,1.1c-3.38.56-5.41,1.28-5.41,2.07s2,1.52,5.41,2.08a101.92,101.92,0,0,0,13.46,1.09,74.75,74.75,0,0,0,1.4,13.37c.74,3.36,1.7,5.4,2.76,5.4s2-2,2.77-5.4a74.75,74.75,0,0,0,1.4-13.37A102.07,102.07,0,0,0,336.52,230C339.89,229.4,341.93,228.67,341.93,227.88Z"/><path class="cls-18" d="M656.49,133.27c-3.93.81-6.34,1.66-8,3.3s-2.49,4.05-3.3,8a.38.38,0,0,1-.75,0c-.81-3.93-1.66-6.35-3.3-8s-4-2.49-8-3.3a.38.38,0,0,1,0-.75c3.93-.81,6.35-1.67,8-3.3s2.49-4,3.3-8a.38.38,0,0,1,.75,0c.81,3.93,1.67,6.34,3.3,8s4,2.49,8,3.3a.38.38,0,0,1,0,.75Z"/><path class="cls-19" d="M683.19,128.25a8.4,8.4,0,1,1,5.93-2.46A8.37,8.37,0,0,1,683.19,128.25Zm0-12.19a3.79,3.79,0,0,0-3.8,3.8,3.74,3.74,0,0,0,1.11,2.68,3.79,3.79,0,0,0,2.69,1.12,3.82,3.82,0,0,0,3.8-3.8,3.79,3.79,0,0,0-1.12-2.69A3.74,3.74,0,0,0,683.19,116.06Z"/><path class="cls-20" d="M350.61,274a8.71,8.71,0,1,1,6.14-2.55A8.65,8.65,0,0,1,350.61,274Zm0-12.62a3.94,3.94,0,0,0-3.93,3.94,3.94,3.94,0,1,0,6.71-2.78A3.88,3.88,0,0,0,350.61,261.4Z"/><polyline class="cls-11" points="646.64 702.36 633.05 730.52 619.45 758.69"/><path class="cls-9" d="M357.79,386.28c.25-1.87.61-4.22,1.16-6.94s1.29-5.81,2.3-9.15a142.38,142.38,0,0,1,5-14.55,63.11,63.11,0,0,1,8.58-14.73c2.48-3.16,5.14-5.91,7-8.38s2.89-4.68,2.11-6.73a4.49,4.49,0,0,0-1.13-1.68,7,7,0,0,0-1.42-1,5.33,5.33,0,0,0-1.07-.4,6.8,6.8,0,0,0-2.2-.17,16.48,16.48,0,0,0-7,2.64,27.44,27.44,0,0,0-3.26,2.37,57.87,57.87,0,0,0-7.14,7.64c-1.66,2.07-2.63,3.41-3,3.19-.09-.05-.11-.16-.08-.46s.08-.76.15-1.54c0-.13,0,0,0-.48s0-1.46.16-3.82q.14-3.21.32-6.41c.11-2.14.25-4.28.4-6.42.12-1.64.21-2.89.34-3.91a9.65,9.65,0,0,1,.64-2.57,11.26,11.26,0,0,1,1.69-2.72,23.77,23.77,0,0,1,2.36-2.34,72.43,72.43,0,0,1,8.59-6.49c2-1.37,3.09-2.32,3.32-4a5.29,5.29,0,0,0-.54-3,5.54,5.54,0,0,0-1.94-2.24c-1.38-.86-3.05-.8-5-.21a39.31,39.31,0,0,0-6.33,2.94,57,57,0,0,0-8.34,5.15,24.52,24.52,0,0,0-6.9,8.25,26.53,26.53,0,0,0-2.06,5.35,27.91,27.91,0,0,0-.76,4.11,8.57,8.57,0,0,0-1.94-1.75,7.88,7.88,0,0,0-4.81-1.37,8,8,0,0,0-4,1.33,8.21,8.21,0,0,0-2.82,3.21,9,9,0,0,0-2.34-1.33,7.79,7.79,0,0,0-9.11,2.39,9,9,0,0,0-1.93,4.79,10.41,10.41,0,0,0-1.72.13,8.3,8.3,0,0,0-2.15.68,10.2,10.2,0,0,0-4.64,5.26,21.88,21.88,0,0,0-1.63,6.21q-1.38,11.35-2.75,22.71t-2.75,22.71l28.31,1.9Z"/><path class="cls-9" d="M343.36,336.92l.21-9.72.2-9.73"/><path class="cls-9" d="M601.68,334.25c0-.93-.09-1.92-.2-3s-.26-2.14-.47-3.28a39.88,39.88,0,0,0-1.53-5.84,42.18,42.18,0,0,0-1.9-4.62,11.1,11.1,0,0,1,2.79-.85,6.72,6.72,0,0,1,3.88.44c2.29,1.05,3.75,3.59,4.22,6.38a10.1,10.1,0,0,1-1.77,7.91,7.72,7.72,0,0,1-2.62,2A10.3,10.3,0,0,1,601.68,334.25Z"/><path class="cls-21" d="M640.66,523.5c.88-2.89,1.72-5.91,2.51-9s1.53-6.4,2.2-9.77a199.72,199.72,0,0,0,3.16-22.2c.61-7,.8-13.54.74-19.55"/><path class="cls-9" d="M330.2,318.93l-.42,9.37c-.14,3.12-.29,6.24-.43,9.37"/><path class="cls-9" d="M316.82,324.78c-.1,2.21-.21,4.41-.32,6.62s-.22,4.41-.32,6.61"/><polyline class="cls-22" points="433.85 735.09 433.85 692.98 433.85 650.87"/><path class="cls-11" d="M394.4,887.65v39.2a25.2,25.2,0,0,0,1.92,11c2.37,5.2,7.58,9.75,18.92,7.19"/><path class="cls-11" d="M473.26,887.65v39.2a25.28,25.28,0,0,1-1.91,11c-2.38,5.2-7.59,9.75-18.93,7.19"/><polyline class="cls-11" points="398.45 967.65 398.45 972.67 398.45 977.69"/><polyline class="cls-11" points="387.69 967.65 387.69 972.67 387.69 977.69"/><polyline class="cls-11" points="477.81 967.65 477.81 972.67 477.81 977.69"/><polyline class="cls-11" points="467.04 967.65 467.04 972.67 467.04 977.69"/><path class="cls-13" d="M568.69,447.51l21.6,18.24L611.89,484"/><polyline class="cls-13" points="299.12 394.51 327.32 396.34 355.52 398.17"/></svg>