<svg id="Illustrations" xmlns="http://www.w3.org/2000/svg" xmlns:xlink="http://www.w3.org/1999/xlink" viewBox="0 0 1000 1000"><defs><style>.cls-1{fill:#fc762b;}.cls-1,.cls-15,.cls-4,.cls-6{stroke:#070707;}.cls-1,.cls-11,.cls-13,.cls-15,.cls-2,.cls-3,.cls-4,.cls-5,.cls-6,.cls-7,.cls-8,.cls-9{stroke-linecap:round;}.cls-1,.cls-11,.cls-13,.cls-14,.cls-15,.cls-2,.cls-3,.cls-4,.cls-5,.cls-6,.cls-7,.cls-8,.cls-9{stroke-miterlimit:10;stroke-width:3px;}.cls-2{fill:#dbcaf4;}.cls-11,.cls-13,.cls-2,.cls-3,.cls-5,.cls-7,.cls-8,.cls-9{stroke:#000;}.cls-3{fill:url(#linear-gradient);}.cls-4{fill:#84a1e5;}.cls-5{fill:none;}.cls-6{fill:#f6c34c;}.cls-7{fill:#f6991a;}.cls-8{fill:#ece7e1;}.cls-9{fill:#f2b3c1;}.cls-10{fill:#020202;}.cls-11{fill:url(#linear-gradient-2);}.cls-12,.cls-14{fill:#040400;}.cls-13{fill:url(#linear-gradient-3);}.cls-14{stroke:#040400;}.cls-15{fill:#ff6406;}</style><linearGradient id="linear-gradient" x1="243.92" y1="394.77" x2="451.56" y2="35.13" gradientUnits="userSpaceOnUse"><stop offset="0.14" stop-color="#a4c2ff"/><stop offset="0.45" stop-color="#b5deed"/><stop offset="0.73" stop-color="#c6fcdb"/></linearGradient><linearGradient id="linear-gradient-2" x1="500.87" y1="720.18" x2="857.18" y2="514.46" gradientUnits="userSpaceOnUse"><stop offset="0.25" stop-color="#a4c2ff"/><stop offset="0.5" stop-color="#b5deed"/><stop offset="0.73" stop-color="#c6fcdb"/></linearGradient><linearGradient id="linear-gradient-3" x1="146.43" y1="837.15" x2="348.54" y2="487.08" gradientUnits="userSpaceOnUse"><stop offset="0.22" stop-color="#a4c2ff"/><stop offset="0.48" stop-color="#b5deed"/><stop offset="0.73" stop-color="#c6fcdb"/></linearGradient></defs><polygon class="cls-1" points="210.91 479.73 200.49 493.02 190.07 506.31 186.32 492.07 182.56 477.82 162.78 489.56 143 501.3 151.58 481.41 160.15 461.52 126.97 464.35 93.79 467.18 122 450.36 150.21 433.54 138.57 425.26 126.93 416.99 143.54 412.93 160.15 408.86 150.29 384.13 140.42 359.39 161.49 375.98 182.56 392.56 186.68 358.11 190.79 323.66 200.84 357.17 210.89 390.67 226.82 381.48 242.75 372.3 238.52 389.99 234.29 407.69 259.26 411.84 284.23 415.99 261.8 426.78 239.36 437.58 257.25 453.42 275.14 469.26 251.48 465.84 227.81 462.41 237.49 489.5 247.18 516.6 229.04 498.16 210.91 479.73"/><polygon class="cls-1" points="681.67 914.47 668.48 915.87 655.28 917.27 661.26 907.36 667.23 897.44 649.79 892.71 632.35 887.98 648.26 881.93 664.17 875.89 649.38 863.04 634.59 850.19 654.55 852.58 674.51 854.97 672.8 843.88 671.1 832.79 682.48 839.93 693.86 847.08 702.41 827.98 710.96 808.88 713.13 829.84 715.31 850.79 731.29 840.66 747.27 830.53 739.57 848.13 731.88 865.73 745.77 869.68 759.67 873.64 747.38 880.94 735.08 888.24 746.41 904.59 757.73 920.93 739.37 914.19 721 907.45 721.86 926.2 722.72 944.96 711.7 929.74 700.68 914.52 690.7 934.81 680.73 955.09 681.2 934.78 681.67 914.47"/><path class="cls-1" d="M646.84,272.7l17.52,36.4,17.51,36.41L688.6,305l6.73-40.52L724,271.34l28.72,6.86-14.9-25.85L723,226.51,792,212l69-14.55L790.47,189l-70.59-8.44,26.91-34.18,26.9-34.18-40.13,16-40.13,16-6.59-26.95-6.59-26.95-13.43,18.88-13.43,18.89L626.1,82.29,598.81,36.52l4.59,53.83L608,144.19l-32.27-13.92-32.27-13.91,19,32.09,19,32.1-23.12,6.09-23.11,6.1,21.57,16.9,21.57,16.89-23.74,30.75L531,288l40.71-12.69,40.7-12.7V316l17.23-21.67Z"/><path class="cls-2" d="M521.93,481.8l-63.7-5.51-63.7-5.51c-3.5,7.55-7.78,17-12.53,28.2s-10,24-15.32,38.17a897.66,897.66,0,0,0-31.34,100c-7.2,28.25-12.65,53.12-20.77,79.77a576.36,576.36,0,0,1-27.28,71.79A647.33,647.33,0,0,1,237,878.57l43.46,5.49q21.72,2.75,43.46,5.46l46.71,5.83c14.85,1.87,28.62,3.61,40.21,5.12,10.21-107,18.22-186.31,24.1-238.89s9.61-78.37,11.29-78.24,1.08,26.16-1.62,78.92-7.52,132.27-14.29,239.34c22.81-.66,54.81-6.09,86.8-11.51s64-10.86,86.79-11.52a455.12,455.12,0,0,1-40.25-84.24,386.68,386.68,0,0,1-17-65.77c-4-24.27-5.07-45-6.49-71.67s-3.25-59.12-8.84-106.8c-1.7-14.57-3.44-27.79-5-39.3S523.15,489.5,521.93,481.8Z"/><path class="cls-3" d="M335,82.13a120.59,120.59,0,0,1,14-30.94c9.67-14.82,24.73-28.36,46.3-23.22,0,0,9.07-6.88,19.9-8.12s23.39,3.18,30.4,25.78A59.35,59.35,0,0,0,451.68,58c4.25,6.57,10.87,14,20.31,17.26a25.47,25.47,0,0,0,4.79,1.13,36.9,36.9,0,0,0,4.93.34,29.59,29.59,0,0,1,20.77,8.55c5,5,7.79,11.46,7.31,17.45s-4.31,12-10.18,16.2a30,30,0,0,1-22.42,5,22.21,22.21,0,0,1-2.32,10.69c-2.81,6-8.91,13.44-22.07,18.94l3.26,5.35,3.26,5.35s18.79,2.26,29.72,28.06,14,75.14-17.49,169.33l-102.2,23.31-102.2,23.31a257.85,257.85,0,0,1-33.33-32.82A254.58,254.58,0,0,1,197.62,319a259.68,259.68,0,0,1-22.92-81.45c-3.11-28.34-1.37-57.14,6.2-84.19A164.28,164.28,0,0,1,204,103.92a133.81,133.81,0,0,1,39-37.51c16.17-10,33.18-13.42,49.13-10.66S323.05,67.45,335,82.13Z"/><path class="cls-2" d="M371.82,149.39a52.2,52.2,0,0,1,13.15.25,58.3,58.3,0,0,1,19.71,6.76c6.32,3.57,11.76,8.44,14.5,14.52a14.33,14.33,0,0,1,.92,2.7,9.84,9.84,0,0,1,.24,2.81,7.93,7.93,0,0,1-.67,2.76,6.55,6.55,0,0,1-1.68,2.25c-2.23,1.86-5.45,1.05-9.75-.24s-9.67-3.06-16.18-3.1a37.43,37.43,0,0,0-6.75.59,38.07,38.07,0,0,0-4.81,1.2,39.77,39.77,0,0,1-3.65-5.09,38.39,38.39,0,0,1-5-25.41Z"/><path class="cls-2" d="M309.53,564.15c.58-.77,1.41-1.81,2.49-3a51.32,51.32,0,0,1,4-4,49.61,49.61,0,0,1,25.78-12c8-1.23,14.56-.34,17.29.59a15.73,15.73,0,0,1,2.86,1.31,11.21,11.21,0,0,1,2.46,1.93,8.48,8.48,0,0,1,1.75,2.94,7.8,7.8,0,0,1,.5,2.75c-.12,3.17-4.2,5-9.79,7.23S344.17,566.56,338,571a41.83,41.83,0,0,0-8.49,8.22,57.28,57.28,0,0,0-8.3,15.11,53.93,53.93,0,0,1-4-4,32.11,32.11,0,0,1-6-8.63A30.56,30.56,0,0,1,309,571.33,32.76,32.76,0,0,1,309.53,564.15Z"/><path class="cls-4" d="M410.71,903.25c-1.23,8.66-12.06,15.12-28.59,18.56s-38.74,3.87-62.73.46-45.2-10-60.11-17.91S235.76,887.23,237,878.57s12.06-15.12,28.59-18.56,38.74-3.87,62.72-.46,45.21,10,60.12,17.91S411.94,894.59,410.71,903.25Z"/><path class="cls-5" d="M277.2,213.92s-1.8,24.85,9.08,58.69,34.43,76.68,85.12,112.67"/><path class="cls-6" d="M466.16,316.37a180.28,180.28,0,0,0-35.38.21,101.58,101.58,0,0,0-33.87,9.66,89.8,89.8,0,0,0-21.1,15.25c-6.39,6-12.29,12.55-18.16,18.87l.68-1.43c.35-.72.7-1.46.74-1.53.37-.78,1.16-2.36,2.69-5.33s3.81-7.33,7.14-13.68l-30.4-15.54-30.41-15.53-22.86,45.15-22.86,45.15a55.21,55.21,0,0,0-6.81,32.93,53.34,53.34,0,0,0,13.49,30.27,52.42,52.42,0,0,0,10.25,8.49,59,59,0,0,0,15.12,6.95,56.57,56.57,0,0,0,7.13,1.47,68.25,68.25,0,0,0,16.88.45c10.69-1.12,23.37-7.35,36.39-17.94s26.36-25.56,38.37-44.15q.33,13.68.67,27.35t.67,27.34l63.7,5.51,63.7,5.51q4.22-13.57,8.42-27.14t8.42-27.14c19.57,24.38,38.89,44.22,56.28,58.74S627.9,510,639.74,513.1a61.09,61.09,0,0,0,36-1.32,49.73,49.73,0,0,0,32.15-36,52.55,52.55,0,0,0,1.27-13.7,48,48,0,0,0-2.79-13.93c-1.52-4.4-3.47-8.68-5.38-13.19l-20.93-49.3-20.93-49.3-31.65,14.46-31.64,14.46,5,11.44c2.47,5.73,4.95,11.46,5,11.46.41,1-2.13-1.94-6.4-6.64s-10.3-11.19-16.87-17.44A156.09,156.09,0,0,0,540.74,336a226.33,226.33,0,0,0-33.5-12.22c-2.51-.73-7.62-2.16-14.69-3.6A221.21,221.21,0,0,0,466.16,316.37Z"/><path class="cls-7" d="M450.93,316.37s4.59,16.69,9.46,34.91,10,38,11.16,44.17l19-35.51,19-35.51c-4-1.37-8.48-2.75-13.47-4a150.49,150.49,0,0,0-16.37-3.08,152,152,0,0,0-15.56-1.23C459.38,316,454.93,316.13,450.93,316.37Z"/><path class="cls-8" d="M564.81,319.58a27.14,27.14,0,1,1-7.95-19.2A27.07,27.07,0,0,1,564.81,319.58Z"/><path class="cls-9" d="M519.23,295.43a48,48,0,0,1-15.75,29.09c-8,6.82-18,10.23-28.3,8.62s-18.8-8-24.29-16.9a49.58,49.58,0,0,1,9.69-61.6c8-6.82,18-10.23,28.31-8.62s18.8,8,24.29,16.9A48,48,0,0,1,519.23,295.43Z"/><path class="cls-9" d="M514.42,310.44c.66-1.32,1.34-2.82,2-4.48a50.66,50.66,0,0,0,3.2-13.44,50.06,50.06,0,0,0,.24-6.48,11.74,11.74,0,0,1,5.08.8,7.33,7.33,0,0,1,2.27,1.45c2.33,2.2,3,5.85,2.38,9.58a17.31,17.31,0,0,1-5.49,10,11.16,11.16,0,0,1-5.73,2.56A13.18,13.18,0,0,1,514.42,310.44Z"/><path class="cls-9" d="M444.7,298.8c-.18-1.34-.33-2.81-.42-4.4a50.85,50.85,0,0,1,0-5.1,51.46,51.46,0,0,1,2.44-13.44,10.8,10.8,0,0,0-4.54-1.14,5.73,5.73,0,0,0-2.35.46c-2.78,1.21-4.59,4.82-5,8.84s.51,8.46,3.21,11.35a10.67,10.67,0,0,0,3.48,2.45A13.7,13.7,0,0,0,444.7,298.8Z"/><path class="cls-10" d="M493.05,286.81a2.42,2.42,0,1,1-.71-1.72A2.43,2.43,0,0,1,493.05,286.81Z"/><path class="cls-10" d="M467.9,285.14a2.42,2.42,0,1,1-.71-1.72A2.43,2.43,0,0,1,467.9,285.14Z"/><path class="cls-5" d="M474.83,295.3l-2.27-2.1-2.28-2.09a.25.25,0,0,1-.07-.21.21.21,0,0,1,.16-.17l2.79-.69,2.79-.68.25-5,.24-5"/><path class="cls-5" d="M485.07,276a29.11,29.11,0,0,0,2.41,2.07,27.67,27.67,0,0,0,3.22,2.14,26.94,26.94,0,0,0,2.91,1.44c.91.39,1.78.7,2.55.95"/><path class="cls-5" d="M471.45,275c-.89.54-1.88,1.09-3,1.63s-2.3,1.08-3.6,1.58-2.35.83-3.44,1.14-2.12.56-3.06.75"/><path class="cls-5" d="M339.76,184.93s11.65,18,26.57,28.39,33.09,13.15,46.13-17.31a41.77,41.77,0,0,1-37.69-24.92,41.44,41.44,0,0,1-2.35-7,41.9,41.9,0,0,1-1.06-7.18,30.24,30.24,0,0,1,13-26.78,28.81,28.81,0,0,1,29.33-2.39l.62.31.63.32A38.89,38.89,0,0,1,432.27,148a48.2,48.2,0,0,1,2.43,28.51l6-5.27,6-5.26,8,2.74,8,2.74L461,167.81l-1.72-3.64"/><path class="cls-8" d="M486.27,306.53H475a.92.92,0,0,1-.94-.94h0a6.59,6.59,0,0,1,6.59-6.59h0a6.59,6.59,0,0,1,6.59,6.59h0a1,1,0,0,1-.28.67A.92.92,0,0,1,486.27,306.53Z"/><path class="cls-4" d="M467.87,305.7a35.76,35.76,0,0,0-1.49-3.85c-.48-1.07-.95-2-1.43-3.21A36.58,36.58,0,0,1,463.7,295c-.23-.76-.36-1.1-.64-1.11s-.58.54-.91,1.59-.76,2.61-1.56,4.6c-.55,1.37-1.29,2.76-1.89,4.19a10.65,10.65,0,0,0-1,4.42,5.06,5.06,0,0,0,1.67,3.56,5.47,5.47,0,0,0,3.67,1.46,5.11,5.11,0,0,0,4.3-2.22,5.81,5.81,0,0,0,.8-4.81c0-.17-.09-.33-.14-.5Z"/><path class="cls-5" d="M360.07,355.77l-10.38,19.66L339.31,395.1"/><polyline class="cls-5" points="607.8 388.18 617.67 412.65 627.54 437.11"/><path class="cls-5" d="M471.55,395.45a182.24,182.24,0,0,1,2.6,22.67,179.79,179.79,0,0,1-.73,28c-.62,5.89-1.49,11.43-2.52,16.59s-2.23,9.95-3.49,14.33"/><path class="cls-9" d="M576.87,305.63c3.07.78,6.35.85,8.49-1.27s3.13-6.44,1.65-14.41a59.49,59.49,0,0,0-16.58-31.35,68.27,68.27,0,0,0-8.31-7.05,56.24,56.24,0,0,0-10.38-5.94,31.18,31.18,0,0,0-4.3-1.48c-1.46-.4-2.94-.73-4.42-1a7.45,7.45,0,0,1-4.3-2.67,5.37,5.37,0,0,1,.75-7.86,7.67,7.67,0,0,1,4.47-1.78,35.86,35.86,0,0,1,4.39.06,29.2,29.2,0,0,1,8.72,1.82,17.53,17.53,0,0,1,3.62-2.41,14,14,0,0,1,5.92-1.5,12.48,12.48,0,0,1,3.83.5,42.83,42.83,0,0,1,4.17,1.52,43.81,43.81,0,0,1,4.41,2.07,46.08,46.08,0,0,1,5.45,3.45,14.57,14.57,0,0,1,3-.66,11.7,11.7,0,0,1,4,.2,11.86,11.86,0,0,1,3.76,1.55,16.52,16.52,0,0,1,2.84,2.29c1.8,1.79,3.57,3.62,5.29,5.47s3.42,3.72,5.06,5.6a251.14,251.14,0,0,1,22,29.31,267.41,267.41,0,0,1,17.68,32.14c2.22,4.78,4.26,9.22,6.11,13.26s3.51,7.7,5,10.92c-10.09,4.53-20.87,9.5-31.65,14.46s-21.55,9.93-31.64,14.46c-3.47-5.67-7.35-11.58-11.68-17.63s-9.11-12.26-14.39-18.52q-3.79-4.5-7.56-8.63t-7.48-7.9a24.22,24.22,0,0,1-6.21-10.92c-.76-3.38-.3-6.28,1.17-8.06a6.48,6.48,0,0,1,3.23-2.07,7.07,7.07,0,0,1,3.87,0,14.42,14.42,0,0,1,4.21,2.11,27.1,27.1,0,0,1,5.31,5.08,21.39,21.39,0,0,0,4.73,4.28A19.06,19.06,0,0,0,576.87,305.63Z"/><polygon class="cls-8" points="592.5 362.43 604.93 391.17 617.36 419.91 636.03 394.78 654.71 369.64 623.6 366.04 592.5 362.43"/><path class="cls-5" d="M557.05,232.65c.75.25,1.63.57,2.63,1s2.08.86,3.26,1.42c0,0,1.46.69,3.67,2a68.4,68.4,0,0,1,8.13,5.57,91.36,91.36,0,0,1,13.78,14.5c3.73,4.76,6.32,8.71,6.89,9.59"/><path class="cls-5" d="M583.37,235.51c.66.6,1.43,1.31,2.27,2.11s1.77,1.69,2.75,2.68c.58.57,1.73,1.73,3.26,3.35s3.44,3.71,5.53,6.15c1.31,1.53,2.73,3.25,4.23,5.14s3.08,4,4.7,6.2"/><path class="cls-9" d="M391.81,280.71c-3.11.63-6.38.53-8.41-1.69s-2.82-6.58-.94-14.47a59.47,59.47,0,0,1,18.11-30.48,67.82,67.82,0,0,1,8.65-6.64A57.09,57.09,0,0,1,419.89,222a32.92,32.92,0,0,1,4.36-1.26c1.48-.33,3-.58,4.48-.83a7.5,7.5,0,0,0,4.43-2.45,5.84,5.84,0,0,0,1.53-4.17,5.76,5.76,0,0,0-1.9-3.72,7.69,7.69,0,0,0-4.38-2,36.14,36.14,0,0,0-4.38-.16,29.28,29.28,0,0,0-8.8,1.39,17.07,17.07,0,0,0-3.49-2.58,14.25,14.25,0,0,0-5.84-1.81,12.61,12.61,0,0,0-3.85.32,40.53,40.53,0,0,0-4.24,1.31,44.56,44.56,0,0,0-4.51,1.84,46.66,46.66,0,0,0-5.62,3.18,14.51,14.51,0,0,0-2.93-.81,12.17,12.17,0,0,0-4,0,12,12,0,0,0-3.82,1.37,15.64,15.64,0,0,0-3,2.15c-1.88,1.69-3.74,3.43-5.56,5.19s-3.59,3.55-5.32,5.34a251.6,251.6,0,0,0-23.48,28.18,265.1,265.1,0,0,0-19.26,31.23c-2.46,4.66-4.72,9-6.76,12.94s-3.89,7.51-5.5,10.66q7.62,4,15.34,8t15.55,8q7.53,3.85,15,7.61t14.91,7.45a103.21,103.21,0,0,1,13.2-18.18c5-5.61,10.39-10.85,15.81-16,3.16-3,10.59-8.84,16.21-15.26s9.44-13.44,5.4-18.84a6.49,6.49,0,0,0-3.12-2.23,7,7,0,0,0-3.86-.17,14.28,14.28,0,0,0-4.32,1.89,27.54,27.54,0,0,0-5.55,4.81,21.49,21.49,0,0,1-4.94,4A19.24,19.24,0,0,1,391.81,280.71Z"/><path class="cls-8" d="M604.48,349.11a27.16,27.16,0,1,1-8-19.2A27,27,0,0,1,604.48,349.11Z"/><path class="cls-5" d="M415.23,208.81c-.76.21-1.66.49-2.67.83s-2.13.76-3.33,1.26c0,0-1.5.62-3.77,1.8a67.81,67.81,0,0,0-8.4,5.16,91.13,91.13,0,0,0-14.47,13.79c-4,4.57-6.75,8.39-7.36,9.24"/><path class="cls-5" d="M388.8,210.35c-.69.57-1.49,1.24-2.37,2s-1.85,1.6-2.88,2.54c-.61.54-1.81,1.64-3.42,3.18s-3.62,3.54-5.83,5.88c-1.39,1.46-2.9,3.1-4.49,4.91s-3.27,3.8-5,6"/><path class="cls-11" d="M900.48,648.92c-6-12.25-15.88-20.22-24.89-25.29a81.51,81.51,0,0,0-19.89-7.92A55.4,55.4,0,0,0,876,587.5a49.86,49.86,0,0,0-18-55.68,55,55,0,0,0-26.87-10.44,49.78,49.78,0,0,0,7.38-29.49,46.18,46.18,0,0,0-32.87-41.58,49.52,49.52,0,0,0-26.46-.65,53.93,53.93,0,0,0,2.73-21.38,48.8,48.8,0,0,0-6.09-20.59c-9.43-16.5-27.89-27.25-47.66-30.92s-40.85-.28-55.52,11.5a51.26,51.26,0,0,0-15.89,22.48A66.35,66.35,0,0,0,653,438.22L645.18,441l-7.81,2.77,5.7,4.55,5.71,4.56a14.19,14.19,0,0,0-3.61,4.7c-1.31,2.87-1.62,6.78,2.36,10.92a48.79,48.79,0,0,1,9.92-4.49,43.24,43.24,0,0,1,13.92-2.1,55.83,55.83,0,0,1,15,2.34c6.37,2,12.85,5.7,15.64,12.55.07.16.13.32.19.47s.11.32.16.47c1.48,4.29.17,8.93-1.87,12.84a33.62,33.62,0,0,1-6.28,8.41c-4.35,4-11.86,5.19-20.83,3.45s-19.41-6.4-29.63-14.11a40.46,40.46,0,0,0-.75,7.48,36,36,0,0,0,.41,5.57c.33,2.12.73,4.09,1.1,5.72s.73,2.93,1,3.73.46,1.45.67,2.07.41,1.17.58,1.63c-1.6-.34-3.52-.79-5.67-1.4s-4.55-1.36-7.1-2.32a85.42,85.42,0,0,1-12.78-6.05c-3.71-2.13-6.95-4.33-10.06-6.45-5-3.41-9.83-7.13-13.42-10s-5.94-4.88-5.94-4.88h0S588,486,582.36,490s-13.06,9.26-20.45,14.64c-3,2.16-5.67,4.15-8.09,5.95s-4.54,3.38-6.33,4.72l-19.85-8-19.85-8a10.85,10.85,0,0,0-8.46-.82,9.15,9.15,0,0,0-5.77,5,9,9,0,0,0-.24,6.09,10.86,10.86,0,0,0,3.83,5.47l17.13,11.4,17.14,11.39-.1.21a1.86,1.86,0,0,0-.1.2c-7.75-1.27-12.26,1.76-14.84,5.1a17.77,17.77,0,0,0-3.22,7c-9.79-1.54-14.49,1.72-16.74,5.37a14.86,14.86,0,0,0-2.06,7.67c-5.76,2.69-7.77,7.67-8.35,12a24.52,24.52,0,0,0,.29,8q4,13.39,6.71,27.12t4,27.65l2,20.88,2,20.88c.13,2,.29,3.91.47,5.86s.38,3.92.59,5.89c2.66,23.83,9.09,47,20.73,66.65s28.46,35.71,51.9,45.32a131.57,131.57,0,0,0,54.43,9.32,162.43,162.43,0,0,0,54.52-11.67,198.5,198.5,0,0,0,36.7-19.57,253.4,253.4,0,0,0,32.46-26.06c2.17-2,13.15-14.61,23.19-26.89s19.11-24.26,17.46-25.1l37.35,19,37.31,18.94c17.2-11.91,28.76-28,34.27-44.61S907.46,663.09,900.48,648.92Z"/><path class="cls-2" d="M699.51,492.23c.26-.48-9.09-7.16-10-7.72-8.16-5.05-19.57-8.82-29-5.1a11.2,11.2,0,0,0-2,1,8.16,8.16,0,0,0-1.72,1.49,6.11,6.11,0,0,0-1.15,2,5,5,0,0,0-.29,2.24c.35,3.49,3.47,5.68,7,7.47s7.6,3.21,9.79,5.15a21.2,21.2,0,0,1,2.3,2.45c.49.63.86,1.19,1.12,1.59a22.87,22.87,0,0,0,5.09.49,22,22,0,0,0,9.49-2.12A21.59,21.59,0,0,0,699.51,492.23Z"/><path class="cls-12" d="M679.62,445.63a3.82,3.82,0,0,1-3.83,3.83,3.78,3.78,0,0,1-2.71-1.12,3.83,3.83,0,0,1,0-5.41,3.83,3.83,0,0,1,6.54,2.7Z"/><polyline class="cls-5" points="672.94 433.65 685.17 428.88 697.4 424.11"/><path class="cls-5" d="M700.43,644.1c-5.62,21.72-16.47,38.21-28.71,48.6s-25.84,14.65-37,11.92a28.34,28.34,0,0,1-9-4,38.71,38.71,0,0,1-7.19-6.21A46.19,46.19,0,0,1,610,680.91a49.41,49.41,0,0,1-3.67-15.64l-2.77-39.75-2.76-39.76c-.39-5.53-.77-11.06-1.1-16.59s-.59-11.07-.76-16.61a26.76,26.76,0,0,0-1-6.67A23.85,23.85,0,0,0,588.67,533a24.91,24.91,0,0,0-4.51-2.54c-6.22-2.39-12.45-5-18.68-7.7S553,517.42,546.81,515"/><path class="cls-5" d="M569.4,558.8l-18.87-9.87-18.87-9.87a10.23,10.23,0,0,0-8.35-.65,9.84,9.84,0,0,0-5.93,5.78,9.71,9.71,0,0,0-.35,5.61,11,11,0,0,0,2.66,5,83.55,83.55,0,0,0,6.89,6.54c2.4,2.09,4.84,4.13,7.16,6.26,4.56,4.19,9.8,8.57,13.15,13.64s4.8,10.85,1.78,17.83c-.2.46-.42.91-.65,1.35s-.48.88-.73,1.31a45.15,45.15,0,0,0-3.83,9,50.8,50.8,0,0,0-2.23,17.5A52.85,52.85,0,0,0,545.66,647a51.4,51.4,0,0,0,6,10.28"/><path class="cls-5" d="M494.18,616.78a10.32,10.32,0,0,0,4.36,7.24,8.94,8.94,0,0,0,7.48,1.44,8.85,8.85,0,0,0,5.2-4.31,10.44,10.44,0,0,0,1-7.42,10.62,10.62,0,0,0,5,6.95,8.09,8.09,0,0,0,7,.85,7.94,7.94,0,0,0,4.21-4.82,10.79,10.79,0,0,0-.3-7.74,15.41,15.41,0,0,0,2.4,3.6,10.38,10.38,0,0,0,6.85,3.73,9.51,9.51,0,0,0,2.84-.22,10,10,0,0,0,2.1-.74"/><polyline class="cls-5" points="545.83 604.58 540.93 587.14 536.04 569.7"/><path class="cls-5" d="M513.16,550.36a49.76,49.76,0,0,0-.52,8.18,53.26,53.26,0,0,0,3.09,17.9l6.17,16.26L528.08,609"/><path class="cls-5" d="M494.36,563.4c0,.82,0,1.82.1,3s.17,2.44.35,3.84a57.64,57.64,0,0,0,1.87,9.16c.82,2.83,1.81,5.51,2.91,8.26,2.21,5.57,4.61,10.82,6.87,15.42s4.39,8.57,6.07,11.59"/><path class="cls-5" d="M643,496.18s-.12,13.74,7.47,26,22.9,23,53.76,17"/><path class="cls-13" d="M350.19,505.05a61.34,61.34,0,0,0-14.81-23.44c-11.09-11-29.58-20.44-59.12-14.45a54.81,54.81,0,0,0-19,8.34c-9.66,6.64-19.64,18.21-20.92,38,0,0-15.35-9-31.54-10.08s-33.25,5.72-36.65,37.31a49.4,49.4,0,0,0-50.5,8.07,48.62,48.62,0,0,0-16.38,48.4c4.59,20.7,19.49,33.31,36.76,37.21a55,55,0,0,0,51-15.15c-21.78,20.06-36.78,45.79-45.38,73.72a206,206,0,0,0-7,86.91,121.41,121.41,0,0,0,19.94,51.65c10.82,15.77,25.61,28.82,43.82,35.33,17.28,6.18,35.47,5.72,51.93,1.83a118.9,118.9,0,0,0,41.53-18.75c7.52-5.48,16-13.49,23.95-21.56s15.26-16.21,20.43-22c4.24-4.7,5.8-6.6,7.5-8.68s3.53-4.33,8.32-9.72c0,0,9.7-10.92,22.06-25.24s27.37-32,38-45.62a30.4,30.4,0,0,0,2.94-4.39,24,24,0,0,0,2.89-14.15,28.12,28.12,0,0,0-1.06-5.31,22.61,22.61,0,0,0,5.87-11.47c.61-3.77-.1-7.23-2-9.65a9.51,9.51,0,0,0-2.24-2,13.5,13.5,0,0,0-5.31-1.92,20,20,0,0,0,.08-9c-1.12-4.5-4.57-9-13.86-9.24a18.09,18.09,0,0,0-.24-8.45c-1.28-4-4.88-7.55-14.18-5.75L398.86,620l11.92-15.82a13.91,13.91,0,0,0,3.38-8,8.09,8.09,0,0,0-1.88-6.28c-1.59-1.61-4.43-2.33-7.47-1.81a13.69,13.69,0,0,0-8.72,5.57l-22,25.1-22,25.09q1.62-6.64,3.25-13.3t3.25-13.29a81.45,81.45,0,0,0,13-18.67c5.26-10.72,8-24.2-2-35.26-4.57,12.93-12.27,22.34-20.56,27.91s-17.19,7.3-24.14,4.84a18.81,18.81,0,0,1-5.43-3,24.86,24.86,0,0,1-4.19-4.27,29.7,29.7,0,0,1-5.73-12.8,33.19,33.19,0,0,1,.44-14.12,44.6,44.6,0,0,1,3.1-8.67,42.64,42.64,0,0,1,5.82-9A43.77,43.77,0,0,1,342.43,530a49.44,49.44,0,0,1,14.51-1.41l-1.55-4.76c-.52-1.58-1-3.17-1.55-4.76l6.73-3.7,6.72-3.7-8.55-3.32Z"/><path class="cls-5" d="M268,606.32a51.09,51.09,0,0,1-7.14,13.44,42.86,42.86,0,0,1-50.27,15.56A47,47,0,0,1,189,619.22"/><path class="cls-5" d="M352.1,643.92c-26.59,32.77-61,62.65-88.77,84.33s-48.88,35.18-48.88,35.18"/><path class="cls-14" d="M358.6,617.33a69.16,69.16,0,0,1-12.8,8.35,59.08,59.08,0,0,1-10.57,4.07,87,87,0,0,1-25.89,2.92c-6.77-.21-11.08-1-11.14-.63s2.57,1.05,10.61,2.69,21.52,4.15,43.18,8l3.3-12.69Z"/><path class="cls-5" d="M386.94,635.86c-4.17,4.49-10.79,11.28-17.42,18.07S356.27,667.51,352.1,672"/><polyline class="cls-5" points="401.36 650.06 383.6 668.7 365.83 687.33"/><polyline class="cls-5" points="415.14 668.25 397.87 685.57 380.6 702.89"/><polyline class="cls-5" points="418.85 693.28 411.18 701.04 403.5 708.79"/><path class="cls-12" d="M314.48,522.7a3.83,3.83,0,0,1-7.66,0,3.83,3.83,0,0,1,7.66,0Z"/><polyline class="cls-5" points="318.72 508.13 305.6 507.67 292.48 507.21"/><path class="cls-12" d="M440,124.45a3.82,3.82,0,1,1-1.12-2.71A3.82,3.82,0,0,1,440,124.45Z"/><polyline class="cls-5" points="456.05 120.5 450.96 108.39 445.87 96.29"/><path class="cls-8" d="M479.12,255a1,1,0,0,1,1.82.24,47.85,47.85,0,0,0,6.39,13.32,37,37,0,0,0,16.73,13.55,36.27,36.27,0,0,0,8.35,2.22,39.3,39.3,0,0,0,7.37.32A45.39,45.39,0,0,0,510.45,259a33.44,33.44,0,0,0-46.34-7.07,45.67,45.67,0,0,0-16.72,22c.67.14,1.31.25,1.93.32s1.2.12,1.76.14c7.14.25,13.29-3.22,18.09-7.45A55.39,55.39,0,0,0,479.12,255Z"/><path class="cls-15" d="M508.6,298.8a7.68,7.68,0,1,1-2.25-5.42A7.66,7.66,0,0,1,508.6,298.8Z"/><path class="cls-5" d="M461.51,355.51q3.84-5.28,7.66-10.57l7.65-10.57a1,1,0,0,1,1.68.07l6.81,11.31,6.81,11.32"/><path class="cls-8" d="M309.92,857.65c-2.88-.18-5.52-.29-7.88-.35s-4.44-.09-6.17-.1c-.38,3.36-.88,7.46-1.52,12.17s-1.45,10-2.43,15.85c-.9,5.31-1.63,9.3-2.32,12.48a51.28,51.28,0,0,1-2.16,7.63,34.8,34.8,0,0,1-9.38,13.41c-4.21,3.91-9.56,7.61-16.16,12.18-8.51,5.89-15.79,9.56-21.7,13.49s-10.43,8.14-13.42,15.11c-.21.49-.43,1-.64,1.58s-.42,1.15-.63,1.77l85.57-.21,85.57-.21q-.34-10.08-.54-20.42t-.24-20.94q0-10,.05-19.71t.31-19.26c-1.57-1-3.46-2.14-5.63-3.36s-4.64-2.53-7.37-3.85a125.51,125.51,0,0,0-15.46-6.28c-4.77-1.59-9.22-2.77-13.62-3.94-3.75-1-9.6-2.42-17.11-3.78A238,238,0,0,0,309.92,857.65Z"/><path class="cls-2" d="M225.51,962.87a43.47,43.47,0,0,0-1.77,7.59,48.88,48.88,0,0,0-.35,9.88H396.64v-9c0-3,0-6,0-8.94l-43.82.11Z"/><polyline class="cls-5" points="271.49 972.45 334.07 972.45 396.64 972.45"/><path class="cls-5" d="M285.19,870.35a82.15,82.15,0,0,0-5.62,8.3,49.12,49.12,0,0,0-4.22,9.07,30.32,30.32,0,0,0-1.28,9.84c.15,3.73,1.2,7.16,4.05,8,4.6,1.41,8.41-2.36,11.4-7.25s5.14-10.89,6.4-13.93a83.82,83.82,0,0,0,4.28-13.36,105.1,105.1,0,0,0,2.23-13.85A48,48,0,0,0,303.81,873a145.89,145.89,0,0,0,4.79,15.17,56.22,56.22,0,0,0,2.88,6.81,31.23,31.23,0,0,0,4,6.14,21.12,21.12,0,0,0,6.14,4.83c2.5,1.23,5.16,1.6,7.14-.32,1.37-1.33,1.67-3.69,1.53-6.14a39,39,0,0,0-1.1-6.59,41,41,0,0,0-2.36-6.9,55.18,55.18,0,0,0-3.42-6.45,72.71,72.71,0,0,0-8.6-11.31,79.82,79.82,0,0,0-10.55-9.53c-2.09-1.57-3.66-1.91-5.17-1.47s-3,1.68-4.84,3.26a50.82,50.82,0,0,0-4.82,4.69C288,866.83,286.55,868.57,285.19,870.35Z"/><path class="cls-5" d="M302.21,867.32a231,231,0,0,0,1.55,23.15c1.47,12.13,4.32,25.38,9.85,29.84"/><path class="cls-5" d="M301.13,869.86s-1.16,11-3.52,22.89-5.92,24.45-10.71,27.56"/><path class="cls-4" d="M430.18,903.25c1.23,8.66,12.07,15.12,28.59,18.56s38.74,3.87,62.73.46,45.2-10,60.11-17.91,23.52-17.13,22.29-25.79S591.84,863.45,575.31,860s-38.74-3.87-62.72-.46-45.21,10-60.12,17.91S429,894.59,430.18,903.25Z"/><path class="cls-8" d="M531,857.65c2.87-.18,5.51-.29,7.87-.35s4.44-.09,6.17-.1c.38,3.36.88,7.46,1.52,12.17s1.45,10,2.44,15.85c.9,5.31,1.62,9.3,2.31,12.48a51.28,51.28,0,0,0,2.16,7.63,34.8,34.8,0,0,0,9.38,13.41c4.21,3.91,9.56,7.61,16.16,12.18,8.51,5.89,15.79,9.56,21.7,13.49s10.43,8.14,13.42,15.11c.21.49.43,1,.64,1.58s.42,1.15.63,1.77l-85.57-.21-85.57-.21q.35-10.08.54-20.42t.24-20.94q0-10,0-19.71t-.31-19.26c1.57-1,3.46-2.14,5.63-3.36s4.64-2.53,7.37-3.85a125.51,125.51,0,0,1,15.46-6.28c4.77-1.59,9.22-2.77,13.62-3.94,3.75-1,9.6-2.42,17.11-3.78A237.88,237.88,0,0,1,531,857.65Z"/><path class="cls-2" d="M615.38,962.87a43.47,43.47,0,0,1,1.77,7.59,48.88,48.88,0,0,1,.35,9.88H444.25v-9c0-3,0-6,0-8.94l43.82.11Z"/><polyline class="cls-5" points="569.4 972.45 506.82 972.45 444.25 972.45"/><path class="cls-5" d="M554.7,870.35a82.15,82.15,0,0,1,5.62,8.3,49.12,49.12,0,0,1,4.22,9.07,30.32,30.32,0,0,1,1.28,9.84c-.15,3.73-1.2,7.16-4.05,8-4.6,1.41-8.41-2.36-11.4-7.25s-5.14-10.89-6.4-13.93a83.82,83.82,0,0,1-4.28-13.36,105.1,105.1,0,0,1-2.23-13.85A48,48,0,0,1,536.08,873a145.89,145.89,0,0,1-4.79,15.17,56.22,56.22,0,0,1-2.88,6.81,31.23,31.23,0,0,1-4,6.14,21.12,21.12,0,0,1-6.14,4.83c-2.5,1.23-5.16,1.6-7.14-.32-1.37-1.33-1.67-3.69-1.53-6.14a39,39,0,0,1,1.1-6.59A41,41,0,0,1,513,886a55.18,55.18,0,0,1,3.42-6.45,72.71,72.71,0,0,1,8.6-11.31,79.82,79.82,0,0,1,10.55-9.53c2.09-1.57,3.66-1.91,5.17-1.47s3,1.68,4.84,3.26a50.82,50.82,0,0,1,4.82,4.69C551.92,866.83,553.34,868.57,554.7,870.35Z"/><path class="cls-5" d="M537.68,867.32a231,231,0,0,1-1.55,23.15c-1.47,12.13-4.32,25.38-9.85,29.84"/><path class="cls-5" d="M538.76,869.86s1.16,11,3.52,22.89S548.2,917.2,553,920.31"/></svg>