<svg id="Illustrations" xmlns="http://www.w3.org/2000/svg" xmlns:xlink="http://www.w3.org/1999/xlink" viewBox="0 0 1000 1000"><defs><style>.cls-1,.cls-11,.cls-13,.cls-14,.cls-15,.cls-16,.cls-3,.cls-5,.cls-6{stroke:#000;}.cls-1,.cls-11,.cls-12,.cls-13,.cls-14,.cls-15,.cls-16,.cls-3,.cls-4,.cls-5,.cls-6,.cls-7,.cls-8,.cls-9{stroke-linecap:round;}.cls-1,.cls-11,.cls-12,.cls-13,.cls-14,.cls-15,.cls-16,.cls-2,.cls-3,.cls-4,.cls-5,.cls-6,.cls-7,.cls-8,.cls-9{stroke-miterlimit:10;stroke-width:3px;}.cls-1{fill:url(#linear-gradient);}.cls-2{fill:#040400;stroke:#040400;}.cls-3{fill:#ece7e1;}.cls-4{fill:#f6c34c;}.cls-12,.cls-4,.cls-7,.cls-8,.cls-9{stroke:#070707;}.cls-5{fill:#f2b3c1;}.cls-6{fill:#dbcaf4;}.cls-7{fill:#fc762b;}.cls-8{fill:#84a1e5;}.cls-11,.cls-9{fill:none;}.cls-10{fill:#020202;}.cls-12{fill:#ff6406;}.cls-13{fill:url(#linear-gradient-2);}.cls-14{fill:url(#linear-gradient-3);}.cls-15{fill:url(#linear-gradient-4);}.cls-16{fill:url(#linear-gradient-5);}</style><linearGradient id="linear-gradient" x1="830.81" y1="618.77" x2="830.81" y2="461.91" gradientUnits="userSpaceOnUse"><stop offset="0.18" stop-color="#a4c2ff"/><stop offset="0.44" stop-color="#b5deed"/><stop offset="0.68" stop-color="#c6fcdb"/></linearGradient><linearGradient id="linear-gradient-2" x1="135.85" y1="672.23" x2="135.85" y2="546.43" gradientUnits="userSpaceOnUse"><stop offset="0.08" stop-color="#a4c2ff"/><stop offset="0.35" stop-color="#b5deed"/><stop offset="0.6" stop-color="#c6fcdb"/><stop offset="0.95" stop-color="#fec2d9"/></linearGradient><linearGradient id="linear-gradient-3" x1="333.21" y1="394.42" x2="333.21" y2="336.49" xlink:href="#linear-gradient"/><linearGradient id="linear-gradient-4" x1="771.19" y1="721.56" x2="771.19" y2="651.97" gradientUnits="userSpaceOnUse"><stop offset="0.08" stop-color="#a4c2ff"/><stop offset="0.35" stop-color="#b5deed"/><stop offset="0.6" stop-color="#c6fcdb"/><stop offset="0.95" stop-color="#fec2d9"/></linearGradient><linearGradient id="linear-gradient-5" x1="239.1" y1="770.82" x2="239.1" y2="701.23" xlink:href="#linear-gradient"/></defs><path class="cls-1" d="M870.26,577.24c0-1.69,0-3.38,0-5.07s-.23-3.37-.43-5A98.51,98.51,0,0,0,867,553.33c-1.22-4.54-2.67-9-4.15-13.48q-6.63-19.89-14.3-39.41T832,461.91q-6.82,13.62-13,27.54t-11.8,28.08c-3.57,9.06-7.47,18.42-10.5,28s-5.21,19.35-5.34,29.24a55.1,55.1,0,0,0,1.57,14.13,41.82,41.82,0,0,0,5.6,13,37.89,37.89,0,0,0,15.71,13.28,38.72,38.72,0,0,0,20.31,3.45,39.29,39.29,0,0,0,19.12-7.66,40.22,40.22,0,0,0,12.9-16.1,43.41,43.41,0,0,0,2.68-8.59A52.78,52.78,0,0,0,870.26,577.24Z"/><path class="cls-2" d="M804.51,841.24c0,12.39-24.5,23.6-64.11,31.72s-94.33,13.13-154.77,13.13-115.16-5-154.77-13.13-64.11-19.33-64.11-31.72,24.5-23.6,64.11-31.71,94.33-13.14,154.77-13.14,115.16,5,154.77,13.14S804.51,828.86,804.51,841.24Z"/><path class="cls-3" d="M543.18,205.53a76.34,76.34,0,0,0-21.93-53.74,74,74,0,0,0-93.45-10.16A76,76,0,0,0,400.68,173a50.63,50.63,0,0,0-6.06-1.15,50.06,50.06,0,0,0-6.28-.4,50.93,50.93,0,0,0-37,16.12,57.07,57.07,0,0,0-.56,77.23,51.09,51.09,0,0,0,35.85,16.69v0l44.58-.19,44.59-.19h0a74.28,74.28,0,0,0,47.88-24.45A76.33,76.33,0,0,0,543.18,205.53Z"/><path class="cls-3" d="M518.26,399.58H511.8a89.14,89.14,0,0,0-112.75-85.89c.12-1.37.22-2.75.29-4.13s.1-2.79.1-4.19a89.08,89.08,0,0,0-177.24-12.7c-1.4-.14-2.81-.24-4.22-.31s-2.84-.1-4.27-.1a89.12,89.12,0,0,0-88.59,98.36,86,86,0,0,0,1.4,9,53.49,53.49,0,0,0-51.59,53.45h0a53.48,53.48,0,0,0,53.49,53.49H518.26a53.5,53.5,0,0,0,53.49-53.49h0a53.48,53.48,0,0,0-53.49-53.49Z"/><path class="cls-3" d="M870.56,289.22H864A90.82,90.82,0,0,0,749.07,201.7c.13-1.4.23-2.8.3-4.21s.1-2.84.1-4.27a90.77,90.77,0,0,0-180.62-12.95c-1.43-.13-2.86-.23-4.3-.3s-2.89-.11-4.35-.11a90.77,90.77,0,0,0-90.77,90.77,91.32,91.32,0,0,0,1.92,18.64,54.5,54.5,0,0,0-52.58,54.47h0a54.52,54.52,0,0,0,54.51,54.51H870.56a54.51,54.51,0,0,0,54.51-54.51h0a54.51,54.51,0,0,0-54.51-54.52Z"/><path class="cls-4" d="M733.07,634.62c-.49-8.6-1.2-19.23-2.28-31.51s-2.55-26.23-4.54-41.49c-2.38-18.22-4.21-32-6.36-42.86s-4.62-19-8.28-25.88c-7.76-14.64-19.45-27.45-33-37.4a117.06,117.06,0,0,0-44.51-20.26c-11.09-2.32-24.24-2.45-42.1-1s-40.43,4.64-70.37,8.85l-5.33.76-5.31.77c-15.92,2.37-31.16,4.59-45.3,9.26S438.48,465.69,427,477.83a130.07,130.07,0,0,0-15.58,20c-5.06,7.87-10.37,17.54-17.12,30.78-5.84,11.48-11.74,24.9-16.17,35.45s-7.42,18.24-7.42,18.25l21.08,4.21,61.65,12.33L439.9,640.72,426.37,682.6l141.57,4.21L709.51,691q.29-8.06.61-16.18t.68-16.27q.27-6.37.56-12.71t.61-12.64l10.55.7Z"/><path class="cls-5" d="M370.69,582.29l41.37,8.27,41.36,8.27-2.42,8-2.43,8,73,9.77,73,9.78v96.78l-99.32-10-99.32-10a52.75,52.75,0,0,1-37.9-22.1,51.89,51.89,0,0,1-8-43q.12-.52.27-1c.09-.35.18-.71.28-1.06l10-30.86Z"/><path class="cls-5" d="M367,757.93l46.75,9,46.74,9,23.68-93.25,23.67-93.26a65,65,0,0,0-11.26-12.86,58.74,58.74,0,0,0-40.91-15.19,61.72,61.72,0,0,0-26,6.06,66.71,66.71,0,0,0-24.11,20,77.53,77.53,0,0,0-12.32,24.4c-7.1,23.82-11.66,48.21-15.45,72.71S371,733.65,367,757.93Z"/><path class="cls-5" d="M574.46,393.72l-49.16,1.62L476.14,397A70.48,70.48,0,0,0,470.72,418a77.23,77.23,0,0,0,1.26,23.2c3.73,18.11,13.38,33.2,26,43s28.1,14.22,43.57,11,28-13.42,35.65-27.38,10.57-31.64,6.84-49.74a79.29,79.29,0,0,0-3.82-12.87A75.63,75.63,0,0,0,574.46,393.72Z"/><path class="cls-6" d="M368.4,751.84l50.91,8.07L470.23,768l-8.07,49.57-8.07,49.56q-53.67-8.4-107.47-16.49T239.16,834.13A.23.23,0,0,1,239,834a.25.25,0,0,1,0-.17,44,44,0,0,1,2.78-7.46,36.51,36.51,0,0,1,5.5-8.47c11.25-12.77,28.5-13,46.68-12.73s37.31.86,52.32-10.26A47.1,47.1,0,0,0,359,780.37C363,773.49,366.43,764.29,368.4,751.84Z"/><path class="cls-7" d="M310.34,806.57a3.67,3.67,0,0,0-.4.53,3.46,3.46,0,0,0-.31.64,11.36,11.36,0,0,0,.16,6.09,10.72,10.72,0,0,0,5.14,6.85,9.4,9.4,0,0,0,7.89.27,10.47,10.47,0,0,0,6-6.19,9.59,9.59,0,0,0,17.69-4.38,11.2,11.2,0,0,0,5.88,1,10.8,10.8,0,0,0,9.21-7.26,11.13,11.13,0,0,0,.28-6.35,10.46,10.46,0,0,0,7,0,9.72,9.72,0,0,0,5.19-4.38,9.61,9.61,0,0,0,1.11-5.87,10.37,10.37,0,0,0-2.53-5.61,11.09,11.09,0,0,0,2.62-.78,9.83,9.83,0,0,0,3.46-2.48,10.37,10.37,0,0,0-5-16.84,11.2,11.2,0,0,0-7.5.47c-.38,1.48-.87,3.22-1.54,5.17a64.9,64.9,0,0,1-2.57,6.37,71.28,71.28,0,0,1-5.69,10.44,42.38,42.38,0,0,1-17.93,15.24,57.18,57.18,0,0,1-7.33,2.76,49.16,49.16,0,0,1-5.61,1.33c-1.89.35-3.79.61-5.7.83-.89.1-1.79.18-2.69.27s-1.79.18-2.69.3a12.53,12.53,0,0,0-2.23.43A4.29,4.29,0,0,0,310.34,806.57Z"/><path class="cls-8" d="M239.45,834a.73.73,0,0,0-.52.12.69.69,0,0,0-.27.46l-.66,3.61-.66,3.61a6,6,0,0,0,1.17,4.67,6.59,6.59,0,0,0,4.21,2.5l67.18,10.24,67.18,10.24a5,5,0,0,0,5.75-4.35,1.06,1.06,0,0,1,.79-.91,1.09,1.09,0,0,1,1.15.4,13.61,13.61,0,0,0,1.51,3.18,9.27,9.27,0,0,0,3.73,3.34,7.92,7.92,0,0,0,.75.31,6.91,6.91,0,0,0,.74.22l10.67,1.63,10.67,1.63a4.08,4.08,0,0,0,3.09-.79,4.13,4.13,0,0,0,1.59-2.75,1.08,1.08,0,0,1,1.94-.51h0a17.4,17.4,0,0,0,11.29,6.78l8.05,1,8,1a5.54,5.54,0,0,0,6.32-4.65l.67-4.4.67-4.41L347,850Z"/><path class="cls-9" d="M400.9,858.06a60.57,60.57,0,0,1,9.5-25.51c8.32-12.42,23.81-24.16,52.43-21.44"/><path class="cls-10" d="M530.69,444.47a3,3,0,0,1,.09,2.27,3,3,0,0,1-5.48.22,3,3,0,0,1,5.39-2.49Z"/><path class="cls-10" d="M500.8,460.77a3,3,0,0,1,.09,2.27,2.93,2.93,0,0,1-1.54,1.67,3,3,0,0,1-4-3.72,3,3,0,0,1,3.81-1.76A3,3,0,0,1,500.8,460.77Z"/><path class="cls-11" d="M513.63,468.19,510,467l-3.59-1.15a.28.28,0,0,1-.1-.47l2.74-2.19,2.75-2.18-3.68-8-3.68-8"/><path class="cls-11" d="M522.76,477.22a9.32,9.32,0,0,1,1.12-4.84,9,9,0,0,1,8.62-4.67,9.34,9.34,0,0,1,5,2"/><polyline class="cls-11" points="515.71 435.62 524.45 433.06 533.2 430.51"/><path class="cls-11" d="M497.13,444.23l-7,6-7,6"/><path class="cls-5" d="M585.05,443.23c.28-1.92.52-4,.66-6.33s.17-4.75.06-7.36a72.56,72.56,0,0,0-3.43-19.21,16.07,16.07,0,0,1,7-1,9.28,9.28,0,0,1,3.41,1c3.85,2.05,6.08,7,6.46,12.35s-1.1,11.26-4.66,15.25a16.46,16.46,0,0,1-5,3.74A20.68,20.68,0,0,1,585.05,443.23Z"/><path class="cls-12" d="M554.67,447.15a7.37,7.37,0,1,1-4.14-3.82A7.35,7.35,0,0,1,554.67,447.15Z"/><path class="cls-12" d="M511.15,476.73a7.37,7.37,0,1,1-4.14-3.82A7.35,7.35,0,0,1,511.15,476.73Z"/><path class="cls-8" d="M514.47,364.12a50.3,50.3,0,0,0-23,11.5A59.93,59.93,0,0,0,476.14,397l49.16-1.63,49.16-1.62a66.07,66.07,0,0,0-26.27-24.81A51.32,51.32,0,0,0,514.47,364.12Z"/><path class="cls-2" d="M473.91,448.72a25.25,25.25,0,0,0,8.37-6.71c4.1-4.9,8-12.85,7.4-25.11a78.62,78.62,0,0,0,29.33,11c17.35,2.79,40.07.14,61.57-21.63-.31-.89-.65-1.83-1.05-2.8s-.84-2-1.33-3c-.63-1.31-1.28-2.52-1.94-3.65s-1.31-2.16-2-3.1l-49.09,1.63L476.14,397a55.27,55.27,0,0,0-4.51,14.49A79.36,79.36,0,0,0,473.91,448.72Z"/><path class="cls-8" d="M476.14,397h-18.4c-4.22,0-9.05-.45-13.49.13s-8.49,2.17-11.15,6.27a12.91,12.91,0,0,0-.75,13.49,18.26,18.26,0,0,0,10.8,8.67c.4.12.75.22,1.18.31s.93.19,1.61.32c6.11,1.09,12.25,1.72,16.85,2.07s7.68.43,7.68.43a83.07,83.07,0,0,1,.23-11.29C471.25,411,472.66,403.05,476.14,397Z"/><path class="cls-5" d="M460.48,775.91l50.59,10.24,50.58,10.24,21.84-104.1,21.84-104.1c-9.62-7.51-23.32-13-37.36-15.45s-28.41-1.92-39.39,2.63a64.82,64.82,0,0,0-29.39,24.76,71.15,71.15,0,0,0-8.74,18.61l-15,78.58Z"/><path class="cls-8" d="M709.51,691c.74,0,.46,10.94,0,22.37s-1.26,23.36-1.47,25.34c-.91,8.65-2.18,17.29-3.94,25.82a198.91,198.91,0,0,1-6.87,25.18c-10.92,31.35-32.63,52.41-59.29,64.08s-58.28,13.93-89,7.68q8.32-42.62,16.64-85.23T582.15,691H709.51Z"/><path class="cls-7" d="M686,768.91V724.68H708.9c.05-1,.1-1.95.15-2.95s.11-2,.16-3.05H686V691h-6v27.66H635.76V691h-6v27.66H585.53V691h-3.38q-.64,3.36-1.31,6.72t-1.31,6.72v14.22h-2.77c-.2,1-.39,2-.59,3s-.39,2-.59,3h3.95v44.23H567l-.58,3-.59,3h13.75v44.22H557.15l-.59,3-.58,3h23.55v39.73c1,0,2,0,3,0s2,0,3,0V825.13h44.23V857c1-.36,2-.73,3-1.12s2-.78,3-1.19V825.13h41.31c1.6-1.87,3.15-3.82,4.64-5.83s2.91-4.1,4.27-6.25V774.91h15.66q.39-1.5.75-3c.25-1,.48-2,.71-3H686Zm-56.22,50.22H585.53V774.91h44.23v44.22Zm0-50.22H585.53V724.68h44.23v44.23ZM680,819.13H635.76V774.91H680v44.22Zm0-50.22H635.76V724.68H680v44.23Z"/><path class="cls-5" d="M598,622.84,655,628l57,5.19c-1.93,9.84-6.55,30.9-15.81,51S673,723.48,652.53,729.51a64,64,0,0,1-16.36,2.26c-6.56.22-14.62,0-25.36-.23-6.95-.17-11.45-.58-20.09-1.51s-21.45-2.36-45-4.55l-13.94-1.32c-4.64-.44-9.29-.88-13.93-1.28-6.85-.59-14.12-1.84-21.38-2.67s-14.54-1.25-21.4-.16a46.41,46.41,0,0,0-15,5.31,58.31,58.31,0,0,0-12.72,9.56,34.39,34.39,0,0,0-3.26,3.78,48.47,48.47,0,0,0-2.74,4.18,17.9,17.9,0,0,1-5.31,5.83,9.26,9.26,0,0,1-6.09,1.71,8,8,0,0,1-1.83-.43,7.34,7.34,0,0,1-2.73-1.75,8.93,8.93,0,0,1-2.26-6.49,17.24,17.24,0,0,1,2.57-8.45c1.91-3.09,3.58-6,5-8.59s2.65-5,3.64-6.94a55.8,55.8,0,0,0,4.27-10.2,7.65,7.65,0,0,0-.15-5.24A8.23,8.23,0,0,0,437,700a10.46,10.46,0,0,0-1.91-1.65,10.34,10.34,0,0,0-5.25-1.81c-4.91-.28-9.49,2.2-13.49,5.8a58.47,58.47,0,0,0-10,12.46,44,44,0,0,0-3.57,7.17,54.48,54.48,0,0,0-2.37,7.67,26,26,0,0,1-3.56,8.71,9.94,9.94,0,0,1-5.36,4.31,10.35,10.35,0,0,1-3.92.26,8.61,8.61,0,0,1-1.66-.36,8.73,8.73,0,0,1-3.66-2.51,10.2,10.2,0,0,1-1.53-2.25,10.46,10.46,0,0,1-5.49,4.51,9.35,9.35,0,0,1-6.71-.12,9.24,9.24,0,0,1-4.21-3.56,10.42,10.42,0,0,1-1.63-5.52,11.65,11.65,0,0,1-3.41-.29,8.83,8.83,0,0,1-2.21-.84,12.19,12.19,0,0,1-5.59-7.44,24.58,24.58,0,0,1-.34-12,16.59,16.59,0,0,1-2.17-2.7,15,15,0,0,1-2-4.63,15.58,15.58,0,0,1,.56-8.87,18.32,18.32,0,0,1,2.28-4.39,136.2,136.2,0,0,1,13.24-17.23,131.08,131.08,0,0,1,41.34-30.69A134.3,134.3,0,0,1,445,632.28a145.61,145.61,0,0,1,21.9-1.07l63.88,1.63,63.88,1.63,1.68-5.81Z"/><polyline class="cls-9" points="660.13 727.39 663.71 744.44 667.28 761.48"/><path class="cls-9" d="M378.37,676.78A96.27,96.27,0,0,0,365,690.35a85.33,85.33,0,0,0-11.77,19.43c-.5,1.14-1,2.28-1.39,3.4s-.83,2.24-1.2,3.35"/><path class="cls-9" d="M392,682.6a104.24,104.24,0,0,0-29.26,50.55"/><path class="cls-9" d="M405.75,688.08a153.17,153.17,0,0,0-13.12,17.23c-6.46,9.89-12.71,22.33-11.9,32.53"/><path class="cls-3" d="M858.53,414.12c-.07-3-.21-6.06-.46-9.07a88.83,88.83,0,0,0-1.17-8.94,96.72,96.72,0,0,0-5.11-17.85,78.37,78.37,0,0,0-8.74-16.38,92.73,92.73,0,0,0-25.62-25.81,89.92,89.92,0,0,0-33.59-13.87q-4.12-.78-8.3-1.17c-2.79-.26-5.58-.38-8.38-.38A90.26,90.26,0,0,0,702.45,348a94.18,94.18,0,0,0-26.8,66.1c0,2.74.12,5.46.34,8.14s.57,5.33,1,8h-5.23a39.7,39.7,0,0,0-28,11.57,38.17,38.17,0,0,0-11.36,27.91,38.68,38.68,0,0,0,38.68,37.9H800.11a58.1,58.1,0,0,0,36-12.94,55.21,55.21,0,0,0,20.06-32.51,135.38,135.38,0,0,0,2-16.56c.35-5.55.44-11.13.41-16.68,0-2.44,0-4.9,0-7.37S858.58,416.6,858.53,414.12Z"/><path class="cls-3" d="M435.34,524.56c-.07-3.1-.2-6.2-.46-9.28s-.64-6.13-1.2-9.13a99.35,99.35,0,0,0-5.22-18.26,80.48,80.48,0,0,0-8.94-16.75,95.09,95.09,0,0,0-26.19-26.39A92,92,0,0,0,359,430.57q-4.22-.79-8.49-1.19t-8.56-.4a92.28,92.28,0,0,0-66.16,28,96.27,96.27,0,0,0-27.41,67.58c0,2.81.12,5.58.35,8.33s.58,5.45,1,8.13H244.4a40.57,40.57,0,0,0-28.66,11.83,39,39,0,0,0-11.62,28.53,39.58,39.58,0,0,0,39.55,38.76H375.61a59.48,59.48,0,0,0,36.83-13.24,56.4,56.4,0,0,0,20.5-33.24A137.53,137.53,0,0,0,435,556.73c.36-5.67.45-11.37.42-17.05,0-2.5,0-5,0-7.53S435.4,527.09,435.34,524.56Z"/><path class="cls-13" d="M167.49,638.92c0-1.35,0-2.71,0-4.06s-.18-2.71-.35-4.05a80.23,80.23,0,0,0-2.23-11.06c-1-3.64-2.14-7.24-3.33-10.82q-5.32-15.95-11.47-31.61t-13.26-30.89q-5.46,10.92-10.45,22.08T116.9,591c-2.87,7.27-6,14.77-8.42,22.45a81,81,0,0,0-4.28,23.44,44.18,44.18,0,0,0,1.25,11.34,33.67,33.67,0,0,0,4.5,10.38,30.36,30.36,0,0,0,12.59,10.65,31,31,0,0,0,16.3,2.77,31.55,31.55,0,0,0,15.33-6.14A32.22,32.22,0,0,0,164.51,653a34.53,34.53,0,0,0,2.15-6.88A42.24,42.24,0,0,0,167.49,638.92Z"/><path class="cls-14" d="M347.78,379.08c0-.62,0-1.25,0-1.87s-.09-1.25-.16-1.86a36.85,36.85,0,0,0-1-5.1c-.45-1.68-1-3.33-1.54-5q-2.44-7.35-5.28-14.55t-6.1-14.23q-2.52,5-4.81,10.17T324.48,357c-1.32,3.34-2.76,6.8-3.88,10.33a37.66,37.66,0,0,0-2,10.8,20,20,0,0,0,.58,5.22,15.18,15.18,0,0,0,2.07,4.78,14,14,0,0,0,5.8,4.91,14.24,14.24,0,0,0,7.5,1.27,14.48,14.48,0,0,0,7.06-2.83,14.76,14.76,0,0,0,4.76-5.94,16.21,16.21,0,0,0,1-3.17A20.46,20.46,0,0,0,347.78,379.08Z"/><path class="cls-15" d="M788.69,703.14c0-.75,0-1.5,0-2.25s-.11-1.5-.2-2.24a43.92,43.92,0,0,0-1.23-6.12c-.54-2-1.19-4-1.85-6q-2.92-8.84-6.34-17.49T771.72,652q-3,6-5.78,12.22t-5.24,12.45c-1.58,4-3.31,8.17-4.66,12.42a44.94,44.94,0,0,0-2.36,13,24.51,24.51,0,0,0,.69,6.27,18.24,18.24,0,0,0,2.49,5.74,16.76,16.76,0,0,0,7,5.9,17.31,17.31,0,0,0,9,1.53,17.56,17.56,0,0,0,8.48-3.4,17.76,17.76,0,0,0,5.72-7.15,19.48,19.48,0,0,0,1.19-3.8A24.14,24.14,0,0,0,788.69,703.14Z"/><path class="cls-6" d="M462,768.16l50.73,9.13,50.74,9.13q-4.56,24.71-9.11,49.39t-9.11,49.38q-53.46-9.53-107.09-18.73T331,847.72a.19.19,0,0,1-.14-.09.25.25,0,0,1,0-.17,45,45,0,0,1,2.93-7.4,36.51,36.51,0,0,1,5.69-8.35C351,819.18,368.22,819.35,386.4,820s37.29,1.64,52.52-9.16A46.94,46.94,0,0,0,452,796.49C456.12,789.7,459.73,780.57,462,768.16Z"/><path class="cls-7" d="M402.77,821.66a3.48,3.48,0,0,0-.41.52,4.79,4.79,0,0,0-.33.64,11.42,11.42,0,0,0,0,6.09,10.75,10.75,0,0,0,5,7,9.44,9.44,0,0,0,7.89.43,10.49,10.49,0,0,0,6.1-6.06,9.59,9.59,0,0,0,17.78-4,11.11,11.11,0,0,0,5.85,1.16,10.8,10.8,0,0,0,9.36-7.06,11.21,11.21,0,0,0,.41-6.35,10.43,10.43,0,0,0,7,.1A9.55,9.55,0,0,0,468,804a10.42,10.42,0,0,0-2.42-5.66,11.74,11.74,0,0,0,2.64-.73,9.85,9.85,0,0,0,3.5-2.41,10.32,10.32,0,0,0,2.63-6,10.25,10.25,0,0,0-7.25-10.94,11.22,11.22,0,0,0-7.52.32c-.4,1.46-.94,3.2-1.65,5.13a61.58,61.58,0,0,1-2.7,6.32,70.46,70.46,0,0,1-5.91,10.31A43.39,43.39,0,0,1,438,811.46a44.72,44.72,0,0,1-6.89,3.72,57,57,0,0,1-7.39,2.6,51.29,51.29,0,0,1-5.63,1.22c-1.89.3-3.81.52-5.72.7l-2.69.22c-.9.07-1.8.14-2.7.24a12.52,12.52,0,0,0-2.24.39A4.31,4.31,0,0,0,402.77,821.66Z"/><path class="cls-8" d="M331.32,847.56a.67.67,0,0,0-.52.11.73.73,0,0,0-.29.45l-.73,3.6-.74,3.59a6,6,0,0,0,1.08,4.7,6.6,6.6,0,0,0,4.16,2.59l67,11.64,66.95,11.65A5.06,5.06,0,0,0,472,885a5,5,0,0,0,2-3.35,1.06,1.06,0,0,1,.82-.89,1,1,0,0,1,1.13.42,13.61,13.61,0,0,0,1.45,3.22,9.34,9.34,0,0,0,3.66,3.41,7.87,7.87,0,0,0,.74.32,5.31,5.31,0,0,0,.74.24l10.63,1.85,10.63,1.85a4.07,4.07,0,0,0,4.75-3.44,1.09,1.09,0,0,1,2-.47h0a17.13,17.13,0,0,0,4.88,4.61,17.34,17.34,0,0,0,6.27,2.41l8,1.14,8,1.14a5.55,5.55,0,0,0,6.41-4.51l.77-4.4.76-4.39L438.49,865.86Z"/><path class="cls-9" d="M492.23,875a60.56,60.56,0,0,1,10-25.31c8.58-12.24,24.31-23.65,52.87-20.33"/><path class="cls-9" d="M712,633.22,655,628l-57-5.19q2.9-12.89,5.8-25.78l5.79-25.77"/><path class="cls-16" d="M256.6,752.39c0-.75,0-1.5,0-2.25s-.1-1.5-.19-2.24a44.24,44.24,0,0,0-1.24-6.12c-.54-2-1.18-4-1.84-6-2-5.88-4.07-11.72-6.34-17.48s-4.72-11.47-7.34-17.09c-2,4-3.94,8.1-5.78,12.21s-3.58,8.27-5.23,12.46c-1.59,4-3.32,8.17-4.66,12.41a45.08,45.08,0,0,0-2.37,13,24,24,0,0,0,.7,6.27,18.5,18.5,0,0,0,2.48,5.75,16.83,16.83,0,0,0,7,5.89,17.06,17.06,0,0,0,9,1.53,17.33,17.33,0,0,0,8.48-3.4,17.82,17.82,0,0,0,5.73-7.14,19.57,19.57,0,0,0,1.19-3.81A24,24,0,0,0,256.6,752.39Z"/><path class="cls-11" d="M306.53,789.36a79.39,79.39,0,0,1-5.63-8.29,50.09,50.09,0,0,1-4.22-9.07,30.68,30.68,0,0,1-1.28-9.84c.16-3.73,1.2-7.16,4.06-8,2.24-.69,5.6,1.82,8.94,5.89a59.84,59.84,0,0,1,8.86,15.28,75.19,75.19,0,0,1,4.3,18.33c.6,5.17.6,8.74.73,8.73s0-.26,0-.51,0-.51,0-.51a46,46,0,0,1,1.36-13.52A91.78,91.78,0,0,1,328,774.87c1.37-3.34,3.74-9.34,7-14.25s7.44-8.7,12.43-7.64a4.87,4.87,0,0,1,2.83,1.87,7.18,7.18,0,0,1,1.38,3.26c.55,3.59-.26,7.63-1.65,11.52a58.45,58.45,0,0,1-5.18,10.57,73.4,73.4,0,0,1-8.61,11.31A79.19,79.19,0,0,1,325.64,801c-2.09,1.57-3.65,1.91-5.16,1.46s-3-1.68-4.84-3.25a49.84,49.84,0,0,1-4.83-4.7C309.31,792.89,307.89,791.14,306.53,789.36Z"/><path class="cls-11" d="M399.59,805.48a79.39,79.39,0,0,1-5.63-8.29,50.09,50.09,0,0,1-4.22-9.07,30.4,30.4,0,0,1-1.28-9.84c.16-3.73,1.2-7.16,4.05-8,2.25-.69,5.61,1.82,8.95,5.89a60,60,0,0,1,8.86,15.29,74.5,74.5,0,0,1,4.29,18.32c.6,5.17.61,8.74.74,8.73s0-.26,0-.51,0-.51,0-.51a34.37,34.37,0,0,1,1-10c.77-3.32,1.86-6.58,2.88-9.67a138.36,138.36,0,0,1,4.9-13.46,36.41,36.41,0,0,1,7.92-11.8,16.33,16.33,0,0,1,4.5-3.06,5.16,5.16,0,0,1,7.86,3.93,14.51,14.51,0,0,1,.07,5.08,52.14,52.14,0,0,1-9.17,21.73,77.18,77.18,0,0,1-16.66,16.94c-2.09,1.57-3.65,1.91-5.17,1.46s-3-1.68-4.84-3.25a52,52,0,0,1-4.82-4.69C402.36,809,401,807.27,399.59,805.48Z"/><polyline class="cls-8" points="603.67 597.68 667.39 602.26 731.11 606.85"/></svg>