<svg id="Illustrations" xmlns="http://www.w3.org/2000/svg" xmlns:xlink="http://www.w3.org/1999/xlink" viewBox="0 0 1000 1000"><defs><style>.cls-1,.cls-7{fill:#040400;}.cls-1{stroke:#040400;}.cls-1,.cls-10,.cls-11,.cls-12,.cls-13,.cls-14,.cls-15,.cls-16,.cls-17,.cls-2,.cls-3,.cls-4,.cls-5,.cls-6,.cls-9{stroke-miterlimit:10;stroke-width:3px;}.cls-2{fill:#d87d61;}.cls-10,.cls-11,.cls-12,.cls-13,.cls-14,.cls-2,.cls-3,.cls-5,.cls-6,.cls-9{stroke:#000;}.cls-10,.cls-11,.cls-12,.cls-13,.cls-14,.cls-15,.cls-16,.cls-17,.cls-2,.cls-3,.cls-4,.cls-5,.cls-6,.cls-9{stroke-linecap:round;}.cls-3,.cls-8{fill:none;}.cls-4{fill:#f6991a;}.cls-15,.cls-16,.cls-17,.cls-4{stroke:#070707;}.cls-5{fill:#dbcaf4;}.cls-6{fill:#ece7e1;}.cls-9{fill:url(#linear-gradient);}.cls-10{fill:url(#linear-gradient-2);}.cls-11{fill:url(#linear-gradient-3);}.cls-12{fill:url(#linear-gradient-4);}.cls-13{fill:url(#linear-gradient-5);}.cls-14{fill:url(#linear-gradient-6);}.cls-15{fill:#ff6406;}.cls-16{fill:#84a1e5;}.cls-17{fill:#f6c34c;}</style><linearGradient id="linear-gradient" x1="420.73" y1="619.39" x2="537.96" y2="416.35" gradientUnits="userSpaceOnUse"><stop offset="0.15" stop-color="#fec2d9"/><stop offset="0.45" stop-color="#e2c8ef"/><stop offset="0.52" stop-color="#dbcaf4"/><stop offset="0.9" stop-color="#a4c2ff"/></linearGradient><linearGradient id="linear-gradient-2" x1="635.38" y1="869.88" x2="635.38" y2="757.75" gradientUnits="userSpaceOnUse"><stop offset="0.11" stop-color="#fec2d9"/><stop offset="0.39" stop-color="#e2c2e5"/><stop offset="0.91" stop-color="#a4c2ff"/></linearGradient><linearGradient id="linear-gradient-3" x1="432.31" y1="820.42" x2="488.41" y2="764.33" gradientUnits="userSpaceOnUse"><stop offset="0.25" stop-color="#a4c2ff"/><stop offset="0.5" stop-color="#b5deed"/><stop offset="0.73" stop-color="#c6fcdb"/></linearGradient><linearGradient id="linear-gradient-4" x1="573.14" y1="536.39" x2="591.52" y2="536.39" xlink:href="#linear-gradient-3"/><linearGradient id="linear-gradient-5" x1="555.11" y1="619.68" x2="624.8" y2="619.68" xlink:href="#linear-gradient-3"/><linearGradient id="linear-gradient-6" x1="553.46" y1="718.47" x2="571.93" y2="718.47" xlink:href="#linear-gradient-3"/></defs><path class="cls-1" d="M543,593.51a53.92,53.92,0,0,1-16.65-2.71,59.34,59.34,0,0,1-15.84-8,74.09,74.09,0,0,1-17-17,109.17,109.17,0,0,1-13-24q-1.08-2.7-2-5.46c-.65-1.84-1.25-3.69-1.87-5.56q-4.47,9.36-15.39,16.73T433,560.25c-4.42,1.36-9,2.63-13.61,3.59a77.36,77.36,0,0,1-13.83,1.72,26.17,26.17,0,0,1-4,1.48,25.85,25.85,0,0,1-4.14.8,5.79,5.79,0,0,1-1.41,1,6.58,6.58,0,0,1-1.72.58,6.89,6.89,0,0,1-3.42-.18,5.29,5.29,0,0,1-2.59-1.75,4.64,4.64,0,0,1-1-2.37,5.07,5.07,0,0,1,.46-2.59,30.94,30.94,0,0,1-3-1.47,31.73,31.73,0,0,1-2.91-1.8,36.65,36.65,0,0,1-7.23-6.69,56.7,56.7,0,0,1-5.37-7.67,57.49,57.49,0,0,1-6.53,2.83,51,51,0,0,1-6.65,1.9,60.56,60.56,0,0,1-12.65,1.31,65.45,65.45,0,0,1-30.82-7.81,63.25,63.25,0,0,1-23.48-21.55,38.63,38.63,0,0,1-5.85-14.7,23.3,23.3,0,0,1,1.46-13.17,56.5,56.5,0,0,1-3.64-6.33,52.19,52.19,0,0,1-2.67-6.56,69.25,69.25,0,0,1-2.8-12.32,88.31,88.31,0,0,1-.75-12.61,43.6,43.6,0,0,1-7.1-12.6,92.7,92.7,0,0,1-3.79-13.6c-.5-2.33-1-4.83-1.4-7.46s-.76-5.37-1-8.19a46.53,46.53,0,0,1-9.78-6.08,40,40,0,0,1-7.56-8.11,32.66,32.66,0,0,1-5.43-14.77,35.84,35.84,0,0,1,1.74-16.16,29.58,29.58,0,0,1,4.89-8.84,25.11,25.11,0,0,1,7.2-6.15,38.3,38.3,0,0,1-7.66-3.54,36,36,0,0,1-6.65-5.16,38.49,38.49,0,0,1-9.5-37.91c2.77-8.94,8.29-15.83,15.12-21.66S259,275,267,270.36c1.64-1,3.3-1.93,4.94-2.91s3.28-2,4.85-3c.91-.57,1.81-1.16,2.7-1.75s1.78-1.19,2.66-1.81a56.38,56.38,0,0,1,1.44-7.23,58.85,58.85,0,0,1,2.4-7.07c.17-2.6.37-5.19.57-7.78s.44-5.17.67-7.76a115.65,115.65,0,0,1,1.64-11.49A84.15,84.15,0,0,1,292.3,207c-.65-1.28-1.26-2.59-1.82-3.93s-1.08-2.71-1.55-4.09a46.09,46.09,0,0,0-15,9.6A145,145,0,0,0,260.57,223c-6.18,7.4-12.24,15.07-16.55,23.09a53.53,53.53,0,0,0-5.12,13.12,39,39,0,0,0-1,6.79c-.13,2.63,1.17,6.41-1.61,8.1a3.84,3.84,0,0,1-5.11-1.25,7.35,7.35,0,0,1-.56-3.45,43.56,43.56,0,0,1,.08-4.57,52,52,0,0,1,4.61-17.43q.94-2.1,2-4.14c4.7-9,11.25-17.28,17.63-24.92a146.76,146.76,0,0,1,14.62-15.63A52.77,52.77,0,0,1,287,192c0-.07,0-.15-.05-.23s0-.15-.05-.23a59,59,0,0,1-.42-22.48,50.6,50.6,0,0,1,8-19.79,44,44,0,0,1,5.46-6.5,32.93,32.93,0,0,1,8.6-6.13,32.54,32.54,0,0,1-3.5-4.37,30.53,30.53,0,0,1-2.67-4.84,26.18,26.18,0,0,1-2.28-10.12,22.39,22.39,0,0,1,2-9.6,11.45,11.45,0,0,1,.73-1.34,9.4,9.4,0,0,1,.86-1.18,9.27,9.27,0,0,1,5.13-3.14c2.57-.54,6-.07,10.37,3a56.88,56.88,0,0,1,12.95,12.49,63.15,63.15,0,0,1,8.77,16.38c.26-7.62,2.94-15.49,8-25.22s12.59-21.31,22.47-36.35a35.27,35.27,0,0,1,5.86-7.11,15.3,15.3,0,0,1,8.57-4,13.69,13.69,0,0,1,4.89.36,17.76,17.76,0,0,1,4.44,1.85,28.63,28.63,0,0,1,10.46-5.2,32.4,32.4,0,0,1,12.27-.85,28.74,28.74,0,0,1,12.64,4.59,23.3,23.3,0,0,1,8.2,9.46,28.12,28.12,0,0,1,2.46,13.56,41.27,41.27,0,0,1-4,15.07l1.92,1.54,1.87,1.5.66.53.66.53A57.81,57.81,0,0,1,444.08,96a31.79,31.79,0,0,1,3.5-7.62A32.69,32.69,0,0,1,458,78.45a65,65,0,0,1,12-5.67c1.36-.51,2.74-1,4.13-1.45s2.78-.9,4.18-1.32q-.14-2.76-.24-5.52c-.07-1.84-.13-3.69-.17-5.53a30.22,30.22,0,0,1,.93-9.7,14.55,14.55,0,0,1,7.85-9.08,18.25,18.25,0,0,1,8-1.88A20,20,0,0,1,503,40.12a37.49,37.49,0,0,1,13,9.8,41.34,41.34,0,0,1,8,14.79c4.16.23,8.31.66,12.42,1.27s8.2,1.43,12.23,2.44a66.33,66.33,0,0,1,13.91,5.2,54.17,54.17,0,0,1,11.51,7.76,33,33,0,0,1,8.76,11.94,24.08,24.08,0,0,1,1.49,13.22A29.54,29.54,0,0,1,580.33,117a73.34,73.34,0,0,1-6.7,9l-1,1.18-1,1.17V129c0,.19,0,.38,0,.56,0,.36,0,.72-.06,1.07s-.06.7-.1,1l14.26,1.78L600,135.19a48.91,48.91,0,0,1,7.34-10,31,31,0,0,1,10.14-7.06,19.59,19.59,0,0,1,3.81-1.18,22.11,22.11,0,0,1,4.11-.45h.87l.85,0a19.73,19.73,0,0,1,1.45-2.15,21,21,0,0,1,1.71-1.94,19.38,19.38,0,0,1,12.2-5.68,17.76,17.76,0,0,1,13.77,5.36,65.1,65.1,0,0,1,4.54,4.87,63.12,63.12,0,0,1,4,5.28c.32.46.62.93.93,1.4s.6,1,.89,1.43a22.6,22.6,0,0,1,6.71-3.09,20.83,20.83,0,0,1,7.27-.69,16.21,16.21,0,0,1,7.9,2.83,15.83,15.83,0,0,1,5.29,6.43,17.8,17.8,0,0,1,1.19,11.17,19.3,19.3,0,0,1-5.75,10,24.61,24.61,0,0,1-5.36,3.84,25.45,25.45,0,0,1-6.14,2.3c.38,3,.63,6.13.73,9.27s.07,6.31-.11,9.53a56.18,56.18,0,0,1,11.57,12,54.48,54.48,0,0,1,7.55,15.07,42.61,42.61,0,0,0,5.65,1.62,40,40,0,0,0,5.7.78c-.17-1-.34-2.09-.47-3.15S708.06,201,708,200A28.78,28.78,0,0,1,710.28,187a24.4,24.4,0,0,1,7.37-10,15.16,15.16,0,0,1,6.69-3,14,14,0,0,1,7.09.68,15.2,15.2,0,0,1,7.72,6.24,16.65,16.65,0,0,1,2.54,9.9A20.76,20.76,0,0,1,735,205a31.62,31.62,0,0,1-13,7.16c-.74.21-1.48.39-2.23.56s-1.5.31-2.25.43a69.89,69.89,0,0,1,1.37,10.19,30.61,30.61,0,0,1-1.2,10.34,25.61,25.61,0,0,1-4.55,8.66,29.36,29.36,0,0,1-7.2,6.38,27.83,27.83,0,0,1,.81,15.14,34.42,34.42,0,0,1-7.16,14.76,45.19,45.19,0,0,1-7.14,6.85,59.73,59.73,0,0,1-7.9,5.1c.36.31.72.61,1.1.89s.77.55,1.17.82c4.06,2.65,9.94,4.06,17,2.89s15.38-4.92,24.26-12.58a138.28,138.28,0,0,1,8.79-48.14,28.38,28.38,0,0,1,3.59-7.09,13.09,13.09,0,0,1,8.45-5.39,13.51,13.51,0,0,1,8.88,1.56,14.77,14.77,0,0,1,6.26,6.85,21.21,21.21,0,0,1,.88,14.75,46.72,46.72,0,0,1-6.22,12.76,154.57,154.57,0,0,1-22.14,26.78l-.59.57-.6.56c.09,3.77.34,7.58.69,11.39s.79,7.62,1.27,11.39a59.61,59.61,0,0,1,6,2.27,52.36,52.36,0,0,1,5.73,3,49.78,49.78,0,0,1-24,91.87l-.75,0h-.74a157.38,157.38,0,0,1-6.06,23.92,182.3,182.3,0,0,1-10.06,23.88,129.62,129.62,0,0,1,9.63,24.35,127.65,127.65,0,0,1,4.51,25.87,73.53,73.53,0,0,1,.1,10.36,41.21,41.21,0,0,1-2.34,11.39c-4,10.8-12.65,17.64-21.65,22a81.73,81.73,0,0,1-23.88,6.85,111.1,111.1,0,0,1-25.45.6A83.25,83.25,0,0,1,626,549.69l-1.54,1.4-1.55,1.4c-3.3,3-6.83,6.17-10.67,9.12a63.38,63.38,0,0,1-12.57,7.73,51,51,0,0,1-8.29,2.9,56,56,0,0,1-8.52,1.48,105.49,105.49,0,0,1-10,9,53.83,53.83,0,0,1-12,7.24,43.88,43.88,0,0,1-8.67,2.64A47.91,47.91,0,0,1,543,593.51Zm-58.62-62.24c.44,1.33.89,2.65,1.37,4s1,2.62,1.49,3.92a101.64,101.64,0,0,0,12,22.17,67.54,67.54,0,0,0,15.48,15.54,51.07,51.07,0,0,0,21.76,8.81A40.12,40.12,0,0,0,558,583.3a42.43,42.43,0,0,0,7.42-4.12,65.65,65.65,0,0,0,6.68-5.28,110,110,0,0,1-20-3.22c-6.7-1.65-13.4-3.75-20-5.93-3.47-1.15-10.49-3.48-16.73-7.63s-11.68-10.15-12-18.64a18.93,18.93,0,0,1,.22-3.71,18.69,18.69,0,0,1,.88-3.5,66.37,66.37,0,0,1-8.66.47c-3,0-6-.16-9.17-.35l-1.1-.06Zm29.69-2.39a16,16,0,0,0-2.62,4.35,12.05,12.05,0,0,0-.87,5c.15,4,2.18,7.64,6.12,10.9s9.8,6.16,17.64,8.75a238.29,238.29,0,0,0,23.1,6.67,82.57,82.57,0,0,0,22,2.22l0,0,0,0q7.58-7.81,13.83-15.52a175.18,175.18,0,0,0,11.14-15.27,59.65,59.65,0,0,1-7-8.3,54.64,54.64,0,0,1-5.2-9.22l-23.95.58-24,.59c-3.11.07-6.27.15-9.38.41a48,48,0,0,0-9.09,1.57,50.46,50.46,0,0,1-5.1,3.85,37.26,37.26,0,0,1-5.67,3.07l-.53.22ZM610,540.72q-3.9,5.94-8.58,11.94t-10.12,12c.89-.27,1.79-.57,2.67-.9s1.77-.69,2.64-1.09A57,57,0,0,0,608,555.64c3.55-2.75,6.86-5.74,10-8.55l.39-.35.39-.36c-1.55-.83-3.06-1.71-4.51-2.66S611.4,541.77,610,540.72ZM398,557.85q1.44.21,2.91.33c1,.07,2,.11,3,.12a24.72,24.72,0,0,0,4.78-3.46,27,27,0,0,0,3.7-4.17,27.41,27.41,0,0,0,3.21-5.89,23.11,23.11,0,0,0,1.59-6.92,61.69,61.69,0,0,0-7.34,3.84,56,56,0,0,0-6.79,4.89,23,23,0,0,0-3.83,4.07c-1.24,1.77-2.12,3.83-1.66,5.81.05.2.12.42.19.65S397.88,557.6,398,557.85Zm26.43-22.72a28.63,28.63,0,0,1-1.27,10,33.83,33.83,0,0,1-4.89,9.73c-.25.36-.52.71-.79,1.06s-.54.69-.82,1c2.41-.47,4.81-1,7.2-1.66s4.75-1.31,7.07-2a105.83,105.83,0,0,0,23.71-10.1q9.4-5.7,13.86-12.68a194.93,194.93,0,0,0-22.39.51A101.72,101.72,0,0,0,424.4,535.13Zm-48.87,6a50.75,50.75,0,0,0,4.55,6.56,30.37,30.37,0,0,0,5.94,5.55q1,.68,2,1.26c.69.38,1.38.73,2.1,1.06a14.47,14.47,0,0,1,2-7.39,26.59,26.59,0,0,1,6.18-7.16,64.54,64.54,0,0,1,8.55-6.07,70.62,70.62,0,0,1,9.22-4.58c-.15-.39-.31-.78-.49-1.18s-.38-.78-.59-1.16a30.87,30.87,0,0,0-4.32-5.83c-1.68-1.82-3.54-3.58-5.46-5.38l-1.11-1-1.09-1c-1.16-1.11-2.29-2.24-3.37-3.36s-2.13-2.26-3.13-3.4a40.12,40.12,0,0,1-6.72,18.88A52.8,52.8,0,0,1,375.53,541.15Zm256.49,3A80.36,80.36,0,0,0,653.75,548a107.87,107.87,0,0,0,19.09-.89,75.76,75.76,0,0,0,21-5.84c7.87-3.64,15.36-9.35,18.7-18.31a34,34,0,0,0,1.91-9.65,67.18,67.18,0,0,0-.11-9.05,120.34,120.34,0,0,0-3.6-22,121.86,121.86,0,0,0-7.51-20.89c-1.05,1.86-2.14,3.72-3.26,5.56s-2.28,3.69-3.48,5.52a284.46,284.46,0,0,1-29.75,37.62C655.82,521.9,644.1,533.09,632,544.17ZM290.29,500.71a22.22,22.22,0,0,0,1.59,10.19,37.84,37.84,0,0,0,3.39,6.74,56.58,56.58,0,0,0,25.22,21.05,57.15,57.15,0,0,0,32.62,4.09,28,28,0,0,1-9.18-4.95,65.32,65.32,0,0,1-7.55-7.19,71,71,0,0,1-6.55-8.52c-.79-1.2-1.54-2.41-2.26-3.64s-1.41-2.47-2.07-3.73l-.67.09-.67.08a36.26,36.26,0,0,1-18.69-3.1A47.48,47.48,0,0,1,290.29,500.71Zm323.62,33.82c1.28,1,2.62,2,4,2.89s2.83,1.77,4.31,2.56l1.16.6,1.16.57q7.41-6.75,14.61-13.57t14.07-13.83a49,49,0,0,1-12.75,3.06c-4.29.49-8.56.6-12.57.7l-2.76.06-2.77.07q-1.71,4.18-3.83,8.41T613.91,534.53ZM332.8,513c.49.87,1,1.74,1.51,2.61s1.05,1.71,1.6,2.55a64.61,64.61,0,0,0,5.85,7.62,57.79,57.79,0,0,0,6.73,6.41,20.71,20.71,0,0,0,7.81,4,20.49,20.49,0,0,0,8.54.36q-2.28-4.72-4.22-9.62T357.1,517a15.64,15.64,0,0,1,1.16-12.86,16.93,16.93,0,0,1,9.12-7.37,16.42,16.42,0,0,1,11.45.21,15.29,15.29,0,0,1,8.64,9.22c.17.46.34.92.49,1.38s.29.94.42,1.4c.06.24.13.48.19.72s.12.48.17.72c0,.07,0,.14.05.21s0,.13,0,.2c.2-1,.35-2.07.45-3.13a31.2,31.2,0,0,0,.11-3.22,33.71,33.71,0,0,0-.24-3.5,34.31,34.31,0,0,0-.61-3.39l-.63-1-.62-1a114.93,114.93,0,0,1-12.3-1.12c-4-.56-7.89-1.28-11.56-2q-1.23,1.17-2.52,2.28c-.86.75-1.73,1.47-2.61,2.19-3.55,2.89-7.44,6.06-11.68,8.94A59.18,59.18,0,0,1,332.8,513ZM373,503a10.39,10.39,0,0,0-1.68.15,11.57,11.57,0,0,0-1.59.41,9.57,9.57,0,0,0-5.09,4,8.54,8.54,0,0,0-.62,7.2q1.56,5,3.49,9.77c1.28,3.22,2.69,6.38,4.2,9.47l.44-.25.43-.26a21.12,21.12,0,0,0,7.63-8.31A19.37,19.37,0,0,0,381.66,512l-.14-.56c0-.18-.09-.36-.14-.54-.11-.37-.22-.74-.34-1.11s-.24-.73-.38-1.09a8.74,8.74,0,0,0-3.29-4.4A7.8,7.8,0,0,0,373,503Zm227.25,15.14a47.72,47.72,0,0,0,3.64,5.89,50.43,50.43,0,0,0,4.52,5.45c1.13-2,2.2-3.92,3.19-5.87s1.92-3.88,2.78-5.82l-7.07.18ZM395.9,495.45a82.07,82.07,0,0,0,5.51,7.06c2,2.34,4.25,4.68,6.67,7l1.06,1,1.08,1c2,1.92,4.11,3.87,6,6a37.88,37.88,0,0,1,5.13,7c.3.55.59,1.12.85,1.69s.49,1.15.71,1.73a105.62,105.62,0,0,1,19.21-3.85,173.16,173.16,0,0,1,19.69-1,44.46,44.46,0,0,1-8.68-2.9,69.21,69.21,0,0,1-9.24-5.07A101.59,101.59,0,0,1,429.57,504a104.48,104.48,0,0,1-12.22-13.7,53.71,53.71,0,0,1-10.53,3.61A67.16,67.16,0,0,1,395.9,495.45Zm86.35,28.41,2.41.14,2.38.14c4.24.25,8.28.43,12.09.27a39.93,39.93,0,0,0,10.78-1.75A29.53,29.53,0,0,1,514.2,519a28.73,28.73,0,0,1,4.7-2.66c.56-.25,1.13-.49,1.69-.71s1.14-.42,1.71-.61c1-.88,1.93-1.79,2.86-2.72s1.84-1.88,2.73-2.83a134.23,134.23,0,0,0,17-21.76,78.74,78.74,0,0,0,9.26-21.14A59.2,59.2,0,0,0,556,455.48a55.56,55.56,0,0,0-.31-10.82q-2.85.66-5.75,1.14c-1.94.32-3.89.59-5.87.79s-4.16.37-6.27.46-4.21.12-6.33.08q0,.74,0,1.47c0,.49,0,1,0,1.47-.52,11.65-4.83,22.35-10.53,31.72A141.41,141.41,0,0,1,502,505.52a102.88,102.88,0,0,1-9.41,8.81,49.16,49.16,0,0,1-11,6.88l.33,1.33C482,523,482.13,523.42,482.25,523.86Zm-58.53-37.23A96.89,96.89,0,0,0,434.86,499a93.47,93.47,0,0,0,13,10.11,52.9,52.9,0,0,0,12.46,6.16,26.74,26.74,0,0,0,11,1.32l.56-.07.55-.07a28.06,28.06,0,0,0-3.47-12.3c-2.6-5-7-11.05-14.4-18.24a119.91,119.91,0,0,0-9.2-8.12,84.55,84.55,0,0,0-8.92-6.2A42,42,0,0,1,431,480,37.75,37.75,0,0,1,423.72,486.63ZM483,451a138.37,138.37,0,0,0-5.05,31.3A140.4,140.4,0,0,0,480,513.93a43.61,43.61,0,0,0,8.74-5.85,101.54,101.54,0,0,0,8-7.59c11.8-12.32,18.53-22.51,22.37-30.87a51.71,51.71,0,0,0,5-19.87c0-.5,0-1,0-1.49s0-1,0-1.49a117.83,117.83,0,0,1-12-1.61q-6-1.11-12-2.84a93.84,93.84,0,0,1-8.41,4.81A92.69,92.69,0,0,1,483,451Zm79.72-8.22a62.76,62.76,0,0,1,.53,12.68,66.24,66.24,0,0,1-2.08,13,85.31,85.31,0,0,1-9.4,21.94,136.89,136.89,0,0,1-16.9,22.3c1.61-.13,3.2-.22,4.77-.28s3.11-.1,4.61-.13l22.76-.56,22.77-.55a46,46,0,0,1-1.6-10.9,39.12,39.12,0,0,1,2-13.48,30.88,30.88,0,0,1,6.26-10.87,30.38,30.38,0,0,1,10-7.25A45.2,45.2,0,0,1,620,465a91.29,91.29,0,0,0-5.67-15.51,148,148,0,0,0-9.41-17c-1-1.64-2.14-3.32-3.3-5s-2.37-3.4-3.65-5.11a89.39,89.39,0,0,1-16.27,12A94.69,94.69,0,0,1,562.7,442.75Zm58.81,29.42A38.89,38.89,0,0,0,610,475a23.67,23.67,0,0,0-8.2,5.76,24,24,0,0,0-4.82,8.55,32.28,32.28,0,0,0-1.53,10.77,38.65,38.65,0,0,0,.52,5.47,41,41,0,0,0,1.31,5.41l10-.24,10-.25a85.7,85.7,0,0,0,4.56-19.41,72.16,72.16,0,0,0-.35-18.82v-.09Zm7.3-.32a79.33,79.33,0,0,1,.41,19,91.32,91.32,0,0,1-4.15,19.45l1.33,0,1.33,0c4.07-.1,8.22-.2,12.26-.69a39.43,39.43,0,0,0,11.61-3,23.24,23.24,0,0,0,8.31-6.42,14.59,14.59,0,0,0,3.51-9.9c-.35-6.21-4.86-10.51-10.54-13.36a51.15,51.15,0,0,0-17.61-4.69c-1.12-.1-2.22-.17-3.3-.22S629.84,471.86,628.81,471.85ZM293.51,493.4a41.76,41.76,0,0,0,12.68,10.73,29.89,29.89,0,0,0,16,3.66c-1.58-3.61-3-7.29-4.28-11s-2.48-7.45-3.61-11.17c-1.18.09-2.36.22-3.53.39s-2.34.36-3.51.6a35,35,0,0,0-7.22,2.25A19,19,0,0,0,293.51,493.4Zm28.29-8c1.1,3.56,2.25,7.12,3.52,10.63s2.64,7,4.18,10.35a50.94,50.94,0,0,0,13-6.57c4.06-2.73,7.82-5.8,11.23-8.59l.46-.37.45-.37c-5.42-1.2-10.9-2.4-16.38-3.34A113.7,113.7,0,0,0,321.8,485.42Zm306.32-20.84c1.24,0,2.51,0,3.8.09s2.62.14,4,.26a61.53,61.53,0,0,1,11.94,2.19,46.7,46.7,0,0,1,10.2,4.25,27.49,27.49,0,0,1,9.1,8.09,20.1,20.1,0,0,1,3.55,10.35,18.72,18.72,0,0,1,0,2.69,21.91,21.91,0,0,1-.46,2.81q5.48-6.39,10.55-13.07t9.66-13.71q2.42-3.69,4.62-7.43t4.21-7.5c-.32-.58-.65-1.16-1-1.73s-.67-1.15-1-1.71A56.11,56.11,0,0,1,677,459.94a35.28,35.28,0,0,1-23-1.78,24.88,24.88,0,0,1-7.73-5.56,29.52,29.52,0,0,1-5.46-8.23c-.66-.12-1.33-.27-2-.43s-1.3-.33-1.93-.52a46.74,46.74,0,0,1-13-6.42,97.29,97.29,0,0,1-10.71-8.74q-1.59-1.47-3.15-3t-3.08-3c.74,1.07,1.47,2.13,2.17,3.19s1.38,2.11,2,3.14a154.57,154.57,0,0,1,10.28,18.75,95.55,95.55,0,0,1,6,17.23h.7Zm-189.06.1.38.21.37.22a89.19,89.19,0,0,1,9.79,6.74,124.15,124.15,0,0,1,10,8.81c1.77,1.72,3.65,3.62,5.51,5.69a81.15,81.15,0,0,1,5.46,6.66,148,148,0,0,1,.77-19.86,146.41,146.41,0,0,1,3.42-19.55A81.94,81.94,0,0,1,461,456.06a75.29,75.29,0,0,1-13.76,0c-1.12-.1-2.25-.24-3.37-.42s-2.24-.39-3.35-.64c0,.44,0,.89,0,1.34s-.06.9-.1,1.35c-.11,1.18-.28,2.36-.5,3.52S439.38,463.54,439.06,464.68Zm-51.54,14c1.09,1.53,2.11,3.09,3,4.69a49.5,49.5,0,0,1,2.51,4.92,63.38,63.38,0,0,0,10.85-1.25,46.89,46.89,0,0,0,10.32-3.38,16.29,16.29,0,0,1,.28-8.34,18.13,18.13,0,0,1,3.84-6.86,17.91,17.91,0,0,1,6-4.37,16.32,16.32,0,0,1,7.71-1.44c.27-.93.5-1.87.68-2.81s.31-1.88.4-2.83q.11-1.09.12-2.16c0-.71,0-1.4-.06-2.09a46.5,46.5,0,0,1-12.92-7.44,30.68,30.68,0,0,1-8.52-10.82c-2.09,1.54-4.23,3-6.44,4.47s-4.48,2.84-6.82,4.19a64.76,64.76,0,0,1-2.39,13,58,58,0,0,1-5,12.08c-.13.25-.27.49-.41.73s-.28.48-.43.72c-.55.93-1.14,1.83-1.76,2.69s-1.26,1.68-1.93,2.48l.24,1.05c.08.34.17.69.26,1s.15.57.23.85S387.44,478.42,387.52,478.7Zm-18.15,7.47c2.23.41,4.52.79,6.85,1.11s4.7.59,7.09.78c-.47-1-.9-2.05-1.3-3.08s-.77-2.06-1.11-3.1c-.12-.17-.25-.33-.38-.5l-.38-.5a34.79,34.79,0,0,1-10.77,5.29Zm-87-23.7a69.06,69.06,0,0,0,1,8.14,60.37,60.37,0,0,0,2,7.92,46.57,46.57,0,0,0,1.73,4.43,48.08,48.08,0,0,0,2.23,4.34,27,27,0,0,1,7.07-4.76,40.9,40.9,0,0,1,9.39-3c1.06-.22,2.12-.41,3.19-.57s2.12-.3,3.18-.41l-1.4-4.74-1.4-4.73a61.57,61.57,0,0,1-14-1.3A39.35,39.35,0,0,1,282.36,462.47Zm50.72,3.66a29.64,29.64,0,0,0,8,8.32,32.11,32.11,0,0,0,9.41,4.56,30.31,30.31,0,0,0,6.31,1.13,31.41,31.41,0,0,0,6.89-.23c.14-.4.27-.8.37-1.21a10.41,10.41,0,0,0,.23-1.24,13.88,13.88,0,0,0-.35-4.85,42.64,42.64,0,0,0-1.57-5.08c-.31-.88-.63-1.75-1-2.63s-.66-1.74-1-2.61c-.45-.35-.9-.7-1.36-1l-1.36-1q-5.79,1.69-11.94,3.17T333.08,466.13Zm95.8,4.07a10.22,10.22,0,0,0-2.88,1.25,10.92,10.92,0,0,0-2.23,1.89,10.56,10.56,0,0,0-1.78,2.73,9.62,9.62,0,0,0-.86,3.41,31.52,31.52,0,0,0,4.26-4.23A34.85,34.85,0,0,0,428.88,470.2ZM320,478.12c2.55,0,5.1.12,7.65.33s5.09.51,7.62.88a36,36,0,0,1-5.56-5.4,35.4,35.4,0,0,1-4.24-6.43c-1.37.23-2.78.44-4.24.63s-2.93.37-4.44.51l1.21,4.11,1.22,4.11c.06.21.13.42.19.63s.12.42.19.63h.4Zm51-6.94a25.17,25.17,0,0,1,.49,3.13,19.33,19.33,0,0,1,0,3.23c.64-.3,1.28-.63,1.91-1s1.25-.75,1.87-1.17c-.69-.72-1.39-1.42-2.11-2.12S371.78,471.87,371,471.18Zm-4.62-13.39c2.06,1.63,4.11,3.3,6.11,5s4,3.51,5.84,5.35a46.73,46.73,0,0,1,.33-8.22,43.55,43.55,0,0,1,1.71-7.79c-2.26.95-4.56,1.88-6.91,2.77s-4.75,1.75-7.2,2.57l.06.15Zm24-10.24a33.5,33.5,0,0,0-3.12,7.21,38.58,38.58,0,0,0-1.51,8.05,52.43,52.43,0,0,0,3-7.49,57.23,57.23,0,0,0,1.9-7.93l-.15.08Zm-108.15,5.56h0a28.21,28.21,0,0,0,11.46,6.66,47.9,47.9,0,0,0,13.46,2l-6.29-21.27-6.3-21.28-.68,0-.68.05c-.91.06-1.82.1-2.72.13s-1.79,0-2.68,0a23.33,23.33,0,0,0-.95,2.34,19.38,19.38,0,0,0-.68,2.45c-1,4.75-1.88,9.56-2.58,14.38A131.45,131.45,0,0,0,282.24,453.11Zm19.67-34.76,6.39,21.59,6.39,21.59c1.4-.11,2.78-.25,4.13-.42s2.68-.34,4-.54A37.58,37.58,0,0,1,321.7,455a40.4,40.4,0,0,1-.27-5.86l.26-9.37.25-9.38q-3.22-3.4-6.05-6.82t-5.28-6.85c-1.44.31-2.88.61-4.33.88S303.37,418.13,301.91,418.35ZM329,437.41l-.17,6-.16,6a33.1,33.1,0,0,0,.26,5.25,28.9,28.9,0,0,0,1,4.73q5.31-1,10.38-2.14t9.9-2.44l-.13-.1-.13-.09-.39-.28-.39-.29q-5.64-4.12-10.69-8.28T329,437.41Zm320.47,7.73a20.59,20.59,0,0,0,3.36,3.77,17,17,0,0,0,4.06,2.63,28.8,28.8,0,0,0,15.91,1.8,43.81,43.81,0,0,0,20.47-9.29q-1.59-2.32-3.29-4.56t-3.5-4.41A96.2,96.2,0,0,1,675.39,440a91.24,91.24,0,0,1-11.55,3.39q-3.87.86-7.45,1.29A61.61,61.61,0,0,1,649.5,445.14Zm-310-35.9A228,228,0,0,1,352.6,429.4a222.52,222.52,0,0,1,10.87,21.39c3.9-1.31,7.66-2.69,11.3-4.17s7.15-3,10.54-4.67c.6-.89,1.24-1.76,1.92-2.6s1.4-1.64,2.15-2.41q.5-.51,1-1c.34-.33.69-.64,1.05-.95a65.57,65.57,0,0,0-11.17-34c-3.16.74-6.34,1.4-9.53,2s-6.38,1.21-9.56,1.79c-2.88.53-5.8,1.06-8.71,1.62s-5.8,1.16-8.61,1.79l-2.19.51Zm100.25,38.17c1.27.34,2.58.63,3.94.87s2.77.42,4.23.56a70,70,0,0,0,14.6-.24,77.56,77.56,0,0,0,14.56-3.25q.81-2.6,1.72-5.16t1.91-5.07q-4.49-2-8.92-4.41T463,425.65a35.72,35.72,0,0,1-16.26,5.23,47.08,47.08,0,0,1-18.65-2.55c-1-.33-2-.7-3-1.09s-2-.8-2.94-1.25l-1,.95-1.07.94a28,28,0,0,1,6.13,2.21,25.62,25.62,0,0,1,10.57,9.8A26.6,26.6,0,0,1,439.74,447.41ZM329.29,427.54q5.08,5.15,11.14,10.28t13.09,10.3l.38.28.39.28.17.13.17.13a215.23,215.23,0,0,0-10.39-19.41q-5.7-9.45-12.32-18.31l-1.1.3-1.1.3-.21,7.86Zm373.54,17.85.14.23c0,.08.09.15.14.23.1-.22.21-.45.32-.67s.21-.45.31-.68l-.45.45ZM421,435.78a27.56,27.56,0,0,0,4.11,4.3,32.87,32.87,0,0,0,5.44,3.71,18.71,18.71,0,0,0-1.69-2.45,18.36,18.36,0,0,0-2.08-2.15,18,18,0,0,0-2.73-2A18.89,18.89,0,0,0,421,435.78ZM269.24,416.87q.3,2.65.78,5.47c.31,1.88.67,3.82,1.1,5.82.55,2.6,1.16,5.22,1.89,7.78a57.32,57.32,0,0,0,2.67,7.42c.38-3.45.89-6.9,1.47-10.33s1.24-6.84,1.94-10.21c.12-.61.27-1.24.45-1.87s.38-1.26.61-1.9c-1.9-.21-3.77-.5-5.59-.87S271,417.38,269.24,416.87ZM487.4,438c-.26.65-.52,1.3-.77,2s-.49,1.31-.73,2c.86-.4,1.71-.81,2.56-1.23s1.68-.87,2.51-1.33l-1.79-.66Zm20.41-1.14c2.6.61,5.2,1.14,7.78,1.57s5.17.77,7.74,1a48,48,0,0,0-1.77-6.6,50.68,50.68,0,0,0-2.68-6.38q-2.37,2.63-5,5.09t-5.4,4.75l-.35.28Zm25.91-24.56-.46,1.95-.46,1.94a40.42,40.42,0,0,0-1,12.28c.35,4,1.43,7.5,3.47,9.42a4.94,4.94,0,0,0,2.11,1.25,9.46,9.46,0,0,0,5.31-.2c1.68-.94,3.36-1.9,5-2.89s3.31-2,4.94-3a41.45,41.45,0,0,0-3.29-6.68,38.75,38.75,0,0,0-4.36-5.86,33.65,33.65,0,0,0-5.28-4.72A35.68,35.68,0,0,0,533.72,412.26Zm159.2,19.17c1,1.25,2,2.53,3,3.82s1.93,2.61,2.85,3.94a62,62,0,0,0,9.35-11.88,53.84,53.84,0,0,0,5.76-13.12,104.75,104.75,0,0,1-10,9.37A102.05,102.05,0,0,1,692.92,431.43Zm-46.81,6.32a46.51,46.51,0,0,0,7.62-.09,68.5,68.5,0,0,0,8.54-1.37,82.71,82.71,0,0,0,9.76-2.81,88.71,88.71,0,0,0,9.46-4,44.82,44.82,0,0,0-14.37-10c-5.19-2.09-10.54-2.49-15.26.16a11.93,11.93,0,0,0-5,5.33,16.64,16.64,0,0,0-1.5,8,23.78,23.78,0,0,0,.24,2.4A23.1,23.1,0,0,0,646.11,437.75ZM607.25,412.2q2.6,2.76,5.3,5.45c1.8,1.78,3.64,3.54,5.51,5.26a89.58,89.58,0,0,0,9.49,7.84,40.26,40.26,0,0,0,10.86,5.55c-.07-.49-.13-1-.18-1.48s-.08-1-.1-1.49a23.9,23.9,0,0,1,2.37-11.9,19.2,19.2,0,0,1,7.8-8.12c6.81-3.82,14.24-3.37,21.23-.62s13.53,7.79,18.57,13.17a93,93,0,0,0,11.78-8.41,96.13,96.13,0,0,0,10.53-10.26c.37-.41.73-.83,1.08-1.25l1.06-1.26c-10.93-2.25-20.8-7.86-29.93-15.46s-17.5-17.18-25.4-27.39q-6-.24-12-.23t-12,.31q-2.89,4.66-6,9.21t-6.4,8.92a28.72,28.72,0,0,1-.65,5.6,47.12,47.12,0,0,1-1.34,4.85A72.35,72.35,0,0,1,614,401.8,77.32,77.32,0,0,1,607.25,412.2Zm-16.66,1.05q-6.45,5.89-13.32,11.31t-14.11,10.3a88.33,88.33,0,0,0,11.6-5,85.47,85.47,0,0,0,10.68-6.58q2.14-1.56,4.16-3.22t3.88-3.42l-1.43-1.69C591.57,414.37,591.09,413.81,590.59,413.25Zm-100.31,18c1.45.57,2.89,1.11,4.34,1.62s2.89,1,4.34,1.46c.84-.59,1.68-1.2,2.51-1.83s1.64-1.26,2.45-1.92c2-1.65,4-3.38,5.81-5.17s3.6-3.68,5.26-5.61a54.12,54.12,0,0,0-3.36-4.38c-1.19-1.41-2.46-2.76-3.79-4a23.89,23.89,0,0,0-2.77,1.39,23.35,23.35,0,0,0-2.59,1.73,33.87,33.87,0,0,0-7.24,7.88A64.13,64.13,0,0,0,490.28,431.29ZM387.71,399.07a71.52,71.52,0,0,1,7.17,15.17,73.08,73.08,0,0,1,3.5,16.22,33.7,33.7,0,0,1,5.35-2,34.55,34.55,0,0,1,5.55-1.12l.24-.18.25-.19c-.06-.66-.09-1.34-.09-2a20.58,20.58,0,0,1,.1-2.06c.05-.62.13-1.24.24-1.85s.24-1.23.39-1.84a73.84,73.84,0,0,1-7.84-6.52,70.74,70.74,0,0,1-6.83-7.56q-1.38-1.79-2.54-3.54c-.77-1.16-1.47-2.32-2.09-3.47l-1.69.52Zm147.7,6.07a41.67,41.67,0,0,1,8,4.34,39.93,39.93,0,0,1,7,6.1,45.16,45.16,0,0,1,4.76,6.29,49.75,49.75,0,0,1,3.7,7.1q7.05-4.74,13.74-10t13-11a86.8,86.8,0,0,0-18.15-14,59.87,59.87,0,0,0-21.9-7.47,16.71,16.71,0,0,0-2.61-.16,3.21,3.21,0,0,0-3.5,2.5,22.45,22.45,0,0,0-.83,2.87L537,398.43Zm-66.33,15.71q3.59,2.13,7.22,4t7.29,3.57a71.92,71.92,0,0,1,5.74-10.28,40.91,40.91,0,0,1,8.74-9.42c.58-.45,1.19-.87,1.81-1.28s1.24-.79,1.89-1.15c-1.17-.84-2.38-1.64-3.61-2.39s-2.51-1.44-3.81-2.09q-2.42-1.18-4.92-2.16c-1.67-.64-3.38-1.21-5.11-1.7l-.88,1.62-.88,1.61c-1.79,3.3-3.68,6.77-5.87,10.14A53.41,53.41,0,0,1,469.08,420.85Zm-41.29-.39a44.54,44.54,0,0,0,14.55,3.19A30.36,30.36,0,0,0,456,421.13l-1.53-1.07L453,419c-2.52-1.8-5-3.67-7.4-5.58s-4.79-3.88-7.11-5.9q-2.38,3.39-5.05,6.64T427.79,420.46Zm96.07-.06c.13.22.25.44.37.66l.36.66q0-.68.12-1.35c0-.44.11-.89.17-1.33l-.51.68Zm-205.58-5.51c.62.83,1.26,1.65,1.92,2.47s1.34,1.65,2,2.47l.08-3,.09-3-2.06.55Zm101.05,1.41.76.45.76.43c1.92-1.93,3.76-3.92,5.5-6s3.41-4.12,5-6.25a43.83,43.83,0,0,0-6.46,4.69A26.88,26.88,0,0,0,419.33,416.3Zm23.14-14.94q3.54,3.09,7.22,6t7.51,5.69q1.37,1,2.73,1.92c.92.63,1.83,1.25,2.75,1.86a43.36,43.36,0,0,0,7.6-9c2.19-3.31,4.1-6.82,5.89-10.13l.38-.69.38-.7a67.93,67.93,0,0,0-16.58-.5,72.26,72.26,0,0,0-16.72,3.57l-.57,1Zm73.41,8c.66.74,1.31,1.49,1.93,2.25s1.23,1.54,1.82,2.33c.53-.76,1-1.52,1.56-2.29s1-1.54,1.48-2.32a32.62,32.62,0,0,0-3.42-.16A31.42,31.42,0,0,0,515.88,409.32Zm-117.8-13.69c.52.89,1.08,1.76,1.65,2.6s1.17,1.63,1.75,2.38A63.26,63.26,0,0,0,407,406.8a65.52,65.52,0,0,0,6.32,5.45,34.35,34.35,0,0,1,6.18-7.53,48.69,48.69,0,0,1,8.89-6.47c-2.11-2-4.17-4.12-6.21-6.23s-4-4.24-6-6.4a64.46,64.46,0,0,1-8.7,5.66A82.81,82.81,0,0,1,398.08,395.63ZM268.7,409a53.5,53.5,0,0,0,7.54,2,61,61,0,0,0,7.62,1,17.45,17.45,0,0,1,2.47-2.66,12.39,12.39,0,0,1,2.89-1.89,9.21,9.21,0,0,1,8.48.33l.65.36.65.36.41,1.39.42,1.39c1.08-.15,2.16-.33,3.25-.52s2.16-.39,3.24-.6a83.75,83.75,0,0,1-7.44-15.78,70.75,70.75,0,0,1-3.55-16.09c-.09-.93-.17-1.85-.22-2.78s-.08-1.85-.09-2.78l-1-.78-1-.77a41.18,41.18,0,0,0-9.45,4.63,31.85,31.85,0,0,0-8,7.6,33.34,33.34,0,0,0-5.34,11.21A50.86,50.86,0,0,0,268.7,409Zm34.06-29.61A64.37,64.37,0,0,0,306.48,394a79.32,79.32,0,0,0,7.35,14.48c1.47-.36,2.94-.73,4.4-1.12l4.37-1.16.09-3.21.09-3.21q-4.68-5.44-9.68-10.57T302.76,379.36Zm297.3,24.76,1.11,1.29,1.11,1.29a69.42,69.42,0,0,0,4.21-6.42,67.06,67.06,0,0,0,3.4-6.78c-1.59,1.81-3.2,3.61-4.84,5.38S601.75,402.4,600.06,404.12ZM265.27,358a20.14,20.14,0,0,0-2.82.19,19.35,19.35,0,0,0-2.72.58,16.74,16.74,0,0,0-7.38,4.45,21.84,21.84,0,0,0-4.89,8.09A28.76,28.76,0,0,0,246,384.08a25.41,25.41,0,0,0,4.22,11.58,31.88,31.88,0,0,0,5.06,5.66,35.86,35.86,0,0,0,6.11,4.35A55,55,0,0,1,263.49,392a40.61,40.61,0,0,1,6.27-12.84,38.24,38.24,0,0,1,7.22-7.39,45.33,45.33,0,0,1,9.28-5.6,56.59,56.59,0,0,0-11.2-6.11A27.06,27.06,0,0,0,265.27,358Zm222.6,33.44q2.5.78,4.94,1.75t4.77,2.13a60.9,60.9,0,0,1,6.23,3.58,63.35,63.35,0,0,1,5.74,4.28,37.63,37.63,0,0,1,8.29-1.22,41.54,41.54,0,0,1,8.53.57,75.45,75.45,0,0,0,3.51-8.51,71.5,71.5,0,0,0,2.4-8.76c-1.54,0-3.07-.06-4.61-.13s-3.08-.19-4.62-.33a83.28,83.28,0,0,1-14.73-2.69A61.13,61.13,0,0,1,495.71,377l-3.92,7.21Zm-157.75,5.79c.78.94,1.56,1.88,2.33,2.83l2.29,2.88c1.25-.33,2.5-.64,3.75-.95s2.52-.61,3.77-.89c2.89-.66,5.84-1.26,8.8-1.83s5.91-1.12,8.82-1.65c2.57-.47,5.16-.94,7.74-1.44s5.16-1,7.72-1.56a74.67,74.67,0,0,0-19.76-15.8,85.45,85.45,0,0,0-24.71-9.07l-.38,13.74ZM561.1,383a74.09,74.09,0,0,1,13.67,6.94,94.79,94.79,0,0,1,12.07,9.25c-2.23-3-4.38-6-6.45-9.06s-4.06-6.22-6-9.4c-2.21.45-4.41.85-6.58,1.21s-4.3.7-6.4,1l-.17,0Zm20.77-4q3.12,5.07,6.51,9.94t7.07,9.54q4.77-4.9,9.26-10.07t8.66-10.6v-.15a15.64,15.64,0,0,0-1.94-5.31,32,32,0,0,0-3.65-5l-.5.36-.51.37a66.4,66.4,0,0,1-12,6.62A91.93,91.93,0,0,1,581.87,379Zm156.54-62.32c.83,6.5,1.64,13.1,2.09,19.74a126.26,126.26,0,0,1-.08,20,92,92,0,0,1-4.68,21.6A100,100,0,0,1,726,398.39a42.49,42.49,0,0,0,19.28-78.33c-1.1-.68-2.23-1.29-3.37-1.86S739.59,317.12,738.41,316.65Zm-71.47,45.76c7.09,8.74,14.55,16.76,22.56,23s16.56,10.72,25.83,12.37A40.3,40.3,0,0,0,710.74,383a34,34,0,0,0-9.67-11.23,42.23,42.23,0,0,0-14.59-6.54,101.71,101.71,0,0,0-16.26-2.53l-1.64-.14ZM421.65,380.83c2.2,2.4,4.43,4.78,6.7,7.11s4.6,4.64,7,6.89l1.65-.69,1.67-.66a92.8,92.8,0,0,0,6.9-16A83.1,83.1,0,0,0,449.11,361c-2.54.22-5.06.48-7.57.8s-5,.69-7.48,1.13A67.75,67.75,0,0,1,429,371.9a59.11,59.11,0,0,1-6.55,8.12c-.14.13-.27.27-.4.41ZM331.07,362.4a92.9,92.9,0,0,1,29.32,10.81,80.71,80.71,0,0,1,22.84,19.53c.86-.22,1.71-.46,2.56-.7s1.68-.48,2.52-.74a22.9,22.9,0,0,1-.9-7,18.35,18.35,0,0,1,1.43-6.44,19.79,19.79,0,0,1,4.79-6.68,32.24,32.24,0,0,1,6.38-4.54q-3.33-4.14-6.56-8.32T387.09,350l-1.17-1.57-1.21-1.62q-4.11-.06-8.15-.32t-8-.75q-9.1,3.25-18.46,5.72t-18.88,4.11l-.09,3.42Zm125.39-1.88a88.77,88.77,0,0,1-2.8,15.16,98.74,98.74,0,0,1-5.42,14.84,78.64,78.64,0,0,1,16.32-2.19,73.7,73.7,0,0,1,16,1.29l4.48-8.24,4.48-8.24c-.35-.25-.7-.51-1-.78s-.69-.53-1-.8a46.8,46.8,0,0,1-5.59-5.32,49.11,49.11,0,0,1-4.72-6.24c-3.45,0-6.91.06-10.36.14S459.9,360.34,456.46,360.52Zm-154.1,8.87Q307.83,374,313,379t10.05,10.24l.28-10.29.27-10.29c-1.24-.15-2.5-.27-3.76-.36s-2.53-.17-3.8-.21c-1.6-.05-3.64-.06-6,.06a68.09,68.09,0,0,0-7.71.8c0,.08,0,.17,0,.25A1.93,1.93,0,0,0,302.36,369.39Zm102.33,3a29.78,29.78,0,0,0-5.34,3.44,13.4,13.4,0,0,0-3.82,4.89,11.13,11.13,0,0,0-.86,4,14.77,14.77,0,0,0,.52,4.19,75.59,75.59,0,0,0,8.42-3.85,59.56,59.56,0,0,0,7.72-4.9q-1.69-1.94-3.35-3.89C406.87,375,405.78,373.68,404.69,372.37Zm280.07-50.89a33.28,33.28,0,0,1,13.71,3.06,37.16,37.16,0,0,1,12,8.76A48.64,48.64,0,0,1,719.62,348a79.15,79.15,0,0,1,4.92,19.83q.51,4,.74,8t.21,8.16a89.25,89.25,0,0,0,5.08-13.94,83.64,83.64,0,0,0,2.61-14.36,123.12,123.12,0,0,0,0-20.32c-.51-6.8-1.39-13.59-2.26-20.28,0-.14,0-.28,0-.42l-.06-.43a77.79,77.79,0,0,0-17.88-1.78,158.34,158.34,0,0,0-17.78,1.23q-11.42,1.33-22.74,3.43t-22.48,4.92a21.92,21.92,0,0,1-.82,8.16,50.37,50.37,0,0,1-3.05,7.85q-1.95,4.17-4.06,8.26t-4.39,8.09q3.49-.1,7-.12c2.34,0,4.67,0,7,.05l-.28-.39-.29-.38.38-.94.38-.95a80.57,80.57,0,0,1,8.48-16.41c3.57-5,8-9.29,13.9-11.76a26.59,26.59,0,0,1,5.17-1.57A29,29,0,0,1,684.76,321.48Zm-23.83,33.25c1.66.09,3.31.19,5,.31s3.31.25,5,.4a107.65,107.65,0,0,1,17.95,2.85,48.89,48.89,0,0,1,16.54,7.59,39.23,39.23,0,0,1,7.36,7,44.1,44.1,0,0,1,5.51,8.79c0-2.19-.11-4.36-.26-6.52s-.36-4.29-.63-6.42A73,73,0,0,0,713,351.08a41.62,41.62,0,0,0-7.87-12.87A30.5,30.5,0,0,0,692.33,330a21.84,21.84,0,0,0-15.34.26,25.54,25.54,0,0,0-10.65,9.07,66.51,66.51,0,0,0-7,13.24l.81,1.08Zm-120.25,21.1c0,.34,0,.67,0,1s0,.67,0,1c3.4-.17,6.78-.46,10.08-.82s6.54-.8,9.66-1.26c1.73-.26,3.5-.53,5.28-.82s3.59-.61,5.4-1q-.1-.48-.18-1c0-.32-.07-.64-.08-1a8.19,8.19,0,0,1,3.71-7.48,17.35,17.35,0,0,1,5.73-2.34q4.72-1.14,9.47-2.12t9.52-1.8l-9.12-9.37L581,339.55a82.38,82.38,0,0,1-11.39,6.84,101.93,101.93,0,0,1-13.16,5.43,54.33,54.33,0,0,1-3.36,8.42,50.35,50.35,0,0,1-4.68,7.59,46.3,46.3,0,0,1-3.66,4.3A42.56,42.56,0,0,1,540.68,375.83Zm-25.23-16.5a29.42,29.42,0,0,0-1.77,7.72,11.51,11.51,0,0,0,1.08,6.52,5.84,5.84,0,0,0,2.28,2.21,9.7,9.7,0,0,0,3.64,1.07,27.46,27.46,0,0,0,6.38-1.63,33,33,0,0,0,6.2-3.17,36.07,36.07,0,0,0-1.55-7.6,27.17,27.17,0,0,0-3-6.43q-3.19.42-6.52.75T515.45,359.33Zm-103.9,9.92,2.61,3.09,2.65,3.06.21-.22.21-.22a50.23,50.23,0,0,0,4.1-4.8,56.68,56.68,0,0,0,3.46-5.21q-3.37.87-6.69,1.93C415.89,367.6,413.71,368.38,411.55,369.25Zm87.64,1.37c1.27.69,2.57,1.31,3.89,1.89s2.67,1.09,4,1.57a20.5,20.5,0,0,1-.72-7.45,34.16,34.16,0,0,1,1.28-6.89l-.95,0-1,0c-1,1.33-1.95,2.75-2.86,4.22s-1.77,3-2.59,4.5l-.57,1.05Zm96-4.2q-3.31.63-6.62,1.35c-2.21.48-4.4,1-6.6,1.52a8.84,8.84,0,0,0-3.44,1.33,1.2,1.2,0,0,0-.46,1.14l0,.32c0,.11,0,.22.08.33,2.91-.71,5.82-1.55,8.67-2.53A73.22,73.22,0,0,0,595.17,366.42Zm18.91-2.93a40.84,40.84,0,0,1,2.5,3.37,30.9,30.9,0,0,1,2.11,3.73q1.41-2,2.79-4c.92-1.35,1.82-2.72,2.71-4.09-1.68.14-3.37.29-5.06.46S615.77,363.29,614.08,363.49Zm-128-3.5c.89,1.09,1.83,2.13,2.81,3.12a40.88,40.88,0,0,0,3.11,2.78l.51.41.52.39.44-.81.45-.82c.46-.86.94-1.71,1.43-2.57s1-1.7,1.52-2.53l-5.42,0Zm50.33-3.16a34.75,34.75,0,0,1,2,4.79,41.4,41.4,0,0,1,1.34,5,39.88,39.88,0,0,0,4.51-5.63,40.87,40.87,0,0,0,3.6-6.67q-2.73.72-5.6,1.33C540.37,356.1,538.43,356.48,536.44,356.83ZM393.69,346.67c2.11,2.78,4.25,5.58,6.42,8.37s4.38,5.58,6.62,8.35a107.45,107.45,0,0,1,11-4c3.7-1.13,7.46-2.07,11.25-2.85q1.56-3.81,2.74-7.79c.79-2.64,1.47-5.33,2.06-8-5.3,1.28-10.62,2.4-16,3.32s-10.75,1.64-16.19,2.12c-1.32.12-2.64.22-3.95.31Zm-105.46,12c1.13.73,2.23,1.48,3.29,2.22s2.07,1.5,3,2.23l.54-.15.54-.14c.09-.68.19-1.37.31-2.05s.23-1.36.37-2.05c-1.14,0-2.28,0-3.41,0l-3.41,0h-.63Zm15.64-.15c-.11.47-.22.95-.31,1.42s-.19.95-.28,1.42c2.07-.27,4.19-.47,6.36-.57s4.39-.12,6.66,0c1.26,0,2.52.1,3.78.19s2.5.21,3.74.35l.07-2.31.06-2.31q-5,.69-10,1.15C310.58,358.16,307.22,358.4,303.87,358.55ZM586.7,335l10.67,11,10.67,11,.4-.06.41-.05a58.62,58.62,0,0,0,9.47-12.21,75.67,75.67,0,0,0,6.75-15.24l-2.65.9-2.64.92a90.93,90.93,0,0,1-14.11,3.93c-5.93,1.06-12.55,1.34-18.26-.75l-.36.32Zm46.76-8.31c-.23.86-.46,1.72-.7,2.56s-.5,1.69-.77,2.52a84.28,84.28,0,0,1-5.26,12.84,68.91,68.91,0,0,1-7,10.95c1.53-.14,3.05-.27,4.58-.39s3-.23,4.58-.32q2.87-4.83,5.5-9.78t5-10.05a49.47,49.47,0,0,0,2.25-5.45,18,18,0,0,0,1-5.58c-1.55.43-3.1.87-4.64,1.32S635,326.23,633.46,326.7Zm-191.89,12q-.78,4.14-1.84,8.25c-.71,2.73-1.52,5.45-2.45,8.12q3-.45,6.12-.79c2.05-.22,4.1-.42,6.16-.58q0-2.37-.09-4.71t-.39-4.68c-.15-1.25-.33-2.49-.55-3.71s-.47-2.45-.75-3.65c-1,.31-2.07.6-3.1.89S442.6,338.42,441.57,338.7Zm14.69,4.46,0,.15,0,.15c.19,1.62.33,3.24.42,4.87s.13,3.25.11,4.89c2.74-.14,5.49-.24,8.23-.31s5.49-.12,8.23-.15q-.71-1.62-1.32-3.3c-.41-1.11-.78-2.25-1.12-3.4a36.78,36.78,0,0,1-7.47-.64A31.76,31.76,0,0,1,456.26,343.16Zm21.92,2c.42,1.31.89,2.61,1.42,3.87s1.1,2.49,1.73,3.68h12.44c2.68,0,5.37,0,8-.08h.5a28.7,28.7,0,0,1,5.49-4.83,20,20,0,0,1,6.57-2.86,137.08,137.08,0,0,1,12.94-19.41,140.1,140.1,0,0,1,16-17L543,308l-.33-.52A167.7,167.7,0,0,0,526.57,316c-5.45,3.27-11,7-16.61,11.08l-1.65,1.21-1.64,1.21c-4.19,3.11-8.46,6.28-13,9a56,56,0,0,1-14.54,6.43l-.48.12ZM519,351.73v0l.18,0,.17,0H519Zm-235.77-.65c1.08.13,2.17.21,3.25.27s2.16.09,3.2.11c1.42,0,2.84.05,4.26.05s2.84,0,4.26,0a74.47,74.47,0,0,1,6-14.08A77.54,77.54,0,0,1,313,324.67l-.23-.16-.22-.17a85.57,85.57,0,0,1-11.61-10.55,79.94,79.94,0,0,1-9.13-12.05q.1,5.73.3,11.45c.14,3.81.3,7.62.51,11.43a63.74,63.74,0,0,1-.05,10.6,22.4,22.4,0,0,1-3.71,10.54,19.12,19.12,0,0,1-2.5,2.86A22.46,22.46,0,0,1,283.19,351.08Zm35.92-22.21a70.44,70.44,0,0,0-7.6,10.6A69.36,69.36,0,0,0,306,351.16q4.54-.27,9.07-.72t9-1.11l.23-8.61.24-8.61c-.94-.51-1.87-1-2.79-1.58S320,329.43,319.11,328.87Zm203.6,16.06a17.44,17.44,0,0,1,4.82,1.93,20,20,0,0,1,4.28,3.38c3.35-.53,6.58-1.13,9.7-1.82s6.1-1.47,9-2.33c.29-1.37.52-2.77.68-4.2s.27-2.9.31-4.4A50,50,0,0,0,550.4,326a53.06,53.06,0,0,0-3.57-10.92,132.55,132.55,0,0,0-24.12,29.82Zm-241.59-74.6-.25.15-.24.16c-1.63,1-3.3,2-5,3l-5,3c-7.4,4.33-14.92,8.74-21.19,14s-11.26,11.26-13.61,18.85A31.06,31.06,0,0,0,243.5,340a29.71,29.71,0,0,0,9.5,6.25,31.91,31.91,0,0,0,11.15,2.42c-3.1-4.32-4.72-9.9-4.82-16.47s1.31-14.12,4.27-22.39q3.64-10.17,8-20.07T281.12,270.33Zm50.67,65.36-.17,6.23-.17,6.22q5.55-1,11-2.27T353.37,343q-5.7-1.36-11.1-3.2T331.79,335.69Zm-48.43-53.83q-3.66,7.42-6.89,15t-6,15.39c-4.19,11.72-4.5,19.81-3.26,25.35s4,8.5,6,10l.5-.15.5-.16a22.15,22.15,0,0,0,4.58-2,13.2,13.2,0,0,0,4.15-3.7,15.76,15.76,0,0,0,2.5-7.79,62.74,62.74,0,0,0-.05-8.78q-.53-9.76-.74-19.57t-.15-19.62c-.21-.66-.4-1.31-.59-2S283.53,282.52,283.36,281.86ZM552.5,310.18a60.92,60.92,0,0,1,4.78,13.35,56.27,56.27,0,0,1,1.46,14.13c0,1-.07,1.93-.15,2.89s-.18,1.92-.32,2.88a91.46,91.46,0,0,0,9.32-4.18,77.93,77.93,0,0,0,8.26-5,120.83,120.83,0,0,1-10.75-12.56,54.58,54.58,0,0,1-8-15.17l-2.33,1.79C554,308.94,553.26,309.55,552.5,310.18ZM387.37,338l.53.76.53.75c2.06,0,4.12-.09,6.21-.19s4.17-.25,6.28-.44c5.78-.52,11.52-1.31,17.23-2.33s11.4-2.29,17.06-3.73c.3-1.84.56-3.68.8-5.51s.45-3.64.65-5.43c.13-1.23.26-2.45.38-3.67s.24-2.45.35-3.68a49.4,49.4,0,0,0-4.88-5.49,43.93,43.93,0,0,0-5.53-4.53,38.78,38.78,0,0,0-6.63-3.68,40.18,40.18,0,0,0-7.08-2.33c-.38,1-.78,2-1.18,3s-.84,2-1.27,3l.4.17.41.17c5.07,2.19,7.18,4.92,7.93,7.35a8.4,8.4,0,0,1-.24,5.5,9.48,9.48,0,0,1-1.51,2.53,10.39,10.39,0,0,1-2.32,2c-4.47,3-9.07,5.75-13.76,8.36S392.25,335.77,387.37,338Zm68.52-3.54a21,21,0,0,0,5.92,3.11,24.65,24.65,0,0,0,7.44,1.29c-.08-.52-.16-1-.22-1.57s-.13-1.05-.19-1.58c-.09-.91-.16-1.82-.2-2.73s-.08-1.82-.08-2.72q-3.17,1.09-6.34,2.14T455.89,334.49ZM332,327.76a108,108,0,0,0,17,6.59,125.29,125.29,0,0,0,18.73,3.95q2.21-.81,4.39-1.66t4.35-1.76c-1.88-2.95-3.71-6-5.41-9.24a103.23,103.23,0,0,1-4.66-9.86q-1.08-2.64-1.93-5.21c-.58-1.72-1.07-3.41-1.5-5.08a78,78,0,0,0-14.13,3.39,72.49,72.49,0,0,0-13,6c-.6.36-1.2.72-1.79,1.09s-1.17.76-1.75,1.16l-.15,5.33Zm143.86,0c-.05,1.2-.06,2.41,0,3.62s.11,2.44.24,3.67c.05.52.11,1,.18,1.55s.14,1,.22,1.54l.4-.1.39-.1a49.75,49.75,0,0,0,13-5.85c4.15-2.53,8.13-5.49,12-8.4l1.66-1.23,1.67-1.22q8.37-6.12,16.47-11a176.79,176.79,0,0,1,16-8.64q-1.74-2-3.66-3.84a52.92,52.92,0,0,0-4-3.46,57.41,57.41,0,0,1-4.24,6.18,50.73,50.73,0,0,1-4.83,5.26,62,62,0,0,1-15.32,10.24,168.76,168.76,0,0,1-15.87,6.55l-7.18,2.66Zm-32.63.42-.18,1.33c-.06.44-.12.88-.19,1.33l.56-.16.56-.16c-.15-.39-.28-.78-.41-1.17S443.34,328.53,443.24,328.14Zm150.06.27a32.9,32.9,0,0,0,10.38-.35,85.2,85.2,0,0,0,13.69-3.72q2.48-.87,5-1.71c1.66-.55,3.32-1.1,5-1.63q.69-3.12,1.18-6.36t.81-6.63a69,69,0,0,0-10.84-5.53,75.94,75.94,0,0,0-12-3.72A42,42,0,0,1,603.13,313a55.7,55.7,0,0,1-8.51,13.84l-.65.78C593.75,327.9,593.53,328.16,593.3,328.41Zm-143.56-7.7c.55,1.15,1.08,2.32,1.58,3.51s1,2.41,1.4,3.64q4.08-1.28,8.17-2.64c2.72-.91,5.45-1.85,8.17-2.8a55.4,55.4,0,0,1,1.57-7.54,52.52,52.52,0,0,1,2.59-7.12c-.31-.09-.61-.2-.92-.31l-.92-.34a35.2,35.2,0,0,1-6-3.11,46.63,46.63,0,0,1-5.3-4c-.59.62-1.17,1.26-1.74,1.91s-1.1,1.33-1.63,2a38,38,0,0,0-4.68,7.86A26.16,26.16,0,0,0,449.74,320.71Zm146.08-23.62a38.55,38.55,0,0,0-8.38,7.33,24.14,24.14,0,0,0-4.83,8.48,12.7,12.7,0,0,0-.47,5.37,11,11,0,0,0,1.88,4.78,14.07,14.07,0,0,0,1,1.27,11,11,0,0,0,1.16,1.11c.49-.52,1-1,1.44-1.58s.94-1.07,1.39-1.62A47.83,47.83,0,0,0,596.48,310a35,35,0,0,0,2.74-12.5l-1.69-.2ZM382.9,305a25.73,25.73,0,0,0-2.73,2.79,27.73,27.73,0,0,0-2.36,3.24,8.58,8.58,0,0,0-1.18,7.14,9.55,9.55,0,0,0,4,5.14A9.74,9.74,0,0,0,387,325a8.69,8.69,0,0,0,6.23-3.92q2.12-3,4-6.11c1.27-2.08,2.46-4.19,3.59-6.33A85.74,85.74,0,0,0,382.9,305Zm180.53-2.89c0,.08,0,.16.05.23l.06.23A41.79,41.79,0,0,0,568.62,314,77.49,77.49,0,0,0,576.28,324a17.88,17.88,0,0,1-1.5-6.36,20.52,20.52,0,0,1,.85-6.81,28.8,28.8,0,0,1,3.21-6.95,39.78,39.78,0,0,1,5.72-7.12c-2.08.07-4.17.22-6.26.43s-4.2.52-6.3.88l-1.51.28-1.52.29-1.77,1.06-1.75,1.09-1,.65ZM324.26,323.51l.29.18.29.17v-.45l0-.45-.31.28Zm83.43-12.35q-1.54,3-3.29,6c-1.15,2-2.37,3.89-3.64,5.79q2.73-1.57,5.42-3.23t5.31-3.39a3.46,3.46,0,0,0,.67-.57,2,2,0,0,0,.4-.62c.3-.75-.47-1.55-1.4-2.19a15,15,0,0,0-2.41-1.3l-.53-.23Zm73-2.12a42.32,42.32,0,0,0-2.18,5.12,45.35,45.35,0,0,0-1.55,5.45l5.38-2,5.39-2c4.85-1.81,10-3.73,15-6.15a55.15,55.15,0,0,0,13.74-9.12,41.74,41.74,0,0,0,4.26-4.68,50.65,50.65,0,0,0,3.76-5.54c-1.3-.75-2.64-1.45-4-2.08s-2.77-1.21-4.2-1.71-2.71-.89-4.08-1.25-2.77-.65-4.16-.89l-1.8,1.07c-.6.35-1.19.71-1.78,1.07a46.17,46.17,0,0,1-2,8.19,22.67,22.67,0,0,1-4.4,7.67,19.63,19.63,0,0,1-7.69,5.22A24.8,24.8,0,0,1,480.66,309Zm-188.91-24.3a66.08,66.08,0,0,0,9.63,18.19,77,77,0,0,0,15.54,15.6l.55.41.55.4q1.68-1.62,3.45-3.13c1.19-1,2.41-2,3.66-2.94l.24-8.88.24-8.88c-1,.29-2,.53-3,.73s-2.07.34-3.11.44a28.34,28.34,0,0,1-11.84-1.25,23.79,23.79,0,0,1-9.47-6,25.85,25.85,0,0,1-3.68-4.84,30,30,0,0,1-2.64-5.82c0,1,0,2-.05,3ZM636.07,313c-.12.94-.25,1.89-.39,2.82s-.3,1.87-.46,2.79l2.49-.72,2.5-.7a20.26,20.26,0,0,0-1.8-2A31.76,31.76,0,0,0,636.07,313Zm.78-8.62c.62.45,1.24.91,1.84,1.38s1.2,1,1.79,1.45a40.9,40.9,0,0,1,3.66,3.41,25.31,25.31,0,0,1,3.46,4.59q11.52-2.93,23.19-5.1t23.47-3.55a174.89,174.89,0,0,1,17.58-1.28,90.28,90.28,0,0,1,18,1.41q-.45-3.74-.83-7.52c-.24-2.52-.45-5-.6-7.57-6.78,5-14.59,9-22.49,10.61s-15.9.83-23-3.84a32,32,0,0,1-2.8-2.06,29.28,29.28,0,0,1-2.49-2.36c-.77.34-1.53.65-2.27.94s-1.45.58-2.14.84A105,105,0,0,1,654.2,301,71,71,0,0,1,637,302c0,.39,0,.78-.05,1.17ZM446.36,284.48q-.17,6.27-.48,12.53c-.21,4.18-.46,8.35-.78,12.52a42,42,0,0,1,2.65-5.33,45.93,45.93,0,0,1,3.19-4.73c.62-.8,1.26-1.58,1.92-2.35s1.34-1.5,2-2.23c-.64-.7-1.26-1.41-1.87-2.11l-1.78-2.1c-.84-1-1.66-2-2.47-3.07S447.15,285.53,446.36,284.48Zm-113.39,8-.22,7.95-.21,7.94a78.27,78.27,0,0,1,14-6.34,85.51,85.51,0,0,1,15.1-3.66,52.56,52.56,0,0,1-.32-11,48.45,48.45,0,0,1,2-10.46,54.91,54.91,0,0,1,2-5.4c.76-1.78,1.6-3.53,2.49-5.26l-.35-.14-.35-.14C361,263.5,357,258.33,355,252.34a29.53,29.53,0,0,1,0-18.54,34.71,34.71,0,0,1,1.45-3.55q.83-1.73,1.8-3.33c-1.41-3.2-2.67-6.47-3.79-9.78s-2.09-6.68-2.9-10.08c-.77.06-1.53.14-2.29.22s-1.5.2-2.25.31a27.19,27.19,0,0,1-.92,7.56,26.87,26.87,0,0,1-3,7c.86,1.67,1.66,3.38,2.39,5.11s1.4,3.48,2,5.25a78.37,78.37,0,0,1,4.15,22.38c.22,8.8-1.41,18.33-7,26.82a30.78,30.78,0,0,1-5.19,6.05A34.84,34.84,0,0,1,333,292.47Zm37.42,12.28c.14.51.28,1,.43,1.52s.31,1,.47,1.51l.18-.29c0-.1.11-.19.17-.29.28-.44.56-.88.85-1.3s.6-.85.9-1.25c-.5,0-1,0-1.5,0Zm45.2-13.11a47.4,47.4,0,0,1,8,2.73,45.61,45.61,0,0,1,7.5,4.18c1.26.87,2.47,1.79,3.65,2.77s2.32,2,3.41,3.09q.33-4.86.55-9.74c.15-3.25.26-6.51.36-9.77H439a46.17,46.17,0,0,1-10.41.41,55.69,55.69,0,0,1-10.81-1.91c-.31,1.38-.64,2.76-1,4.13S416,290.29,415.59,291.64Zm-22.26,7.58q2.7.54,5.37,1.24c1.78.47,3.54,1,5.3,1.57.33-.74.65-1.48,1-2.23s.61-1.5.9-2.25a38.94,38.94,0,0,0-6.4.29A34.93,34.93,0,0,0,393.33,299.22Zm102.21-6.94c-1.8,1.35-3.53,2.76-5.17,4.25a54,54,0,0,0-4.63,4.81,14.31,14.31,0,0,0,3.72-1.42,12.11,12.11,0,0,0,3.17-2.52,13.87,13.87,0,0,0,1.68-2.39A18.19,18.19,0,0,0,495.54,292.28ZM469,297.71c.79.52,1.61,1,2.45,1.45a27.34,27.34,0,0,0,2.58,1.19c.43.17.88.33,1.33.47s.93.28,1.41.39c.49-.75,1-1.48,1.52-2.2s1.08-1.41,1.65-2.09l.22-.27.23-.27a25.44,25.44,0,0,1-5.57,1.35A23.14,23.14,0,0,1,469,297.71Zm64.88-10a61.43,61.43,0,0,1,5.9,5,63.1,63.1,0,0,1,5.23,5.74q2.63-1.08,5.22-2t5.2-1.77a33.15,33.15,0,0,1,4.81-16.34,23.15,23.15,0,0,1,13.06-10.2,21,21,0,0,1,6.15-.88,23.56,23.56,0,0,1,6.29.91c-1.95-2.68-3.85-5.44-5.73-8.27s-3.72-5.7-5.56-8.62a36,36,0,0,1-2.63-4.7,14.75,14.75,0,0,1-1.38-5.92,13.46,13.46,0,0,1,5.22-10.52A28.16,28.16,0,0,1,587,224.72a60.18,60.18,0,0,1,7-1.32,65.77,65.77,0,0,1,7.15-.54q-3.39-2-6.77-4.08t-6.75-4.14l-.35.29-.35.29a29,29,0,0,1-6.29,3.84,27.47,27.47,0,0,1-6.77,2c-.16.63-.32,1.24-.49,1.79s-.34,1.07-.49,1.52a58.58,58.58,0,0,1-6.9,14.53c-3,4.38-6.86,7.88-11.65,9.26-2,2.31-4.1,4.57-6.25,6.75s-4.38,4.31-6.66,6.35c-.34,2.3-.74,4.6-1.23,6.88s-1,4.54-1.67,6.79-1.35,4.51-2.12,6.64S534.8,285.77,533.91,287.72ZM375.4,267.43c-1,1.93-2,3.87-2.92,5.82a49.25,49.25,0,0,0-2.24,5.84,39.81,39.81,0,0,0-1.69,9.2,46.65,46.65,0,0,0,.36,9.29q2.91-.19,5.84-.2c1.95,0,3.91.05,5.86.17a38.19,38.19,0,0,1,13-5.95,45.12,45.12,0,0,1,14.7-1.13q.72-2.33,1.34-4.68c.42-1.57.79-3.15,1.13-4.73a75.41,75.41,0,0,1-9.36-4.58,86.78,86.78,0,0,1-9.24-6.12c-1.21-.9-2.38-1.83-3.54-2.79s-2.29-1.93-3.4-2.93l-.65.33-.66.32a24.46,24.46,0,0,1-4.27,1.51A21.47,21.47,0,0,1,375.4,267.43ZM637,294.74a62.81,62.81,0,0,0,15.87-.87,96.44,96.44,0,0,0,17.66-5l1.35-.52,1.31-.53a33.07,33.07,0,0,1-2.71-6.79,45.8,45.8,0,0,1-1.45-7.9,81.73,81.73,0,0,1-15.87,7.07c-5.48,1.82-11.09,3.21-16.68,4.48l.09,1.08c0,.36,0,.72.08,1.09.1,1.32.17,2.63.23,3.94S637,293.44,637,294.74ZM617.69,289a50,50,0,0,0,4.6,2.22,46.56,46.56,0,0,0,4.85,1.75l1.29.37,1.31.32c0-1-.07-2.05-.12-3.08s-.11-2.08-.19-3.12c0-.19,0-.38,0-.57s0-.37,0-.56c-1.93.42-3.87.84-5.82,1.28S619.63,288.46,617.69,289Zm-38.3-14.4a13.77,13.77,0,0,0-2,.15,12,12,0,0,0-2,.43,15.8,15.8,0,0,0-8.63,6.59,24.88,24.88,0,0,0-3.86,10.87l1.71-.41,1.71-.38c4-2.34,8.18-4.51,12.36-6.57s8.4-4,12.58-5.93c-.51-.42-1-.83-1.56-1.21s-1.09-.74-1.65-1.06a18.82,18.82,0,0,0-4.32-1.85A15.73,15.73,0,0,0,579.39,274.55Zm28.7,17.13.19.05.19,0-.1-.07-.11-.07-.08,0ZM485,285.41a55.93,55.93,0,0,0-12.76,5.21,17.79,17.79,0,0,0,6.74-1.49A23.77,23.77,0,0,0,485,285.41Zm102.78,4.06c1,0,2.1,0,3.15,0s2.1.08,3.14.15c.57-.32,1.15-.63,1.74-.92s1.2-.58,1.81-.86c-.2-.48-.42-1-.66-1.43s-.49-.94-.77-1.39c-1.57.72-3.16,1.44-4.75,2.18l-4.76,2.22h1.1ZM297.25,258.41c0,.06,0,.11,0,.17s0,.12,0,.18A48.36,48.36,0,0,0,298,274a21.92,21.92,0,0,0,5.36,10.38,16.47,16.47,0,0,0,6.77,4.19,21.22,21.22,0,0,0,8.63.86,27.15,27.15,0,0,0,3.57-.6,28,28,0,0,0,3.48-1.08l.16-5.9.16-5.89a98.94,98.94,0,0,0-.11-11.14,30.72,30.72,0,0,0-2.59-10.7,17.44,17.44,0,0,0-5.16-6.3,12.42,12.42,0,0,0-7.33-2.73q-3.21,3.54-6.64,6.87T297.25,258.41Zm158.34,20.42a27.77,27.77,0,0,0,3.2,5,20.39,20.39,0,0,0,4.32,4,62.2,62.2,0,0,1,13.66-7.33,64.06,64.06,0,0,1,15.06-3.77,44.07,44.07,0,0,0,3.87-12.55,98.27,98.27,0,0,0,1.12-13.55,117,117,0,0,0-3.52-14.39,120.1,120.1,0,0,0-5.36-13.93l-.62,0-.62,0a106.53,106.53,0,0,1-2,13.2,84.59,84.59,0,0,1-4,13,66.72,66.72,0,0,1-10.5,17.68A57.24,57.24,0,0,1,455.59,278.83Zm220.49-10.5a43,43,0,0,0,1,9.1,27.56,27.56,0,0,0,2.77,7.37,54,54,0,0,0,8.07-5.06,37.4,37.4,0,0,0,6-5.77,28.38,28.38,0,0,0,5.32-10.19,20.78,20.78,0,0,0,.08-11.8,45.78,45.78,0,0,1-5.17,1.64,51.1,51.1,0,0,1-5.43,1.07,63.86,63.86,0,0,1-12.71,13.64ZM517.05,279l.81.26.82.29c1.58.56,3.12,1.19,4.64,1.88s3,1.46,4.44,2.28q1.08-2.46,2-5.13t1.75-5.55q.32-1.11.6-2.22c.19-.74.37-1.49.55-2.24q-2.46,1.88-5,3.64t-5.12,3.41c-.91.58-1.83,1.15-2.75,1.71ZM316.39,238.74a22.5,22.5,0,0,1,8.06,4.83A24.5,24.5,0,0,1,330,251a37.32,37.32,0,0,1,3.23,12.64,105.42,105.42,0,0,1,.17,12.52l-.1,3.71-.1,3.72a26.26,26.26,0,0,0,3-2.75,22.71,22.71,0,0,0,2.45-3.12,36.34,36.34,0,0,0,5.4-15.19c1-7.09.45-16.27-3.4-27.73-.37-1.11-.77-2.21-1.21-3.31s-.9-2.2-1.4-3.28l-.28.23-.28.23a22.68,22.68,0,0,1-8.24,4.22,18.38,18.38,0,0,1-8.61.3q-1,1.41-2.1,2.79C317.84,236.92,317.12,237.84,316.39,238.74ZM606.07,280.5c.59.54,1.19,1.06,1.79,1.58s1.21,1,1.82,1.5c3.14-.92,6.31-1.73,9.48-2.47s6.32-1.43,9.45-2.11h0c-.19-1.6-.39-3.2-.61-4.79s-.45-3.19-.69-4.79c-3.43,2.07-6.94,4-10.5,5.83S609.67,278.81,606.07,280.5Zm-187-4.24a47.93,47.93,0,0,0,9.12,1.76,38.92,38.92,0,0,0,9.62-.28l.7-.12.7-.13,0-1.61c0-.53,0-1.07,0-1.6a176,176,0,0,1-18-37.15,179.35,179.35,0,0,1-9-40.33c-1.33.58-2.65,1.17-4,1.79s-2.62,1.23-3.92,1.88a118.47,118.47,0,0,1,12.82,32.09,113.53,113.53,0,0,1,2.9,34.33c-.11,1.57-.25,3.13-.43,4.7S419.34,274.71,419.1,276.26ZM634,265.13c.32,2,.64,4.08.93,6.13s.57,4.11.81,6.16a156.74,156.74,0,0,0,15.45-4.18,73.61,73.61,0,0,0,14.24-6.38q.88-.53,1.74-1.08c.56-.37,1.13-.75,1.68-1.14.07-1.63.19-3.32.37-5.05s.41-3.52.71-5.35a101,101,0,0,1-10.7-2.55c-3.51-1-7-2.23-10.35-3.57,0,.3,0,.59-.08.88s-.09.59-.15.89a12.44,12.44,0,0,1-2.4,5,26.57,26.57,0,0,1-3.86,3.86q-2,1.71-4.13,3.3C636.87,263.11,635.45,264.13,634,265.13ZM505.54,276.57l.49.06.49.05,1-.57,1-.57c1.7-1,3.42-2,5.13-3s3.41-2.05,5.06-3.1c2.79-1.76,5.51-3.64,8.16-5.61s5.24-4,7.75-6.2c.31-2.66.53-5.34.64-8s.12-5.36,0-8a41.51,41.51,0,0,1-3.78-4.89c-1.12-1.67-2.1-3.36-3-4.92-1.48-2.69-3-5.49-4.37-8.39s-2.73-5.91-3.89-9l-.89.25-.88.25-2.85.87-2.91.9q-2.27.72-4.64,1.44c-1.57.48-3.17,1-4.79,1.39q.48,7.27.7,14.56t.13,14.56c0,.18,0,.36,0,.55v.54a116.54,116.54,0,0,1,1.51,13.48A110.72,110.72,0,0,1,505.54,276.57ZM751.18,229l-.51,0-.51.07a5.86,5.86,0,0,0-3.76,2.46,22.2,22.2,0,0,0-2.69,5.42,128.66,128.66,0,0,0-5.5,18.85,131.33,131.33,0,0,0-2.62,19.52q4.75-5,9-10.34t8-11.13a41.09,41.09,0,0,0,5.17-10.18,14.3,14.3,0,0,0-.38-10.37,7.66,7.66,0,0,0-2.61-3.15A6.52,6.52,0,0,0,751.18,229Zm-148.61,1.08a58.28,58.28,0,0,0-7,.41,57.36,57.36,0,0,0-6.88,1.25,22.11,22.11,0,0,0-7.54,3.35c-2.06,1.52-3.44,3.4-3.42,5.52a7.72,7.72,0,0,0,.83,3.19,32.46,32.46,0,0,0,2.06,3.59c3.16,5,6.34,9.93,9.64,14.58a135.42,135.42,0,0,0,10.35,13c4.46-2.06,8.83-4.14,13.08-6.33s8.38-4.49,12.36-7q-.51-3-1-6c-.36-2-.71-3.94-1.07-5.89q-.69-3.78-1.37-7.61c-.45-2.54-.9-5.1-1.32-7.67l-2.37-1.35-2.36-1.35-.18-.1-.18-.1a60.7,60.7,0,0,0-13.6-1.55ZM391.31,260.28c.85.74,1.72,1.47,2.6,2.18s1.77,1.41,2.68,2.09c1.85,1.4,4.13,3,6.75,4.59a74.24,74.24,0,0,0,8.79,4.58c.17-1.22.33-2.44.46-3.67s.24-2.45.32-3.68A106.17,106.17,0,0,0,410.15,234,111,111,0,0,0,398,203.83c-1.53.83-3,1.69-4.55,2.57s-3,1.79-4.46,2.71c.54.79,1.08,1.58,1.6,2.38s1,1.62,1.52,2.44a54.4,54.4,0,0,1,7.18,18.37,34.92,34.92,0,0,1-.92,16.94,25.52,25.52,0,0,1-2.82,5.92A27.57,27.57,0,0,1,391.31,260.28Zm74.31-34.89a68.45,68.45,0,0,0-11.92,23.42,46.07,46.07,0,0,0-.69,23,51.55,51.55,0,0,0,12.1-10.95,58.7,58.7,0,0,0,8.79-15A76.19,76.19,0,0,0,477.55,234a99.62,99.62,0,0,0,1.89-12.12,28.2,28.2,0,0,1-3.85-1,23,23,0,0,1-3.65-1.58c-1,1.11-2,2.16-3.08,3.18S466.72,224.46,465.62,225.39Zm-46.28-31.47a171.36,171.36,0,0,0,20,66.16q0-6.34-.14-12.65c-.07-4.21-.15-8.42-.25-12.6a13.7,13.7,0,0,1-4.07-2.27,15.69,15.69,0,0,1-3.27-3.63,16.26,16.26,0,0,1-1.83-3.77,19.68,19.68,0,0,1-.94-4.38,95.47,95.47,0,0,1-.36-15.41,99.51,99.51,0,0,1,2-15.34c-1.89.58-3.76,1.2-5.63,1.85S421.18,193.21,419.34,193.92Zm-57,41.22c-.07.17-.13.34-.2.52l-.18.52a22.28,22.28,0,0,0-.19,13.36c1.32,4.33,4,8,8.11,9.74a7.61,7.61,0,0,0,.75.28c.26.09.51.16.77.23l1.27-2.17,1.28-2.14.49-.83c.17-.27.33-.55.49-.82a109.79,109.79,0,0,1-6.76-9A112.71,112.71,0,0,1,362.31,235.14Zm314.85,20c-.08.46-.15.91-.22,1.37s-.13.9-.19,1.35c.41-.43.82-.86,1.21-1.3s.79-.89,1.17-1.34l-1,0ZM629.39,239c.28,1.6.56,3.19.85,4.78s.58,3.17.86,4.75l.78,4.3.78,4.34q1.29-1,2.55-2c.85-.66,1.68-1.34,2.5-2a20.24,20.24,0,0,0,2.45-2.33,5.9,5.9,0,0,0,1.39-2.49,3.91,3.91,0,0,0-.11-2,7,7,0,0,0-.93-1.88q-2.82-1.29-5.61-2.69T629.39,239ZM383.81,253l1.08,1.16,1.11,1.14a21.15,21.15,0,0,0,3.29-3.85,18.35,18.35,0,0,0,2.16-4.43,25.37,25.37,0,0,0,1.2-7.73,32.73,32.73,0,0,0-.88-7.45,39.84,39.84,0,0,1-2.8,10.76A88.14,88.14,0,0,1,383.81,253Zm158.76-5.78c0,.51,0,1,0,1.55s0,1-.06,1.55l1.11-1.13,1.1-1.14c-.37-.12-.72-.25-1.07-.38S542.91,247.36,542.57,247.2Zm137.1.74c.8,0,1.6,0,2.4,0s1.59-.06,2.39-.12c.4-.66.79-1.33,1.16-2s.74-1.36,1.08-2.05a12.15,12.15,0,0,0-3.75,1.36A11,11,0,0,0,679.67,247.94ZM446.24,235.51c0,2,.09,4.08.13,6.12s.07,4.08.1,6.13a68.69,68.69,0,0,1,2.16-6.81,73.55,73.55,0,0,1,2.94-6.76A25.65,25.65,0,0,1,449,235,22.69,22.69,0,0,1,446.24,235.51Zm198.93,3.16a134.47,134.47,0,0,0,13.05,5.09,97.33,97.33,0,0,0,13.52,3.42,18.22,18.22,0,0,1,5.62-7.07,18.84,18.84,0,0,1,8.54-3.59,19.06,19.06,0,0,1,2-.2,15.7,15.7,0,0,1,1.94,0,53.07,53.07,0,0,0,2.58-12,46.64,46.64,0,0,0-.41-12.1c-.08-.48-.17-1-.26-1.44s-.21-1-.32-1.43a51.59,51.59,0,0,1-13.4-8.85c-.66-.59-1.34-1.24-2-1.93s-1.39-1.43-2.1-2.22A24.36,24.36,0,0,1,671,200.7a21.29,21.29,0,0,1-3.59,3.45,25,25,0,0,1-12.18,4.66,58.92,58.92,0,0,1-13.08-.08c-2.81-.27-5.62-.6-8.42-1s-5.58-.81-8.37-1.29c.17,3.53.45,7.05.82,10.58s.83,7,1.35,10.56a64.94,64.94,0,0,1,6.29,2.88,60.3,60.3,0,0,1,5.94,3.53,30.33,30.33,0,0,1,3,2.26A24.92,24.92,0,0,1,645.17,238.67Zm-278.57-11a107.18,107.18,0,0,0,5.56,10.07,102.28,102.28,0,0,0,6.61,9.39,51.69,51.69,0,0,0,5.2-12.74,21.89,21.89,0,0,0-.53-12.56,20.26,20.26,0,0,0-1.62-3.45,19.88,19.88,0,0,0-2.16-2.94,83.67,83.67,0,0,0-6.85,5.52A48.24,48.24,0,0,0,366.6,227.63ZM694.29,245l-.27.58-.27.58.77-.24.77-.25-.49-.35Zm2.66-6.8a17.55,17.55,0,0,1,2.85,1.8,17.08,17.08,0,0,1,2.48,2.33,22.17,22.17,0,0,0,5.21-4.65,18.28,18.28,0,0,0,3.25-6.14,24.18,24.18,0,0,0,.84-8.67,69.37,69.37,0,0,0-1.37-9.23,45.61,45.61,0,0,1-5.45-.42,46.55,46.55,0,0,1-5.43-1.08,55,55,0,0,1,.32,13.14A59.9,59.9,0,0,1,697,238.21ZM303,232.89c-.53,1.46-1,2.93-1.51,4.4s-.91,3-1.31,4.46a21.17,21.17,0,0,1,2.93-1.93,17.53,17.53,0,0,1,3.31-1.35l.43-.12.44-.1c1.11-1.28,2.21-2.58,3.27-3.9s2.12-2.66,3.14-4l-.46-.28-.44-.27c-.7-.43-1.38-.87-2.06-1.33s-1.33-.94-2-1.44c-1,.93-2,1.88-3,2.86S303.94,231.86,303,232.89Zm239.34,5.52a13.9,13.9,0,0,0,3.45,2.28,9.67,9.67,0,0,0,3.52.86h.57l.55,0c1.82-2.17,3.57-4.4,5.25-6.67s3.29-4.6,4.82-7c.75-1.17,1.46-2.33,2.14-3.47s1.33-2.29,2-3.43a28.7,28.7,0,0,1-4.81-1.34,29.55,29.55,0,0,1-4.64-2.25l-.26-.15-.25-.15a40.75,40.75,0,0,1-4.24-2.94,27.64,27.64,0,0,1-3.32-3.09c-1.61,0-3.23,0-4.85,0s-3.23.14-4.85.27a112.16,112.16,0,0,1,3.31,13.38A114.11,114.11,0,0,1,542.38,238.41ZM297.26,215.17c-.63,2.32-1.18,4.85-1.66,7.61s-.87,5.75-1.17,9v.16c.34-.45.69-.9,1-1.34s.71-.89,1.08-1.33c.62-1.66,1.28-3.29,2-4.92s1.44-3.22,2.22-4.81c-.61-.69-1.21-1.4-1.79-2.13S297.8,215.92,297.26,215.17Zm147.89-29c.06,5.63.17,11.26.29,16.86s.27,11.18.41,16.73c0,1.4.07,2.8.11,4.21s.07,2.81.1,4.22a22.38,22.38,0,0,0,6.25-2.26,38.45,38.45,0,0,0,5.69-3.7l1.18-.94,1.17-1,.75-1,.76-.93c.59-.72,1.19-1.42,1.8-2.12s1.23-1.39,1.86-2.07a21.57,21.57,0,0,1-4.87-9,25.58,25.58,0,0,1-.38-10.86,32,32,0,0,1,.92-3.93,36.5,36.5,0,0,1,1.42-3.86l-.94-.89-.95-.87-.06-.06-.06,0a32.3,32.3,0,0,0-6.09,0,58.33,58.33,0,0,0-7.33,1.08q-.51.09-1,.21Zm-7.22,4a95.1,95.1,0,0,0-2.16,14.89,90.1,90.1,0,0,0,.3,15,12.81,12.81,0,0,0,.55,2.69,9.59,9.59,0,0,0,1.07,2.23,7.55,7.55,0,0,0,.51.71,6.57,6.57,0,0,0,.55.62l-.09-3.16c0-1.06-.05-2.11-.08-3.17-.12-4.92-.25-9.87-.36-14.83S438,195.16,437.93,190.16Zm-106.7,26.38q-1.35,2.49-2.8,4.92c-1,1.62-2,3.22-3,4.8a13.35,13.35,0,0,0,3.84-1A16.48,16.48,0,0,0,333,223c.28-.23.55-.46.82-.71s.52-.49.77-.75c-.52-.86-1.05-1.71-1.61-2.55S331.82,217.35,331.23,216.54Zm196.17-3.82c.88,2.28,1.86,4.52,2.9,6.7s2.12,4.31,3.23,6.38q-.64-3.44-1.5-6.83t-2-6.72l-1.33.23Zm91.51,12.13.46.11.46.12c-.45-3.31-.84-6.63-1.15-10s-.53-6.68-.65-10c-3.56-.74-7.11-1.55-10.64-2.46s-7-1.88-10.51-2.95a28.65,28.65,0,0,1-1.68,4.93,27.84,27.84,0,0,1-2.59,4.56q6.52,4,13.1,7.94T618.91,224.85Zm-304.35-2.63,1,.71,1.06.67.64.39.68.39q1.26-1.86,2.46-3.77c.79-1.28,1.57-2.56,2.33-3.86q-2.11,1.23-4.17,2.6C317.23,220.27,315.88,221.22,314.56,222.22Zm181-.9.33.77.33.78c0-.28,0-.56,0-.83s0-.55-.05-.83l-.28,0ZM359.05,207q.85,3.36,1.92,6.66t2.35,6.52a60.37,60.37,0,0,1,5.07-5c1.75-1.56,3.54-3,5.31-4.34a30,30,0,0,0-6.95-2.63A43.2,43.2,0,0,0,359.05,207Zm-40-2.83q-2.1,2.7-4,5.52c-1.29,1.89-2.52,3.81-3.68,5.78,1.93-1.41,3.93-2.74,6-4s4.16-2.43,6.31-3.52c-.73-.68-1.48-1.34-2.24-2S319.87,204.74,319.08,204.16Zm157.44,9.3a15.81,15.81,0,0,0,1.66.64,16.33,16.33,0,0,0,1.73.48q0-1.08.06-2.16c0-.72,0-1.44,0-2.15-.59.52-1.17,1-1.75,1.58Zm-140.67-2.91q.75,1,1.47,2t1.41,2a20.95,20.95,0,0,0,1-5.34l-.64.19-.62.2c-.44.14-.89.29-1.33.45S336.3,210.38,335.85,210.55Zm151.39-5q1.36,2.2,2.64,4.47c.85,1.51,1.67,3,2.46,4.58l1.62-.29,1.63-.33q-.3-3.81-.65-7.6t-.77-7.58l-3.5,2.69c-1.16.91-2.32,1.82-3.47,2.75,0,.22,0,.43,0,.65S487.23,205.29,487.24,205.51Zm74.31,7c.6.26,1.19.48,1.78.67s1.18.35,1.76.49a7.2,7.2,0,0,0-1.31-.62,9.64,9.64,0,0,0-1.52-.41l-.35-.06Zm16.16-4.08q-.32,1.13-.69,2.25c-.24.76-.51,1.51-.78,2.28a23.91,23.91,0,0,0,2.52-1.09,23.13,23.13,0,0,0,2.28-1.34l-1.66-1.05Zm-277.44-2c.63,1.08,1.29,2.13,2,3.16s1.42,2,2.18,3c1.24-2.13,2.55-4.23,3.93-6.28s2.83-4.05,4.34-6a34.65,34.65,0,0,0-3.53-1.47,31.52,31.52,0,0,0-3.65-1,31.57,31.57,0,0,0-2.72,3.82A41,41,0,0,0,300.27,206.48Zm200.65-12.8c.35,3.07.68,6.13,1,9.2s.58,6.15.83,9.22c1.3-.37,2.6-.76,3.9-1.16l3.91-1.21,3-.93,2.9-.88.8-.23.8-.23a62,62,0,0,1-1.74-8.82,51.48,51.48,0,0,1-.28-9.14c0-.73.11-1.46.2-2.2s.2-1.48.33-2.23l-.75-1L515,183l-2.2,1.73-2.22,1.72c-1.49,1.14-3,2.28-4.51,3.41l-4.49,3.36-.33.25Zm-32.7-1.35q-.25.81-.45,1.62c-.13.54-.25,1.09-.34,1.63a19.46,19.46,0,0,0-.05,6.44,14.5,14.5,0,0,0,3.16,6.95,25.2,25.2,0,0,0,1.64-3.39,22.29,22.29,0,0,0,1.09-3.65c.11-.53.2-1.07.26-1.6s.09-1.06.1-1.58c-.86-1.1-1.75-2.19-2.65-3.26S469.16,193.37,468.22,192.33ZM550.91,204c2.13.12,4.26.31,6.37.57s4.23.58,6.33,1a17.07,17.07,0,0,1,2.83.78,15.48,15.48,0,0,1,2.52,1.23l.61.4.58.42c.22-.68.42-1.35.61-2s.37-1.33.53-2q-4.37-2.82-8.7-5.67T554,192.91a11.7,11.7,0,0,0-1.18,1,11,11,0,0,0-1,1.15,9.23,9.23,0,0,0-1.44,2.56,7.08,7.08,0,0,0-.38,3.48,8.07,8.07,0,0,0,.35,1.41A8.63,8.63,0,0,0,550.91,204Zm175.64-22.76a6.46,6.46,0,0,0-2.28.41,8.88,8.88,0,0,0-2.24,1.26,17.15,17.15,0,0,0-5.16,7.19,21.44,21.44,0,0,0-1.63,9.4c.07,1.08.19,2.16.34,3.25s.33,2.18.53,3.28c.67-.1,1.32-.22,2-.36s1.29-.3,1.93-.48a24.13,24.13,0,0,0,9.52-5,13.88,13.88,0,0,0,4.89-9.59,9.38,9.38,0,0,0-1.34-5.47,8,8,0,0,0-4.11-3.4,7.15,7.15,0,0,0-1.22-.33A6.26,6.26,0,0,0,726.55,181.19ZM523.34,196.26a48,48,0,0,0,.66,4.79c.29,1.59.66,3.16,1.09,4.72l1.22-.24,1.22-.22q-.93-2.31-2-4.57T523.34,196.26Zm56,4.62,3.51,2.23,3.52,2.22a21.36,21.36,0,0,0,2.16-3.66,20.6,20.6,0,0,0,1.41-4.23q-1.8-.62-3.6-1.26l-3.57-1.32-.89-.34-.89-.34-.53-.2-.52-.21c0,1.17-.07,2.34-.17,3.53S579.57,199.68,579.39,200.88Zm-55.09-17.3a110.33,110.33,0,0,1,5.88,10.08,112.26,112.26,0,0,1,4.76,10.63c1.35-.14,2.7-.25,4.06-.33s2.71-.13,4.06-.16c-.07-.26-.13-.53-.18-.79s-.1-.54-.14-.81a14.2,14.2,0,0,1,.39-6,16.34,16.34,0,0,1,2.88-5.58c.26-.34.54-.67.83-1s.59-.64.9-.94q-5-3.4-9.91-6.87c-3.3-2.3-6.57-4.63-9.84-7a35.13,35.13,0,0,0-2.15,4.24A32.92,32.92,0,0,0,524.3,183.58ZM357.43,199.65a51.48,51.48,0,0,1,9.72,1.22,40,40,0,0,1,8.79,3l-.64-.81-.65-.81c-1.48-1.86-3-3.76-4.49-5.69s-3-3.91-4.34-5.93c-1.64-2.39-3.2-4.87-4.71-7.37s-3-5-4.4-7.51l0-.08,0-.08-.44.12-.43.13a105.54,105.54,0,0,0,.17,11.93A107.33,107.33,0,0,0,357.43,199.65Zm-33.62-1.11c.61.46,1.22.93,1.82,1.42s1.2,1,1.8,1.52c.36.32.72.64,1.08,1l1.07,1c0-.1.09-.2.13-.31l.14-.3c.61-1.39,1.18-2.8,1.73-4.24s1.07-2.88,1.55-4.36c-.48-.39-1-.75-1.49-1.09s-1.05-.66-1.6-.95q-1.62,1.5-3.18,3.09T323.81,198.54Zm45.11-16.41c.47.76.95,1.5,1.43,2.24s1,1.46,1.46,2.18c1.32,1.91,2.72,3.81,4.16,5.68s2.92,3.71,4.37,5.53l2.16,2.72c.72.91,1.45,1.83,2.16,2.76q2.31-1.45,4.67-2.85c1.58-.93,3.16-1.84,4.77-2.72q-2.14-3.13-4.5-6.11t-4.91-5.75a59.39,59.39,0,0,0-4.78-4.7,32,32,0,0,0-5.85-4.14q2.9,3,6.17,6.25t6.92,6.82l-2.54,2.6-2.55,2.6q-3.65-3.57-6.92-6.83T368.92,182.13Zm-30.5,19c-.07.18-.14.36-.2.54s-.14.36-.22.54l.38-.11.38-.11c-.05-.14-.1-.29-.16-.43Zm286.8-2q4.38.78,8.79,1.39t8.85,1a53.76,53.76,0,0,0,10.88.19,18.31,18.31,0,0,0,9.28-3.33,14.87,14.87,0,0,0,3.32-3.55,22.37,22.37,0,0,0,2.44-5,66.06,66.06,0,0,1-3.88-6.42,74.06,74.06,0,0,1-3.5-7.67,40.79,40.79,0,0,0-6.63-1.84,39,39,0,0,0-6.82-.69,30.82,30.82,0,0,0-7.9.87,17.22,17.22,0,0,0-13,12.15A43.69,43.69,0,0,0,625.22,199.07Zm-283.84-6.88a24.73,24.73,0,0,1,3.58,5.7c.18.41.35.82.51,1.24s.3.83.44,1.26l2.1-.3c.71-.09,1.41-.16,2.11-.23-.6-3.46-1.05-6.94-1.33-10.44s-.42-7-.38-10.5c-.8.41-1.58.84-2.34,1.27s-1.5.88-2.21,1.33q-.5,2.68-1.11,5.36T341.38,192.19Zm335.36-3.76q1.35,1.75,2.88,3.42c1,1.12,2.11,2.2,3.26,3.24.71.64,1.44,1.26,2.18,1.85s1.5,1.16,2.27,1.69a49.76,49.76,0,0,0-4.46-6.92,50.73,50.73,0,0,0-5.54-6.08c-.09.49-.18,1-.28,1.43S676.85,188,676.74,188.43ZM296,197.3l.18.47c.05.16.11.32.17.48l.31-.53.32-.52-.49,0Zm301.61-5q5,1.57,10.11,2.92T618,197.65a49.55,49.55,0,0,1,2-13.13,26.11,26.11,0,0,1,7.42-11.94,25.41,25.41,0,0,1,10.45-5.44A38.22,38.22,0,0,1,648,165.93a43.47,43.47,0,0,1,5.36.36,46.6,46.6,0,0,1,5.25,1c-.3-1.12-.58-2.26-.85-3.43s-.51-2.38-.74-3.61c-.14-.72-.26-1.43-.37-2.14s-.21-1.4-.29-2.09c-.54-.2-1.07-.4-1.61-.62s-1.08-.43-1.63-.67A69.66,69.66,0,0,1,643,149.31a73,73,0,0,1-9.22-7A13.21,13.21,0,0,1,630.3,144a15.38,15.38,0,0,1-4.29.75,76.63,76.63,0,0,1-8.59-.22c-2.81-.22-5.54-.54-8.06-.86l-2.65-.33-2.66-.33c-.49,1-1,2.05-1.43,3.08s-.91,2.06-1.33,3.08a94.82,94.82,0,0,0-5.44,16.16,37.45,37.45,0,0,0-.35,16.24c.1.44.22.9.34,1.36s.27.92.42,1.39a29.86,29.86,0,0,1,1,4A28.39,28.39,0,0,1,597.64,192.3Zm-35.36-2.57c1.71,1.14,3.42,2.28,5.14,3.4s3.44,2.26,5.17,3.38c.07-.9.11-1.79.13-2.67s0-1.76,0-2.62a38.3,38.3,0,0,0-5.23-1.21A24.33,24.33,0,0,0,562.28,189.73Zm-77.74-16.3c.44,3,.83,6.22,1.19,9.59s.66,6.93.93,10.68l.06.78c0,.27,0,.53,0,.8,1.07-.83,2.14-1.66,3.22-2.47s2.15-1.63,3.23-2.44q-.59-4.86-1.22-9.7c-.43-3.23-.87-6.46-1.32-9.67-1.05.34-2.08.71-3.11,1.11S485.54,173,484.54,173.43ZM312.25,192.18c.88.32,1.77.68,2.65,1.08s1.75.82,2.62,1.28c.7-.8,1.42-1.58,2.16-2.36s1.47-1.54,2.23-2.29c-.62,0-1.24,0-1.85,0a16,16,0,0,0-1.83.2,18.82,18.82,0,0,0-6,2.09Zm52.67-25a27.56,27.56,0,0,1,3.87.36,28,28,0,0,1,3.75.89,32.43,32.43,0,0,1,10,5.39,59.59,59.59,0,0,1,7.49,7c1.92,2.08,3.77,4.25,5.52,6.48s3.43,4.54,5,6.9c1.82-.91,3.67-1.79,5.52-2.64s3.73-1.68,5.61-2.47c-.31-5.22-.39-10.46-.22-15.69s.57-10.44,1.23-15.63a138.14,138.14,0,0,0-26.12-5.31,136.5,136.5,0,0,0-27-.15c-.32,1.07-.62,2.14-.89,3.22s-.53,2.15-.77,3.24q1.49,2,3.23,4T364.92,167.22Zm-49.86-25.3a21.85,21.85,0,0,0-7.75,4,33.5,33.5,0,0,0-6.88,7.45,43.28,43.28,0,0,0-6.85,17.09A52.08,52.08,0,0,0,294,190l0,.1,0,.11a34.38,34.38,0,0,1,4.4-.38,35.72,35.72,0,0,1,4.39.15,28.11,28.11,0,0,1,6.35-4.51,27.36,27.36,0,0,1,7.84-2.57,24.87,24.87,0,0,1,5.84-.26,26.72,26.72,0,0,1,5.73,1.09c1.37-1.15,2.77-2.28,4.2-3.37s2.89-2.14,4.38-3.16a97.73,97.73,0,0,0,1.08-14.16,84.55,84.55,0,0,0-1.07-13.93l-.55-.46-.55-.45a56.56,56.56,0,0,1-10.48-1.82,42.37,42.37,0,0,1-10.17-4.25l-.19-.12ZM579.41,185.8c.71.25,1.42.52,2.12.78l2.11.81.88.33.88.34,2.36.88,2.37.85q-.14-.78-.33-1.59c-.13-.54-.29-1.09-.46-1.63s-.36-1.15-.51-1.71-.3-1.13-.42-1.68a44,44,0,0,1,.2-18.77,100.44,100.44,0,0,1,6-18c.3-.71.6-1.43.92-2.15s.63-1.44,1-2.16l-13.38-1.67-13.37-1.67a32.14,32.14,0,0,1-6.26,9.88,44.46,44.46,0,0,1-9.42,7.71,29.09,29.09,0,0,1,6.94,2.82,34.23,34.23,0,0,1,6.43,4.67,38.83,38.83,0,0,1,7.86,10.06A37.78,37.78,0,0,1,579.41,185.8Zm-105.82-3.49a19.28,19.28,0,0,1,1.92,1.82,20,20,0,0,1,1.74,2.18c.35.5.67,1,1,1.54s.57,1.07.82,1.62q-.27-3.1-.57-6t-.66-5.61c-.76.67-1.5,1.38-2.21,2.12S474.22,181.5,473.59,182.31Zm-54.92-4.83c0,1.48,0,3,0,4.43s.07,3,.14,4.43c1.43-.53,2.87-1,4.31-1.54s2.89-1,4.35-1.44a28.42,28.42,0,0,1-4.72-2.5A25.69,25.69,0,0,1,418.67,177.48Zm79.09-8.34q.57,4,1.11,8.09c.37,2.71.72,5.41,1.06,8.13l3.12-2.35c1-.79,2.08-1.57,3.1-2.36.72-.55,1.45-1.11,2.16-1.67s1.44-1.12,2.15-1.69q-2-2.35-4.18-4.58c-1.45-1.49-2.93-2.93-4.46-4.32l-2,.35Zm34.71,0q5.38,3.85,10.83,7.66t10.94,7.53a23.78,23.78,0,0,1,3.16-1.13,21.78,21.78,0,0,1,3.28-.62,30.11,30.11,0,0,1,5.45,0,37.73,37.73,0,0,1,5.3.84,29.82,29.82,0,0,0-11-15.87c-4.9-3.56-10.55-5.26-15.57-4.64a19.81,19.81,0,0,0-6.74,2.11A23.46,23.46,0,0,0,532.47,169.13Zm-65.86,9.45.27.09.26.09c.06-.09.13-.17.19-.25a2.35,2.35,0,0,1,.19-.25l-.46.16Zm-46-18a10.47,10.47,0,0,0-.41,1.74,11.11,11.11,0,0,0-.12,1.83,12.39,12.39,0,0,0,4.4,8.91,20.28,20.28,0,0,0,9.43,4.75q.82-2.39,1.77-4.73t2-4.64c-2.73-1.5-5.53-2.92-8.38-4.23S423.58,161.66,420.63,160.55Zm24.46,12.27v4.8q1.32-.23,2.64-.54c.88-.2,1.75-.43,2.62-.67-.86-.62-1.73-1.23-2.6-1.83S446,173.4,445.09,172.82Zm2.18-7.22q3,1.88,5.87,3.88t5.64,4.18l.74-.26.73-.26,7.25-2.6,7.26-2.6.72-.26.71-.26c-.68-3.62-1.44-7-2.29-10s-1.79-5.94-2.81-8.59c-1.24-.52-2.49-1-3.74-1.48s-2.53-.91-3.8-1.33a42.5,42.5,0,0,0-7.1,6.39,56.85,56.85,0,0,0-4.6,5.84c-.83,1.19-1.62,2.41-2.38,3.64S448,164.33,447.27,165.6ZM511,167.17c.88.9,1.74,1.81,2.59,2.74s1.69,1.87,2.51,2.82l2.08-1.72,2.08-1.74c-.62-.45-1.23-.89-1.83-1.34l-1.83-1.35-.46,0-.46.05-2.35.24ZM345.49,158c.11,2.35.13,4.74.07,7.14s-.21,4.82-.44,7.24c.62-.32,1.24-.63,1.86-.92s1.23-.57,1.84-.84c.1-1.12.22-2.23.35-3.35s.28-2.23.45-3.34c-.66-1-1.34-2-2-3S346.21,159,345.49,158ZM667.1,170.12c.7.3,1.39.63,2.07,1s1.36.69,2,1.06q0-3.42-.14-6.78c-.13-2.23-.33-4.44-.61-6.61-1,0-2.09-.07-3.16-.18s-2.16-.27-3.27-.47c0,.13.05.26.07.39s0,.26.07.39c.32,1.7.71,3.51,1.19,5.39S666.42,168.12,667.1,170.12Zm-186.86-17q.74,2.44,1.38,5.08c.44,1.76.85,3.6,1.24,5.5.18-.19.36-.39.52-.59a5.87,5.87,0,0,0,.46-.65A7.8,7.8,0,0,0,484.9,159a13,13,0,0,0-.19-3.36c-.73-.44-1.47-.87-2.22-1.3S481,153.53,480.24,153.13Zm15.34.94q2.21,1.55,4.34,3.21t4.18,3.42l2-.26,2-.25c-1.93-1.45-3.85-2.92-5.77-4.38s-3.83-2.95-5.73-4.43l-.78-.61-.79-.61c.1.65.19,1.3.29,2S495.48,153.41,495.58,154.07Zm-70.57.39c2.22.87,4.4,1.79,6.56,2.76s4.29,2,6.39,3.09c0-2,.08-4,.14-6.06s.13-4,.21-6.06a49.91,49.91,0,0,0-7.69,2.82A26.52,26.52,0,0,0,425,154.46Zm68.5-14.34c1.33.87,2.62,1.79,3.87,2.72s2.47,1.88,3.65,2.8q4.37,3.41,8.78,6.75t8.87,6.67c2.18-.24,4.38-.49,6.56-.79s4.33-.63,6.45-1c.48-.09,1-.19,1.45-.3l1.46-.34q5.11-4.77,10.07-9.71t9.72-10.06l-8.23-1-8.23-1a59,59,0,0,1-12-2.47,21.54,21.54,0,0,1-9.88-6.51,16.17,16.17,0,0,1-2.55-4.25,17.25,17.25,0,0,1-1.2-4.85,69.3,69.3,0,0,1-9.38,8.78,80.85,80.85,0,0,1-10.53,6.91c.18,1.3.37,2.59.56,3.88Zm-47.85,6.32c-.06,1.39-.11,2.79-.16,4.18s-.1,2.79-.14,4.19l.25-.37.25-.36c1.15-1.69,2.35-3.27,3.58-4.76s2.5-2.86,3.79-4.14l-1,.15-1,.15c-1,.15-2,.3-2.89.46Zm217.56,4c.95.23,1.92.44,2.92.6a30.58,30.58,0,0,0,3.05.34q-.75-3.43-1.77-6.72t-2.31-6.38a24.75,24.75,0,0,0-1.53,5.59A36.39,36.39,0,0,0,663.22,150.46Zm6.86-18.84a78.39,78.39,0,0,1,3.74,9.25,85.84,85.84,0,0,1,2.66,9.91,18.09,18.09,0,0,0,4-1.57,17.16,17.16,0,0,0,3.72-2.67,12,12,0,0,0,3.57-6.13,10.48,10.48,0,0,0-.66-6.73,8.46,8.46,0,0,0-3.39-3.87,9.3,9.3,0,0,0-3.84-1.18,13.4,13.4,0,0,0-5.1.6A16,16,0,0,0,670.08,131.62ZM351.24,148.2c.2.41.4.83.62,1.24s.44.84.67,1.26c.13-.45.26-.89.4-1.33s.27-.88.41-1.32l-1,.08Zm24.2-3.64a144.51,144.51,0,0,1,38.42,6.05,28.86,28.86,0,0,1,1.69-5.3,18.54,18.54,0,0,1,3.06-4.86,18.33,18.33,0,0,1,8.31-5.32,34.34,34.34,0,0,1,12.16-1.31c.05-.73.1-1.46.16-2.18s.1-1.46.16-2.19l-.29,0-.29,0c-3.79-.47-7.61-.95-11.4-1.57a101.9,101.9,0,0,1-11.18-2.41,95.35,95.35,0,0,1-18.63,11.43A117.72,117.72,0,0,1,375.44,144.56Zm262.85-8a65.8,65.8,0,0,0,8.45,6.51A62,62,0,0,0,656,148a37.38,37.38,0,0,1,1.43-9.6,27.31,27.31,0,0,1,3.76-7.9l0-.06,0-.06c-.39-.67-.79-1.34-1.2-2s-.84-1.31-1.27-1.94c-1.1-1.62-2.29-3.18-3.55-4.69a59.11,59.11,0,0,0-4-4.34,10.69,10.69,0,0,0-8.45-3.32,11.93,11.93,0,0,0-7.32,3.57c-.25.25-.48.5-.7.76a9.75,9.75,0,0,0-.64.8,13.37,13.37,0,0,1,4,4.92,15.23,15.23,0,0,1,1.46,6.11,15.74,15.74,0,0,1-.25,3.21A15.08,15.08,0,0,1,638.29,136.54ZM436.7,141a24.28,24.28,0,0,0-7.63,1.05,11.2,11.2,0,0,0-5,3.17c-.25.29-.49.59-.71.9s-.41.64-.6,1a40.13,40.13,0,0,1,6.35-3.35A63.71,63.71,0,0,1,437,141h-.31Zm122.49,1.3-1.63,1.73-1.64,1.72c.59-.54,1.16-1.1,1.71-1.67S558.7,142.94,559.19,142.33Zm-82.45,1,1.06.48,1.06.5c-.45-.49-.92-1-1.4-1.41s-1-.89-1.49-1.31l.39.86C476.48,142.73,476.61,143,476.74,143.32Zm-89.55-75h-.32c-.11,0-.22,0-.33,0a8.91,8.91,0,0,0-5.11,2.8,31.11,31.11,0,0,0-4,5.11C367.2,91.83,359.65,103.49,354.76,113s-7.09,16.94-6.62,24c0,.68.12,1.36.21,2s.22,1.36.37,2l.54,0,.53,0a131,131,0,0,0,32.07-5.79,96.76,96.76,0,0,0,26.2-12.77,48.24,48.24,0,0,1-5-2.6,43.06,43.06,0,0,1-4.71-3.26,36.32,36.32,0,0,1-9.22-11.19,39.17,39.17,0,0,1-4.46-14.19,35.41,35.41,0,0,1,.66-11.95,30.11,30.11,0,0,1,4.59-10.37,7.92,7.92,0,0,0-1.37-.41A6.32,6.32,0,0,0,387.19,68.33ZM319.28,134.1a27.62,27.62,0,0,1,7.62,1.12,36,36,0,0,1,7.74,3.29,57.57,57.57,0,0,0-7.53-15.38A48.86,48.86,0,0,0,315,111c-2.12-1.47-3.45-1.88-4.31-1.86a1.81,1.81,0,0,0-1.48.76,2.88,2.88,0,0,0-.28.38c-.08.14-.16.3-.24.47a16.34,16.34,0,0,0,0,12.85,25.27,25.27,0,0,0,8.1,10.69h.09c.41,0,.82-.08,1.24-.1S318.86,134.1,319.28,134.1Zm288.61,2.08,1.18.15,1.19.15c2.38.3,5,.6,7.58.81a69.85,69.85,0,0,0,7.91.22,8.44,8.44,0,0,0,1.48-.18,6.42,6.42,0,0,0,1.26-.4,18.42,18.42,0,0,1-3.37-6.48,16.88,16.88,0,0,1-.5-6.6,14.68,14.68,0,0,0-2.25.33,12.66,12.66,0,0,0-2.08.68,23.36,23.36,0,0,0-6.94,4.63A36.89,36.89,0,0,0,607.89,136.18Zm-161.57-1.64c2,.27,4,.61,6,1s4,.83,5.94,1.33c1-.2,2-.41,2.94-.64l3-.72-.3-.44-.3-.43a70.53,70.53,0,0,0-8.68-2.67c-2.7-.66-5.13-1.09-7-1.38l-.63-.1-.64-.09c-.05.69-.11,1.38-.16,2.07S446.37,133.85,446.32,134.54Zm39.05,1.35.09,0,.09,0v-.14l-.08,0Zm-17-7.12c1.13.49,2.27,1,3.4,1.58s2.25,1.18,3.34,1.83q2.36-.84,4.68-1.81t4.63-2.06c-1.19-8.39-2.32-16.84-3.3-25.32s-1.81-17-2.4-25.52c-1.05.33-2.1.67-3.14,1s-2.08.72-3.11,1.11a58.34,58.34,0,0,0-10.23,4.76,26.14,26.14,0,0,0-8.58,8,27.07,27.07,0,0,0-3.25,7.9,78,78,0,0,0-1.58,8.74,1.8,1.8,0,0,0,0,.22l0,.21c3.89,3.2,7.46,6.27,10.72,9.43A83.85,83.85,0,0,1,468.4,128.77Zm67.11-29.4a19.23,19.23,0,0,0-2.62.18,16.89,16.89,0,0,0-2.61.57,14.45,14.45,0,0,0-6.23,3.95,17.12,17.12,0,0,0-4,6.72,14,14,0,0,0-.61,4.7,9.5,9.5,0,0,0,2.16,5.67,15.14,15.14,0,0,0,7.33,4.51,56.19,56.19,0,0,0,9.86,1.88l10.78,1.35,10.77,1.35c.65-.72,1.29-1.45,1.92-2.18s1.28-1.45,1.91-2.18a25.7,25.7,0,0,0-2.4-8,34.89,34.89,0,0,0-5.11-7.7,34.23,34.23,0,0,0-9.45-7.63A24.77,24.77,0,0,0,535.51,99.37ZM485.9,75.48c.54,8.21,1.31,16.44,2.24,24.64s2,16.38,3.13,24.52a70.38,70.38,0,0,0,10.09-7.31A59.59,59.59,0,0,0,510,108a46.67,46.67,0,0,0,7.77-17.25,48.11,48.11,0,0,0,.59-19,129.22,129.22,0,0,0-16.34.81A126.85,126.85,0,0,0,485.9,75.48Zm-38.66,47.67.87.12.86.13c.84.13,1.76.28,2.76.46s2.06.4,3.19.65c-1.11-1.09-2.26-2.17-3.45-3.26s-2.42-2.16-3.7-3.25c-.1.86-.19,1.71-.27,2.57S447.32,122.29,447.24,123.15Zm-24.36-3.6c2.73.6,5.53,1.08,8.36,1.49s5.66.77,8.48,1.13l.15,0,.16,0c.16-1.63.32-3.25.5-4.87s.36-3.24.56-4.86l-2.32-1.87-2.4-1.92c-.46-.36-.93-.73-1.39-1.11s-1-.75-1.42-1.14l-.17.26-.16.25a72.92,72.92,0,0,1-4.81,6.55A78.92,78.92,0,0,1,422.88,119.55ZM535.54,92.1a31.69,31.69,0,0,1,14.08,3.49,40.59,40.59,0,0,1,12.58,9.9,43.92,43.92,0,0,1,4.71,6.56A36.63,36.63,0,0,1,570,119a49.41,49.41,0,0,0,4.56-6.55,21.66,21.66,0,0,0,2.63-7c.71-4.31-.66-10.24-5.3-15.86s-12.57-10.94-25-14q-5.22-1.31-10.53-2.14t-10.7-1.23a54.26,54.26,0,0,1,.44,11.4,56.34,56.34,0,0,1-1.93,11.31c.64-.35,1.29-.66,2-.94a20.24,20.24,0,0,1,2-.73,24.69,24.69,0,0,1,3.61-.78A26.89,26.89,0,0,1,535.54,92.1ZM395.9,73a23.21,23.21,0,0,0-3.51,8,27.86,27.86,0,0,0-.48,9.35,31.72,31.72,0,0,0,3.58,11.49,29.2,29.2,0,0,0,7.4,9,36,36,0,0,0,5.61,3.65,45.85,45.85,0,0,0,6.17,2.69,71,71,0,0,0,6.78-6.77,67.25,67.25,0,0,0,5.69-7.5l.36-.57c.13-.19.24-.38.36-.57-4.38-3.58-9.1-7.54-14.17-12s-10.46-9.52-16.19-15.23c-.27-.26-.53-.53-.8-.78Zm5.23-5,.76.72.74.73c5.35,5.33,10.42,10.07,15.19,14.32s9.26,8,13.43,11.47a33.27,33.27,0,0,0,2.6-11.12,20.68,20.68,0,0,0-1.77-9.68,16,16,0,0,0-5.86-6.67A21.54,21.54,0,0,0,417,64.52a24.94,24.94,0,0,0-8.42.41A22.52,22.52,0,0,0,401.13,68Zm93.64-22.41a11.72,11.72,0,0,0-2.52.28,11.15,11.15,0,0,0-2.37.84,7.4,7.4,0,0,0-4,4.39,22.57,22.57,0,0,0-.73,7.72c0,1.55.08,3.1.13,4.65s.12,3.1.2,4.65a136.51,136.51,0,0,1,30.85-3.6,33.24,33.24,0,0,0-5.62-9.71,30.11,30.11,0,0,0-10.69-8,12.9,12.9,0,0,0-2.61-.87A12,12,0,0,0,494.77,45.57Z"/><path class="cls-2" d="M424.2,225a13.14,13.14,0,0,1,3.93-4.77,5.94,5.94,0,0,1,4.49-1.22,4.58,4.58,0,0,1,1.05.35,5.52,5.52,0,0,1,1.29.87c.56-1.1,1.51-2.66,2.33-3.94s1.49-2.28,1.49-2.28a17.48,17.48,0,0,1,5.52-5.58,6.62,6.62,0,0,1,5.43-1,4.34,4.34,0,0,1,1.08.54,5.42,5.42,0,0,1,1.22,1.13,19.88,19.88,0,0,1,2.16-2.9,10.35,10.35,0,0,1,4.16-3,5.32,5.32,0,0,1,1.55-.29,3.58,3.58,0,0,1,.8.08,4.22,4.22,0,0,1,1.69.82,4,4,0,0,1,1.14,1.4c.7,1.55,0,3.51-.75,5.12s-1.72,2.85-1.54,3,.15-.08.29-.22a2.06,2.06,0,0,1,.57-.45,4.1,4.1,0,0,1,4.29.36,6.58,6.58,0,0,1,2.57,3.67,8.12,8.12,0,0,1-.74,5.43,28,28,0,0,1-3,4.71,61.75,61.75,0,0,0-8.85,17.4c-2.08,6.56-2.83,13.42-.91,19.12,1.12,3.33,3.32,4.11,5.69,3.65a14.83,14.83,0,0,0,6.67-3.85c.68-.64,1.51-1.51,2.44-2.45s2-2,3.08-2.91a16,16,0,0,1,5.1-3.17,5.19,5.19,0,0,1,5,.72,6.52,6.52,0,0,1,1.34,1.43,5.52,5.52,0,0,1,.57,1c.93,2.42-.09,5.13-2.11,8.43s-5.05,7.18-8.14,11.94a107.79,107.79,0,0,0-9.48,18A86.11,86.11,0,0,0,462.1,307l-10.77,60.59q-5.38,30.3-10.76,60.6a44.82,44.82,0,0,1-2.81,9.53,39.33,39.33,0,0,1-5,8.59,41.32,41.32,0,0,1-17.21,13.23,34.93,34.93,0,0,1-20.36,2c-10.29-2.22-19.08-9.57-24.19-19.37A41.78,41.78,0,0,1,369,408.12l21.67-58,21.68-58A102.86,102.86,0,0,1,411.15,270a103.13,103.13,0,0,1,5-26.51A108.78,108.78,0,0,1,424.2,225Z"/><path class="cls-3" d="M461.17,213.33c-1.91,2.95-3.87,6.21-5.82,9.8s-3.86,7.49-5.69,11.71c-1.36,3.14-2.55,6.2-3.59,9.13s-1.93,5.77-2.71,8.45"/><path class="cls-3" d="M452,209.11c-1.82,3.21-3.66,6.62-5.47,10.23s-3.62,7.42-5.38,11.42q-2.12,4.86-3.9,9.49c-1.19,3.08-2.28,6.09-3.27,9"/><path class="cls-3" d="M435.2,219.79q-1.32,2.7-2.62,5.64c-.86,2-1.72,4-2.55,6.15q-1.42,3.64-2.58,7.1t-2.08,6.67"/><path class="cls-4" d="M417.31,266.8a39.1,39.1,0,0,0-9,5.56A37.4,37.4,0,0,0,395,309.07a39.91,39.91,0,0,0,3.68,10.72l32.15.08L463,320V281.37l-22.86-7.28Z"/><path class="cls-5" d="M572.42,499.4c4.83-18.19,4.41-38.17,2.59-54.27a215.31,215.31,0,0,0-5.76-31.06l-11.54.27-11.53.28-56,1.32-56,1.33-16,224.9-16,224.9,65.32,1.43,65.31,1.43q-.72-21.15-1.45-42.3l-1.44-42.3q6.48,21.15,13,42.3t13,42.3c22.28.09,44,0,65.64,0s43.35-.1,65.64,0L629.75,684.65Z"/><path class="cls-6" d="M463.22,255.32a99,99,0,0,1,12.5-6.13c3.49-1.43,5.87-2.2,5.87-2.2a83.78,83.78,0,0,1,11.75-2.86A109.12,109.12,0,0,1,515,242.67c8.11.24,19.33.56,30.66,3.37s22.76,8.1,31.29,18.27a44.38,44.38,0,0,1,3.42,4.71,61.63,61.63,0,0,1,5.32,10.45c7,17.65,5.56,36.63,1.57,52.72a159.43,159.43,0,0,1-13.74,35.34q-1.05,11.64-2.12,23.27t-2.12,23.27l-67.54,1.6-67.53,1.6a129.42,129.42,0,0,1-15.64-32.17c-5.63-17.19-9.06-39.77-2.44-64.5a116.18,116.18,0,0,1,20.07-40.35C444.71,269.1,454.42,260.52,463.22,255.32Z"/><path class="cls-2" d="M485,226.6a52.11,52.11,0,0,0-15.43-32.43c-8.26-7.85-19-12.12-30.22-10.95s-20.85,7.56-27.32,16.95a52.11,52.11,0,0,0-8.4,34.91c.1,1,.23,1.92.38,2.87s.32,1.88.51,2.81l-2.56,2.6c-.86.87-1.72,1.73-2.57,2.6l4.22,2.65,4.22,2.65a47.86,47.86,0,0,0,17,20.88,36.87,36.87,0,0,0,24.45,6.32c11.23-1.17,20.85-7.56,27.31-16.95A52.12,52.12,0,0,0,485,226.6Z"/><path class="cls-7" d="M421.92,234.94a2.47,2.47,0,1,1-.86-1.68A2.47,2.47,0,0,1,421.92,234.94Z"/><path class="cls-8" d="M591.52,561.12c.54,1.76,1.09,3.52,1.63,5.28q2-1.17,4.06-2.21A41.54,41.54,0,0,1,591.52,561.12Z"/><path class="cls-5" d="M582.36,585.72a73.63,73.63,0,0,0-7,7.64,59.44,59.44,0,0,0-7,11,44,44,0,0,0-3.43,9.91,37,37,0,0,0-.79,8.6,34.31,34.31,0,0,0,.93,7,33.82,33.82,0,0,0,3.81,9.12,49.59,49.59,0,0,0,6.57,8.7,57.68,57.68,0,0,0,8.63,7.53,52.82,52.82,0,0,0,10,5.59,40.66,40.66,0,0,0,7.35,2.32,32.53,32.53,0,0,0,7,.73A26.24,26.24,0,0,0,615,663a23.09,23.09,0,0,0,5.85-2.48,4.26,4.26,0,0,1,1.29-.5Q609,617.66,595.91,575.31c-1.85,1.13-3.67,2.34-5.44,3.63A82.26,82.26,0,0,0,582.36,585.72Z"/><path class="cls-5" d="M618.53,851.49a69.58,69.58,0,0,1-8.63-16.17,62.71,62.71,0,0,1-3.63-15.13,54.86,54.86,0,0,1,.36-14.73,52.09,52.09,0,0,1,4.28-13.83A54.13,54.13,0,0,1,619,779.19a70.75,70.75,0,0,1,23.25-17.35,93.09,93.09,0,0,1,10.1-4.09l-22.62-73.1-5-16a31.79,31.79,0,0,1-7.12,3,34.19,34.19,0,0,1-8.56,1.28,40.27,40.27,0,0,1-9.11-.82,49.47,49.47,0,0,1-9.42-2.93,61.27,61.27,0,0,1-11.86-6.65,65.06,65.06,0,0,1-10.17-8.95,58.3,58.3,0,0,1-7.74-10.45,41,41,0,0,1-5.7-22.13,47.16,47.16,0,0,1,1.66-11.24,55.53,55.53,0,0,1,4.4-11.18,68.6,68.6,0,0,1,7.08-10.87,81.14,81.14,0,0,1,6.16-6.92,91.93,91.93,0,0,1,14.69-11.93q2-1.3,4-2.48c-.54-1.76-1.09-3.52-1.63-5.28l-.33-.2a41.85,41.85,0,0,1-5.37-4.19,41,41,0,0,1-4.58-5,38.19,38.19,0,0,1-3.67-5.73A38.68,38.68,0,0,1,574,535.81a42.26,42.26,0,0,1,1.24-21.48q.45-1.37,1-2.67-1.9-6.14-3.79-12.26c4.83-18.19,4.41-38.17,2.59-54.27a215.31,215.31,0,0,0-5.76-31.06l-11.54.27-11.53.28-10.78.25a92.83,92.83,0,0,1,5.11,27.31,92,92,0,0,1-1,17,87.76,87.76,0,0,1-4.15,16.34,82.06,82.06,0,0,1-7.19,15.07c-.85,1.39-2.14,3.38-3.88,5.72a85.3,85.3,0,0,1-6.59,7.83,82.64,82.64,0,0,1-9.37,8.51,75.64,75.64,0,0,1-12.22,7.77,54.82,54.82,0,0,1,3.31,5.74,51.4,51.4,0,0,1,2.71,6.47,48.82,48.82,0,0,1,1.81,7.17,46.46,46.46,0,0,1,.67,7.86,52.93,52.93,0,0,1-2.88,17,63.64,63.64,0,0,1-8.18,16,75.58,75.58,0,0,1-12.8,14.08A84.13,84.13,0,0,1,464,605.93a111.48,111.48,0,0,1-16.85,6.82,160.34,160.34,0,0,1-17.55,4.42c-3.26.64-6.53,1.19-9.78,1.68l-1.66,23.32L413,715c.71,0,1.43,0,2.14.07a74.7,74.7,0,0,1,15.13,2.49,66,66,0,0,1,13.69,5.39,46.52,46.52,0,0,1,18.76,17.82,53.42,53.42,0,0,1,5.15,11.77,63.55,63.55,0,0,1,2.49,13.37,78,78,0,0,1-.27,14.68,92.33,92.33,0,0,1-1.76,10.34,103.9,103.9,0,0,1-6.94,20.26,100.37,100.37,0,0,1-5,9.37,46.53,46.53,0,0,1,7.73-.47,45.88,45.88,0,0,1,7.67.8,45.08,45.08,0,0,1,7.4,2,43.39,43.39,0,0,1,16.52,10.92,48,48,0,0,1,11.69,21.35,44.11,44.11,0,0,1,1.28,12.16,4.94,4.94,0,0,1-.11.86,5.41,5.41,0,0,1-.24.81,2.81,2.81,0,0,1-.19.39l24.6.53q-.72-21.15-1.45-42.3l-1.44-42.3q6.48,21.15,13,42.3t13,42.3c22.28.09,44,0,65.64,0l16.28,0a69.82,69.82,0,0,1-6.86-5.08A72.55,72.55,0,0,1,618.53,851.49Zm-46.64-132.2a9.07,9.07,0,0,1-1,3.4,9.25,9.25,0,0,1-9,5,9.07,9.07,0,0,1-3.4-1,9.18,9.18,0,0,1-4.58-5.39,9.31,9.31,0,0,1,.58-7,9.24,9.24,0,0,1,17,1.4A9.12,9.12,0,0,1,571.89,719.29Z"/><path class="cls-5" d="M444.18,604.13a104.13,104.13,0,0,0,15.68-6.34,75.83,75.83,0,0,0,14.69-9.73,66.24,66.24,0,0,0,11.22-12.14A54.92,54.92,0,0,0,493,562.18a44.41,44.41,0,0,0,2.52-14.49,38,38,0,0,0-.63-6.85,39.58,39.58,0,0,0-1.7-6.23,43.12,43.12,0,0,0-2.52-5.59,46.7,46.7,0,0,0-3.05-4.93c-1.12.39-2.27.76-3.44,1.11s-2.37.66-3.59.95-2.46.55-3.72.77-2.56.43-3.88.59q-3,.38-6,.48t-6,0c-2-.09-4-.27-5.95-.52s-4-.6-5.93-1a17.71,17.71,0,0,1-6.71-2.91,15.45,15.45,0,0,1-4.31-4.8,16.72,16.72,0,0,1-2-5.9,18.18,18.18,0,0,1,.15-6.2,17.82,17.82,0,0,1,2.19-5.74,16.74,16.74,0,0,1,4.08-4.64,15.38,15.38,0,0,1,5.76-2.79,17.56,17.56,0,0,1,7.26-.16,60.93,60.93,0,0,1,12.27,3.52,59.45,59.45,0,0,1,5.71,2.69,58.75,58.75,0,0,1,5.41,3.3c.44.3,1.06.74,1.81,1.3s1.64,1.27,2.63,2.1,2.07,1.79,3.2,2.87,2.33,2.3,3.54,3.63l.08.09.09.1.08.09.09.09a65.64,65.64,0,0,0,11.45-6.92,73.59,73.59,0,0,0,8.76-7.78,75.35,75.35,0,0,0,6.15-7.23c1.62-2.16,2.82-4,3.6-5.27a73.52,73.52,0,0,0,6.42-13.49,78.32,78.32,0,0,0,3.7-14.64,82.71,82.71,0,0,0-4.77-42.64l-35.54.84-56,1.33L420.47,609.53c2.43-.39,4.85-.8,7.25-1.27A147.8,147.8,0,0,0,444.18,604.13Z"/><path class="cls-5" d="M498.43,867a34.08,34.08,0,0,0-1-9.43,36.81,36.81,0,0,0-3.46-8.86,37.22,37.22,0,0,0-5.6-7.69,33.08,33.08,0,0,0-14.63-9.05,36.49,36.49,0,0,0-7.85-1.46,37.2,37.2,0,0,0-8,.25,35.51,35.51,0,0,0-7.79,2,6.54,6.54,0,0,1-4.18.19A6.33,6.33,0,0,1,444,832a6.67,6.67,0,0,1-1.55-1.5,6.41,6.41,0,0,1-1-1.91,6.5,6.5,0,0,1,0-4.09,6.92,6.92,0,0,1,1-1.88,78.47,78.47,0,0,0,6.32-9.57A90.09,90.09,0,0,0,454,802.33,92.06,92.06,0,0,0,457.72,791a83.87,83.87,0,0,0,2.13-11.53,66.85,66.85,0,0,0,.09-14.74,49.13,49.13,0,0,0-2.66-11.57,40.89,40.89,0,0,0-4.4-8.73,39,39,0,0,0-5.11-6.19,38.1,38.1,0,0,0-9.13-6.47,55.79,55.79,0,0,0-11.53-4.4,64.12,64.12,0,0,0-12.8-2c-.69,0-1.39,0-2.08-.07L402.12,867.07l65.32,1.43,31.43.69c0-.08-.08-.15-.11-.23A5,5,0,0,1,498.43,867Z"/><path class="cls-5" d="M626.54,785.69a43.94,43.94,0,0,0-6.61,10.18,43,43,0,0,0-3.47,11.35,45.9,45.9,0,0,0-.26,12.13,52.31,52.31,0,0,0,3,12.5,60.12,60.12,0,0,0,7.37,13.85,62.19,62.19,0,0,0,10.49,11.4,58.67,58.67,0,0,0,12.75,8.23A50.54,50.54,0,0,0,664,869.65a4.69,4.69,0,0,1,.84.21c7.37,0,14.77,0,22.26,0q-15.89-51.28-31.75-102.57a79,79,0,0,0-8,3.18A60.85,60.85,0,0,0,626.54,785.69Z"/><path class="cls-5" d="M585.4,541.36q-1.46-4.68-2.9-9.38c.09.64.2,1.28.32,1.92A30.25,30.25,0,0,0,585.4,541.36Z"/><path class="cls-9" d="M447.14,612.75A111.48,111.48,0,0,0,464,605.93a84.13,84.13,0,0,0,16.75-11.17,75.58,75.58,0,0,0,12.8-14.08,63.64,63.64,0,0,0,8.18-16,52.93,52.93,0,0,0,2.88-17,46.46,46.46,0,0,0-.67-7.86,48.82,48.82,0,0,0-1.81-7.17,51.4,51.4,0,0,0-2.71-6.47,54.82,54.82,0,0,0-3.31-5.74,75.64,75.64,0,0,0,12.22-7.77,82.64,82.64,0,0,0,9.37-8.51,85.3,85.3,0,0,0,6.59-7.83c1.74-2.34,3-4.33,3.88-5.72a82.06,82.06,0,0,0,7.19-15.07,87.76,87.76,0,0,0,4.15-16.34A91.85,91.85,0,0,0,538.3,425a93.3,93.3,0,0,0-2.9-10.15l-9.68.23A81.69,81.69,0,0,1,529.39,427a82.25,82.25,0,0,1,1.1,30.7,78.32,78.32,0,0,1-3.7,14.64,73.52,73.52,0,0,1-6.42,13.49c-.78,1.27-2,3.11-3.6,5.27a75.35,75.35,0,0,1-6.15,7.23,73.59,73.59,0,0,1-8.76,7.78,65.64,65.64,0,0,1-11.45,6.92l-.09-.09-.08-.09-.09-.1-.08-.09c-1.21-1.33-2.4-2.54-3.54-3.63s-2.22-2-3.2-2.87-1.88-1.53-2.63-2.1-1.37-1-1.81-1.3a58.75,58.75,0,0,0-5.41-3.3,59.45,59.45,0,0,0-5.71-2.69,60.93,60.93,0,0,0-12.27-3.52,17.56,17.56,0,0,0-7.26.16,15.38,15.38,0,0,0-5.76,2.79,16.74,16.74,0,0,0-4.08,4.64,17.82,17.82,0,0,0-2.19,5.74,18.18,18.18,0,0,0-.15,6.2,16.72,16.72,0,0,0,2,5.9,15.45,15.45,0,0,0,4.31,4.8,17.71,17.71,0,0,0,6.71,2.91c2,.43,3.94.77,5.93,1s4,.43,5.95.52,4,.09,6,0,4-.23,6-.48c1.32-.16,2.61-.36,3.88-.59s2.51-.48,3.72-.77,2.42-.61,3.59-.95,2.32-.72,3.44-1.11a46.7,46.7,0,0,1,3.05,4.93,43.12,43.12,0,0,1,2.52,5.59,39.58,39.58,0,0,1,1.7,6.23,38,38,0,0,1,.63,6.85A44.41,44.41,0,0,1,493,562.18a54.92,54.92,0,0,1-7.18,13.74,66.24,66.24,0,0,1-11.22,12.14,75.83,75.83,0,0,1-14.69,9.73,104.13,104.13,0,0,1-15.68,6.34,147.8,147.8,0,0,1-16.46,4.13c-2.4.47-4.82.88-7.25,1.27l-.66,9.32c3.25-.49,6.52-1,9.78-1.68A160.34,160.34,0,0,0,447.14,612.75Zm31.78-95.6c-.75.18-1.52.36-2.3.51s-1.57.31-2.37.44-1.61.25-2.43.35c-1.73.21-3.46.35-5.2.42s-3.47.06-5.21,0-3.47-.23-5.2-.46-3.45-.52-5.16-.89a8.87,8.87,0,0,1-1.35-.39,8.69,8.69,0,0,1-1.15-.52,6.83,6.83,0,0,1-1-.65,6.32,6.32,0,0,1-.8-.74,6.58,6.58,0,0,1-1-1.56,7.34,7.34,0,0,1-.58-1.73,8.43,8.43,0,0,1-.16-1.8,9.1,9.1,0,0,1,1.07-4.27,7.39,7.39,0,0,1,1.71-2.16,6.46,6.46,0,0,1,2.59-1.34,8.36,8.36,0,0,1,3.55-.07,50.18,50.18,0,0,1,19.82,8.05c.31.21.72.5,1.22.87s1.08.81,1.72,1.34,1.36,1.11,2.12,1.78,1.55,1.42,2.37,2.23C480.43,516.76,479.68,517,478.92,517.15Z"/><path class="cls-10" d="M642.27,761.84A70.75,70.75,0,0,0,619,779.19a54.13,54.13,0,0,0-8.11,12.44,52.09,52.09,0,0,0-4.28,13.83,54.86,54.86,0,0,0-.36,14.73,62.71,62.71,0,0,0,3.63,15.13,69.58,69.58,0,0,0,8.63,16.17,72.55,72.55,0,0,0,12.33,13.31,69.82,69.82,0,0,0,6.86,5.08q13.49,0,27.1,0a4.69,4.69,0,0,0-.84-.21,50.54,50.54,0,0,1-14.15-4.32,58.67,58.67,0,0,1-12.75-8.23,62.19,62.19,0,0,1-10.49-11.4,60.12,60.12,0,0,1-7.37-13.85,52.31,52.31,0,0,1-3-12.5,45.9,45.9,0,0,1,.26-12.13,43,43,0,0,1,3.47-11.35,43.94,43.94,0,0,1,6.61-10.18,60.85,60.85,0,0,1,20.78-15.18,79,79,0,0,1,8-3.18q-1.49-4.8-3-9.58A93.09,93.09,0,0,0,642.27,761.84Z"/><path class="cls-11" d="M508.58,868.2a4.94,4.94,0,0,0,.11-.86,44.11,44.11,0,0,0-1.28-12.16,48,48,0,0,0-11.69-21.35,43.39,43.39,0,0,0-16.52-10.92,45.08,45.08,0,0,0-7.4-2,45.88,45.88,0,0,0-7.67-.8,46.53,46.53,0,0,0-7.73.47,100.37,100.37,0,0,0,5-9.37,103.9,103.9,0,0,0,6.94-20.26,92.33,92.33,0,0,0,1.76-10.34,78,78,0,0,0,.27-14.68,63.55,63.55,0,0,0-2.49-13.37,53.42,53.42,0,0,0-5.15-11.77,46.52,46.52,0,0,0-18.76-17.82,66,66,0,0,0-13.69-5.39A74.7,74.7,0,0,0,415.1,715c-.71,0-1.43,0-2.14-.07l-.73,10.25c.69,0,1.39,0,2.08.07a64.12,64.12,0,0,1,12.8,2,55.79,55.79,0,0,1,11.53,4.4,38.1,38.1,0,0,1,9.13,6.47,39,39,0,0,1,5.11,6.19,40.89,40.89,0,0,1,4.4,8.73,49.13,49.13,0,0,1,2.66,11.57,66.85,66.85,0,0,1-.09,14.74A83.87,83.87,0,0,1,457.72,791,92.06,92.06,0,0,1,454,802.33,90.09,90.09,0,0,1,448.89,813a78.47,78.47,0,0,1-6.32,9.57,6.92,6.92,0,0,0-1,1.88,6.5,6.5,0,0,0,0,4.09,6.41,6.41,0,0,0,1,1.91A6.67,6.67,0,0,0,444,832a6.33,6.33,0,0,0,1.87.9,6.54,6.54,0,0,0,4.18-.19,35.51,35.51,0,0,1,7.79-2,37.2,37.2,0,0,1,8-.25,36.49,36.49,0,0,1,7.85,1.46A33.08,33.08,0,0,1,488.38,841a37.22,37.22,0,0,1,5.6,7.69,36.81,36.81,0,0,1,3.46,8.86,34.08,34.08,0,0,1,1,9.43,5,5,0,0,0,.33,2c0,.08.08.15.11.23l9.28.21a2.81,2.81,0,0,0,.19-.39A5.41,5.41,0,0,0,508.58,868.2Z"/><path class="cls-12" d="M573.21,525a42.23,42.23,0,0,0,.77,10.82A38.68,38.68,0,0,0,577.57,546a38.19,38.19,0,0,0,3.67,5.73,41,41,0,0,0,4.58,5,41.85,41.85,0,0,0,5.37,4.19l.33.2-6.12-19.76a30.25,30.25,0,0,1-2.58-7.46c-.12-.64-.23-1.28-.32-1.92q-3.15-10.15-6.29-20.32-.54,1.3-1,2.67A42.38,42.38,0,0,0,573.21,525Z"/><path class="cls-13" d="M589.11,568.88a91.93,91.93,0,0,0-14.69,11.93,81.14,81.14,0,0,0-6.16,6.92,68.6,68.6,0,0,0-7.08,10.87,55.53,55.53,0,0,0-4.4,11.18A47.16,47.16,0,0,0,555.12,621a41,41,0,0,0,5.7,22.13,58.3,58.3,0,0,0,7.74,10.45,65.06,65.06,0,0,0,10.17,8.95,61.27,61.27,0,0,0,11.86,6.65,49.47,49.47,0,0,0,9.42,2.93,40.27,40.27,0,0,0,9.11.82,34.19,34.19,0,0,0,8.56-1.28,31.79,31.79,0,0,0,7.12-3q-1.34-4.33-2.68-8.66a4.26,4.26,0,0,0-1.29.5A23.09,23.09,0,0,1,615,663a26.24,26.24,0,0,1-6.52.89,32.53,32.53,0,0,1-7-.73,40.66,40.66,0,0,1-7.35-2.32,52.82,52.82,0,0,1-10-5.59,57.68,57.68,0,0,1-8.63-7.53,49.59,49.59,0,0,1-6.57-8.7,33.82,33.82,0,0,1-3.81-9.12,34.31,34.31,0,0,1-.93-7,37,37,0,0,1,.79-8.6,44,44,0,0,1,3.43-9.91,59.44,59.44,0,0,1,7-11,73.63,73.63,0,0,1,7-7.64,82.26,82.26,0,0,1,8.11-6.78c1.77-1.29,3.59-2.5,5.44-3.63l-2.76-8.91Q591.11,567.57,589.11,568.88Z"/><path class="cls-14" d="M569.7,712.45a9.37,9.37,0,0,0-2.79-2.19,9.23,9.23,0,0,0-12.43,4,9.31,9.31,0,0,0-.58,7,9.18,9.18,0,0,0,4.58,5.39,9.26,9.26,0,0,0,10.24-1.22,9.21,9.21,0,0,0,2.19-2.78,9.29,9.29,0,0,0,.58-7A9.29,9.29,0,0,0,569.7,712.45Z"/><path class="cls-3" d="M418.9,255.84a9.64,9.64,0,0,1,1.5-2.42,8.71,8.71,0,0,1,8.63-3,9.49,9.49,0,0,1,2.28.78"/><polyline class="cls-3" points="413.5 222.42 421.04 222.75 428.59 223.08"/><path class="cls-15" d="M449.2,237.22a7.5,7.5,0,1,1-2.62-5.11A7.49,7.49,0,0,1,449.2,237.22Z"/><path class="cls-4" d="M405.33,214.72a25.2,25.2,0,0,0,10.56-1.53c6.09-2.12,13.83-6.94,20.4-17.76,0,0,4.95,11.19,13.19,19.19s19.79,12.79,33,0l.72,15.63q.36,7.81.73,15.62a146.63,146.63,0,0,1,38.31-3.23c4.55.22,8.7.44,12.89,1a66.9,66.9,0,0,1,13.07,3.06,77.55,77.55,0,0,1,15.07,6.7,54.1,54.1,0,0,1,17.91,16.92,53,53,0,0,1,6.26,13.27,57.2,57.2,0,0,1,2.3,11.09,39.77,39.77,0,0,0,6-21.18A38,38,0,0,0,570.85,238a39.87,39.87,0,0,0-24.09-1.24,38.79,38.79,0,0,0,.88-9.75,32.28,32.28,0,0,0-4-14.65A33.81,33.81,0,0,0,527.14,198a43.69,43.69,0,0,0-23.9-2.7,70.41,70.41,0,0,0-13.7-14.53c-8-6.38-19.25-12.5-33.46-13A57.31,57.31,0,0,0,441.17,169a44.88,44.88,0,0,0-21.53,11.34,45.89,45.89,0,0,0-12.4,20.94A50.36,50.36,0,0,0,405.33,214.72Z"/><path class="cls-2" d="M484.62,241.32c-.08-1.86-.18-3.74-.3-5.63s-.25-3.82-.39-5.76c-.19-2.53-.41-5-.64-7.48s-.49-4.86-.76-7.24a15.28,15.28,0,0,1,3.89-.84,9.12,9.12,0,0,1,5.15,1c2.85,1.57,4.49,4.81,4.95,8.42a17,17,0,0,1-2.15,10.71,14.54,14.54,0,0,1-5.39,5.08A18.7,18.7,0,0,1,484.62,241.32Z"/><path class="cls-2" d="M439.7,246c.64,1.23,1.2,2.51,1.7,3.68s.92,2.24,1.3,3.06a14.29,14.29,0,0,0,4.57,5.8c1.94,1.25,4.18,1.34,6.36-1.22,3.74-4.4,5.52-10.77,6-17.36A59.19,59.19,0,0,0,458,221.27a26,26,0,0,1-1-5.24,7.72,7.72,0,0,1,1.27-5.1,6.34,6.34,0,0,1,3.6-2.36,4,4,0,0,1,3.94,1.21,1.8,1.8,0,0,1,.35.6c.08.18.12.31.18.3s-.17-1.48-.31-3.19,0-3.69,1.16-4.82a3.86,3.86,0,0,1,1.51-.85,4.07,4.07,0,0,1,1.8-.12,3.53,3.53,0,0,1,.74.21,5.22,5.22,0,0,1,1.28.81,10,10,0,0,1,2.64,4.14,20.19,20.19,0,0,1,.89,3.34,6.13,6.13,0,0,1,1.49-.57,4.41,4.41,0,0,1,1.15-.09,6.33,6.33,0,0,1,4.49,2.8,16.8,16.8,0,0,1,2.92,6.93s.25,1.14.52,2.57.57,3.15.67,4.34a5.38,5.38,0,0,1,1.46-.32,4.26,4.26,0,0,1,1.06.06,5.69,5.69,0,0,1,3.56,2.69,12.45,12.45,0,0,1,1.8,5.65,126.27,126.27,0,0,1-.58,21.63c-1.35,12.55-4.81,28.58-13.24,42.48q-.17,20-.34,39.9l-.33,39.89q2.67-5.69,5.32-11.37l5.33-11.37,9.63,6.27,55.86,36.42c-3.08,5-6.63,10.6-10.69,16.58s-8.6,12.37-13.69,19.05c-4.94,6.5-9.85,13.55-15.37,20s-11.63,12.22-19,16.22c-12.4,6.76-28,8.8-42.73,6.47s-28.41-9-37-19.75A40,40,0,0,1,413.6,449a76.6,76.6,0,0,1-2.93-7.15c-2.63-7.07-3.11-15.56-2.09-27.18s3.55-26.34,7-45.89c.59-3.39,2.9-16.51,6-31.16s7.05-30.83,10.89-40.34c.1-.25.25-.61.42-1.08s.38-1,.59-1.73a29.5,29.5,0,0,0,1.11-11.83c-.41-4.74-1.62-10.72-3.76-19.19-1.37-5.42-2.64-10-3.17-13.65s-.32-6.4,1.3-8.15a6.21,6.21,0,0,1,.88-.72,6.11,6.11,0,0,1,1.7-.79,5,5,0,0,1,4.75,1.15A15.43,15.43,0,0,1,439.7,246Z"/><path class="cls-1" d="M533.39,869.93c0,5.36-7.34,10.21-19.22,13.72s-28.29,5.68-46.41,5.68-34.54-2.17-46.42-5.68-19.22-8.36-19.22-13.72,7.35-10.2,19.22-13.71,28.29-5.68,46.42-5.68,34.53,2.17,46.41,5.68S533.39,864.58,533.39,869.93Z"/><path class="cls-1" d="M687.08,869.93c0,5.36-7.35,10.21-19.23,13.72s-28.29,5.68-46.41,5.68-34.54-2.17-46.41-5.68-19.23-8.36-19.23-13.72,7.35-10.2,19.23-13.71,28.28-5.68,46.41-5.68,34.53,2.17,46.41,5.68S687.08,864.58,687.08,869.93Z"/><path class="cls-3" d="M480.75,371.71l-.33,11.74q-.15,5.88-.32,11.74"/><path class="cls-3" d="M466.41,210.68c.65,3.31,1.24,6.91,1.69,10.8s.78,8,.9,12.45c.09,3.28.06,6.43-.06,9.42s-.33,5.82-.6,8.48"/><path class="cls-3" d="M476.12,210.2c.48,3.51.9,7.2,1.23,11.06s.58,7.9.71,12.09q.17,5.09.1,9.84t-.3,9.17"/><path class="cls-3" d="M487.24,225.69c.14,1.91.25,3.9.32,5.95s.1,4.19.08,6.38c0,2.5-.1,4.92-.23,7.24s-.31,4.56-.53,6.69"/><path class="cls-3" d="M573.49,367.53q-4.17,7.65-8.33,15.29l-8.34,15.29"/><polyline class="cls-1" points="491.33 355.42 501.5 334.57 511.67 313.72"/><path class="cls-16" d="M595.52,910.57A44.88,44.88,0,0,0,582.08,912a40.89,40.89,0,0,0-31.15,36.74,44.24,44.24,0,0,0,.72,12.94l75.76-.05,75.76,0a7.49,7.49,0,0,0,7.47-7.56c0-1.55,0-2.7,0-3.46s0-1.13,0-1.13h0q-1.55-5.34-3.11-10.71T704.33,928q-4.73-16.07-9.52-32t-9.63-31.7c-1.16-.77-2.57-1.66-4.22-2.6s-3.55-1.93-5.66-2.9a59.88,59.88,0,0,0-8.1-3,115.85,115.85,0,0,0-16.65-3.55c-2.63-.28-8.06-.84-14.33-1.25a175.55,175.55,0,0,0-19.4-.34c-1.16.06-5.41.31-9.76.61s-8.8.67-10.36,1c0,0-.64.12-1.28.21s-1.29.15-1.31,0a0,0,0,0,1,0,0v0s.14,5.68.38,15.79S595.09,892.87,595.52,910.57Z"/><path class="cls-6" d="M551.42,949.57,631,949.5l79.58-.06-.13,3.32-.14,3.31a6.48,6.48,0,0,1-.49,1.61A6.61,6.61,0,0,1,708,960a6.53,6.53,0,0,1-2.55,1.29,6.85,6.85,0,0,1-1.63.21c-24.21.07-50.16.08-76.11.08s-51.9,0-76.11.09c-.1-.88-.18-1.79-.25-2.74s-.12-1.94-.15-3,0-2.28,0-3.35S551.34,950.54,551.42,949.57Z"/><polyline class="cls-3" points="690.49 949.46 690.49 955.52 690.49 961.58"/><polyline class="cls-3" points="677.5 949.46 677.5 955.52 677.5 961.58"/><path class="cls-3" d="M595.29,910.7a121.78,121.78,0,0,1,13.77,1.95c7.36,1.49,15.67,4,19.47,8.11"/><polyline class="cls-3" points="595.02 875.98 607.83 875.98 620.65 875.98"/><polyline class="cls-3" points="598.11 895.92 611.91 895.92 625.71 895.92"/><path class="cls-3" d="M592.52,900.12a80.9,80.9,0,0,0,5.65-8.31,50.36,50.36,0,0,0,4.22-9.1,30.48,30.48,0,0,0,1.29-9.87c-.16-3.74-1.21-7.17-4.07-8.06-4.6-1.42-8.43,2.37-11.42,7.27S583,883,581.76,886a86,86,0,0,0-4.28,13.4,104.08,104.08,0,0,0-2.24,13.89,48.17,48.17,0,0,0-1.38-15.8,146.87,146.87,0,0,0-4.81-15.22,56.22,56.22,0,0,0-2.88-6.81,30.8,30.8,0,0,0-4.07-6.17,20.92,20.92,0,0,0-6.15-4.84c-2.5-1.23-5.17-1.6-7.15.32-1.38,1.33-1.68,3.71-1.54,6.16a38.23,38.23,0,0,0,1.1,6.61,40.26,40.26,0,0,0,2.37,6.91,54.66,54.66,0,0,0,3.42,6.47,73.29,73.29,0,0,0,8.63,11.34,79.67,79.67,0,0,0,10.58,9.56c2.09,1.57,3.66,1.91,5.18,1.47s3-1.69,4.85-3.27a52.37,52.37,0,0,0,4.84-4.7C589.74,903.66,591.16,901.91,592.52,900.12Z"/><path class="cls-16" d="M423.47,855.87q-3.29,13.65-6.58,27.3t-6.58,27.31s-14.54-1.62-28.38,3.95-27,18.31-24.15,47.05H510.15a6.34,6.34,0,0,0,2.54-.52,6.62,6.62,0,0,0,2.09-1.4,6.36,6.36,0,0,0,1.53-2.64,9.85,9.85,0,0,0,.38-2c.19-1.82.45-12.63.73-29.76s.59-40.55.87-67.61c-2.41-.76-5.29-1.59-8.6-2.42s-7.05-1.63-11.15-2.34a147.88,147.88,0,0,0-17.71-2c-5.36-.27-10.31-.26-15.19-.25-4.44,0-8.56,0-12.84.24a120.49,120.49,0,0,0-13.78,1.5c-3.18.53-6.1,1.13-8.7,1.75S425.42,855.3,423.47,855.87Z"/><path class="cls-6" d="M357.56,949.35l79.58-.06,79.58-.07-.14,3.32-.13,3.31a7.16,7.16,0,0,1-.5,1.61,6.5,6.5,0,0,1-1.78,2.35,6.57,6.57,0,0,1-2.54,1.29,6.36,6.36,0,0,1-1.64.21c-24.21.08-50.15.08-76.1.09s-51.9,0-76.11.08c-.1-.87-.19-1.79-.26-2.74s-.12-1.94-.14-3,0-2.29,0-3.36S357.48,950.32,357.56,949.35Z"/><path class="cls-3" d="M406.91,897.12a80.82,80.82,0,0,0,5.64-8.31,49.73,49.73,0,0,0,4.23-9.1,30.48,30.48,0,0,0,1.29-9.87c-.16-3.74-1.21-7.17-4.07-8.06-4.61-1.42-8.43,2.37-11.43,7.27s-5.15,10.92-6.42,14a86,86,0,0,0-4.28,13.4,104.08,104.08,0,0,0-2.24,13.89,48.17,48.17,0,0,0-1.38-15.8,146.87,146.87,0,0,0-4.81-15.22,56.22,56.22,0,0,0-2.88-6.81,30.8,30.8,0,0,0-4.07-6.17,20.92,20.92,0,0,0-6.15-4.84c-2.51-1.23-5.18-1.6-7.16.32-1.37,1.33-1.68,3.71-1.54,6.16a39.13,39.13,0,0,0,1.11,6.61,40.26,40.26,0,0,0,2.37,6.91,53.22,53.22,0,0,0,3.42,6.47,72.67,72.67,0,0,0,8.63,11.34,79.67,79.67,0,0,0,10.58,9.56c2.09,1.57,3.66,1.91,5.18,1.47s3-1.69,4.85-3.27a51,51,0,0,0,4.83-4.7C404.13,900.66,405.55,898.91,406.91,897.12Z"/><polyline class="cls-3" points="496.63 949.25 496.63 955.3 496.63 961.36"/><polyline class="cls-3" points="483.64 949.25 483.64 955.3 483.64 961.36"/><path class="cls-3" d="M410.31,910.48a121.78,121.78,0,0,1,13.77,1.95c7.36,1.49,15.67,4,19.47,8.11"/><polyline class="cls-3" points="417.92 875.98 430.74 875.98 443.55 875.98"/><polyline class="cls-3" points="414.24 895.92 428.03 895.92 441.83 895.92"/><path class="cls-17" d="M530.71,788.11,505,680.36q-12.84-53.88-25.69-107.76l-5.51-22.52-5.52-22.53"/><path class="cls-17" d="M681.23,919.64h0a9.83,9.83,0,0,1-1.26,5.39,10.08,10.08,0,0,1-8.69,5,9.83,9.83,0,0,1-5.3-1.6h0a9.85,9.85,0,0,1-5.3,1.6,10.05,10.05,0,0,1-8.69-5,9.83,9.83,0,0,1-1.26-5.39h0a9.81,9.81,0,0,1-4-3.78,10.07,10.07,0,0,1,0-10,9.77,9.77,0,0,1,4-3.79h0a9.78,9.78,0,0,1,1.26-5.38,10.05,10.05,0,0,1,8.69-5,9.85,9.85,0,0,1,5.3,1.6h0a9.76,9.76,0,0,1,10.31-.25,10,10,0,0,1,3.68,3.67,9.78,9.78,0,0,1,1.26,5.38h0a9.74,9.74,0,0,1,4,3.79,10,10,0,0,1,0,10A9.78,9.78,0,0,1,681.23,919.64Z"/><path class="cls-17" d="M501.08,919.3h0a9.75,9.75,0,0,1-1.27,5.39,10,10,0,0,1-8.69,5,9.72,9.72,0,0,1-5.29-1.59h0a9.7,9.7,0,0,1-5.29,1.59,10,10,0,0,1-8.69-5,9.75,9.75,0,0,1-1.27-5.39h0a9.8,9.8,0,0,1-4-3.79,10.05,10.05,0,0,1,0-10,9.8,9.8,0,0,1,4-3.79h0a9.7,9.7,0,0,1,1.27-5.38,10,10,0,0,1,8.69-5,9.71,9.71,0,0,1,5.29,1.6h0a9.74,9.74,0,0,1,5.29-1.6,10,10,0,0,1,8.69,5,9.7,9.7,0,0,1,1.27,5.38h0a9.8,9.8,0,0,1,4,3.79,10.05,10.05,0,0,1,0,10A9.8,9.8,0,0,1,501.08,919.3Z"/></svg>