<svg id="Illustrations" xmlns="http://www.w3.org/2000/svg" xmlns:xlink="http://www.w3.org/1999/xlink" viewBox="0 0 1000 1000"><defs><style>.cls-1,.cls-10,.cls-11,.cls-12,.cls-13,.cls-15,.cls-16,.cls-17,.cls-18,.cls-3,.cls-5,.cls-6,.cls-7,.cls-8,.cls-9{stroke:#000;}.cls-1,.cls-10,.cls-11,.cls-12,.cls-13,.cls-14,.cls-15,.cls-16,.cls-17,.cls-18,.cls-19,.cls-2,.cls-20,.cls-3,.cls-5,.cls-6,.cls-7,.cls-8,.cls-9{stroke-linecap:round;stroke-miterlimit:10;stroke-width:3px;}.cls-1{fill:url(#linear-gradient);}.cls-2{fill:#f6991a;}.cls-14,.cls-19,.cls-2,.cls-20{stroke:#070707;}.cls-3{fill:#d87d61;}.cls-4{fill:#040400;}.cls-5{fill:url(#linear-gradient-2);}.cls-6{fill:url(#linear-gradient-3);}.cls-7{fill:url(#linear-gradient-4);}.cls-8{fill:url(#linear-gradient-5);}.cls-9{fill:url(#linear-gradient-6);}.cls-10{fill:url(#linear-gradient-7);}.cls-11{fill:url(#linear-gradient-8);}.cls-12{fill:url(#linear-gradient-9);}.cls-13{fill:#dbcaf4;}.cls-14{fill:#84a1e5;}.cls-15{fill:#c6fcdb;}.cls-16{fill:#ece7e1;}.cls-17{fill:#f2b3c1;}.cls-18{fill:none;}.cls-19{fill:#ff6406;}.cls-20{fill:#f6c34c;}</style><linearGradient id="linear-gradient" x1="123.38" y1="579.37" x2="871.82" y2="579.37" gradientUnits="userSpaceOnUse"><stop offset="0.11" stop-color="#fec2d9"/><stop offset="0.38" stop-color="#dbcaf4"/><stop offset="0.65" stop-color="#a4c2ff"/><stop offset="0.97" stop-color="#c6fcdb"/></linearGradient><linearGradient id="linear-gradient-2" x1="211.79" y1="566.1" x2="352.2" y2="566.1" gradientUnits="userSpaceOnUse"><stop offset="0.18" stop-color="#fec2d9"/><stop offset="0.51" stop-color="#e3deda"/><stop offset="0.82" stop-color="#c6fcdb"/></linearGradient><linearGradient id="linear-gradient-3" x1="506.88" y1="140.59" x2="383.29" y2="354.65" gradientUnits="userSpaceOnUse"><stop offset="0.22" stop-color="#fec2d9"/><stop offset="0.68" stop-color="#f6991a"/><stop offset="1" stop-color="#fc762b"/></linearGradient><linearGradient id="linear-gradient-4" x1="408.03" y1="565.68" x2="408.03" y2="502.29" gradientUnits="userSpaceOnUse"><stop offset="0.11" stop-color="#fec2d9"/><stop offset="0.57" stop-color="#a4c2ff"/><stop offset="0.97" stop-color="#c6fcdb"/></linearGradient><linearGradient id="linear-gradient-5" x1="376.19" y1="592.53" x2="409.06" y2="592.53" gradientUnits="userSpaceOnUse"><stop offset="0.18" stop-color="#fec2d9"/><stop offset="0.86" stop-color="#f6991a"/></linearGradient><linearGradient id="linear-gradient-6" x1="285.7" y1="281.25" x2="299.88" y2="256.69" xlink:href="#linear-gradient"/><linearGradient id="linear-gradient-7" x1="450.33" y1="512.57" x2="470.89" y2="512.57" gradientUnits="userSpaceOnUse"><stop offset="0.37" stop-color="#a4c2ff"/><stop offset="0.62" stop-color="#b5deed"/><stop offset="0.86" stop-color="#c6fcdb"/></linearGradient><linearGradient id="linear-gradient-8" x1="177.88" y1="425.23" x2="198.22" y2="425.23" xlink:href="#linear-gradient-7"/><linearGradient id="linear-gradient-9" x1="177" y1="337.48" x2="284.81" y2="337.48" gradientUnits="userSpaceOnUse"><stop offset="0.14" stop-color="#a4c2ff"/><stop offset="0.89" stop-color="#fec2d9"/></linearGradient></defs><path class="cls-1" d="M871.82,938.31l-245.29-.83-245.28-.83c-86.94-80-151.4-139.26-194.14-178.56l-63.73-58.62h0s.18-41.51.52-122.15.85-200.39,1.51-356.89H510.17s65.64,140.1,131.29,280.19l131.3,280.19c20.56,35.27,39.91,66.65,56.82,93.21S861,922.32,871.82,938.31Z"/><polygon class="cls-2" points="512.2 915.75 317.79 915.75 123.38 915.75 123.38 846.5 123.38 777.26 317.79 777.26 512.2 777.26 512.2 846.5 512.2 915.75"/><polygon class="cls-2" points="497.76 875.11 317.79 875.11 137.81 875.11 137.81 842.98 137.81 810.84 317.79 810.84 497.76 810.84 497.76 842.98 497.76 875.11"/><polyline class="cls-3" points="137.81 823.24 317.79 823.24 497.76 823.24"/><polyline class="cls-3" points="137.81 836.24 317.79 836.24 497.76 836.24"/><polyline class="cls-3" points="137.81 849.25 317.79 849.25 497.76 849.25"/><polyline class="cls-3" points="137.81 862.25 317.79 862.25 497.76 862.25"/><polygon class="cls-2" points="136.24 944.05 129.81 944.05 123.38 944.05 123.38 929.9 123.38 915.75 129.81 915.75 136.24 915.75 136.24 929.9 136.24 944.05"/><polygon class="cls-2" points="512.2 944.05 505.77 944.05 499.34 944.05 499.34 929.9 499.34 915.75 505.77 915.75 512.2 915.75 512.2 929.9 512.2 944.05"/><path class="cls-4" d="M317.79,36h0c-49.7,0-94.69,23.75-127.26,62.15s-52.72,91.44-52.72,150V680.32h360V248.16c0-58.59-20.14-111.63-52.71-150S367.49,36,317.79,36Z"/><path class="cls-5" d="M254.31,691.16a4.91,4.91,0,0,0,.86-.07,5.09,5.09,0,0,0,.85-.23,5,5,0,0,0,.81-.38,5.38,5.38,0,0,0,.75-.53,4.59,4.59,0,0,0,1.19-1.59,5.46,5.46,0,0,0,.46-1.9,5.53,5.53,0,0,0-.27-2,5.44,5.44,0,0,0-1-1.76,151.24,151.24,0,0,1-15.51-22.38,159.26,159.26,0,0,1-18.4-51.28,151.81,151.81,0,0,1-2.26-27.14c0-1.73.06-3.53.18-5.35a53.83,53.83,0,0,1,.59-5.49,38.14,38.14,0,0,1,1.26-5.4,26.48,26.48,0,0,1,2.16-5.05,19.2,19.2,0,0,1,2.6-3.59,18.94,18.94,0,0,1,3.51-3,14.59,14.59,0,0,1,4.18-1.94,11.22,11.22,0,0,1,4.59-.32,12.73,12.73,0,0,1,3.44,1,20.72,20.72,0,0,1,3.27,1.88,37.19,37.19,0,0,1,3.08,2.42c1,.86,1.95,1.75,2.87,2.63q3.64,3.48,7.14,7.12c2.34,2.43,4.61,4.91,6.84,7.44s4.39,5.11,6.51,7.74,4.16,5.29,6.16,8a5.22,5.22,0,0,0,3.28,2,5.27,5.27,0,0,0,1.94,0,5.19,5.19,0,0,0,4-3.94,5.16,5.16,0,0,0-.59-3.82q-4.77-8.06-8.77-16.59t-7.17-17.39c-2.11-5.9-3.95-11.91-5.49-18s-2.79-12.2-3.74-18.36c-.6-3.91-1-7.59-1.27-11.07a97.43,97.43,0,0,1-.21-9.85,66.79,66.79,0,0,1,.86-8.8,53.6,53.6,0,0,1,1.92-7.92,38,38,0,0,1,4.95-9.69,45,45,0,0,1,8-8.78,31.43,31.43,0,0,1,10-5.77,19.94,19.94,0,0,1,11-.62,17.68,17.68,0,0,1,6,2.83,36.33,36.33,0,0,1,5.33,4.68c1.68,1.75,3.27,3.62,4.79,5.44s3,3.59,4.36,5.12q3.14,3.42,6.17,6.91c2,2.34,4,4.69,6,7.08s3.9,4.79,5.8,7.22,3.77,4.9,5.6,7.38a5.39,5.39,0,0,0,3.11,2.05,4.81,4.81,0,0,0,1.85.09,4.59,4.59,0,0,0,1.78-.63,5,5,0,0,0,1.56-1.46,4.87,4.87,0,0,0,.79-1.88,5,5,0,0,0,0-2,5.19,5.19,0,0,0-.87-1.92q-3.84-5.19-7.86-10.25t-8.24-10q-4.2-4.92-8.58-9.69T317.63,453c-1-1-1.95-2-3-2.93s-2.08-1.89-3.2-2.78a35.86,35.86,0,0,0-3.49-2.46,27.59,27.59,0,0,0-3.88-1.95,25.28,25.28,0,0,0-4.21-1.28,27.57,27.57,0,0,0-4.48-.56,31.88,31.88,0,0,0-4.66.17,36.33,36.33,0,0,0-4.8.89,37.46,37.46,0,0,0-9.82,4.17,43.17,43.17,0,0,0-8.64,6.85,49,49,0,0,0-7,9.11,53.75,53.75,0,0,0-5,10.93,65.66,65.66,0,0,0-2.59,11.5,84,84,0,0,0-.73,11.28c0,3.65.2,7.17.51,10.45s.72,6.33,1.14,9.05q.79,5.21,1.87,10.38t2.41,10.3q1.33,5.13,2.94,10.18t3.46,10l-1-1c-.33-.33-.66-.66-1-1l-1-1c-.33-.33-.67-.65-1-1-1.2-1.15-2.45-2.31-3.79-3.44a42.16,42.16,0,0,0-4.23-3.19,28.85,28.85,0,0,0-4.76-2.53,22.4,22.4,0,0,0-5.37-1.48,21.23,21.23,0,0,0-7.94.37,24.22,24.22,0,0,0-7,3,28.32,28.32,0,0,0-5.81,4.78,29.49,29.49,0,0,0-4.28,5.8,37.11,37.11,0,0,0-2.82,6.46,45.25,45.25,0,0,0-1.64,6.66,63.93,63.93,0,0,0-.78,6.63c-.15,2.17-.2,4.31-.22,6.36a161.89,161.89,0,0,0,2.41,29,169.66,169.66,0,0,0,19.68,54.7,161.76,161.76,0,0,0,16.58,23.86,5,5,0,0,0,.82.78,5,5,0,0,0,2,.9A5.47,5.47,0,0,0,254.31,691.16Z"/><path class="cls-6" d="M505.12,416a6.22,6.22,0,0,0,.93-.69,6.44,6.44,0,0,0,.8-.85,7.35,7.35,0,0,0,.65-1,7.1,7.1,0,0,0,.48-1.13,6.07,6.07,0,0,0,.24-2.63,7,7,0,0,0-.81-2.48,7.44,7.44,0,0,0-1.67-2,7,7,0,0,0-2.34-1.32,202,202,0,0,1-33.22-14.55,211.93,211.93,0,0,1-56.67-45.28A201.75,201.75,0,0,1,392,314.87c-1.2-2-2.4-4.05-3.54-6.19s-2.22-4.37-3.17-6.65a51.21,51.21,0,0,1-2.34-7,36.29,36.29,0,0,1-1.08-7.24,26.47,26.47,0,0,1,.44-5.88,25.31,25.31,0,0,1,1.87-5.9,19.18,19.18,0,0,1,3.37-5.12,14.94,14.94,0,0,1,5-3.57,16.93,16.93,0,0,1,4.62-1.23,28.8,28.8,0,0,1,5-.14,48,48,0,0,1,5.18.59c1.73.28,3.44.62,5.09,1q6.57,1.39,13.08,3.09t13,3.66q6.43,2,12.78,4.22c4.22,1.5,8.42,3.09,12.57,4.78a6.95,6.95,0,0,0,7.33-1.37,7,7,0,0,0,1.56-2.16,6.89,6.89,0,0,0,.63-2.59,6.9,6.9,0,0,0-1.63-4.79,6.84,6.84,0,0,0-2.08-1.67q-11-5.81-21.52-12.68T427.85,243.3q-9.8-7.83-18.79-16.55T392,208.54q-5.12-6-9.17-11.66a125.73,125.73,0,0,1-7.12-11,91.69,91.69,0,0,1-5.18-10.57A71.27,71.27,0,0,1,367.18,165,50.89,50.89,0,0,1,366,150.52,59.51,59.51,0,0,1,369,135a42.08,42.08,0,0,1,7.34-13.54,26.44,26.44,0,0,1,12-8.37,23.76,23.76,0,0,1,8.78-1,48.4,48.4,0,0,1,9.31,1.59c3.12.81,6.23,1.83,9.22,2.83s5.87,2,8.53,2.75q5.93,1.69,11.82,3.54t11.72,3.84q5.83,2,11.62,4.14t11.51,4.45a7.55,7.55,0,0,0,2.5.52,7.3,7.3,0,0,0,2.46-.36,6.87,6.87,0,0,0,2.15-1.19,6.21,6.21,0,0,0,1.58-2,6.74,6.74,0,0,0,.75-2.75,6.58,6.58,0,0,0-.41-2.68,6.92,6.92,0,0,0-1.44-2.3,6.68,6.68,0,0,0-2.32-1.56q-8-3.21-16.08-6.14t-16.32-5.58q-8.21-2.64-16.5-5t-16.64-4.39c-1.77-.44-3.58-.87-5.42-1.24s-3.69-.7-5.56-.92a44.92,44.92,0,0,0-5.69-.35,35.18,35.18,0,0,0-5.76.49,33.39,33.39,0,0,0-5.67,1.5,37.07,37.07,0,0,0-5.46,2.49,41.15,41.15,0,0,0-5.17,3.45,44.47,44.47,0,0,0-4.81,4.36,49.76,49.76,0,0,0-8.24,11.58,58.23,58.23,0,0,0-5,13.8,66,66,0,0,0-1.6,15.24,71.24,71.24,0,0,0,2,15.87,87.59,87.59,0,0,0,5.09,14.86,112.91,112.91,0,0,0,7.05,13.29c2.55,4.15,5.24,8,7.88,11.5s5.24,6.67,7.61,9.46q4.55,5.34,9.37,10.46t9.93,10q5.1,4.88,10.45,9.49t10.92,8.95l-1.81-.42-1.81-.42-1.82-.4c-.6-.13-1.21-.27-1.82-.39-2.15-.46-4.4-.91-6.69-1.26a58.11,58.11,0,0,0-7-.65,38.39,38.39,0,0,0-7.16.45,29.83,29.83,0,0,0-7.13,2.08,28.26,28.26,0,0,0-8.74,6,32.21,32.21,0,0,0-5.91,8.28,38.85,38.85,0,0,0-3.26,9.48,40.23,40.23,0,0,0-.79,9.56,49,49,0,0,0,1.31,9.3,61.71,61.71,0,0,0,2.79,8.7,87.27,87.27,0,0,0,3.75,8.05c1.36,2.57,2.78,5,4.2,7.37a215.53,215.53,0,0,0,23,31.15A225.9,225.9,0,0,0,464,401.21a214.83,214.83,0,0,0,35.47,15.46A5.94,5.94,0,0,0,501,417a6.47,6.47,0,0,0,1.46,0,6.55,6.55,0,0,0,1.39-.33A6.91,6.91,0,0,0,505.12,416Z"/><path class="cls-2" d="M317.79,16.83h0C264.1,16.83,215.5,42.49,180.32,84S123.38,182.74,123.38,246V699.47H512.2V246c0-63.29-21.76-120.59-57-162.07S371.47,16.83,317.79,16.83ZM494.86,210h-157L395,158.44,452,106.85a218,218,0,0,1,27.25,47.58A237.46,237.46,0,0,1,494.86,210ZM441.7,94.29l-57.89,52.33L325.91,199V36.21a156.76,156.76,0,0,1,63.28,17.14A180.74,180.74,0,0,1,441.7,94.29Zm-132-58.08V197.58l-57.56-52-57.55-52a180.41,180.41,0,0,1,52.26-40.41A156.68,156.68,0,0,1,309.67,36.21ZM299.21,210H140.72a237.75,237.75,0,0,1,15.78-56.09A217.6,217.6,0,0,1,184.16,106l57.53,52Zm198.55,470.3H137.81V248.16q0-5.55.24-11t.71-10.88H496.81c.32,3.6.55,7.23.71,10.88s.24,7.32.24,11V680.32Z"/><path class="cls-7" d="M441.31,534c0-1.15-2.94-2.19-7.82-3a148.87,148.87,0,0,0-19.44-1.59,108.49,108.49,0,0,0-2-19.3c-1.07-4.87-2.47-7.81-4-7.81s-2.93,2.94-4,7.81a108.49,108.49,0,0,0-2,19.3A149,149,0,0,0,382.57,531c-4.88.81-7.81,1.85-7.81,3s2.93,2.18,7.81,3A149,149,0,0,0,402,538.57a108.49,108.49,0,0,0,2,19.3c1.07,4.87,2.47,7.81,4,7.81s2.93-2.94,4-7.81a108.49,108.49,0,0,0,2-19.3A148.87,148.87,0,0,0,433.49,537C438.37,536.17,441.31,535.13,441.31,534Z"/><path class="cls-8" d="M408.51,593.2c-5.18,1.11-8.43,2.32-10.66,4.55s-3.44,5.48-4.55,10.67a.69.69,0,0,1-1.35,0c-1.11-5.19-2.32-8.44-4.55-10.67s-5.47-3.44-10.66-4.55a.66.66,0,0,1-.55-.67.67.67,0,0,1,.55-.67c5.19-1.11,8.43-2.32,10.66-4.55s3.44-5.48,4.55-10.67a.69.69,0,0,1,1.35,0c1.11,5.19,2.32,8.44,4.55,10.67s5.48,3.44,10.66,4.55a.67.67,0,0,1,.55.67A.66.66,0,0,1,408.51,593.2Z"/><path class="cls-9" d="M308.51,269.63c-5.13,1.1-8.35,2.3-10.55,4.51s-3.41,5.42-4.51,10.55a.66.66,0,0,1-.66.54.67.67,0,0,1-.67-.54c-1.1-5.13-2.29-8.35-4.5-10.55s-5.42-3.41-10.55-4.51a.66.66,0,0,1-.54-.66.67.67,0,0,1,.54-.67c5.13-1.1,8.34-2.29,10.55-4.5s3.4-5.42,4.5-10.55a.67.67,0,0,1,.67-.54.66.66,0,0,1,.66.54c1.1,5.13,2.3,8.34,4.51,10.55s5.42,3.4,10.55,4.5a.67.67,0,0,1,.54.67A.66.66,0,0,1,308.51,269.63Z"/><path class="cls-10" d="M460.61,522.85a10.28,10.28,0,1,1,7.27-3A10.24,10.24,0,0,1,460.61,522.85Zm0-14.94a4.66,4.66,0,1,0,3.3,1.37A4.68,4.68,0,0,0,460.61,507.91Z"/><path class="cls-11" d="M188.05,435.4a10.17,10.17,0,1,1,7.19-3A10.13,10.13,0,0,1,188.05,435.4Zm0-14.78a4.61,4.61,0,1,0,3.26,1.35A4.63,4.63,0,0,0,188.05,420.62Z"/><polygon class="cls-12" points="203.51 351.91 198.32 349.56 193.14 347.2 187.95 344.84 182.77 342.49 186.91 339.95 191.05 337.42 195.19 334.89 199.33 332.36 193.75 326.69 188.17 321.02 182.59 315.35 177 309.68 184.1 310.83 191.19 311.98 198.28 313.13 205.38 314.28 202.35 306.05 199.33 297.81 196.3 289.58 193.27 281.34 200.25 286.66 207.22 291.97 214.19 297.28 221.16 302.6 222.67 297.92 224.18 293.24 225.69 288.56 227.2 283.89 230.06 289.16 232.91 294.43 235.77 299.7 238.63 304.98 245.51 299.45 252.38 293.92 259.25 288.39 266.13 282.86 262.89 291.46 259.65 300.07 256.42 308.68 253.18 317.29 261.09 316.87 269 316.45 276.9 316.03 284.81 315.61 278.55 320.75 272.28 325.89 266.01 331.02 259.75 336.16 264.16 340.75 268.57 345.34 272.99 349.93 277.4 354.51 271.41 354.64 265.42 354.78 259.43 354.91 253.44 355.04 254.5 363.87 255.56 372.7 256.62 381.53 257.68 390.36 252.14 383.71 246.6 377.06 241.06 370.4 235.53 363.75 232.22 371.22 228.92 378.69 225.61 386.15 222.31 393.62 221.14 385.29 219.98 376.96 218.82 368.64 217.65 360.31 210.02 365.99 202.38 371.67 194.74 377.34 187.11 383.02 191.21 375.24 195.31 367.46 199.41 359.69 203.51 351.91"/><path class="cls-13" d="M663.76,726.18,575.67,726l-88.09-.15c-20.65,17.41-44.12,35.23-65.75,54.68S380.39,821.08,367.08,845a77.27,77.27,0,0,0-8.82,48.4,70.55,70.55,0,0,0,23,43.25c10.44,9.16,22.78,14.26,35.82,17s26.79,3,40.06,2.57c49.91-1.6,90.46-2.17,131-2.33s81.11.08,131.05.08h5.74a1.06,1.06,0,0,0,1-1.05V831.41H650.72c.43-.4,1.06-1,1.81-1.75s1.64-1.68,2.57-2.75c10.95-12.55,14.9-28.38,16.06-41.36a101.21,101.21,0,0,0-.67-24.29l-.42-2.23c-.42-2.18-1.26-6.51-2.93-15.22,0-.23-.87-4.52-1.69-8.82S663.8,726.41,663.76,726.18Z"/><path class="cls-14" d="M692.23,910.29h-3.34v-55.7H726V847h-37.1V831.41h-7.56V847H623.78v-55.7h46.68c.2-1.31.36-2.59.5-3.85s.25-2.5.34-3.71H623.78V727.92a3.75,3.75,0,0,0-.12-.95,4.34,4.34,0,0,0-.36-.86h-6.59a3.68,3.68,0,0,0-.35.87,3.3,3.3,0,0,0-.13.95v55.86h-55.7V727.92a3.38,3.38,0,0,0-.15-1,4,4,0,0,0-.39-.9h-6.47a3.77,3.77,0,0,0-.4.92,3.38,3.38,0,0,0-.15,1v55.86h-55.7V725.9h-7.56v57.89H434.23V769.72L430.44,773l-3.77,3.29v7.52h-8.39q-2,1.88-4,3.76c-1.34,1.26-2.67,2.52-4,3.8h16.43V847H371V838.4c-.67,1.09-1.34,2.18-2,3.28s-1.29,2.2-1.9,3.32q-1.31,2.32-2.41,4.73c-.75,1.6-1.43,3.22-2.06,4.86h.81v55.7h-.64A71.62,71.62,0,0,0,366.4,918a69.85,69.85,0,0,0,4.57,7.28v-7.46h55.7v37.33c1.26.15,2.51.29,3.77.41s2.53.22,3.79.31v-38h55.48v37.41l3.8-.1,3.76-.09V917.85H553v36.27l3.79,0,3.77,0V917.85h55.7v36h7.55v-36h57.55v36h7.56V917.85H726v-7.56H692.23Zm-265.56,0H371v-55.7h55.7v55.7Zm63,0H434.23v-55.7h55.48v55.7Zm0-63.25H434.23v-55.7h55.48V847ZM553,910.29h-55.7v-55.7H553v55.7ZM553,847h-55.7v-55.7H553V847Zm63.26,63.25h-55.7v-55.7h55.7v55.7Zm0-63.25h-55.7v-55.7h55.7V847Zm65.1,63.25H623.78v-55.7h57.55v55.7Z"/><path class="cls-15" d="M876.56,956.42A29.21,29.21,0,0,0,875,945.09a32.91,32.91,0,0,0-3.22-6.78L869.6,935l-2.22-3.28-29.45-45.69-29.45-45.7a22.22,22.22,0,0,0-2.67-3.37,18.41,18.41,0,0,0-3.34-2.69,19.39,19.39,0,0,0-9.32-2.86l41.39,64.72,41.39,64.73c.15-.73.28-1.46.39-2.21S876.5,957.18,876.56,956.42Z"/><path class="cls-16" d="M793.15,831.44l-.44,0H726V943.76l16.52,0,16.53-.05s7.4,3.05,17.77,7.7,23.73,10.88,35.62,17.25c1.19.64,2.54,1.33,4.35,2.25s4.08,2,7.11,3.57c6.44,3.23,10.38,5.08,13.14,6.21a30.15,30.15,0,0,0,6.16,1.92,27.21,27.21,0,0,0,21-4,28.39,28.39,0,0,0,11.72-17.63l-41.39-64.73Z"/><path class="cls-16" d="M683.38,592.87q-3.84-7.9-8.32-15.27a160.53,160.53,0,0,0-9.57-14.05c-13.19-17.32-30.38-29.17-49.55-36.42s-40.31-9.87-61.41-8.74C488,522,458.31,559.06,445.28,595.26s-9.43,71.5-9.43,71.5L415.22,644.4,394.6,622l-31.11,26.79-31.12,26.79,30.17,44.54L392.7,764.7A93.6,93.6,0,0,0,405,779.39a86.52,86.52,0,0,0,15.1,11.75,84.23,84.23,0,0,0,14.4,7,78.59,78.59,0,0,0,17.57,4.35,83.82,83.82,0,0,0,15,.8,55.63,55.63,0,0,0,21.41-5.16c11.55-5.53,20.72-15.42,26.91-28s9.43-27.8,9.11-44H663.76s1.68,8.77,3.37,17.54l3.36,17.54c0-.27,3.21-2.7,6.64-5.18s7-5,7.68-5.57a49.73,49.73,0,0,0,13.71-19,79.85,79.85,0,0,0,5.7-22.94,210.86,210.86,0,0,0-2.47-58.51A220.32,220.32,0,0,0,683.38,592.87Z"/><path class="cls-17" d="M568.75,527.61c11.8-9.94,18.88-25.35,21.32-40.36,2.53-15.6-.17-31.72-10-43.4-.41-.49-.83-1-1.27-1.43s-.87-.92-1.32-1.36C570,433.77,560,429.9,549.7,429.31a46.89,46.89,0,0,0-29.22,7.92,41,41,0,0,0-12.13,13.93,84.74,84.74,0,0,0-7,17.3,35.48,35.48,0,0,0-.92,3.83c-.25,1.28-.44,2.58-.64,3.9-.07.44-.16,2.05-.35,3.6s-.48,3-.94,3.21L496,484l-2.45,1-2.45,1-2.45,1c1.23,1,2.34,1.94,3.31,2.72s1.79,1.44,2.45,2,1.26.94,1.88,1.44a10.49,10.49,0,0,1,1.68,1.65,4.94,4.94,0,0,1,.9,2.05c.16.72.23,1.48.35,2.23,4.81,30.56,42.8,49.75,68.29,29.63C567.94,528.28,568.35,528,568.75,527.61Z"/><path class="cls-4" d="M517.91,476.52a2.93,2.93,0,0,1-.46,1.05,2.95,2.95,0,0,1-1.81,1.18,2.85,2.85,0,0,1-2.19-.47,2.88,2.88,0,0,1-1.17-1.81,2.58,2.58,0,0,1,0-1.14,2.79,2.79,0,0,1,.45-1,2.76,2.76,0,0,1,.79-.77,2.84,2.84,0,0,1,1-.41,2.74,2.74,0,0,1,1.14,0,2.91,2.91,0,0,1,1,.45,2.86,2.86,0,0,1,.76.79,3.06,3.06,0,0,1,.42,1A2.92,2.92,0,0,1,517.91,476.52Z"/><path class="cls-18" d="M522.05,493.38a9.81,9.81,0,0,1-.4,1.06,13.07,13.07,0,0,1-1.07,1.91,11,11,0,0,1-1.92,2.13,10,10,0,0,1-5.52,2.36,11.31,11.31,0,0,1-2.26,0,13.4,13.4,0,0,1-1.73-.33,10.29,10.29,0,0,1-1-.34"/><polyline class="cls-18" points="512.55 463.52 516.71 464.96 520.88 466.4 525.05 467.84 529.22 469.28"/><path class="cls-19" d="M548.28,492.94a8.76,8.76,0,1,1-13.35-9.15,8.9,8.9,0,0,1,3.11-1.26,8.76,8.76,0,0,1,10.24,10.41Z"/><path class="cls-17" d="M585.78,504.33c.63-2.22,1.25-4.59,1.81-7.09s1.09-5.14,1.54-7.9c.36-2.21.65-4.35.89-6.41s.41-4.06.54-6a18.87,18.87,0,0,1,2,.08,17.22,17.22,0,0,1,2.6.46,12.77,12.77,0,0,1,2.08.83,11.58,11.58,0,0,1,3.24,2.29,11.27,11.27,0,0,1,2.93,7.58,19.6,19.6,0,0,1-1.35,7.73,17.67,17.67,0,0,1-1.63,3.23,12.35,12.35,0,0,1-3.65,3.63,13,13,0,0,1-6.92,2A15,15,0,0,1,585.78,504.33Z"/><path class="cls-3" d="M502.46,463.67c.93.77,0,0-1.44-1.11s-3.26-2.69-4.13-3.52a17.09,17.09,0,0,1-2.94-18.9,15.86,15.86,0,0,1,7.55-7.07,19.78,19.78,0,0,1,5.4-1.66,21.12,21.12,0,0,1-.88-5.84,17,17,0,0,1,2.89-10,16,16,0,0,1,6.81-5.51,27.37,27.37,0,0,1,6.13-1.76c4.73-.9,9.09.24,13.28,2.07s8.21,4.36,12.26,6.22A85.6,85.6,0,0,0,563.62,422c5.48,1.31,11.06,2.27,16.79,3.3a59,59,0,0,1,14.12,4.2,30.35,30.35,0,0,1,11.58,8.87,27.46,27.46,0,0,1,5.54,13.29,42.29,42.29,0,0,1-.73,14.48,69,69,0,0,1-1.78,6.78q-1.07,3.35-2.4,6.59c-.33.8-1.23,2.24-2,3.68s-1.5,2.91-1.42,3.76a12.43,12.43,0,0,0-.33-1.83,11.08,11.08,0,0,0-1-2.39,10.43,10.43,0,0,0-2-2.52,11.66,11.66,0,0,0-1.68-1.28,12.33,12.33,0,0,0-4.53-1.8,13.6,13.6,0,0,0-3.2-.2s-.32,4-.94,8.9a88.25,88.25,0,0,1-2.74,14.36s-3.39-.79-6.27-5.47-5.26-13.24-3.23-28.77c-11.3,3.39-22,3.21-30.53.58s-15-7.74-17.74-14.19a20.15,20.15,0,0,1-1.54-6.68,30.7,30.7,0,0,1,2.38-13.4,39.26,39.26,0,0,0-5.18,2.27,38.27,38.27,0,0,0-5.68,3.7,33,33,0,0,0-3,2.64,43,43,0,0,0-4.94,5.77,49,49,0,0,0-3,4.77c-.83,1.53-1.55,3-2.27,4.5s-1.62,3.51-2.29,5S502.46,463.67,502.46,463.67Z"/><path class="cls-18" d="M435.85,666.76l10.77,10.78,10.78,10.79"/><path class="cls-18" d="M657.64,647c1.07,5.93,2.06,12.13,2.91,18.56s1.56,13.12,2.11,20c.58,7.25.94,14.28,1.1,21s.16,13.3,0,19.55"/><path class="cls-18" d="M525,648.94q-.12,19.32-.25,38.62t-.26,38.62"/><path class="cls-17" d="M394.6,622c-3.72-5.53-7.23-11-10.36-16.69a113.39,113.39,0,0,1-8-17.89c-2.85-8.28-5.54-16.65-8.38-25s-5.8-16.58-9.21-24.66c-2.07-4.92-4.37-10.94-7.3-16.52s-6.48-10.72-11.07-13.91a10.52,10.52,0,0,0-2.3-1.27,5.28,5.28,0,0,0-2.59-.31,5.13,5.13,0,0,0-1.56.54,5.66,5.66,0,0,0-1.11.78l-1.81-2.79-1.81-2.78c-5.78-8.53-9.88-9.9-12.55-9.13a6.9,6.9,0,0,0-3.88,3.67,13.16,13.16,0,0,0-2.06-2.93,10.07,10.07,0,0,0-5.47-3.11,10.94,10.94,0,0,0-2.37-.22,5.15,5.15,0,0,0-3.12,1c-1.3,1-2,2.94-1.92,5.29a16.67,16.67,0,0,0,2.56,8,10.48,10.48,0,0,0-4,.84,6.21,6.21,0,0,0-2.62,2.11c-1.51,2.2-1.23,5.24-.4,8.28s2.19,6.08,2.87,8.26c1.12,3.6,2.14,7.23,3.19,10.86s2.11,7.23,3.32,10.81q1.69,5,3.13,10c1,3.37,1.82,6.78,2.58,10.2a57.7,57.7,0,0,1,1.56,7.72c.23,2.73-.15,5.36-2.13,7.12a5.27,5.27,0,0,1-2,1.12,7.39,7.39,0,0,1-1.39.29c-2.47.25-4.86-.78-7.48-3A65,65,0,0,1,288,568.41c-1.54-2.07-3.64-5.57-6.16-8.31s-5.45-4.71-8.64-3.71c-2.18.68-3,2.48-3.25,4.54a22.91,22.91,0,0,0,.43,6,42.5,42.5,0,0,0,2.59,9c1.14,2.87,2.48,5.67,3.79,8.54,1.71,3.78,15.36,26.78,28.7,48.73s26.4,42.85,26.92,42.4l31.12-26.79Z"/><path class="cls-18" d="M300.25,504.09c2.13,4.29,4.28,8.89,6.39,13.79s4.17,10.12,6.14,15.64c1.85,5.15,3.46,10.14,4.87,15s2.63,9.43,3.67,13.84"/><path class="cls-18" d="M312.63,496.1c2.77,5.47,5.55,11.35,8.25,17.63s5.32,13,7.79,20.1c1.48,4.28,2.83,8.48,4.05,12.57s2.31,8.07,3.29,11.94"/><path class="cls-18" d="M332.68,507.13q3.12,8.08,6.13,16.59t5.85,17.43c.76,2.36,1.49,4.71,2.21,7.05s1.41,4.66,2.08,7"/><path class="cls-2" d="M760.38,944l4.19-12.77,4.18-12.78a10.14,10.14,0,0,1,5.13-6.05,9.69,9.69,0,0,1,13,4,10.17,10.17,0,0,1,1.05,7,.08.08,0,0,0,0,.11.1.1,0,0,0,.12,0,10.68,10.68,0,0,1,5.45-4.86,10.16,10.16,0,0,1,12.5,4,10.71,10.71,0,0,1,1.66,6.71.16.16,0,0,0,.11.17.17.17,0,0,0,.19-.07,9,9,0,0,1,5.17-3.73,9.87,9.87,0,0,1,10.2,3.69,9.93,9.93,0,0,1,1.85,4.48,8.91,8.91,0,0,1,0,2.63,10.89,10.89,0,0,1-.72,2.55l-6,14.78-6.05,14.78q-8.25-4.14-16.76-8.24t-17.26-8.16q-4.54-2.12-9-4.15T760.38,944Z"/><polyline class="cls-16" points="788.14 923.5 782.89 937.24 777.63 950.99"/><path class="cls-16" d="M807.74,929.74l-5.91,14.84-5.91,14.84"/><path class="cls-18" d="M726,852.68h37.2a9.51,9.51,0,0,0,8.25-3,11.47,11.47,0,0,0,3.18-8.14,11.08,11.08,0,0,0-3.49-7.48,9.44,9.44,0,0,0-7.94-2.6"/><path class="cls-18" d="M599.77,795.75s-2,13-10.72,29.81a125,125,0,0,1-51,52.06"/><polyline class="cls-18" points="650.72 831.41 618.26 831.41 585.8 831.41"/><polyline class="cls-18" points="409.49 638.18 377.92 667.2 346.34 696.23"/><polyline class="cls-17" points="802.67 845.79 806.32 844.38 809.97 842.97"/><path class="cls-17" d="M809,855.44l3-1.33,3-1.34"/><polygon class="cls-13" points="273.7 777.26 198.54 777.26 123.38 777.26 123.38 768.89 123.38 760.53 198.54 760.53 273.7 760.53 273.7 768.89 273.7 777.26"/><polygon class="cls-20" points="256.15 760.53 202.53 760.53 148.91 760.53 148.91 752.16 148.91 743.8 202.53 743.8 256.15 743.8 256.15 752.16 256.15 760.53"/></svg>