<svg id="Illustrations" xmlns="http://www.w3.org/2000/svg" xmlns:xlink="http://www.w3.org/1999/xlink" viewBox="0 0 1000 1000"><defs><style>.cls-1,.cls-13,.cls-2,.cls-3,.cls-4,.cls-7,.cls-8{stroke:#000;}.cls-1,.cls-10,.cls-11,.cls-13,.cls-14,.cls-2,.cls-3,.cls-4,.cls-5,.cls-6,.cls-7,.cls-8,.cls-9{stroke-linecap:round;stroke-miterlimit:10;stroke-width:3px;}.cls-1{fill:url(#linear-gradient);}.cls-2{fill:url(#linear-gradient-2);}.cls-3{fill:url(#linear-gradient-3);}.cls-4{fill:#d87d61;}.cls-5{fill:#84a1e5;}.cls-10,.cls-11,.cls-14,.cls-5,.cls-6,.cls-9{stroke:#070707;}.cls-6{fill:#f6991a;}.cls-7{fill:#ece7e1;}.cls-8{fill:#dbcaf4;}.cls-9{fill:#ff6406;}.cls-10{fill:#f6c34c;}.cls-11,.cls-13{fill:none;}.cls-12{fill:#020202;}.cls-14{fill:#f2b3c1;}</style><linearGradient id="linear-gradient" x1="744.47" y1="663.17" x2="818.36" y2="535.19" gradientUnits="userSpaceOnUse"><stop offset="0.12" stop-color="#fec2d9"/><stop offset="0.56" stop-color="#a4c2ff"/><stop offset="1" stop-color="#c6fcdb"/></linearGradient><linearGradient id="linear-gradient-2" x1="249.3" y1="347.38" x2="335.21" y2="496.18" gradientUnits="userSpaceOnUse"><stop offset="0.06" stop-color="#fec2d9"/><stop offset="0.48" stop-color="#a4c2ff"/><stop offset="1" stop-color="#c6fcdb"/></linearGradient><linearGradient id="linear-gradient-3" x1="702.02" y1="259.64" x2="793.29" y2="101.55" xlink:href="#linear-gradient-2"/></defs><path class="cls-1" d="M851.3,589.41c-1.21-3.57-2.43-7.14-3.71-10.69s-2.64-7.06-4.14-10.52a101.28,101.28,0,0,0-6.53-12.8,64.75,64.75,0,0,0-16.36-18.27,69.44,69.44,0,0,0-8.65-5.65c-9,14.57-19.9,17.38-28.58,16.55a35.08,35.08,0,0,1-15.12-5.3c-8.23,11.48-16.9,14.63-24.55,14.07s-14.26-4.82-18.35-8.17a68.31,68.31,0,0,0-14.49,50.7q.63,5.26,1.24,10.53c.42,3.52.83,7,1.25,10.54.3,2.52.59,5,.89,7.56s.6,5,.89,7.56a32,32,0,0,0,1.76,8.29,13.73,13.73,0,0,0,5.32,6.39,26.79,26.79,0,0,0,8.74,3.95,23.24,23.24,0,0,0,9.59.34,24.1,24.1,0,0,0,13.16-7A25,25,0,0,0,760.42,634a29.74,29.74,0,0,0,14,8.71,28.07,28.07,0,0,0,16.11-.2,27.78,27.78,0,0,0,14.52-11,32,32,0,0,0,4.21-8.51,32.33,32.33,0,0,0,7.94,6,28.38,28.38,0,0,0,19.66,3.12,32.47,32.47,0,0,0,15.22-7.8c4.19-4,6.81-9.19,5.8-15.27a53.88,53.88,0,0,0-2.87-9.9C853.74,595.82,852.38,592.57,851.3,589.41Z"/><path class="cls-2" d="M383.84,431.49c-.49-4.55-1-9.11-1.54-13.65s-1.24-9.07-2.09-13.57a123,123,0,0,0-4.32-16.89,80.74,80.74,0,0,0-7.18-15.75,82.38,82.38,0,0,0-7.3-10.25,84.53,84.53,0,0,0-8.74-9c-14.51,14.85-28.2,15.26-38.26,12A42.57,42.57,0,0,1,297.92,354c-12.8,11.39-23.91,12.8-32.82,10.1s-15.6-9.52-19.55-14.58a82.86,82.86,0,0,0-30.69,56.16l-1.35,12.8q-.66,6.4-1.34,12.8l-1,9.19c-.32,3.07-.65,6.13-1,9.19A38.85,38.85,0,0,0,210.1,460a16.8,16.8,0,0,0,4.6,9,32.56,32.56,0,0,0,9.3,7,28.33,28.33,0,0,0,11.25,3,29.27,29.27,0,0,0,17.45-4.77A30.33,30.33,0,0,0,264.33,460a36.14,36.14,0,0,0,14.2,14,33.32,33.32,0,0,0,39.26-5.08,38.15,38.15,0,0,0,7.25-9,39.68,39.68,0,0,0,7.81,9.24,34.42,34.42,0,0,0,22.43,8.95A39.4,39.4,0,0,0,375.4,473c6-3.58,10.51-9.06,10.94-16.52a66.39,66.39,0,0,0-.75-12.5C385,439.74,384.27,435.52,383.84,431.49Z"/><path class="cls-3" d="M831.51,142c-2.75-3.66-5.51-7.31-8.34-10.91s-5.72-7.14-8.76-10.57A124.73,124.73,0,0,0,802,108.21a78.48,78.48,0,0,0-25.8-14.85,83.28,83.28,0,0,0-12.12-3.23c-4.81,20.2-16.34,27.59-26.66,29.93a42.57,42.57,0,0,1-19.45-.37C712.87,136,704.06,143,695,145.23s-18.27-.14-24.26-2.44a82.92,82.92,0,0,0,2.55,63.94l5.44,11.67,5.43,11.67,3.9,8.38,3.9,8.38a38.33,38.33,0,0,0,5.17,8.9,16.66,16.66,0,0,0,8.56,5.34,32.4,32.4,0,0,0,11.58,1.23,28.29,28.29,0,0,0,11.18-3.24A29.26,29.26,0,0,0,741,246a30.41,30.41,0,0,0,2.65-18.18,36.13,36.13,0,0,0,19.4,4.74A33.3,33.3,0,0,0,794.11,208a38.48,38.48,0,0,0,1.61-11.42,39.35,39.35,0,0,0,11.45,3.91A34.41,34.41,0,0,0,831,196.65a39.44,39.44,0,0,0,14.6-14.77c3.32-6.17,4.35-13.18.88-19.8a64.62,64.62,0,0,0-7.07-10.33C836.76,148.43,834,145.2,831.51,142Z"/><path class="cls-4" d="M781.17,522.91c-1.24,0-2.48,0-3.71,0s-2.48.08-3.71.18a20.13,20.13,0,0,0,5.62-8.63A19.93,19.93,0,0,0,756,488.8c-.25.06-.51.12-.76.2l-.75.22a133.81,133.81,0,0,0-27.65-30.11,105.72,105.72,0,0,0-51.12-22.28,104.42,104.42,0,0,0-50.35,5.27,120.26,120.26,0,0,0-32,17.49V328.14a42.65,42.65,0,0,0,11.8,12A42.34,42.34,0,0,0,627,347.37a42.8,42.8,0,0,0,21.85-4.82,56.86,56.86,0,0,0,7.33,28.15,68.55,68.55,0,0,0,21.73,23.54c13.88,9.39,29.68,13.1,44,11.52s27.18-8.47,35.17-20.28,9.58-26.29,5.72-40.18-13.19-27.17-27.07-36.55A68.17,68.17,0,0,0,702.67,297a54.7,54.7,0,0,0-31,6.55,42.64,42.64,0,0,0-78-22.71l-.21.32-.2.32a160.52,160.52,0,0,0-51.61-113.94q-1.65-1.52-3.33-3c-1.12-1-2.25-1.93-3.39-2.87a110.45,110.45,0,0,1,14.45-64.87C560.38,78.33,576.72,64,596.52,57.29c18.7-6.34,36.69-4.53,50.94-.54a110.31,110.31,0,0,1,28.45,12.54A24.32,24.32,0,0,0,671.74,82a24.2,24.2,0,0,0,12.65,22.15,24.44,24.44,0,0,0,12.05,2.92,82.83,82.83,0,0,0-25.67,35.71c6,2.3,15.24,4.71,24.26,2.44s17.84-9.19,23-25.54a42.57,42.57,0,0,0,19.45.37c10.32-2.34,21.85-9.73,26.66-29.93a84.29,84.29,0,0,0-19.42-1.39,82.65,82.65,0,0,0-19.27,3.18q-2.17.63-4.29,1.38t-4.2,1.62a24.39,24.39,0,0,0,3.2-12.08,24.2,24.2,0,0,0-36.64-20.7q-.54.31-1.05.66c-.34.23-.68.47-1,.71l-.38-.38a3.5,3.5,0,0,0-.43-.33,118,118,0,0,0-30.48-13.57c-15.58-4.45-35.45-6.55-56.19.48A90.79,90.79,0,0,0,565.12,66a102.49,102.49,0,0,0-22.34,26.27,113.07,113.07,0,0,0-12.4,30.05,122.12,122.12,0,0,0-3.71,33,151.79,151.79,0,0,0-46.78-22.72A137,137,0,0,0,377.1,143.41a153,153,0,0,0-44.05,35.22,159.46,159.46,0,0,0-29.6,50.45A161.28,161.28,0,0,0,293.92,287s0,.08,0,.12,0,.08,0,.13a24.18,24.18,0,0,0-8,44.87,82.75,82.75,0,0,0-40.38,17.43c3.95,5.06,10.65,11.87,19.55,14.58s20,1.29,32.82-10.1a42.57,42.57,0,0,0,16.49,10.31c10.06,3.3,23.75,2.89,38.26-12a84.42,84.42,0,0,0-15.94-11.17A81.7,81.7,0,0,0,318.56,334q-2.18-.57-4.38-1c-1.47-.3-2.95-.55-4.44-.77a24.46,24.46,0,0,0,9-8.71,24.2,24.2,0,0,0-16.81-36.27c0-.07,0-.14,0-.21a1.27,1.27,0,0,0,0-.2,153.11,153.11,0,0,1,9.05-55,151.37,151.37,0,0,1,28.13-47.93,145.1,145.1,0,0,1,41.65-33.34,131.24,131.24,0,0,1,49.4-14.81q3.39-.32,6.8-.43t6.81-.07a47,47,0,0,0-8.6,3.4,49.16,49.16,0,0,0-8.1,5.23,46.49,46.49,0,0,0-16.85,26.69c-2.06,9.89-.42,20.05,5.29,28.29a39.52,39.52,0,0,0-15.73,15,51.92,51.92,0,0,0-7.28,23.43c-.83,12.17,2.39,23.47,8.28,31.89s14.45,14,24.27,14.64,19.07-3.64,26.06-11.17,11.73-18.29,12.57-30.46a53.5,53.5,0,0,0-1.29-16,47.4,47.4,0,0,0-5.62-13.76,47.84,47.84,0,0,0,9.07-3.42,49.21,49.21,0,0,0,8.54-5.45,46.32,46.32,0,0,0,17.05-27.76c1.86-10.27-.26-20.73-6.79-29a34.25,34.25,0,0,0-3.14-3.43,33.75,33.75,0,0,0-3.52-2.93,141.75,141.75,0,0,1,30.67,12.9,149.56,149.56,0,0,1,27.67,20.19,152.52,152.52,0,0,1,49.08,113.44V471.25a4,4,0,0,0,8,0v-1.6a112.58,112.58,0,0,1,29.33-18,97.33,97.33,0,0,1,99.1,13.43,124.06,124.06,0,0,1,25.9,27.82,20.06,20.06,0,0,0-6.11,8.76,19.92,19.92,0,0,0,13,25.64,68.13,68.13,0,0,0-29.28,21.33c4.09,3.35,10.7,7.62,18.35,8.17s16.32-2.59,24.55-14.07a35.08,35.08,0,0,0,15.12,5.3c8.68.83,19.61-2,28.58-16.55a69.79,69.79,0,0,0-14.84-6.09A67.74,67.74,0,0,0,781.17,522.91Z"/><polyline class="cls-5" points="593.75 280.88 675.43 333.18 757.11 385.49"/><path class="cls-5" d="M232.49,601.93,336.72,760,441,918.15"/><path class="cls-5" d="M456.82,613.82,336.19,759.72,215.55,905.63"/><polyline class="cls-5" points="147.14 759.84 336.44 759.84 525.74 759.84"/><path class="cls-5" d="M354.24,571.57Q345.17,665.8,336.1,760T318,948.47"/><path class="cls-5" d="M352,760.3a15.53,15.53,0,1,1-4.55-11A15.48,15.48,0,0,1,352,760.3Z"/><path class="cls-6" d="M336.5,954.86A194.76,194.76,0,1,1,474,897.81,194,194,0,0,1,336.5,954.86Zm0-379.12a184.76,184.76,0,1,0,130.44,54.12A184,184,0,0,0,336.5,575.74Z"/><path class="cls-6" d="M400.64,934.79H249.93a7.41,7.41,0,0,1-7.39-7.39V914.79a7.39,7.39,0,0,1,7.39-7.39H400.64a7.37,7.37,0,0,1,7.39,7.39V927.4a7.39,7.39,0,0,1-7.39,7.39Z"/><path class="cls-4" d="M250.63,901.61,279.46,881l28.84-20.66h94.5v36.3A10.82,10.82,0,0,1,392,907.4H252.49a3.19,3.19,0,0,1-1.86-5.79Z"/><path class="cls-6" d="M277,882.71a118,118,0,0,1,15.3,6.8c8.12,4.32,17.17,10.5,20.92,17.89h44.24a68.75,68.75,0,0,0-5.09-10.31,65.78,65.78,0,0,0-9.17-11.9,67.1,67.1,0,0,0-24.08-15.77,73.73,73.73,0,0,0-17.47-4.37l-12.33,8.83Z"/><path class="cls-5" d="M526.34,949.86H222a2.88,2.88,0,0,1-2-.85,2.85,2.85,0,0,1-.84-2v-9.32a2.87,2.87,0,0,1,2.88-2.87h304.3a2.87,2.87,0,0,1,2.87,2.87V947a2.89,2.89,0,0,1-2.87,2.88Z"/><path class="cls-6" d="M495.18,934.79H344.47a7.39,7.39,0,0,1-7.39-7.39V914.79a7.37,7.37,0,0,1,7.39-7.39H495.18a7.39,7.39,0,0,1,7.39,7.39V927.4a7.41,7.41,0,0,1-7.39,7.39Z"/><path class="cls-4" d="M345.17,901.61,374,881l28.84-20.66h94.5v36.3a10.82,10.82,0,0,1-10.81,10.81H347a3.19,3.19,0,0,1-1.86-5.79Z"/><path class="cls-6" d="M371.55,882.71a118,118,0,0,1,15.3,6.8C395,893.83,404,900,407.77,907.4H452a68.75,68.75,0,0,0-5.09-10.31,65.78,65.78,0,0,0-9.17-11.9,67.1,67.1,0,0,0-24.08-15.77,73.85,73.85,0,0,0-17.47-4.37l-12.33,8.83Z"/><path class="cls-7" d="M428.51,588.35S416.78,587,401,591.72s-35.63,15.6-51.85,40a117.13,117.13,0,0,0-11.35,21.89,126.21,126.21,0,0,0-6.71,23.75L314.6,768.83l-16.49,91.41,129.17-.13L556.45,860l2.76-79.15L562,701.68c.08-.75,5.12-1.71,10.42-2.52s10.85-1.49,12-1.68c6-1,12-1.74,17.85-3.32a40.25,40.25,0,0,0,16.1-8c8.07-6.91,11.74-16.53,13.58-26.85s1.86-21.34,2.64-31c.11-1.35.74-11.33,1.48-21s1.6-18.94,2.16-18.94H428.51Z"/><path class="cls-8" d="M424.58,588.35a103.64,103.64,0,0,0-14.24,1.28,83.51,83.51,0,0,0-20.72,6.25,89.82,89.82,0,0,0-27.08,19.22,115.59,115.59,0,0,0-13.4,16.67A111.79,111.79,0,0,0,335,661.3a205.16,205.16,0,0,1,25.79-9.09A199.5,199.5,0,0,1,393,646a203.48,203.48,0,0,1,79.5,7.5,228.71,228.71,0,0,1,49,21.05l-9.24,65.88L503,806.36l17.25-.87,17.25-.87q-.93,6.3-1.85,12.59t-1.85,12.6l51-7,51-7,1.26-114.73,1.26-114.72c-51.78-.1-97.05.13-133.47.51S440.91,587.86,424.58,588.35Z"/><path class="cls-9" d="M561.4,817.22h0a17.65,17.65,0,0,0,7.26-6.82,18.08,18.08,0,0,0,0-18.07,17.58,17.58,0,0,0-7.26-6.82h0a17.69,17.69,0,0,0-2.28-9.7,18.06,18.06,0,0,0-15.64-9,17.63,17.63,0,0,0-9.54,2.87h-.06a17.63,17.63,0,0,0-9.53-2.87,18.06,18.06,0,0,0-15.65,9,17.69,17.69,0,0,0-2.28,9.7h0l-.28.15-.28.16-1.44,10.28L503,806.36l10.71-.54,10.71-.54a10.29,10.29,0,0,1-.58-1.91,9.8,9.8,0,0,1-.21-2A10.29,10.29,0,1,1,542,807.67a10.35,10.35,0,0,1-5.5,3.61q-.69,4.62-1.36,9.26t-1.36,9.27l12.82-1.75,12.83-1.75A17.63,17.63,0,0,0,561,822,18.48,18.48,0,0,0,561.4,817.22Z"/><path class="cls-7" d="M536.51,811.28a10.29,10.29,0,0,0,7.69-9.95,10.29,10.29,0,0,0-20.58,0,9.8,9.8,0,0,0,.21,2,10.29,10.29,0,0,0,.58,1.91L531,805l6.54-.33c-.17,1.11-.33,2.22-.49,3.33S536.67,810.17,536.51,811.28Z"/><path class="cls-9" d="M629,736.91a10.28,10.28,0,0,1,7.83-10q.08-5.73.13-11.48c0-3.82.09-7.65.13-11.48a17.56,17.56,0,0,0-8.48-1.64,18.08,18.08,0,0,0-14.53,9,17.69,17.69,0,0,0-2.28,9.7h0a17.58,17.58,0,0,0-7.26,6.82,18.08,18.08,0,0,0,0,18.07,17.65,17.65,0,0,0,7.26,6.82h0a17.67,17.67,0,0,0,2.28,9.69,18,18,0,0,0,14.16,9,17.51,17.51,0,0,0,8.12-1.3q.06-5.83.13-11.67c0-3.89.08-7.77.13-11.66a10.3,10.3,0,0,1-7.62-9.93Z"/><path class="cls-7" d="M629,736.91a10.3,10.3,0,0,0,7.62,9.93l.11-10,.1-10a10.28,10.28,0,0,0-7.83,10Z"/><path class="cls-9" d="M413.47,599.82h0a17.59,17.59,0,0,0,2.28,9.69,18,18,0,0,0,15.64,9,17.67,17.67,0,0,0,9.54-2.88H441a17.64,17.64,0,0,0,9.53,2.88,18.07,18.07,0,0,0,15.65-9,17.67,17.67,0,0,0,2.27-9.69h0a17.59,17.59,0,0,0,9.37-12.53q-7.57.11-14.4.22t-12.89.23a10.33,10.33,0,0,1-3.72,4.68,10.28,10.28,0,0,1-15.23-4.26l-3.64.09-3.35.1c-2.05.06-4.82.16-8.13.48a90.38,90.38,0,0,0-11.36,1.85,17.63,17.63,0,0,0,3.21,5.18A18.16,18.16,0,0,0,413.47,599.82Z"/><path class="cls-7" d="M441,594.25a10.22,10.22,0,0,0,5.84-1.83,10.33,10.33,0,0,0,3.72-4.68l-10.11.21-8.84.21a10.29,10.29,0,0,0,9.39,6.09Z"/><path class="cls-10" d="M416.15,436.32a116.57,116.57,0,0,0-10.32,16.26c-2.8,5.31-5.06,10.51-7.13,15.59-4,9.73-6.68,23.15-8.56,35.63s-2.93,24-3.54,30l-51.4,9.52-51.4,9.52a94,94,0,0,1,13.68,18.48A110.38,110.38,0,0,1,312.59,622L355,611.93l14.57-3.48s1.88-1.49,4.75-3.53a116.08,116.08,0,0,1,10.78-6.82c.19-.1,1.39-.75,3.2-1.63s4.25-2,6.91-3a76.52,76.52,0,0,1,11.7-3.37,88.54,88.54,0,0,1,17.7-1.76H530.74s.9,3.6,1.75,8.42a77.74,77.74,0,0,1,1.42,15.72l49.77-.91,49.77-.91a39.54,39.54,0,0,0,16.15-3.43,36.59,36.59,0,0,0,13.13-9.88c5.47-6.53,8.28-14.6,9.07-23a60.7,60.7,0,0,0-3-24.79c-5-14.85-9.39-30-13.93-45.16s-9.23-30.23-14.89-44.91-13.36-29.21-23.73-40.77-23.42-20.19-39.81-23.12c-17.52-3.13-35.13-1.89-52.68.67s-35.05,6.43-52.33,8.57A83.45,83.45,0,0,0,440.56,415,80.17,80.17,0,0,0,416.15,436.32Z"/><path class="cls-11" d="M434.2,497.71q-.39,22.65-.79,45.32l-.78,45.32"/><path class="cls-7" d="M500.92,480.73a4.75,4.75,0,1,1-1.39-3.35A4.73,4.73,0,0,1,500.92,480.73Z"/><path class="cls-7" d="M503.92,524.59a4.75,4.75,0,1,1-1.39-3.35A4.73,4.73,0,0,1,503.92,524.59Z"/><path class="cls-4" d="M510.4,548.71a98.88,98.88,0,0,1,8.2,11.09,98.25,98.25,0,0,1,15.31,52.69c-1.87,0-4.15-.06-6.77,0s-5.57.17-8.79.41c-6.67.5-11.7.89-15.52,1.71s-6.43,2.08-8.28,4.28c-.66.78-1.29,1.53-1.88,2.33a16.69,16.69,0,0,0-1.6,2.53,26.64,26.64,0,0,0-1.92,6.07,20.36,20.36,0,0,1-2.1,5.95,7.81,7.81,0,0,1-1.55,1.84,5.75,5.75,0,0,1-2.08,1.15,4.46,4.46,0,0,1-3.93-.67,5.53,5.53,0,0,1-2.19-3.38,16,16,0,0,1-.05-5.27c.22-1.8.6-3.58.88-5.24.36-2.11.78-4.51,1.28-7.15s1.08-5.54,1.74-8.64a.85.85,0,0,0-.32-.87.83.83,0,0,0-.91-.08A28,28,0,0,0,469.33,618a64.13,64.13,0,0,0-6,13.94c-.77,2.44-1.44,4.91-2.08,7.39s-1.25,5-1.87,7.46a52.52,52.52,0,0,1-2.1,7.45c-1,2.57-2.56,4.77-4.93,5.29a4.36,4.36,0,0,1-1.76,0,4.47,4.47,0,0,1-1-.32,5.52,5.52,0,0,1-2.7-2.75,10.49,10.49,0,0,1-1-4.65.07.07,0,0,0-.06-.07s-.05,0-.07,0a8.51,8.51,0,0,1-.87,1.76,7.67,7.67,0,0,1-1.95,2,7.86,7.86,0,0,1-1.7,1,5.94,5.94,0,0,1-6.44-1.21,7,7,0,0,1-1.33-1.63,6.75,6.75,0,0,1-.88-2.75,7.49,7.49,0,0,1,.06-1.88.06.06,0,0,0,0-.07.08.08,0,0,0-.08,0,4.79,4.79,0,0,1-1.22.92,4.05,4.05,0,0,1-2.2.51,3.87,3.87,0,0,1-1.5-.39,4.33,4.33,0,0,1-.81-.49,4.55,4.55,0,0,1-1.32-1.78,8.08,8.08,0,0,1-.46-1.59c-.46-2.28-.15-5.88.29-9s1-5.76,1.09-6.09a6.88,6.88,0,0,1-1.86-.88,5.12,5.12,0,0,1-1-.93c-2-2.43-2-5.81-1.17-9.19A56.76,56.76,0,0,1,425.8,611c1.44-3.34,2.76-6.26,3.79-8.48s1.78-3.75,2.09-4.29c2.84-5.12,5-9.05,7.21-12.47a61.29,61.29,0,0,1,7.26-9.39,70.18,70.18,0,0,1,13-10.82,87.52,87.52,0,0,1,10-5.56,82,82,0,0,1,10.64-4.29c3.4-1.11,6.74-2,10.29-2.93,4.07-1.08,7.85-1.91,11.28-2.56S507.79,549.05,510.4,548.71Z"/><path class="cls-4" d="M283.8,552.83l-2.23.37c-.86.15-1.84.33-2.9.55a138.39,138.39,0,0,0-22.86,6.34,104.18,104.18,0,0,0-31.67,18.67,101.52,101.52,0,0,0-14.41,16.53c-7.35,10.38-15,25-16.11,41.88a40.16,40.16,0,0,0,0,7.23c.32,2.75,1.17,5.34,3.14,6.31a4.3,4.3,0,0,0,.69.26,5.18,5.18,0,0,0,.82.15,15.56,15.56,0,0,0,1.27,6.66,7.19,7.19,0,0,0,3.68,3.81,5.48,5.48,0,0,0,1.07.3,6.09,6.09,0,0,0,1.39.08,11.7,11.7,0,0,0,.77,5.55,6,6,0,0,0,3,3.27,4.83,4.83,0,0,0,2.11.4,4.38,4.38,0,0,0,1.09-.14,5.34,5.34,0,0,0,2.85-2,8.08,8.08,0,0,0,1.53-3.66,11.93,11.93,0,0,0,1.5,2.77,6.21,6.21,0,0,0,3.84,2.65,5.83,5.83,0,0,0,1.55.22,4.6,4.6,0,0,0,1.2-.18,6.52,6.52,0,0,0,3.72-3.73,21.65,21.65,0,0,0,1.77-7.63,96.72,96.72,0,0,1,2.26-15.09A84.11,84.11,0,0,1,237.59,630a37.9,37.9,0,0,1,3.42-6.48,12.26,12.26,0,0,1,5.47-4.7,7.91,7.91,0,0,1,8.5,1.75,11.29,11.29,0,0,1,3.52,8.34c-.07,3.43-2.65,8.73-4.52,13.93s-3,10.3-.26,13.33a5.33,5.33,0,0,0,2.43,1.42,7,7,0,0,0,2.5.24,7.15,7.15,0,0,0,4.52-2.6,27.8,27.8,0,0,0,2.89-4.14c.15-.24,1.83-2.92,4.29-6.24a61.07,61.07,0,0,1,9-10,30,30,0,0,1,8.29-4.55c3.64-1.46,8.34-3,14.61-5.07,2.14-.71,4.11-1.32,5.85-1.85s3.26-1,4.5-1.29c-.12-3.2-.39-6.64-.88-10.28a105.78,105.78,0,0,0-14.14-40.36A115.45,115.45,0,0,0,283.8,552.83Z"/><path class="cls-11" d="M563.08,494.57l8.2,22.89,8.2,22.89q-8.93.74-18.17,1.67t-18.79,2.11q-8.68,1.08-17.08,2.28T509,548.92"/><path class="cls-7" d="M452.2,409.6l-.44.16-.1,0c-.61.4-.35,2.89.82,6.08a30.19,30.19,0,0,0,6.31,10.23,29.49,29.49,0,0,0,5.78,4.84,17.7,17.7,0,0,0,10.65,2.88,18.27,18.27,0,0,0,10.66-4.58,24.3,24.3,0,0,0,7-10.67,32.73,32.73,0,0,0,10.94,10,22.82,22.82,0,0,0,13.23,3c6.69-.67,13.08-4.78,17.51-11.08a34.68,34.68,0,0,0,5.82-24.15l-31.85,3.94-31.86,4c-1.11.11-2.12.23-3,.35s-1.67.22-2.31.31c0,0-2.63.38-6.05,1.06a75.51,75.51,0,0,0-10.79,2.8l-.77.29Z"/><path class="cls-11" d="M521.47,674.59c2.6,1.67,5.39,3.58,8.29,5.78s5.92,4.66,9,7.44,6,5.76,8.58,8.55,4.79,5.47,6.74,8"/><path class="cls-11" d="M456.36,613.91s-1.7,4.3-3.85,11.19a218.08,218.08,0,0,0-6.58,26.75"/><path class="cls-11" d="M443.75,610.44s-2.47,5.12-5.08,12.51-5.38,17.06-6,26.15"/><path class="cls-11" d="M436.32,603.69s-1.73,3.25-3.82,8.3a109.65,109.65,0,0,0-6.05,19.13"/><path class="cls-11" d="M206,613.09q-1,3-1.85,6.18c-.6,2.12-1.17,4.32-1.71,6.58-1.09,4.56-2,9-2.63,13.19s-1.17,8.26-1.52,12.08"/><path class="cls-11" d="M214.67,616.39a122.36,122.36,0,0,0-4,13.05,166.94,166.94,0,0,0-5,32.53"/><path class="cls-11" d="M225.8,620.49c-1.07,2.44-2.14,5.14-3.15,8.08s-1.94,6.11-2.76,9.52A105.16,105.16,0,0,0,217,665.43"/><path class="cls-7" d="M565.64,346.52a24.12,24.12,0,0,1,5.38-4.09A18.31,18.31,0,0,1,582.58,340a18.12,18.12,0,0,1,11,6.21,24.44,24.44,0,0,1,5.66,13,20.53,20.53,0,0,1,12.51,3.11,21.1,21.1,0,0,1,8.28,10,24.45,24.45,0,0,1,.85,15.29,25.89,25.89,0,0,1-8.38,13.31,26.25,26.25,0,0,1,1.05,15.16,25.1,25.1,0,0,1-7.35,13A21.74,21.74,0,0,1,592,434.92a21,21,0,0,1-14.38-5.24,23.12,23.12,0,0,1-11.22,7.45,20.11,20.11,0,0,1-12.82-.45,20.76,20.76,0,0,1-9.73-7.73,24.27,24.27,0,0,1-4.18-12.41A20.32,20.32,0,0,1,526.8,410a22.15,22.15,0,0,1-5.71-13.66,24.22,24.22,0,0,1,3.14-13.3,23.81,23.81,0,0,1,9.79-9.49,29.64,29.64,0,0,1,.14-7.75,25.45,25.45,0,0,1,5.73-13,22.64,22.64,0,0,1,25.75-6.24Z"/><path class="cls-4" d="M529.15,327.05a51.4,51.4,0,0,0-21.65-22.18,46.86,46.86,0,0,0-29.37-5.07c-12.83,2.07-21.88,9.27-27.78,16.12a55.76,55.76,0,0,0-9,14,68.94,68.94,0,0,0-3.72,39.52c3.34,16.16,11.95,29.63,23.18,38.36s25.09,12.69,38.89,9.84,25-12,31.82-24.43,9.44-28.24,6.11-44.4a70.78,70.78,0,0,0-3.41-11.49A66.78,66.78,0,0,0,529.15,327.05Z"/><path class="cls-12" d="M494.16,367.66a2.65,2.65,0,0,1-5,1.83,2.64,2.64,0,0,1,1.58-3.4,2.57,2.57,0,0,1,2,.08A2.63,2.63,0,0,1,494.16,367.66Z"/><path class="cls-12" d="M466.39,380a2.66,2.66,0,0,1-.08,2,2.7,2.7,0,0,1-1.49,1.38,2.66,2.66,0,0,1-3.4-1.58,2.57,2.57,0,0,1,.08-2,2.65,2.65,0,0,1,4.89.2Z"/><path class="cls-13" d="M477.27,387.53l-3.11-1.28L471.05,385a.23.23,0,0,1-.15-.19.22.22,0,0,1,.09-.23l2.6-1.75,2.6-1.75-2.71-7.35-2.7-7.36"/><path class="cls-13" d="M484.75,396.23A8.31,8.31,0,0,1,486.1,392a8,8,0,0,1,8-3.53,8.3,8.3,0,0,1,4.32,2.09"/><polyline class="cls-13" points="481.46 358.71 489.43 357.06 497.4 355.42"/><path class="cls-13" d="M464.32,365l-6.69,4.83L451,374.71"/><path class="cls-4" d="M538.61,371.24c.25-1.72.46-3.61.59-5.65a64.73,64.73,0,0,0,0-6.57,65.19,65.19,0,0,0-3.06-17.14,14.34,14.34,0,0,1,6.26-.9,8.2,8.2,0,0,1,3,.9c3.44,1.83,5.43,6.21,5.76,11s-1,10.06-4.16,13.62a14.23,14.23,0,0,1-4.47,3.33A18,18,0,0,1,538.61,371.24Z"/><path class="cls-9" d="M515.3,371.76a6.59,6.59,0,1,1-3.41-3.69A6.57,6.57,0,0,1,515.3,371.76Z"/><path class="cls-9" d="M469.64,392.65a6.56,6.56,0,1,1-3.41-3.7A6.55,6.55,0,0,1,469.64,392.65Z"/><path class="cls-7" d="M483,322.54c0,.54,0,1.09,0,1.63s0,1.08,0,1.61a21.13,21.13,0,0,0,.45,3.71,21.85,21.85,0,0,0,1.05,3.56,18.9,18.9,0,0,0,3.28,5.61,13.68,13.68,0,0,0,4.94,3.74l.17.07.16.07a12.37,12.37,0,0,0,7.47.47,16.25,16.25,0,0,0,4.32-1.7,21.2,21.2,0,0,0,8.73,7.27,18.18,18.18,0,0,0,10.7,1.34,17.87,17.87,0,0,0,8.33-4,20.57,20.57,0,0,0,3.62-4,10.76,10.76,0,0,1,3.1-1,9.58,9.58,0,0,1,10.24,5.1,10.59,10.59,0,0,1,1,2.88,35,35,0,0,0,7.59-16.35,33.47,33.47,0,0,0-13.58-33.12A34.85,34.85,0,0,0,526,292.94a37.62,37.62,0,0,0-6-6.93,31.2,31.2,0,0,0-12.83-7.18,29.19,29.19,0,0,0-19.1,1.47,35.37,35.37,0,0,0-9.1,5.54,27.26,27.26,0,0,0-16.51-3.5,22.41,22.41,0,0,0-14,7.07,26.14,26.14,0,0,0-5.75,10.53,34.14,34.14,0,0,0-1.29,7.69,29,29,0,0,0-6.56,2.25,26.63,26.63,0,0,0-8,6c-5.28,5.74-8.14,13.81-8.67,22.18a43.12,43.12,0,0,0,5.26,24,33.57,33.57,0,0,0,8.27,9.54,35.36,35.36,0,0,0,7.62,4.57c-.26-1.07-.51-2.18-.75-3.32s-.48-2.3-.71-3.5c-.36-1.89-.74-4-1-6a51.32,51.32,0,0,1-.53-5.47,15.57,15.57,0,0,0,8.29.72c4.14-.87,8.64-4.09,10.36-13.32a1.38,1.38,0,0,1,1.39-1.11c.74,0,1.75,0,2.78-.06,2-.1,4.12-.27,4.36-.33a16.13,16.13,0,0,0,7.2-3.5,15.92,15.92,0,0,0,4.68-7.05,24.4,24.4,0,0,0,.95-4,33.33,33.33,0,0,0,.34-4.12c0-1.19,0-2.42.08-3.6A6,6,0,0,1,478,318.2a2.14,2.14,0,0,1,2.26-.9,3.3,3.3,0,0,1,2,1.75,6.31,6.31,0,0,1,.57,1.7A10.77,10.77,0,0,1,483,322.54Z"/><path class="cls-14" d="M464.9,718c-3.57,23.7-5.9,47.41-8.22,71.12s-4.64,47.42-8.22,71.12"/><path class="cls-13" d="M265.28,898.63a6.2,6.2,0,0,0-3.36,1c-1.56,1.07-2.86,3.26-1.84,7.76"/><path class="cls-13" d="M276.27,898.63a6.24,6.24,0,0,0-3.37,1c-1.55,1.07-2.85,3.26-1.84,7.76"/><path class="cls-13" d="M361.44,898.63a6.2,6.2,0,0,0-3.36,1c-1.56,1.07-2.86,3.26-1.84,7.76"/><path class="cls-9" d="M592.61,666.19h0a17.65,17.65,0,0,1-2.28,9.69,18,18,0,0,1-15.65,9,17.63,17.63,0,0,1-9.53-2.87h-.06a17.63,17.63,0,0,1-9.54,2.87,18,18,0,0,1-15.64-9,17.65,17.65,0,0,1-2.28-9.69h0a17.65,17.65,0,0,1-7.26-6.82,18.08,18.08,0,0,1,0-18.07,17.58,17.58,0,0,1,7.26-6.82h0a17.71,17.71,0,0,1,2.28-9.7,18.06,18.06,0,0,1,15.64-9,17.63,17.63,0,0,1,9.54,2.87h.06a17.63,17.63,0,0,1,9.53-2.87,18.06,18.06,0,0,1,15.65,9,17.71,17.71,0,0,1,2.28,9.7h0a17.58,17.58,0,0,1,7.26,6.82,18.08,18.08,0,0,1,0,18.07A17.65,17.65,0,0,1,592.61,666.19Z"/><path class="cls-7" d="M575.42,650.33a10.29,10.29,0,1,1-3-7.27A10.24,10.24,0,0,1,575.42,650.33Z"/><path class="cls-13" d="M372.42,898.63a6.22,6.22,0,0,0-3.36,1c-1.55,1.07-2.86,3.26-1.84,7.76"/><polyline class="cls-13" points="350.03 898.63 365.28 898.63 380.53 898.63"/><polyline class="cls-13" points="255.45 898.63 270.7 898.63 285.95 898.63"/><path class="cls-13" d="M473.16,921.09c0,2.29,0,4.57,0,6.85s0,4.57,0,6.85"/><path class="cls-13" d="M458.79,921.09q0,3.43,0,6.85c0,2.28,0,4.57,0,6.85"/><path class="cls-13" d="M326,921.09q0,3.43,0,6.85c0,2.28,0,4.57,0,6.85"/><path class="cls-13" d="M311.6,921.09q0,3.43,0,6.85c0,2.28,0,4.57,0,6.85"/><path class="cls-11" d="M301.11,549.53a130.8,130.8,0,0,1,8.78,13,132.15,132.15,0,0,1,17.95,55.89"/><path class="cls-11" d="M526.67,546.23s5.89,6.07,11.64,17.36a100.3,100.3,0,0,1,10.74,48.63"/><polyline class="cls-13" points="537.49 804.62 543.11 767.3 548.74 729.99"/><path class="cls-13" d="M768.38,464.69H672a25.52,25.52,0,0,0-25.43,23.38L635.17,624.18,623.72,760.3"/><polyline class="cls-5" points="519.32 602.08 623.65 760.35 727.98 918.62"/><polyline class="cls-5" points="744.16 613.91 623.36 760 502.57 906.09"/><polyline class="cls-5" points="434.17 760.3 623.46 760.3 812.76 760.3"/><polyline class="cls-5" points="623.12 760.3 614.05 854.62 604.98 948.94"/><path class="cls-9" d="M775.85,477H712.36a5.86,5.86,0,0,1-5.85-5.86V458.23a5.84,5.84,0,0,1,5.85-5.85h63.49a5.84,5.84,0,0,1,5.86,5.85v12.91a5.86,5.86,0,0,1-5.86,5.86Z"/><path class="cls-6" d="M623.72,954.86a194.78,194.78,0,1,1,137.51-57.05A193.91,193.91,0,0,1,623.72,954.86Zm0-379.12a184.78,184.78,0,1,0,130.44,54.12A184,184,0,0,0,623.72,575.74Z"/><path class="cls-5" d="M639.25,760.3a15.53,15.53,0,1,1-4.55-11A15.48,15.48,0,0,1,639.25,760.3Z"/><path class="cls-11" d="M458.44,137.76s-9.94,16.56-19.66,43-19.22,62.76-18.35,102.3"/><path class="cls-14" d="M388,717.26c-3.9,23.82-6.54,47.66-9.18,71.49s-5.27,47.67-9.17,71.49"/><path class="cls-11" d="M308.21,419.66A88.49,88.49,0,0,0,325,460"/><path class="cls-11" d="M263.86,461.06a48.9,48.9,0,0,0,3.93-10.86,45.63,45.63,0,0,0-3.11-30.07,46.93,46.93,0,0,0-4.41-7.51,42.72,42.72,0,0,0,28.93,11.63,38.37,38.37,0,0,0,27.27-10.65,37.8,37.8,0,0,0,10.79-22.13,42.68,42.68,0,0,0-4.67-25.53"/><path class="cls-11" d="M743.2,226.12a44.68,44.68,0,0,0,6-7.37,42.32,42.32,0,0,0,5.64-13,42.86,42.86,0,0,0-.54-22.08,46.61,46.61,0,0,0-5-11.5,52.67,52.67,0,0,0,13-3.69,36.47,36.47,0,0,0,15.15-11.8c6.08-8.39,8.13-19.78,6-31.69s-8.52-24.37-19.27-34.9"/><path class="cls-11" d="M725.31,548.63A46.86,46.86,0,0,0,727.73,562a40.64,40.64,0,0,0,37.62,28.54,45.58,45.58,0,0,0,24.4-6,75.69,75.69,0,0,0,8.72,23.94A74.63,74.63,0,0,0,809.22,623"/></svg>