<svg id="Illustrations" xmlns="http://www.w3.org/2000/svg" xmlns:xlink="http://www.w3.org/1999/xlink" viewBox="0 0 1000 1000"><defs><style>.cls-1,.cls-10,.cls-12,.cls-13,.cls-14,.cls-15,.cls-2,.cls-3,.cls-5,.cls-7,.cls-8{stroke:#000;}.cls-1,.cls-10,.cls-12,.cls-13,.cls-14,.cls-15,.cls-16,.cls-17,.cls-2,.cls-3,.cls-5,.cls-6,.cls-7,.cls-8{stroke-linecap:round;}.cls-1,.cls-10,.cls-12,.cls-13,.cls-14,.cls-15,.cls-16,.cls-17,.cls-2,.cls-3,.cls-4,.cls-5,.cls-6,.cls-7,.cls-8{stroke-miterlimit:10;stroke-width:3px;}.cls-1{fill:url(#linear-gradient);}.cls-2{fill:#f6991a;}.cls-3{fill:#f2b3c1;}.cls-11,.cls-4{fill:#040400;}.cls-4{stroke:#040400;}.cls-5{fill:url(#linear-gradient-2);}.cls-6{fill:#84a1e5;}.cls-16,.cls-17,.cls-6{stroke:#070707;}.cls-7{fill:#dbcaf4;}.cls-8{fill:#ece7e1;}.cls-9{fill:#020202;}.cls-10{fill:none;}.cls-12{fill:url(#linear-gradient-3);}.cls-13{fill:url(#linear-gradient-4);}.cls-14{fill:url(#linear-gradient-5);}.cls-15{fill:url(#linear-gradient-6);}.cls-16{fill:#ff6406;}.cls-17{fill:#f6c34c;}</style><linearGradient id="linear-gradient" x1="853.07" y1="474.66" x2="924.08" y2="403.66" gradientUnits="userSpaceOnUse"><stop offset="0.05" stop-color="#a4c2ff"/><stop offset="0.4" stop-color="#b5deed"/><stop offset="0.73" stop-color="#c6fcdb"/></linearGradient><linearGradient id="linear-gradient-2" x1="393.27" y1="236.71" x2="765.63" y2="609.07" gradientUnits="userSpaceOnUse"><stop offset="0" stop-color="#fec2d9"/><stop offset="0.5" stop-color="#dbcaf4"/><stop offset="0.97" stop-color="#c6fcdb"/></linearGradient><linearGradient id="linear-gradient-3" x1="839.45" y1="518.55" x2="870.37" y2="572.1" gradientUnits="userSpaceOnUse"><stop offset="0" stop-color="#c6fcdb"/><stop offset="0.64" stop-color="#fec2d9"/></linearGradient><linearGradient id="linear-gradient-4" x1="800.51" y1="83.37" x2="755.45" y2="161.43" gradientUnits="userSpaceOnUse"><stop offset="0.13" stop-color="#fec2d9"/><stop offset="0.75" stop-color="#dbcaf4"/></linearGradient><linearGradient id="linear-gradient-5" x1="345.82" y1="125.97" x2="345.82" y2="216" gradientUnits="userSpaceOnUse"><stop offset="0.2" stop-color="#fec2d9"/><stop offset="0.6" stop-color="#e3deda"/><stop offset="0.97" stop-color="#c6fcdb"/></linearGradient><linearGradient id="linear-gradient-6" x1="389.67" y1="160.2" x2="422.66" y2="160.2" xlink:href="#linear-gradient"/></defs><path class="cls-1" d="M900,379.61,875.8,419.56l-24.23,39.95,12.77,19.6,12.78,19.6c2-4.14,4.12-9,6.31-14.66s4.4-11.94,6.45-18.9a231.2,231.2,0,0,0,6.19-26.79c1.31-7.72,2-14.15,2.52-19,.55-5.21,1-11.2,1.33-17.85S900.29,387.5,900,379.61Z"/><path class="cls-2" d="M795.13,906.07H651v-71.9A12.21,12.21,0,0,1,663.23,822h131.9v84.09Z"/><path class="cls-2" d="M735.79,864a10.53,10.53,0,1,1-3.08-7.43A10.49,10.49,0,0,1,735.79,864Z"/><path class="cls-2" d="M508,906.07H364.24V822H496.76a11.2,11.2,0,0,1,11.2,11.2v72.89Z"/><path class="cls-2" d="M444.62,864a10.53,10.53,0,1,1-3.08-7.43A10.49,10.49,0,0,1,444.62,864Z"/><path class="cls-3" d="M343,369.54a.64.64,0,0,0-.07-.12.76.76,0,0,0-.26-.24,38,38,0,0,0-4.31-1.32c-2-.54-4-1-4.3-1.13q.19-1.8.3-3.63c.07-1.22.11-2.46.11-3.7,0-15.51-5.2-29.55-13.6-39.72s-20-16.45-32.82-16.45-24.43,6.29-32.83,16.45-13.6,24.21-13.6,39.72,5.2,29.56,13.6,39.72,20,16.46,32.83,16.46a41.06,41.06,0,0,0,27.22-10.68,56.8,56.8,0,0,0,16.67-27.2c.84-.6,3.42-2.16,5.87-3.71s4.75-3.09,5.05-3.65a1.25,1.25,0,0,0,.17-.58A.68.68,0,0,0,343,369.54Z"/><path class="cls-4" d="M340.41,335.73H324.08c2.15,19-.41,36.07-5.63,49.34s-13.08,22.71-21.56,26.4a53.66,53.66,0,0,1-23.22,4.39,51.53,51.53,0,0,1-22.78-6.19c-18.44-10.06-27.71-28.9-29-48.79s5.3-40.81,18.65-55.05a59.69,59.69,0,0,1,18.58-13.35,58.37,58.37,0,0,1,22.23-5.35,56.42,56.42,0,0,1,38.36,13.41A61.24,61.24,0,0,1,340.41,335.73Z"/><path class="cls-4" d="M160.46,251.71c-4.64,5.18-4.65,13.61-.92,23s11.2,19.9,21.52,29.13S202.6,319.37,212.4,322s18.18,1.71,22.81-3.47,4.64-13.61.91-23.05-11.2-19.9-21.52-29.13-21.54-15.48-31.34-18.13S165.09,246.53,160.46,251.71Z"/><polygon class="cls-2" points="810.8 905.83 802.85 905.83 794.9 905.83 794.9 695.38 794.9 484.92 802.85 484.92 810.8 484.92 810.8 695.38 810.8 905.83"/><polygon class="cls-2" points="364.24 905.83 356.29 905.83 348.34 905.83 348.34 695.38 348.34 484.92 356.29 484.92 364.24 484.92 364.24 695.38 364.24 905.83"/><path class="cls-2" d="M815.9,422.89c0,89.05-26.47,169.67-69.26,228s-101.9,94.45-167.19,94.45-124.4-36.1-167.19-94.45-69.26-139-69.26-228,26.47-169.67,69.26-228,101.9-94.45,167.19-94.45,124.41,36.09,167.19,94.45S815.9,333.84,815.9,422.89Z"/><path class="cls-5" d="M799.61,422.89c0,82.92-24.64,158-64.48,212.32s-94.88,87.95-155.68,87.95-115.84-33.61-155.68-87.95-64.48-129.4-64.48-212.32,24.64-158,64.48-212.32,94.88-87.94,155.68-87.94,115.84,33.61,155.68,87.94S799.61,340,799.61,422.89Z"/><path class="cls-4" d="M678.38,271.92c4.63,5.18,4.64,13.61.91,23.05s-11.2,19.9-21.52,29.13-21.54,15.48-31.34,18.13-18.18,1.71-22.81-3.47-4.64-13.61-.91-23.05,11.2-19.9,21.52-29.13,21.54-15.48,31.34-18.14S673.75,266.74,678.38,271.92Z"/><path class="cls-6" d="M467.25,680.77h0c9.79,6.93,18.9,12.89,26.1,17.41s12.51,7.62,14.69,8.82c8.22,4.53,22.21,9.88,39.73,13.1a172.53,172.53,0,0,0,60.91.38,165.81,165.81,0,0,0,37-11.15,200.24,200.24,0,0,0,22.62-11.68,210.63,210.63,0,0,0,19.19-12.38,115.72,115.72,0,0,0,12.83-11.21c-.06-.48-2.29-2.42-4.51-4.36s-4.45-3.87-4.52-4.36h-224l-.06,7.71Z"/><path class="cls-7" d="M502,703.47c-.89-.52-1.81-1.08-2.74-1.67s-1.88-1.2-2.84-1.86l-1.77-1.23-1.68-1.24V665.36H502q0,9.54,0,19.06T502,703.47Z"/><path class="cls-7" d="M661.2,701.75l-2,1.08c-.67.36-1.35.72-2,1.07s-1.54.8-2.3,1.18l-2.26,1.12,0-20.42,0-20.42h8.49q0,9.1,0,18.2T661.2,701.75Z"/><path class="cls-7" d="M610.52,720.17c-1.1.25-2.23.47-3.41.67s-2.39.36-3.65.49l-.84.09-.83.07V665.36h8.74v54.81Z"/><path class="cls-7" d="M556.75,721.45c-1.2-.09-2.45-.22-3.73-.4s-2.6-.42-4-.72l-.86-.2-.84-.21V665.36h9.2q0,14,.1,28Z"/><path class="cls-8" d="M758.32,515.38c-2.71-3.6-6.12-8.06-10.19-13.16s-8.81-10.84-14.15-17c-8.47-9.77-15.51-17.9-22.63-25.17a172.4,172.4,0,0,0-23-20,184.63,184.63,0,0,0-15.5-10.21,150.19,150.19,0,0,0-24.7-11.57,145.1,145.1,0,0,0-34.68-7.93,233.53,233.53,0,0,0-28.09-.93,241.51,241.51,0,0,0-30.9,2,191.68,191.68,0,0,0-43.82,11.3,186.61,186.61,0,0,0-28.41,14.06,213.24,213.24,0,0,0-45.75,36.84A211,211,0,0,0,418,496.19a213.79,213.79,0,0,0-12,19.06l31,30.58,31,30.58-.33,44.48q-.17,22.23-.32,44.47h224q1.06-20.65,2.12-41.32t2.12-41.33L727,549.05Q742.64,532.22,758.32,515.38Z"/><polygon class="cls-2" points="874.62 905.83 874.62 913.78 874.62 921.73 575.37 921.73 276.12 921.73 276.12 913.78 276.12 905.83 575.37 905.83 874.62 905.83"/><path class="cls-3" d="M600.25,377.77c0,15-5.2,28.59-13.6,38.42s-20,15.91-32.82,15.91S529.4,426,521,416.19s-13.59-23.42-13.59-38.42,5.19-28.59,13.59-38.42,20-15.91,32.83-15.91,24.42,6.08,32.82,15.91S600.25,362.77,600.25,377.77Z"/><path class="cls-9" d="M561.94,380.44a2.83,2.83,0,0,1-.83,2,2.82,2.82,0,0,1-4,0,2.81,2.81,0,0,1,0-4,2.82,2.82,0,0,1,4.81,2Z"/><path class="cls-9" d="M528,381.34a2.83,2.83,0,1,1-.83-2A2.8,2.8,0,0,1,528,381.34Z"/><path class="cls-10" d="M537.77,392.84l-2.64-2.42L532.5,388a.25.25,0,0,1-.08-.25.26.26,0,0,1,.18-.2l3.23-.79,3.24-.79V369.29"/><path class="cls-10" d="M535.7,406.32a8.84,8.84,0,0,1,2.89-3.73,8.6,8.6,0,0,1,4.36-1.66,8.49,8.49,0,0,1,4.93,1.07,8.8,8.8,0,0,1,3.54,3.68"/><polyline class="cls-10" points="551.29 362.5 559.68 364.62 568.08 366.73"/><path class="cls-6" d="M189.2,685.4q0,10.4,0,20.79T189.1,727a114.07,114.07,0,0,0-10.64,17,107.78,107.78,0,0,0-9,25.11,110.07,110.07,0,0,0,1.21,52,123.16,123.16,0,0,0,11.78,29.19L182.6,886l.16,35.69H434.23L413.18,803.56,392.13,685.4H189.2Z"/><path class="cls-10" d="M532.76,362.83l-7.69,4.23-7.68,4.23"/><path class="cls-4" d="M498.42,355.94h26.74l6.42-9.36,6.42-9.36q.32,4.57.61,9.13c.21,3,.41,6.09.62,9.13l19.24.23,19.25.23a19.88,19.88,0,0,0,3,9.22c2.82,4.35,8.32,8.19,19,6.14a57.82,57.82,0,0,1,.47,7.12,58.15,58.15,0,0,1-5.8,25.62,62.63,62.63,0,0,1-6.64,10.83,57.29,57.29,0,0,0,7.86-6.37,54,54,0,0,0,8.12-10,57.06,57.06,0,0,0,3.88-7.86,66.36,66.36,0,0,0,4.84-19.57c0-.6.09-1.23.12-1.71s.06-.82.06-.82c.06-1.08.12-2.22.16-3.4s.07-2.43.08-3.71a50.35,50.35,0,0,0-15-36.47c-9.34-9.35-22.23-15.5-36.38-17.33l-.37-.05-.38,0a60,60,0,0,0-12.36.13,54.86,54.86,0,0,0-16.21,4.47,57.9,57.9,0,0,0-26.69,25.12A67.35,67.35,0,0,0,498.42,355.94Z"/><path class="cls-11" d="M675.37,152.55l-6.53,29.18-6.53,29.17,20-18.58,20-18.58-13.5-10.6Z"/><path class="cls-11" d="M406.66,236.8q11.07,11.46,22.13,22.91l22.13,22.92-29.74-8-29.74-8c1-2.27,2.08-4.58,3.19-6.93s2.29-4.72,3.51-7.13q2.12-4.17,4.25-8.1C403.81,241.8,405.24,239.26,406.66,236.8Z"/><path class="cls-3" d="M758.32,515.38,727,549.05l-31.36,33.66,22.23,22.77,22.24,22.77c5.52-8.26,11.1-17.38,16.51-27.39a341.75,341.75,0,0,0,15.5-32.65c1.78-4.33,3.43-8.61,5-12.81s3-8.32,4.25-12.36L769.8,529.21Z"/><polyline class="cls-10" points="756.23 243.9 730.03 306.9 703.83 369.89 725.36 377.78 746.89 385.67 729.53 423.28 712.17 460.88"/><polyline class="cls-10" points="363.71 362.75 374 395.14 384.29 427.52 403.95 425.21 423.61 422.89 425.09 453.91 426.56 484.92"/><path class="cls-8" d="M278.38,403.1a193.35,193.35,0,0,0-75.68,15.11c-25.85,10.93-50.24,28.35-66.91,54C125.32,488.38,119,506.13,115,521.76a272.63,272.63,0,0,0-6.4,36.82c-.64,5.48-1,10.53-1.25,15s-.3,8.45-.3,11.72h63.07l9.54,50,9.54,50H392.13l.54-22q.27-11,.55-22c-2.05-2.55-4.11-5.17-6.18-7.83s-4.13-5.4-6.21-8.18q-4.62-6.2-8.89-12.28t-8.23-12l45.43-40.55L454.57,520c-2.71-4.25-6.09-9.44-10.12-15.35s-8.69-12.53-14-19.65c-4.1-5.53-8.66-11.48-12.89-16.84s-8.13-10.1-10.92-13.24c-10.31-11.57-23.43-20.86-37.68-28.22A218.92,218.92,0,0,0,324.58,410c-4.32-1.14-10.62-2.81-18.46-4.22A167.68,167.68,0,0,0,278.38,403.1Z"/><polyline class="cls-10" points="363.71 601.13 349.28 584.36 334.85 567.59"/><path class="cls-3" d="M107.05,585.33l-2.81,41-2.8,41c-.12.77-.27,1.79-.43,3s-.31,2.67-.45,4.26c-.52,6.15-1.17,14-.36,21.42s3.1,14.6,8.47,19.4a28,28,0,0,0,6,4,35.5,35.5,0,0,0,4,1.71A32.81,32.81,0,0,0,130,722.85h58.8l.2-18.73.2-18.72-9.54-50-9.54-50H107.05Z"/><path class="cls-3" d="M363.71,601.13c9.27,13.83,19.85,28.28,31.46,42.76s24.27,29,37.7,43c1,1,2.65,3,4.95,5.4a118.17,118.17,0,0,0,8.87,8.5,145.13,145.13,0,0,0,15.66,12c6.86,4.46,14.91,8.55,22.8,9.75,9.59,1.47,18.37-1.42,28.55-8.13s21.76-17.23,36.95-31.05c4.15-3.78,8.21-7.63,15.11-14.84s16.66-17.78,32.22-35l1.84-2,1.81-2c4.53-5,11.52-12.75,20.26-22.19s19.21-20.59,30.7-32.46c0,0,2.07-2.14,7.26-8.76s13.49-17.75,26-35.72a8.16,8.16,0,0,0,.79-1.38,8,8,0,0,0,.71-2.6,9,9,0,0,0-.58-4,6.84,6.84,0,0,0-2.57-3.29,6.66,6.66,0,0,0-3.89-1,8.56,8.56,0,0,0-4.4,1.48,27.26,27.26,0,0,0-5.22,4.62,107.84,107.84,0,0,0-7,8.9c-.05.08-.15.21-.28.38l-.48.62a36.64,36.64,0,0,1-2.74,3.19,8.91,8.91,0,0,1-3,2.09,8.42,8.42,0,0,1-5.73-.07,12.19,12.19,0,0,1-2.86-1.4,10.16,10.16,0,0,1-2.65-2.69,9,9,0,0,1-1.11-2.18c-.16-.49-.28-1-.39-1.49s-.18-1-.24-1.52a109.1,109.1,0,0,1-.36-21.6,112.68,112.68,0,0,1,9-36.45c.49-1.13,1-2.24,1.57-3.34s1.12-2.18,1.7-3.27a16,16,0,0,0,1.74-5.15,6.84,6.84,0,0,0-2.14-6.36A6.41,6.41,0,0,0,651,452.2a7.43,7.43,0,0,0-4.5,1.91,12.73,12.73,0,0,0-2.44,3.15,34.71,34.71,0,0,0-1.72,3.65,77.12,77.12,0,0,0,2.63-8.36,25.31,25.31,0,0,0,.67-8.63,6.56,6.56,0,0,0-.4-1.64,4.53,4.53,0,0,0-.87-1.42,5.67,5.67,0,0,0-4.26-1.7,7.76,7.76,0,0,0-4.42,1.42,9.9,9.9,0,0,0-1.7,1.6,16.12,16.12,0,0,0-1.39,1.89c-.37.57-1.19,1.83-1.88,3.12s-1.22,2.59-1,3.25a7,7,0,0,0-1.54-2.53c-1.11-1.12-2.88-1.93-5.53-.72a7.07,7.07,0,0,0-2.89,2.24c-1.76,1.95-4.16,5.56-6.7,12.2a4.59,4.59,0,0,0-4.44-1.33c-2.78.66-6.67,4-11.14,14.53-1,2.2-2,4.57-2.93,7.1s-1.82,5.22-2.63,8.08a105.41,105.41,0,0,0-2.77,13,108.25,108.25,0,0,0-1.09,11.65,37.73,37.73,0,0,1-2,10.92,35.76,35.76,0,0,1-5.17,9.81l0,0,0,.06a136,136,0,0,1-13.86,15.89c-5,4.93-10.58,9.87-17.58,16-6.72,5.84-13,11.2-18.61,16s-10.74,9.1-15.16,12.8q-15.24-19-30.5-38.06L454.57,520l-45.43,40.56Z"/><path class="cls-10" d="M613.05,461.63s-1.81,5.26-4,13.17a230.88,230.88,0,0,0-6.14,29"/><path class="cls-10" d="M629.71,450.44s-2.94,7.61-6.09,18.08-6.5,23.8-7.34,35.26"/><path class="cls-10" d="M643.35,458.08s-3.32,7.86-6.69,17.72-6.77,21.7-6.95,29.67"/><polyline class="cls-10" points="515.56 596.14 509.03 601.69 502.51 607.25"/><path class="cls-7" d="M233.1,921.81l-.19-10.88-.19-10.88a184.73,184.73,0,0,0-2.56-27.41,197.44,197.44,0,0,0-6.66-27.36c-7.93-24.81-8.94-50.09-6.53-75.4s8.24-50.64,14-75.55c.39-1.67.7-3.08,1-4.48s.63-2.81,1-4.45h9.14c-.37,1.65-.78,3.55-1.18,5.46s-.82,3.82-1.21,5.48C234.11,720.66,228.43,745.4,226,770s-1.51,48.95,6,72.58a206.84,206.84,0,0,1,7,28.63,192.84,192.84,0,0,1,2.67,28.72l.19,10.88.19,10.88-4.5.08Z"/><path class="cls-7" d="M319.17,921.81,319,910.93l-.19-10.88a184.73,184.73,0,0,0-2.56-27.41,197.44,197.44,0,0,0-6.66-27.36c-7.93-24.81-8.93-50.09-6.52-75.4s8.23-50.64,14-75.55c.38-1.66.69-3.07,1-4.48s.63-2.81,1-4.45h9.15c-.38,1.65-.78,3.55-1.19,5.46s-.82,3.82-1.2,5.49c-5.59,24.31-11.28,49-13.68,73.61s-1.51,48.95,6,72.58a205.42,205.42,0,0,1,7,28.63,194.2,194.2,0,0,1,2.68,28.72l.19,10.88.19,10.88-4.5.08Z"/><path class="cls-7" d="M365.61,921.81l-.19-10.88-.19-10.88a184.73,184.73,0,0,0-2.56-27.41A197.44,197.44,0,0,0,356,845.28c-7.93-24.81-8.93-50.09-6.52-75.4s8.23-50.64,14-75.55c.38-1.67.74-3.07,1.09-4.47s.71-2.8,1.09-4.45h9c-.38,1.65-.78,3.55-1.19,5.46s-.82,3.81-1.2,5.47c-5.59,24.32-11.28,49.06-13.68,73.62s-1.51,48.95,6,72.58a205.07,205.07,0,0,1,7,28.63,194.2,194.2,0,0,1,2.68,28.72l.19,10.88.19,10.88-4.5.08Z"/><path class="cls-10" d="M271.23,760.17a117.5,117.5,0,0,0-7.16,23,112.25,112.25,0,0,0,4.33,60.27,113.94,113.94,0,0,0,7.72,17.05v61"/><polyline class="cls-10" points="168.03 571.28 169.46 580.33 170.89 589.37"/><polygon class="cls-12" points="838.17 514.25 842.99 543.27 847.8 572.29 861.25 556.3 874.7 540.3 856.44 527.28 838.17 514.25"/><path class="cls-11" d="M765.91,582.62l-39.29,25.3-39.28,25.3,2.9,23.22,2.9,23.21c3.57-2.86,7.66-6.33,12.09-10.42s9.19-8.8,14.09-14.16a232.15,232.15,0,0,0,17.29-21.37c4.56-6.37,8-11.84,10.61-16,2.78-4.45,5.84-9.61,9-15.46S762.68,589.83,765.91,582.62Z"/><path class="cls-13" d="M770.73,79.58l-8,40.71-8,40.72,31.84-26.62,31.84-26.63a39.28,39.28,0,0,0-4-10.19A37.62,37.62,0,0,0,781.2,78.19,39,39,0,0,0,770.73,79.58Z"/><path class="cls-14" d="M317.94,153.9l27.88,31L373.71,216l-4.63-42.81-4.63-42.82a31.52,31.52,0,0,0-15.52-4.4,30.62,30.62,0,0,0-15.51,3.92,30.23,30.23,0,0,0-12.8,14.37A33.49,33.49,0,0,0,317.94,153.9Z"/><polygon class="cls-15" points="389.67 146.13 401.43 160.2 413.2 174.27 417.93 162.51 422.66 150.74 406.16 148.44 389.67 146.13"/><path class="cls-16" d="M469,750.21l8.39,13.72,8.39,13.73a16.85,16.85,0,0,0,7.43-10.91,15.44,15.44,0,0,0-12.34-18.56A16.86,16.86,0,0,0,469,750.21Z"/><path class="cls-8" d="M473.29,747.57a17,17,0,0,0-8.11-6.77,13.52,13.52,0,0,0-10.22-.43,8.89,8.89,0,0,0-1.7.9,6.57,6.57,0,0,0-1.73,1.69c-1.76,2.54-1.47,6.07-.07,9.33a15.86,15.86,0,0,0,6.65,7.62.36.36,0,0,1,.2.38.38.38,0,0,1-.3.31,8.77,8.77,0,0,0-4.61,2.54,8.89,8.89,0,0,0-2.43,4.71,9.47,9.47,0,0,0,1,5.9,10.17,10.17,0,0,0,4.23,4.31,10.86,10.86,0,0,0,5.39,1.22,11.92,11.92,0,0,0,5.38-1.42.35.35,0,0,1,.42,0,.36.36,0,0,1,.11.41,30.54,30.54,0,0,0-1.46,5.27A17,17,0,0,0,466,789a11.15,11.15,0,0,0,4.09,7.09,8.31,8.31,0,0,0,8.24,1.13,10.08,10.08,0,0,0,2-1,11.05,11.05,0,0,0,1.75-1.45,22.4,22.4,0,0,0,5.48-10.45,21.69,21.69,0,0,0-.3-11.88,13.65,13.65,0,0,0-4.06-5.94,11.72,11.72,0,0,0-3-1.55,6.49,6.49,0,0,1-2.69-1.7,5.27,5.27,0,0,1-1.05-2.81c-.12-1.06-.14-2.34-.4-4.1a30.14,30.14,0,0,0-.66-3.21A22.39,22.39,0,0,0,473.29,747.57Z"/><path class="cls-10" d="M490.64,754.35a22.85,22.85,0,0,1,4.81-1,21.25,21.25,0,0,1,7.39.51A19.73,19.73,0,0,1,506,755a25.74,25.74,0,0,1,6.67,4.35c5.45,4.95,7.64,12.36,8.45,18.74a56.1,56.1,0,0,1,.12,12.62"/><path class="cls-3" d="M597.82,397.75c.36-1.43.71-3,1-4.6s.58-3.36.79-5.18a75,75,0,0,0,.51-9.05c0-2.8-.19-5.35-.43-7.62a36.16,36.16,0,0,1,4.56.14,8.73,8.73,0,0,1,4.22,1.57c3.68,2.67,4.56,7.17,3.69,11.53s-3.49,8.57-6.79,10.7a15.71,15.71,0,0,1-4.25,1.93A16.57,16.57,0,0,1,597.82,397.75Z"/><path class="cls-16" d="M575.5,393.5a7.44,7.44,0,1,1-2.18-5.25A7.37,7.37,0,0,1,575.5,393.5Z"/><path class="cls-16" d="M529.87,394.29a7.44,7.44,0,1,1-2.18-5.25A7.41,7.41,0,0,1,529.87,394.29Z"/><path class="cls-3" d="M466.39,778.17a25.29,25.29,0,0,0,3.5-2.3,24.68,24.68,0,0,0,4.11-4.09,25.82,25.82,0,0,0,2.61-4,25.17,25.17,0,0,0,1.42-3.37"/><path class="cls-3" d="M456.85,760.91a42.24,42.24,0,0,1,5.64-1.32,40.55,40.55,0,0,1,7.16-.53c1.26,0,2.45.1,3.58.21s2.19.27,3.17.45"/><path class="cls-16" d="M596.15,696.15l-9.24,15.11-9.24,15.11a18.54,18.54,0,0,1-8.18-12,17,17,0,0,1,13.58-20.44A18.6,18.6,0,0,1,596.15,696.15Z"/><path class="cls-8" d="M591.4,693.25a18.65,18.65,0,0,1,8.94-7.46c3.72-1.53,7.82-1.91,11.25-.48a11.52,11.52,0,0,1,1.87,1,7.3,7.3,0,0,1,1.9,1.87c1.94,2.79,1.62,6.69.08,10.27a17.43,17.43,0,0,1-7.33,8.39.41.41,0,0,0,.12.76,9.59,9.59,0,0,1,5.07,2.8,9.75,9.75,0,0,1,2.68,5.18,10.49,10.49,0,0,1-1.13,6.5,11.38,11.38,0,0,1-4.67,4.75,12,12,0,0,1-5.93,1.34,13.39,13.39,0,0,1-5.93-1.56.41.41,0,0,0-.57.51,34.53,34.53,0,0,1,1.6,5.79,18.73,18.73,0,0,1,.12,5.93,12.27,12.27,0,0,1-4.5,7.8,9.15,9.15,0,0,1-9.07,1.25,10.62,10.62,0,0,1-2.22-1.15,11.67,11.67,0,0,1-1.92-1.59,24.66,24.66,0,0,1-6-11.51,23.9,23.9,0,0,1,.33-13.08,15.74,15.74,0,0,1,1.8-3.57,15.41,15.41,0,0,1,2.67-3,12.92,12.92,0,0,1,3.27-1.7,7.16,7.16,0,0,0,3-1.88,5.73,5.73,0,0,0,1.16-3.09c.14-1.17.16-2.58.44-4.51a34.09,34.09,0,0,1,.73-3.54A25.1,25.1,0,0,1,591.4,693.25Z"/><path class="cls-10" d="M572.3,700.71a25.55,25.55,0,0,0-5.3-1.14,23.47,23.47,0,0,0-8.14.56c-.42.11-.94.27-1.54.48a19,19,0,0,0-2,.81c-4.7,2.26-8.35,7.46-10.82,12.1a58.67,58.67,0,0,0-3.77,8.72c-2,6.43-4.46,15.68-7,27.28s-5.1,25.54-7.5,41.36"/><path class="cls-3" d="M599,726.94a27.76,27.76,0,0,1-3.85-2.54,27,27,0,0,1-7.4-9,27.28,27.28,0,0,1-1.57-3.7"/><path class="cls-3" d="M609.51,707.94a45.41,45.41,0,0,0-14.1-2c-1.39,0-2.7.1-3.94.23s-2.41.3-3.49.5"/><path class="cls-7" d="M542.08,835.19a32.47,32.47,0,0,0,11.85-11,28.53,28.53,0,0,0,4.5-15.33,29.31,29.31,0,0,0-9.89-21.72,36.21,36.21,0,0,0-47.76,0,29.31,29.31,0,0,0-9.89,21.72,28.53,28.53,0,0,0,4.5,15.33,32.55,32.55,0,0,0,11.85,11,29,29,0,0,0-9.6,9.78A25.69,25.69,0,0,0,494,858.1v47.23H555.3V858.1A25.69,25.69,0,0,0,551.68,845,29,29,0,0,0,542.08,835.19Z"/><path class="cls-17" d="M559.84,763.9a9.18,9.18,0,1,1-2.69-6.49A9.14,9.14,0,0,1,559.84,763.9Z"/><path class="cls-17" d="M509,724.49a9.18,9.18,0,1,1-2.69-6.49A9.16,9.16,0,0,1,509,724.49Z"/><polygon class="cls-8" points="709.47 905.53 673.65 905.53 637.83 905.53 637.83 852.36 637.83 799.19 673.65 799.19 709.47 799.19 709.47 852.36 709.47 905.53"/><path class="cls-7" d="M637.83,799.19h71.64a38.61,38.61,0,0,1-14.62,21.51,35.67,35.67,0,0,1-44.92-1.82A38.6,38.6,0,0,1,637.83,799.19Z"/><polyline class="cls-10" points="672.35 812.26 672.35 802.11 672.35 791.95"/><polygon class="cls-8" points="650.04 905.53 619.53 905.53 589.02 905.53 589.02 878.04 589.02 850.55 619.53 850.55 650.04 850.55 650.04 878.04 650.04 905.53"/><path class="cls-7" d="M590,850.55h58.43A33.8,33.8,0,0,1,636.25,864a31.77,31.77,0,0,1-34.14,0A33.92,33.92,0,0,1,590,850.55Z"/><polyline class="cls-10" points="618.09 856.73 618.09 848.09 618.09 839.44"/></svg>