<svg id="Illustrations" xmlns="http://www.w3.org/2000/svg" xmlns:xlink="http://www.w3.org/1999/xlink" viewBox="0 0 1000 1000"><defs><style>.cls-1,.cls-10,.cls-11,.cls-14,.cls-15,.cls-16,.cls-17,.cls-18,.cls-2,.cls-5,.cls-6,.cls-8{stroke:#000;}.cls-1,.cls-10,.cls-11,.cls-13,.cls-14,.cls-15,.cls-16,.cls-17,.cls-18,.cls-2,.cls-3,.cls-5,.cls-6,.cls-8,.cls-9{stroke-linecap:round;}.cls-1,.cls-10,.cls-11,.cls-13,.cls-14,.cls-15,.cls-16,.cls-17,.cls-18,.cls-2,.cls-3,.cls-4,.cls-5,.cls-6,.cls-8,.cls-9{stroke-miterlimit:10;stroke-width:3px;}.cls-1{fill:url(#linear-gradient);}.cls-2{fill:#dbcaf4;}.cls-3{fill:#84a1e5;}.cls-13,.cls-3,.cls-9{stroke:#070707;}.cls-12,.cls-4{fill:#040400;}.cls-4{stroke:#040400;}.cls-5{fill:#ece7e1;}.cls-6{fill:#f6991a;}.cls-11,.cls-7{fill:none;}.cls-8{fill:#f2b3c1;}.cls-9{fill:#fc762b;}.cls-10{fill:#d87d61;}.cls-13{fill:#ff6406;}.cls-14{fill:url(#linear-gradient-2);}.cls-15{fill:url(#linear-gradient-3);}.cls-16{fill:url(#linear-gradient-4);}.cls-17{fill:url(#linear-gradient-5);}.cls-18{fill:url(#linear-gradient-6);}</style><linearGradient id="linear-gradient" x1="315.32" y1="873.73" x2="745.24" y2="129.08" gradientUnits="userSpaceOnUse"><stop offset="0.38" stop-color="#a4c2ff"/><stop offset="0.56" stop-color="#b5deed"/><stop offset="0.73" stop-color="#c6fcdb"/></linearGradient><linearGradient id="linear-gradient-2" x1="320.96" y1="156.19" x2="376.8" y2="156.19" gradientUnits="userSpaceOnUse"><stop offset="0.16" stop-color="#fec2d9"/><stop offset="0.8" stop-color="#a4c2ff"/></linearGradient><linearGradient id="linear-gradient-3" x1="298.5" y1="196.57" x2="326.08" y2="196.57" xlink:href="#linear-gradient-2"/><linearGradient id="linear-gradient-4" x1="797.81" y1="326.91" x2="814.75" y2="326.91" xlink:href="#linear-gradient-2"/><linearGradient id="linear-gradient-5" x1="384.37" y1="138.22" x2="401.62" y2="138.22" xlink:href="#linear-gradient-2"/><linearGradient id="linear-gradient-6" x1="779" y1="294.39" x2="806.09" y2="294.39" xlink:href="#linear-gradient-2"/></defs><path class="cls-1" d="M843.65,790.94H171.93V379.87A335.87,335.87,0,0,1,507.79,44h0A335.86,335.86,0,0,1,843.65,379.87V790.94Z"/><path class="cls-2" d="M190.7,803.36,293.21,623,395.72,442.59a181.92,181.92,0,0,1,18.51-24.4,174.4,174.4,0,0,1,22.64-21c17.16-13.31,40-26,66.48-28.58s56.59,5.14,88.28,32.64A185,185,0,0,1,612,422a195.41,195.41,0,0,1,16.85,23.46l98,179,98,179H190.7Z"/><path class="cls-3" d="M190.7,803.36q67.68-58.85,135.38-117.66T461.39,568c34.4-30,76.5-78.31,122.87-116.63s97-66.62,148.52-56.53c31.8,6.23,54.25,23.5,69,39.87a138.67,138.67,0,0,1,23.07,34.46l.07,101,.07,101L825,737.23l-.07,66.13H190.7Z"/><path class="cls-3" d="M825,803.36Q757.35,744.52,689.65,685.7T554.34,568C520,538,477.85,489.64,431.47,451.32s-97-66.62-148.52-56.53c-31.8,6.23-54.25,23.5-69,39.87a138,138,0,0,0-23.07,34.46l-.07,101-.08,101,.08,66.14.07,66.13H825Z"/><path class="cls-4" d="M346.2,356.69a36.28,36.28,0,0,0,5.46,6.35,34.25,34.25,0,0,0,4.7,3.63,31.87,31.87,0,0,0,7.34,3.46,21.58,21.58,0,0,0,10.22.9,7.23,7.23,0,0,0,3.68-1.81,6.33,6.33,0,0,0,1.92-3.39,6.09,6.09,0,0,0-.39-3.56,7.11,7.11,0,0,0-2.18-2.86,8.74,8.74,0,0,0-3.55-1.5c-1.27-.28-2.58-.46-3.81-.86a24.28,24.28,0,0,1-7.4-3.93,24.56,24.56,0,0,1-5.66-6.19l-1-1.59-1-1.6-4.15,6.48Z"/><path class="cls-4" d="M288.94,368.6a36.12,36.12,0,0,0-.83,6.32,35,35,0,0,0,4.69,19,35.87,35.87,0,0,0,4.15,5.76,11.23,11.23,0,0,0,6.81,4.16,6.15,6.15,0,0,0,5.44-1.34,5.27,5.27,0,0,0,1.27-4.16A10.35,10.35,0,0,0,309,394a10.14,10.14,0,0,0-1.35-1.68c-.5-.51-1-1-1.54-1.52a19.34,19.34,0,0,1-1.78-2.15,18.78,18.78,0,0,1-1.45-2.39A20.19,20.19,0,0,1,301,374.45a25.37,25.37,0,0,1,1.77-6.66l-6.91.4Z"/><path class="cls-5" d="M328.58,511.05h-4.11a56.59,56.59,0,0,0-56.6-56.59,55.94,55.94,0,0,0-15,2c.08-.87.14-1.75.18-2.63s.06-1.76.06-2.66a56.6,56.6,0,0,0-112.62-8.07c-.88-.08-1.78-.15-2.68-.19s-1.8-.07-2.71-.07a56.61,56.61,0,0,0-56.6,56.6,57.54,57.54,0,0,0,.31,5.9,56.31,56.31,0,0,0,.89,5.72,34,34,0,0,0-32.78,34h0a34,34,0,0,0,34,34H328.58a34,34,0,0,0,34-34h0a34,34,0,0,0-34-34Z"/><polygon class="cls-5" points="824.88 843.36 507.79 843.36 190.7 843.36 190.7 754.96 190.7 666.55 507.79 666.55 824.88 666.55 824.88 754.96 824.88 843.36"/><path class="cls-5" d="M769.33,93.6c-.05-2.3-.15-4.61-.35-6.9a66.89,66.89,0,0,0-.89-6.8,73.41,73.41,0,0,0-3.89-13.6,59.59,59.59,0,0,0-6.65-12.47,70.84,70.84,0,0,0-19.5-19.65,68.67,68.67,0,0,0-25.58-10.56q-3.13-.59-6.32-.89t-6.38-.29a68.73,68.73,0,0,0-49.26,20.84A71.74,71.74,0,0,0,630.1,93.61q0,3.14.26,6.2c.18,2,.43,4.06.77,6h-4a30.22,30.22,0,0,0-21.34,8.81,29,29,0,0,0-8.65,21.25,29.47,29.47,0,0,0,29.45,28.86h98.24a44.24,44.24,0,0,0,27.42-9.86,42,42,0,0,0,15.27-24.75,102.87,102.87,0,0,0,1.54-12.61c.27-4.22.34-8.47.31-12.7v-5.6C769.39,97.38,769.37,95.49,769.33,93.6Z"/><path class="cls-5" d="M951.6,494.53c-.08-3.36-.23-6.72-.51-10s-.69-6.64-1.29-9.9a107.72,107.72,0,0,0-5.67-19.79,87.18,87.18,0,0,0-9.68-18.15A103.24,103.24,0,0,0,906.06,408a100,100,0,0,0-37.22-15.37q-4.58-.86-9.21-1.28c-3.08-.29-6.18-.43-9.28-.43a100,100,0,0,0-71.71,30.34,104.38,104.38,0,0,0-29.7,73.25q0,4.56.39,9t1.12,8.81h-5.8a44,44,0,0,0-31.06,12.82A42.3,42.3,0,0,0,701,556.12a42.88,42.88,0,0,0,42.87,42h143a64.4,64.4,0,0,0,39.91-14.35c11.21-9,19.48-21.57,22.23-36a148.81,148.81,0,0,0,2.23-18.34c.39-6.16.49-12.34.46-18.49,0-2.7,0-5.43,0-8.16S951.66,497.28,951.6,494.53Z"/><polygon class="cls-6" points="190.7 977.56 171.93 977.56 153.16 977.56 153.16 733.51 153.16 489.47 171.93 489.47 190.7 489.47 190.7 733.51 190.7 977.56"/><path class="cls-6" d="M193.45,468a21.51,21.51,0,1,1-6.3-15.22A21.45,21.45,0,0,1,193.45,468Z"/><polygon class="cls-6" points="862.42 977.56 843.65 977.56 824.88 977.56 824.88 733.51 824.88 489.47 843.65 489.47 862.42 489.47 862.42 733.51 862.42 977.56"/><path class="cls-6" d="M865.17,468a21.51,21.51,0,1,1-6.3-15.22A21.45,21.45,0,0,1,865.17,468Z"/><path class="cls-5" d="M492.25,672.57a645.12,645.12,0,0,1,13.32-96.38,653.36,653.36,0,0,1,21.72-77.28c-11.41-1.09-22.88-2.14-34.3-2.49a189.75,189.75,0,0,0-34.05,1.69,49.05,49.05,0,0,0-17.44,5.66,35.65,35.65,0,0,0-12.92,12.86,75.71,75.71,0,0,0-7.13,16.77c-1.83,5.91-3.24,12-4.68,17.68-1.54,6.09-2.91,12.22-4.18,18.37s-2.45,12.33-3.6,18.5q-4.31,23-6.84,46.24t-3.43,46.62q-1.17,30.5.39,61t5.7,60.75q3.12,22.8,7.7,45.39T423,892.78a31.09,31.09,0,0,0,10.12,15.79,30.3,30.3,0,0,0,17.34,7.07c12.13.84,24.31,1.12,36.52,1.12s24.44-.31,36.66-.62a662,662,0,0,1-25.11-105.2A646.3,646.3,0,0,1,492.25,672.57Z"/><path class="cls-3" d="M825,765.75l-.07,0-.07,0V766l.07-.12Z"/><path class="cls-7" d="M466.18,765.44l14.42,9.37q7.2,4.7,14.42,9.37-1.53-13.66-2.52-28t-1.32-29.36q-6.26,9.66-12.5,19.32T466.18,765.44Z"/><path class="cls-7" d="M723.12,932.46l5.23-8.56,5.23-8.56H696.81L710,923.9Z"/><path class="cls-8" d="M689,790.94l43.15,28,43.15,28,24.78-40.53L824.89,766v-.33l-42-27.29-42-27.28L715,751Z"/><path class="cls-9" d="M657.66,657l-26,39.88-26,39.87,41.73,27.12L689,790.94,715,751l26-39.91L699.3,684Z"/><path class="cls-9" d="M740.94,711.09l42,27.28,42,27.29V647.54l-15.26-9.33-15.26-9.32-26.54,40.83Z"/><path class="cls-8" d="M824.89,647.54v-48a8.32,8.32,0,0,0-1.14-3.51c-.62-1.2-1.37-2.36-1.86-3.22-.3-.54-.63-1.08-1-1.62s-.67-1.06-1-1.58l-12.7,19.54-12.85,19.76,15.26,9.32Z"/><path class="cls-9" d="M709.76,577.16l-43.62-26.67-43.62-26.66L597.4,562.64l-25.11,38.81L615,629.2,657.66,657l26.05-39.89Z"/><path class="cls-8" d="M550.87,820.49l41.81,27.18,41.81,27.17,27.11-41.7L689,790.94l-41.72-27.12L605.58,736.7q-13.67,21-27.35,41.9Z"/><path class="cls-8" d="M572.29,601.45l-25.88,40-25.87,40,42.52,27.64,42.52,27.64,26-39.87,26-39.88L615,629.2Z"/><path class="cls-8" d="M740.94,711.09l26.89-41.37,26.54-40.83L752.07,603l-42.31-25.86-26,39.9L657.66,657,699.3,684Z"/><path class="cls-9" d="M794.37,628.89l12.85-19.76,12.7-19.54a69.42,69.42,0,0,0-5.58-7.33c-2-2.32-4.16-4.53-6.37-6.64a148.54,148.54,0,0,0-33.53-23.49,313.43,313.43,0,0,0-37.72-16.26q-6.74,10.32-13.48,20.65l-13.48,20.64L752.07,603Z"/><path class="cls-8" d="M492.89,663.45c-.12,1.51-.23,3-.34,4.54s-.21,3-.3,4.58q-.87,14-1.12,27.57t.05,26.66q7.33-11.34,14.68-22.69t14.68-22.69l-13.83-9Z"/><path class="cls-9" d="M550.87,820.49l-19.08,29.23Q522.25,864.35,512.7,879q2.65,10,5.41,19.36t5.55,17.83c6.9-.18,13.79-.36,20.67-.5s13.75-.24,20.61-.25h43.2l13.1-20.16,13.25-20.38-41.81-27.17Z"/><path class="cls-8" d="M608.14,915.38h44.33l44.34,0L665.65,895.1l-31.16-20.26-13.25,20.38Z"/><path class="cls-9" d="M689,790.94l-27.43,42.2-27.11,41.7,31.16,20.26,31.16,20.25h36.77l20.88-34.15L775.33,847l-43.15-28Z"/><path class="cls-9" d="M775.33,847l24.78,16.11,24.78,16.1V766l-24.78,40.52Z"/><path class="cls-8" d="M733.58,915.34h91.31V879.25l-24.78-16.1L775.33,847l-20.87,34.15Z"/><path class="cls-9" d="M605.58,736.7l-42.52-27.64-42.52-27.64q-7.34,11.36-14.68,22.69T491.18,726.8q.33,15,1.32,29.36t2.52,28q14,9.09,27.92,18.16l27.93,18.15,27.36-41.89Q591.91,757.65,605.58,736.7Z"/><path class="cls-9" d="M632,509.12q-10.53-1.67-21.1-3t-21.13-2.31l16.36,10,16.36,10,4.76-7.36Z"/><path class="cls-8" d="M622.52,523.83l-16.36-10-16.36-10c-5.09-.49-10.17-.91-15.25-1.29s-10.15-.7-15.21-1c-5.29-.28-10.62-.69-16-1.15s-10.71-1-16.09-1.51c-3.17,9.1-6.32,18.8-9.37,29.06s-6,21.09-8.75,32.46l31.56,20.51,31.56,20.51,25.11-38.81Z"/><path class="cls-8" d="M495,784.18c2,17.66,4.57,34.45,7.58,50.27s6.46,30.68,10.1,44.5q9.54-14.61,19.09-29.23l19.08-29.23-27.93-18.15Q509,793.26,495,784.18Z"/><path class="cls-6" d="M338.65,526.26a52.24,52.24,0,0,1,25-20.06c14.55-5.49,35.74-5.89,64.92,10.43,0,0-6.33,11.46-13.28,39.77s-14.52,73.45-17,140.83l-39.65-9.12L319,679a60.84,60.84,0,0,1-11.93-4.07,53.94,53.94,0,0,1-10.73-6.56,52.08,52.08,0,0,1-12.84-14.61,43.13,43.13,0,0,1-5.77-17.7A41.09,41.09,0,0,1,278,626a45,45,0,0,1,4.45-13.7,54.49,54.49,0,0,1,2.92-5l24.11-36.61,24.1-36.61q1.27-1.93,2.53-3.89Z"/><path class="cls-8" d="M709.76,577.16l13.48-20.64q6.74-10.34,13.48-20.65l-1.36-.5-1.35-.5a507.28,507.28,0,0,0-50.22-15.28c-17-4.26-34.35-7.72-51.76-10.47l-4.75,7.35-4.76,7.36,43.62,26.66Z"/><path class="cls-9" d="M572.29,601.45l-31.56-20.51-31.56-20.51c-3.7,15.29-7.05,31.57-9.83,48.76s-5,35.3-6.45,54.26l13.82,9,13.83,9,25.87-40Z"/><path class="cls-3" d="M215.35,695.17h0a23.9,23.9,0,0,1-23.91-23.91V557.67a23.92,23.92,0,0,1,23.91-23.92h0a23.93,23.93,0,0,1,23.92,23.92V671.26a23.92,23.92,0,0,1-23.92,23.91Z"/><path class="cls-2" d="M327.54,687.69h0a28.29,28.29,0,0,1-40-1.76l-35.42-38.66-35.41-38.66a28.29,28.29,0,0,1,1.75-40h0a28.29,28.29,0,0,1,39.95,1.76l35.42,38.66,35.41,38.66a28.29,28.29,0,0,1-1.75,40Z"/><path class="cls-10" d="M342.74,558.41c-.49-.86-1-1.73-1.62-2.62s-1.21-1.8-1.89-2.71a55.77,55.77,0,0,0-6.47-7.26,57.76,57.76,0,0,0-6.26-5.13,13.83,13.83,0,0,1,2.42-2.59,8.9,8.9,0,0,1,4.09-1.93c3.36-.57,7,1.08,9.79,3.8s4.62,6.54,4.34,10.29a11.06,11.06,0,0,1-1.87,5.24A15.27,15.27,0,0,1,342.74,558.41Z"/><path class="cls-10" d="M330.44,543.74a51.67,51.67,0,0,1,17.3,31.09c1.58,11.18-1.14,22.28-8.54,30.66S321.11,618,309.83,617.77a53.37,53.37,0,0,1-50.3-44.41c-1.58-11.17,1.14-22.28,8.54-30.66s18.09-12.46,29.37-12.27A51.61,51.61,0,0,1,330.44,543.74Z"/><path class="cls-10" d="M346.41,670.23c.24-.77.35-2-1.16-4.42s-4.62-5.86-10.82-11.07c-3-2.51-5.85-4.7-8.08-6.35s-3.83-2.75-4.31-3.08c-2.51-1.71-5.44-3.43-8.07-5.44a20.08,20.08,0,0,1-6.34-7.2,8.59,8.59,0,0,1-.83-4.55,6.32,6.32,0,0,1,2-4.06,6.2,6.2,0,0,1-3.48-3.59,5.7,5.7,0,0,1,3.9-7.61,6.16,6.16,0,0,1,4.75.62c-.42-.25-.23-1.17.12-2.09a9.23,9.23,0,0,1,1.05-2,6.07,6.07,0,0,1,4.59-1.64,26.68,26.68,0,0,1,5,.68,30.47,30.47,0,0,1,6.13,1.91,41.81,41.81,0,0,1,5.71,3l.88.52c.47.27,1.1.6,1.85,1l.15.07.1,0c-.26-.13.32-.92,1-1.7a11.43,11.43,0,0,1,1.66-1.62,5.51,5.51,0,0,1,3-.42,11.91,11.91,0,0,1,3,.79,38.19,38.19,0,0,1,6.86,3.7c2.17,1.45,4.26,3,6.34,4.57,6,4.46,11.91,9.81,18.36,13.83s13.46,6.74,21.67,5.92c-.4,4.94-.72,9.42-1,13.34s-.47,7.29-.63,10c-.52,8.93-.94,18.12-1.23,25.07s-.45,11.69-.45,11.69h0s-4.36-.27-9.42-.61-10.83-.72-13.64-1a121.11,121.11,0,0,1-33.32-8.33c-11.4-4.68-21.64-11.2-26.32-19.39a8.16,8.16,0,0,1-1.05-4.13,5.18,5.18,0,0,1,1.6-3.85c2.5-2.26,6.44-1.12,10.25.9a97.26,97.26,0,0,1,9.42,6.25,22.19,22.19,0,0,0,4.53,2.44c1.72.62,3.48.77,4.8-.3A4.45,4.45,0,0,0,346,671,3.71,3.71,0,0,0,346.41,670.23Z"/><path class="cls-11" d="M313.47,613.19c2.79,1.61,5.63,3.28,8.51,5s5.81,3.59,8.76,5.51q5.81,3.76,11.15,7.54c3.57,2.51,7,5,10.26,7.48"/><path class="cls-11" d="M308.84,624.06c2.5,1.18,5.09,2.47,7.76,3.91s5.42,3,8.21,4.7c4.07,2.49,7.82,5,11.26,7.54s6.6,5,9.45,7.44"/><path class="cls-11" d="M337.31,613.64c1.45.84,3,1.76,4.51,2.76s3.13,2.11,4.74,3.3c2.48,1.84,4.73,3.69,6.78,5.52s3.87,3.61,5.51,5.33"/><path class="cls-12" d="M307.51,564.5a2.54,2.54,0,1,1-1.83-.62A2.54,2.54,0,0,1,307.51,564.5Z"/><path class="cls-12" d="M288,587.81a2.51,2.51,0,1,1-1.83-.63A2.52,2.52,0,0,1,288,587.81Z"/><path class="cls-11" d="M301.51,588.05l-3.19.34-3.19.33a.21.21,0,0,1-.21-.1.21.21,0,0,1,0-.23l1.39-2.64,1.38-2.64-5.59-4.94-5.59-4.93"/><polyline class="cls-11" points="290 560.64 296.82 556.97 303.63 553.3"/><polyline class="cls-11" points="272.16 589.62 275.3 582.55 278.45 575.47"/><polyline class="cls-11" points="311.24 594.89 315.92 588.72 320.6 582.55"/><path class="cls-13" d="M324.29,563.14a6.65,6.65,0,1,1-4.81-1.65A6.62,6.62,0,0,1,324.29,563.14Z"/><path class="cls-13" d="M298.8,597.21a6.64,6.64,0,1,1-4.81-1.65A6.64,6.64,0,0,1,298.8,597.21Z"/><path class="cls-4" d="M233.34,570.69a18.59,18.59,0,0,0,2.09,8.52,9.79,9.79,0,0,0,2.65,3.15c3.6,2.75,8.65,2.42,13.6.69a42.14,42.14,0,0,0,13.07-7.67,33.61,33.61,0,0,0,7.42-9.32,37.19,37.19,0,0,0,3.13-7.65,8.87,8.87,0,0,0,5.2,1.47c2.76-.24,5.86-2.43,7.18-10.22a7.07,7.07,0,0,0,4.95.23c2.6-.89,5.47-3.79,6.53-11.84a32.85,32.85,0,0,0,8.9,4.72c5.25,1.79,12.08,2.45,18.44-2.08a11.47,11.47,0,0,1,5.18-4c3.28-1.16,7.93-.62,13.42,6.14a60.7,60.7,0,0,0-2.78-6.93,58.52,58.52,0,0,0-4.26-7.5,61.34,61.34,0,0,0-18.85-18,72,72,0,0,0-15.91-7.32,51.61,51.61,0,0,0-11.6-1.12,47.31,47.31,0,0,0-38.95,21.47A54.71,54.71,0,0,0,246,537a73.94,73.94,0,0,1-3.55,7.47c-2.19,4-5.19,8.47-8.46,10.49a10.4,10.4,0,0,0-4.4,4.39,8.36,8.36,0,0,0-.82,5.61,8.19,8.19,0,0,0,2.35,4.1A10,10,0,0,0,233.34,570.69Z"/><polyline class="cls-11" points="388.45 581.18 398.07 587.85 407.7 594.53"/><path class="cls-5" d="M918.94,177.78h-4.13a53.58,53.58,0,0,0-2.94-29.45,51.28,51.28,0,0,0-18-22.92,50.65,50.65,0,0,0-33.14-8.87,58.35,58.35,0,0,0-17.2,3.73q.12-1.32.18-2.64c0-.89.07-1.78.07-2.68A52.25,52.25,0,0,0,826.72,76a59.91,59.91,0,0,0-40.64-15.35,56.91,56.91,0,0,0-56.34,48.8c-.89-.09-1.79-.15-2.7-.19s-1.81-.07-2.72-.07a56.93,56.93,0,0,0-56.93,56.92,58,58,0,0,0,.31,5.93,54.8,54.8,0,0,0,.9,5.76,34.18,34.18,0,0,0,1.21,68.34H918.94a34.19,34.19,0,1,0,0-68.37Z"/><path class="cls-5" d="M365.74,304.27a21.63,21.63,0,0,0,5.37-14.3A21.74,21.74,0,0,0,335,273.65a27.92,27.92,0,0,0-10.08-8.24,31,31,0,0,0-13.62-3.1,30.26,30.26,0,0,0-19.52,6.93,24.79,24.79,0,0,0-9,16.95,22.65,22.65,0,0,0-11.33-3,22.79,22.79,0,0,0-19.15,35.19,21.92,21.92,0,0,0,5.46,43.15,20.92,20.92,0,0,0,2.25-.12c.74-.07,1.47-.19,2.19-.33a22.8,22.8,0,0,0,40.58,6.73,23.64,23.64,0,0,0,14.31,8.45,34.87,34.87,0,0,0,34.22-13.68,23.58,23.58,0,0,0,4.52-16c.61.11,1.22.19,1.85.25s1.26.08,1.9.08a21.74,21.74,0,0,0,6.17-42.59Z"/><path class="cls-4" d="M275.27,342.58a11.75,11.75,0,0,0-1.21-2.8,13.49,13.49,0,0,0-2.7-3.29,13.25,13.25,0,0,0-3.13-2.08,14.34,14.34,0,0,0-2.45-.89,7.46,7.46,0,0,0,1.51-2,9,9,0,0,0,.85-2.66,8.15,8.15,0,0,0-.77-5.08,4.43,4.43,0,0,0-7.36-1.14,8.11,8.11,0,0,0-2.27,4.6,8.67,8.67,0,0,0,.06,3.1,7,7,0,0,0,1.07,2.55,20.81,20.81,0,0,0-5.86,1.39,19.78,19.78,0,0,0-9.44,7.68,14.4,14.4,0,0,0-2.15,10.55,17.87,17.87,0,0,0-6.78,7.91,10,10,0,0,0-.19,8.05A9.42,9.42,0,0,0,240,373a15.83,15.83,0,0,0,4,.92,12.62,12.62,0,0,0,8.19-2.49,82,82,0,0,0,9.68-8.34,95.56,95.56,0,0,0,10.27-10.67C274.71,349,276.11,345.73,275.27,342.58Z"/><path class="cls-4" d="M513.72,311.91a36.73,36.73,0,0,0,1.93,8.15,34.57,34.57,0,0,0,2.5,5.39,32.34,32.34,0,0,0,4.93,6.44,21.71,21.71,0,0,0,8.66,5.51,7.26,7.26,0,0,0,4.1.08,6.32,6.32,0,0,0,3.26-2.12,6.21,6.21,0,0,0,1.3-3.34,7.15,7.15,0,0,0-.63-3.55,8.67,8.67,0,0,0-2.45-3c-1-.84-2.09-1.6-3-2.52a24.5,24.5,0,0,1-6.94-15l-.17-1.88-.16-1.89-6.67,3.84Z"/><path class="cls-4" d="M457.41,296.13a35.18,35.18,0,0,0-3.65,5.23,35.12,35.12,0,0,0-4.56,19,35.8,35.8,0,0,0,1,7,11.16,11.16,0,0,0,4.13,6.83,6.14,6.14,0,0,0,5.45,1.31,5.25,5.25,0,0,0,3-3.11,10.21,10.21,0,0,0,.68-4.43,9.16,9.16,0,0,0-.42-2.12c-.21-.68-.46-1.35-.66-2.05a21.46,21.46,0,0,1-.6-2.73,20,20,0,0,1-.19-2.79,20.24,20.24,0,0,1,3.75-11.41,25.66,25.66,0,0,1,4.64-5.1L463.74,299Z"/><path class="cls-5" d="M555.2,274.36a21.74,21.74,0,0,0,2-39.54A21.66,21.66,0,0,0,542,233a28.07,28.07,0,0,0-5.16-12,31,31,0,0,0-10.67-9,30.2,30.2,0,0,0-20.52-2.83,24.8,24.8,0,0,0-15.78,10.9,22.94,22.94,0,0,0-3.75-4.45A22.81,22.81,0,0,0,450.44,222,22.62,22.62,0,0,0,448,234.66a21.92,21.92,0,0,0-13,41.75,19.94,19.94,0,0,0,2.1.71,22.78,22.78,0,0,0,32.93,24.65,23.61,23.61,0,0,0,8.82,14.09,34.85,34.85,0,0,0,36.67,3.6,23.54,23.54,0,0,0,11.39-12.14c.49.37,1,.73,1.53,1.06s1.08.66,1.64.95a21.75,21.75,0,0,0,25.09-35Z"/><path class="cls-4" d="M457.25,266.74a11.62,11.62,0,0,0,.21-3.05,13.63,13.63,0,0,0-.88-4.16,13.07,13.07,0,0,0-1.83-3.28,13.58,13.58,0,0,0-1.76-1.92,7.66,7.66,0,0,0,2.27-1.1,9,9,0,0,0,2-2,8.14,8.14,0,0,0,1.65-4.87,4.42,4.42,0,0,0-6-4.39,8,8,0,0,0-4.14,3,8.68,8.68,0,0,0-1.37,2.78,6.87,6.87,0,0,0-.23,2.75,21.51,21.51,0,0,0-2.81-.93,22.81,22.81,0,0,0-3-.53,19.73,19.73,0,0,0-11.92,2.48,14.43,14.43,0,0,0-6.76,8.37,18,18,0,0,0-9.66,3.9,10,10,0,0,0-3.87,7.06,9.39,9.39,0,0,0,2.78,6.59,16,16,0,0,0,3.17,2.68,12.65,12.65,0,0,0,8.41,1.56,83.06,83.06,0,0,0,12.44-2.95,95.36,95.36,0,0,0,14-4.76C453.79,272.19,456.54,269.92,457.25,266.74Z"/><path class="cls-4" d="M693.77,377.52a36.6,36.6,0,0,0-.35,8.37,33.86,33.86,0,0,0,.94,5.86,32.33,32.33,0,0,0,3,7.54,21.58,21.58,0,0,0,6.84,7.65,7.21,7.21,0,0,0,3.92,1.2,6.38,6.38,0,0,0,3.72-1.16,6.08,6.08,0,0,0,2.15-2.86,7.14,7.14,0,0,0,.37-3.58,8.62,8.62,0,0,0-1.57-3.52c-.73-1.08-1.56-2.11-2.18-3.23A24.56,24.56,0,0,1,708,377.47l.35-1.86.35-1.85-7.46,1.88Z"/><path class="cls-4" d="M643.87,347a35.62,35.62,0,0,0-4.94,4,35.27,35.27,0,0,0-5.6,7.18,35.31,35.31,0,0,0-4.85,16.9,11.16,11.16,0,0,0,2.12,7.69,6.14,6.14,0,0,0,4.88,2.75,5.28,5.28,0,0,0,3.77-2.17,10.14,10.14,0,0,0,1.87-4.08,9.25,9.25,0,0,0,.16-2.15c0-.72-.07-1.43-.07-2.16a18.58,18.58,0,0,1,.17-2.79,18.13,18.13,0,0,1,.57-2.73,20.13,20.13,0,0,1,6.71-10,25,25,0,0,1,5.85-3.65l-5.32-4.44Z"/><path class="cls-5" d="M743.89,352.65a21.74,21.74,0,0,0-1.49-43.36,27.84,27.84,0,0,0-1.71-12.91,31,31,0,0,0-7.82-11.59,30.27,30.27,0,0,0-19-8.29,24.73,24.73,0,0,0-18.15,6.21,22.15,22.15,0,0,0-2.4-5.3,22.79,22.79,0,0,0-36-3.62,22.59,22.59,0,0,0-5.8,11.53A21.92,21.92,0,0,0,626,320.53a21.29,21.29,0,0,0,1.71,1.46c.6.45,1.2.86,1.83,1.25a22.8,22.8,0,0,0,25,32.67,23.61,23.61,0,0,0,4.65,15.95,34.88,34.88,0,0,0,34.32,13.43,23.59,23.59,0,0,0,14.26-8.6c.37.5.77,1,1.18,1.45s.86.92,1.33,1.36a21.75,21.75,0,0,0,33.64-26.85Z"/><path class="cls-4" d="M651.69,318.72a11.44,11.44,0,0,0,1-2.88,13.72,13.72,0,0,0,.29-4.25,13.45,13.45,0,0,0-2-6,7.41,7.41,0,0,0,2.49-.45,8.8,8.8,0,0,0,2.44-1.35,8.12,8.12,0,0,0,2.91-4.23,4.42,4.42,0,0,0-4.58-5.87,8.12,8.12,0,0,0-4.81,1.81,8.6,8.6,0,0,0-2.07,2.3,6.69,6.69,0,0,0-1,2.59,21.17,21.17,0,0,0-2.46-1.66,20.23,20.23,0,0,0-2.77-1.33,19.71,19.71,0,0,0-12.14-.86,14.43,14.43,0,0,0-8.78,6.22,18,18,0,0,0-10.36,1.13,10,10,0,0,0-5.64,5.75,9.37,9.37,0,0,0,.88,7.09,15.91,15.91,0,0,0,2.33,3.44,12.59,12.59,0,0,0,7.66,3.78,81.51,81.51,0,0,0,12.78.54,93.68,93.68,0,0,0,14.78-.76C646.88,323,650.15,321.58,651.69,318.72Z"/><path class="cls-14" d="M376.8,156.19c0-1-2.47-1.84-6.56-2.52a125.41,125.41,0,0,0-16.31-1.33,91.19,91.19,0,0,0-1.7-16.2c-.9-4.07-2.07-6.55-3.35-6.55s-2.46,2.48-3.36,6.55a91.19,91.19,0,0,0-1.7,16.2,125.41,125.41,0,0,0-16.31,1.33c-4.09.68-6.55,1.56-6.55,2.52s2.46,1.84,6.55,2.51A123.66,123.66,0,0,0,343.82,160a91.08,91.08,0,0,0,1.7,16.2c.9,4.08,2.07,6.55,3.36,6.55s2.45-2.47,3.35-6.55a91.08,91.08,0,0,0,1.7-16.2,123.66,123.66,0,0,0,16.31-1.33C374.33,158,376.8,157.15,376.8,156.19Z"/><path class="cls-15" d="M325.63,197.14c-4.36.93-7.08,1.94-8.95,3.81s-2.89,4.6-3.82,9a.57.57,0,0,1-.57.46.55.55,0,0,1-.56-.46c-.93-4.35-2-7.07-3.82-9s-4.59-2.88-9-3.81a.58.58,0,0,1-.46-.57A.56.56,0,0,1,299,196c4.36-.93,7.08-1.95,9-3.82s2.89-4.6,3.82-8.95a.56.56,0,0,1,.56-.46.58.58,0,0,1,.57.46c.93,4.35,1.95,7.08,3.82,8.95s4.59,2.89,8.95,3.82a.55.55,0,0,1,.45.56A.57.57,0,0,1,325.63,197.14Z"/><path class="cls-16" d="M806.28,335.39a8.48,8.48,0,1,1,6-2.49A8.42,8.42,0,0,1,806.28,335.39Zm0-12.32a3.86,3.86,0,0,0-3.84,3.84,3.84,3.84,0,0,0,7.68,0,3.86,3.86,0,0,0-3.84-3.84Z"/><path class="cls-17" d="M393,146.85a8.64,8.64,0,1,1,6.09-2.53A8.61,8.61,0,0,1,393,146.85Zm0-12.54a3.91,3.91,0,1,0,2.76,1.15A3.91,3.91,0,0,0,393,134.31Z"/><path class="cls-18" d="M805.64,294.94c-4.28.92-6.95,1.92-8.79,3.75s-2.84,4.52-3.75,8.8a.56.56,0,0,1-.56.45.55.55,0,0,1-.55-.45c-.92-4.28-1.91-7-3.75-8.8s-4.52-2.83-8.79-3.75a.56.56,0,0,1,0-1.1c4.27-.92,6.95-1.92,8.79-3.75s2.83-4.52,3.75-8.8a.55.55,0,0,1,.55-.45.56.56,0,0,1,.56.45c.91,4.28,1.91,7,3.75,8.8s4.51,2.83,8.79,3.75a.56.56,0,0,1,0,1.1Z"/></svg>