<svg id="Illustrations" xmlns="http://www.w3.org/2000/svg" xmlns:xlink="http://www.w3.org/1999/xlink" viewBox="0 0 1000 1000"><defs><style>.cls-1{fill:#040400;}.cls-15,.cls-18,.cls-2{fill:none;}.cls-2{stroke:#040400;}.cls-10,.cls-11,.cls-12,.cls-13,.cls-14,.cls-15,.cls-16,.cls-17,.cls-19,.cls-2,.cls-20,.cls-3,.cls-4,.cls-5,.cls-6,.cls-7,.cls-8,.cls-9{stroke-miterlimit:10;stroke-width:3px;}.cls-3{fill:#fc762b;}.cls-16,.cls-17,.cls-3,.cls-5{stroke:#070707;}.cls-10,.cls-11,.cls-12,.cls-13,.cls-14,.cls-15,.cls-16,.cls-17,.cls-19,.cls-20,.cls-3,.cls-4,.cls-5,.cls-6,.cls-7,.cls-8,.cls-9{stroke-linecap:round;}.cls-10,.cls-11,.cls-12,.cls-13,.cls-14,.cls-15,.cls-19,.cls-20,.cls-4,.cls-6,.cls-7,.cls-8,.cls-9{stroke:#000;}.cls-4{fill:url(#linear-gradient);}.cls-5{fill:#f6c34c;}.cls-6{fill:#dbcaf4;}.cls-7{fill:url(#linear-gradient-2);}.cls-8{fill:url(#linear-gradient-3);}.cls-9{fill:url(#linear-gradient-4);}.cls-10{fill:url(#linear-gradient-5);}.cls-11{fill:url(#linear-gradient-6);}.cls-12{fill:#d87d61;}.cls-13{fill:#f2b3c1;}.cls-14{fill:#ece7e1;}.cls-16{fill:#ff6406;}.cls-17{fill:#84a1e5;}.cls-19{fill:#c6fcdb;}.cls-20{fill:#f6991a;}</style><linearGradient id="linear-gradient" x1="190.83" y1="780.88" x2="341.08" y2="780.88" gradientUnits="userSpaceOnUse"><stop offset="0.2" stop-color="#fec2d9"/><stop offset="0.54" stop-color="#e3deda"/><stop offset="0.86" stop-color="#c6fcdb"/></linearGradient><linearGradient id="linear-gradient-2" x1="813.32" y1="391.42" x2="874.96" y2="284.65" gradientUnits="userSpaceOnUse"><stop offset="0.35" stop-color="#fec2d9"/><stop offset="0.67" stop-color="#e3deda"/><stop offset="0.97" stop-color="#c6fcdb"/></linearGradient><linearGradient id="linear-gradient-3" x1="485.93" y1="275.42" x2="559.39" y2="201.97" gradientUnits="userSpaceOnUse"><stop offset="0.22" stop-color="#a4c2ff"/><stop offset="0.46" stop-color="#b5deed"/><stop offset="0.68" stop-color="#c6fcdb"/></linearGradient><linearGradient id="linear-gradient-4" x1="316.72" y1="102.98" x2="392.64" y2="234.49" gradientUnits="userSpaceOnUse"><stop offset="0.15" stop-color="#fec2d9"/><stop offset="0.23" stop-color="#fdbcbd"/><stop offset="0.41" stop-color="#faac74"/><stop offset="0.6" stop-color="#f6991a"/><stop offset="1" stop-color="#f6c34c"/></linearGradient><linearGradient id="linear-gradient-5" x1="387.55" y1="667.56" x2="450.72" y2="776.96" gradientUnits="userSpaceOnUse"><stop offset="0.12" stop-color="#fec2d9"/><stop offset="0.71" stop-color="#a4c2ff"/></linearGradient><linearGradient id="linear-gradient-6" x1="872.87" y1="178.2" x2="915.73" y2="252.42" xlink:href="#linear-gradient-5"/></defs><path class="cls-1" d="M885.13,494.8a92.68,92.68,0,0,1-3.29,23.64A191.59,191.59,0,0,1,874,541.26c-3,7.51-6.31,14.94-9.33,22.35a187.11,187.11,0,0,0-7.76,22.23,199.82,199.82,0,0,0-4.56,23.71c-1.14,8.05-2.05,16.19-3.19,24.21a193.56,193.56,0,0,1-4.57,23.49,89.79,89.79,0,0,1-8.7,21.56,91.13,91.13,0,0,1-14.5,18.5,194.21,194.21,0,0,1-18.15,15.74c-6.39,5-13,9.81-19.35,14.78a163.24,163.24,0,0,0-33.68,33.68c-5,6.37-9.79,13-14.78,19.34A191.43,191.43,0,0,1,719.69,799a90.46,90.46,0,0,1-18.5,14.49,89.38,89.38,0,0,1-21.56,8.7,193.18,193.18,0,0,1-23.49,4.57c-8,1.14-16.15,2.05-24.21,3.19a201.69,201.69,0,0,0-23.7,4.56A188.92,188.92,0,0,0,586,842.28c-7.41,3-14.84,6.3-22.35,9.33a189.82,189.82,0,0,1-22.82,7.84,86.32,86.32,0,0,1-47.28,0,189.82,189.82,0,0,1-22.82-7.84c-7.51-3-14.94-6.31-22.35-9.33a188.92,188.92,0,0,0-22.23-7.76,201.69,201.69,0,0,0-23.7-4.56c-8.06-1.14-16.2-2.05-24.21-3.19a193.18,193.18,0,0,1-23.49-4.57,89.38,89.38,0,0,1-21.56-8.7A90.46,90.46,0,0,1,314.69,799,191.43,191.43,0,0,1,299,780.85c-5-6.38-9.82-13-14.78-19.34a194.16,194.16,0,0,0-15.61-18.08,193.73,193.73,0,0,0-18.07-15.6c-6.38-5-13-9.79-19.35-14.78A192.94,192.94,0,0,1,213,697.31a91.13,91.13,0,0,1-14.5-18.5,90,90,0,0,1-8.7-21.56,193.56,193.56,0,0,1-4.57-23.49c-1.14-8-2.05-16.16-3.19-24.21a199.43,199.43,0,0,0-4.56-23.71,187.11,187.11,0,0,0-7.76-22.23c-3-7.41-6.3-14.84-9.33-22.35a191.59,191.59,0,0,1-7.84-22.82,86.54,86.54,0,0,1,0-47.27,191.59,191.59,0,0,1,7.84-22.82c3-7.51,6.31-14.94,9.33-22.35a187.11,187.11,0,0,0,7.76-22.23A200.21,200.21,0,0,0,182,380.06c1.14-8.05,2.05-16.19,3.19-24.21a193.56,193.56,0,0,1,4.57-23.49,89.79,89.79,0,0,1,8.7-21.56A91.13,91.13,0,0,1,213,292.3a192.75,192.75,0,0,1,18.15-15.74c6.39-5,13-9.81,19.35-14.78a195.23,195.23,0,0,0,18.07-15.6,195.46,195.46,0,0,0,15.61-18.08c5-6.37,9.79-13,14.78-19.35a192.55,192.55,0,0,1,15.74-18.15,90.86,90.86,0,0,1,18.5-14.5,89.35,89.35,0,0,1,21.56-8.69,193.18,193.18,0,0,1,23.49-4.57c8-1.14,16.15-2.05,24.21-3.19a202.25,202.25,0,0,0,23.71-4.56,189.41,189.41,0,0,0,22.22-7.76c7.41-3,14.84-6.3,22.35-9.33a189.88,189.88,0,0,1,22.82-7.85,86.58,86.58,0,0,1,47.28,0A189.88,189.88,0,0,1,563.65,138c7.51,3,14.94,6.31,22.35,9.33a188.92,188.92,0,0,0,22.23,7.76,201.69,201.69,0,0,0,23.7,4.56c8.06,1.14,16.2,2,24.21,3.19a193.72,193.72,0,0,1,23.5,4.57,89.85,89.85,0,0,1,21.55,8.69,90.86,90.86,0,0,1,18.5,14.5,191.43,191.43,0,0,1,15.74,18.16c5,6.38,9.82,13,14.78,19.34a194.16,194.16,0,0,0,15.61,18.08,193.73,193.73,0,0,0,18.07,15.6c6.38,5,13,9.79,19.35,14.78a192.94,192.94,0,0,1,18.15,15.74,91.13,91.13,0,0,1,14.5,18.5,89.79,89.79,0,0,1,8.7,21.56,193.56,193.56,0,0,1,4.57,23.49c1.14,8,2.05,16.16,3.19,24.21a200.21,200.21,0,0,0,4.56,23.71A187.11,187.11,0,0,0,864.67,426c3,7.41,6.3,14.84,9.33,22.35a191.59,191.59,0,0,1,7.84,22.82A92.66,92.66,0,0,1,885.13,494.8Z"/><path class="cls-2" d="M885.13,494.8a92.68,92.68,0,0,1-3.29,23.64A191.59,191.59,0,0,1,874,541.26c-3,7.51-6.31,14.94-9.33,22.35a187.11,187.11,0,0,0-7.76,22.23,199.82,199.82,0,0,0-4.56,23.71c-1.14,8.05-2.05,16.19-3.19,24.21a193.56,193.56,0,0,1-4.57,23.49,89.79,89.79,0,0,1-8.7,21.56,91.13,91.13,0,0,1-14.5,18.5,194.21,194.21,0,0,1-18.15,15.74c-6.39,5-13,9.81-19.35,14.78a163.24,163.24,0,0,0-33.68,33.68c-5,6.37-9.79,13-14.78,19.34A191.43,191.43,0,0,1,719.69,799a90.46,90.46,0,0,1-18.5,14.49,89.38,89.38,0,0,1-21.56,8.7,193.18,193.18,0,0,1-23.49,4.57c-8,1.14-16.15,2.05-24.21,3.19a201.69,201.69,0,0,0-23.7,4.56A188.92,188.92,0,0,0,586,842.28c-7.41,3-14.84,6.3-22.35,9.33a189.82,189.82,0,0,1-22.82,7.84,86.32,86.32,0,0,1-47.28,0,189.82,189.82,0,0,1-22.82-7.84c-7.51-3-14.94-6.31-22.35-9.33a188.92,188.92,0,0,0-22.23-7.76,201.69,201.69,0,0,0-23.7-4.56c-8.06-1.14-16.2-2.05-24.21-3.19a193.18,193.18,0,0,1-23.49-4.57,89.38,89.38,0,0,1-21.56-8.7A90.46,90.46,0,0,1,314.69,799,191.43,191.43,0,0,1,299,780.85c-5-6.38-9.82-13-14.78-19.34a194.16,194.16,0,0,0-15.61-18.08,193.73,193.73,0,0,0-18.07-15.6c-6.38-5-13-9.79-19.35-14.78A192.94,192.94,0,0,1,213,697.31a91.13,91.13,0,0,1-14.5-18.5,90,90,0,0,1-8.7-21.56,193.56,193.56,0,0,1-4.57-23.49c-1.14-8-2.05-16.16-3.19-24.21a199.43,199.43,0,0,0-4.56-23.71,187.11,187.11,0,0,0-7.76-22.23c-3-7.41-6.3-14.84-9.33-22.35a191.59,191.59,0,0,1-7.84-22.82,86.54,86.54,0,0,1,0-47.27,191.59,191.59,0,0,1,7.84-22.82c3-7.51,6.31-14.94,9.33-22.35a187.11,187.11,0,0,0,7.76-22.23A200.21,200.21,0,0,0,182,380.06c1.14-8.05,2.05-16.19,3.19-24.21a193.56,193.56,0,0,1,4.57-23.49,89.79,89.79,0,0,1,8.7-21.56A91.13,91.13,0,0,1,213,292.3a192.75,192.75,0,0,1,18.15-15.74c6.39-5,13-9.81,19.35-14.78a195.23,195.23,0,0,0,18.07-15.6,195.46,195.46,0,0,0,15.61-18.08c5-6.37,9.79-13,14.78-19.35a192.55,192.55,0,0,1,15.74-18.15,90.86,90.86,0,0,1,18.5-14.5,89.35,89.35,0,0,1,21.56-8.69,193.18,193.18,0,0,1,23.49-4.57c8-1.14,16.15-2.05,24.21-3.19a202.25,202.25,0,0,0,23.71-4.56,189.41,189.41,0,0,0,22.22-7.76c7.41-3,14.84-6.3,22.35-9.33a189.88,189.88,0,0,1,22.82-7.85,86.58,86.58,0,0,1,47.28,0A189.88,189.88,0,0,1,563.65,138c7.51,3,14.94,6.31,22.35,9.33a188.92,188.92,0,0,0,22.23,7.76,201.69,201.69,0,0,0,23.7,4.56c8.06,1.14,16.2,2,24.21,3.19a193.72,193.72,0,0,1,23.5,4.57,89.85,89.85,0,0,1,21.55,8.69,90.86,90.86,0,0,1,18.5,14.5,191.43,191.43,0,0,1,15.74,18.16c5,6.38,9.82,13,14.78,19.34a194.16,194.16,0,0,0,15.61,18.08,193.73,193.73,0,0,0,18.07,15.6c6.38,5,13,9.79,19.35,14.78a192.94,192.94,0,0,1,18.15,15.74,91.13,91.13,0,0,1,14.5,18.5,89.79,89.79,0,0,1,8.7,21.56,193.56,193.56,0,0,1,4.57,23.49c1.14,8,2.05,16.16,3.19,24.21a200.21,200.21,0,0,0,4.56,23.71A187.11,187.11,0,0,0,864.67,426c3,7.41,6.3,14.84,9.33,22.35a191.59,191.59,0,0,1,7.84,22.82A92.66,92.66,0,0,1,885.13,494.8Z"/><path class="cls-3" d="M749.06,302.55q-4.77-.8-9.53-1.69c-3.18-.59-6.34-1.23-9.5-1.9s-6.3-1.37-9.44-2.11-6.26-1.52-9.37-2.33q-2.34-.6-4.71-1.3c-1.57-.48-3.14-1-4.69-1.62a41.21,41.21,0,0,1-4.53-2.1,31.42,31.42,0,0,1-4.26-2.78,30.53,30.53,0,0,1-3.76-3.53,32.59,32.59,0,0,1-3.18-4.2,35.72,35.72,0,0,1-2.56-4.83,40.63,40.63,0,0,1-1.9-5.38,43.86,43.86,0,0,1-1.53-12.39A50.86,50.86,0,0,1,682,243.62a57.38,57.38,0,0,1,5.12-12.44,61.93,61.93,0,0,1,8.16-11.45,76.24,76.24,0,0,1,10.14-9.36,98.78,98.78,0,0,1,11-7.34c3.7-2.15,7.38-4,10.89-5.6s6.84-3,9.83-4.14q5.75-2.25,11.62-4.18t11.85-3.59q6-1.64,12-3t12.19-2.36l-1.58-.43-1.57-.43-1.58-.45-1.56-.45c-1.87-.55-3.79-1.14-5.71-1.83a48.77,48.77,0,0,1-5.7-2.43,33.17,33.17,0,0,1-5.35-3.34,26.13,26.13,0,0,1-4.65-4.58,24.87,24.87,0,0,1-4.27-8.26,28.18,28.18,0,0,1-1.11-8.87,33.69,33.69,0,0,1,1.44-8.69,34.69,34.69,0,0,1,3.37-7.72,43.64,43.64,0,0,1,4.9-6.64,54.23,54.23,0,0,1,5.79-5.57,77.44,77.44,0,0,1,6.26-4.66c2.12-1.42,4.25-2.73,6.32-4a188.69,188.69,0,0,1,30.27-14.32A198.62,198.62,0,0,1,876,85.32a189.46,189.46,0,0,1,33.41,2.49l.43.07.44.07.43.08.43.07a6.29,6.29,0,0,1,3.78,2.19A5.79,5.79,0,0,1,916,92.17a5.56,5.56,0,0,1,.27,2.2,6.05,6.05,0,0,1-.7,2.38A5.88,5.88,0,0,1,914,98.56a5.73,5.73,0,0,1-2.11,1,5.92,5.92,0,0,1-2.45.11h-.06A177.71,177.71,0,0,0,877.51,97a185.91,185.91,0,0,0-62.86,11.34A178,178,0,0,0,785.77,122c-1.75,1-3.54,2.13-5.32,3.31s-3.54,2.45-5.22,3.82a43.12,43.12,0,0,0-4.73,4.43,32.11,32.11,0,0,0-3.86,5.14,23.5,23.5,0,0,0-2.11,4.74,22.34,22.34,0,0,0-1,5.33,16.93,16.93,0,0,0,.47,5.37,13.13,13.13,0,0,0,2.37,4.85,15,15,0,0,0,3.06,2.87,24.25,24.25,0,0,0,3.82,2.21,41.59,41.59,0,0,0,4.26,1.71c1.45.51,2.91.95,4.34,1.37q5.65,1.66,11.4,3.07t11.54,2.57c3.86.78,7.75,1.47,11.64,2.07s7.8,1.13,11.72,1.56a6,6,0,0,1,2.23.7,6.1,6.1,0,0,1,1.75,1.44,6.09,6.09,0,0,1,1.42,4.3h0a6.09,6.09,0,0,1-.59,2.26,6.26,6.26,0,0,1-1.35,1.82,5.9,5.9,0,0,1-1.92,1.21,6.06,6.06,0,0,1-2.3.42c-7.3-.08-14.63.2-21.93.82s-14.6,1.6-21.82,2.92-14.39,3-21.44,4.95-14,4.32-20.79,7c-4.31,1.69-8.28,3.41-11.95,5.2A109,109,0,0,0,719.33,215a77.59,77.59,0,0,0-8.42,6,62.9,62.9,0,0,0-6.91,6.58,51.42,51.42,0,0,0-6.49,9,45.91,45.91,0,0,0-4.11,9.71,38.67,38.67,0,0,0-1.57,9.86,32.21,32.21,0,0,0,1.12,9.48,25.78,25.78,0,0,0,1.26,3.59,24.41,24.41,0,0,0,1.67,3.22,21.48,21.48,0,0,0,2,2.77,17.7,17.7,0,0,0,2.36,2.24,18.93,18.93,0,0,0,3,1.91,29.76,29.76,0,0,0,3.38,1.5c1.18.45,2.41.85,3.68,1.22s2.56.72,3.87,1.06q7.1,1.84,14.29,3.45t14.44,2.94q7.25,1.35,14.53,2.44c4.85.72,9.72,1.36,14.58,1.9a5.85,5.85,0,0,1,2.35.79,6,6,0,0,1,1.76,1.6,6.13,6.13,0,0,1,1,2.18,6.06,6.06,0,0,1,0,2.51,5.55,5.55,0,0,1-.88,2,5.94,5.94,0,0,1-1.53,1.51,6.19,6.19,0,0,1-2,.88,6.12,6.12,0,0,1-2.22.15q-2.68-.3-5.37-.64c-1.78-.22-3.57-.46-5.35-.71s-3.57-.51-5.36-.78S750.84,302.85,749.06,302.55Z"/><path class="cls-4" d="M295.58,914.7a5.84,5.84,0,0,1-.93-.08,7,7,0,0,1-.9-.24,5.75,5.75,0,0,1-.87-.41,5,5,0,0,1-2.07-2.27,5.31,5.31,0,0,1-.49-2,5.8,5.8,0,0,1,1.32-4,162,162,0,0,0,16.6-23.95,170.4,170.4,0,0,0,19.69-54.87,161.93,161.93,0,0,0,2.41-29c0-1.85-.06-3.78-.18-5.73s-.32-3.92-.64-5.87a41.8,41.8,0,0,0-1.34-5.78,29.3,29.3,0,0,0-2.32-5.4,20.18,20.18,0,0,0-2.78-3.84,19.84,19.84,0,0,0-3.76-3.25,15.43,15.43,0,0,0-4.47-2.08,12,12,0,0,0-4.92-.34,13.69,13.69,0,0,0-3.67,1.1,22.46,22.46,0,0,0-3.5,2,40.35,40.35,0,0,0-3.3,2.59c-1.06.92-2.09,1.87-3.07,2.81-2.6,2.48-5.15,5-7.64,7.62s-4.94,5.26-7.32,8-4.7,5.46-7,8.27-4.46,5.67-6.59,8.57a5.57,5.57,0,0,1-1.58,1.45,5.71,5.71,0,0,1-1.94.73,5.6,5.6,0,0,1-4.05-.85,5.75,5.75,0,0,1-1.53-1.5,5.62,5.62,0,0,1-.82-1.9,5.57,5.57,0,0,1,.64-4.09c3.4-5.74,6.53-11.67,9.38-17.74s5.41-12.29,7.67-18.61,4.23-12.75,5.88-19.25,3-13.05,4-19.64c.64-4.19,1.09-8.13,1.35-11.85a99.8,99.8,0,0,0,.23-10.54,74.31,74.31,0,0,0-.91-9.42,58.06,58.06,0,0,0-2.06-8.48,41.05,41.05,0,0,0-5.3-10.36,47.71,47.71,0,0,0-8.58-9.4,33.81,33.81,0,0,0-10.74-6.17,21.17,21.17,0,0,0-11.75-.66,18.85,18.85,0,0,0-6.42,3,39.13,39.13,0,0,0-5.7,5c-1.8,1.87-3.49,3.88-5.12,5.83s-3.17,3.84-4.67,5.47q-3.35,3.66-6.6,7.4t-6.4,7.57c-2.11,2.55-4.17,5.13-6.21,7.73s-4,5.24-6,7.9a5.85,5.85,0,0,1-3.32,2.19,5.46,5.46,0,0,1-2,.1,5,5,0,0,1-1.91-.68,5.33,5.33,0,0,1-1.67-1.56,5.24,5.24,0,0,1-.85-2,5.34,5.34,0,0,1,0-2.18,5.2,5.2,0,0,1,.93-2.05q4.1-5.55,8.41-11t8.81-10.7q4.5-5.26,9.19-10.37t9.53-10c1-1,2.09-2.1,3.19-3.13s2.23-2,3.42-3a34.89,34.89,0,0,1,3.74-2.63,28.31,28.31,0,0,1,4.15-2.1,26.68,26.68,0,0,1,4.51-1.36,28.92,28.92,0,0,1,4.78-.6,32.43,32.43,0,0,1,5,.18,36.62,36.62,0,0,1,5.13,1,40,40,0,0,1,10.51,4.45A46.6,46.6,0,0,1,281.5,660a52.74,52.74,0,0,1,7.51,9.75,56.54,56.54,0,0,1,5.33,11.7,70.2,70.2,0,0,1,2.78,12.31,89.16,89.16,0,0,1,.78,12.06c0,3.92-.21,7.68-.54,11.19s-.78,6.78-1.22,9.68q-.86,5.56-2,11.11t-2.59,11q-1.43,5.49-3.14,10.9t-3.7,10.73l1.06-1.05,1.06-1,1.07-1,1.08-1c1.28-1.22,2.63-2.47,4.06-3.68a47,47,0,0,1,4.53-3.41,31,31,0,0,1,5.09-2.71,23.91,23.91,0,0,1,5.75-1.58,22.68,22.68,0,0,1,8.49.4,26,26,0,0,1,7.54,3.17,31.1,31.1,0,0,1,6.22,5.11,32,32,0,0,1,4.57,6.21,38.32,38.32,0,0,1,3,6.92,49,49,0,0,1,1.76,7.12,70.42,70.42,0,0,1,.83,7.09c.16,2.34.22,4.62.24,6.82a173.37,173.37,0,0,1-2.58,31,181.29,181.29,0,0,1-21.06,58.54,172.38,172.38,0,0,1-17.75,25.53,4.85,4.85,0,0,1-.87.83,5.49,5.49,0,0,1-1,.6,5.39,5.39,0,0,1-1.09.37A5.52,5.52,0,0,1,295.58,914.7Z"/><polygon class="cls-5" points="443.42 806.68 432.81 826.02 422.21 845.36 411.6 864.7 400.99 884.04 416.33 880.84 431.67 877.64 447.01 874.44 462.35 871.24 457.62 855.1 452.88 838.96 448.15 822.82 443.42 806.68"/><path class="cls-6" d="M451.71,327a30.48,30.48,0,1,1-2.4-11.92A30.57,30.57,0,0,1,451.71,327Z"/><path class="cls-7" d="M897.06,297.41l-22.42,12.71-22.42,12.71L829.8,335.54l-22.42,12.7q3.63,7.08,7.27,14.14t7.27,14.13l7.27,14.14,7.28,14.14q7.57-13.43,15.14-26.85l15.15-26.84,15.15-26.85Z"/><path class="cls-8" d="M468.08,257.57l18.33-18.4,18.32-18.41,18.33-18.4L541.38,184a66.5,66.5,0,0,1,10.16,24.19,62.5,62.5,0,0,1,.15,23.91,55.81,55.81,0,0,1-8.28,20.59,44.07,44.07,0,0,1-15.12,14.2,42.59,42.59,0,0,1-14.12,4.73,51.28,51.28,0,0,1-15.54-.07,60.36,60.36,0,0,1-15.77-4.72A66.12,66.12,0,0,1,468.08,257.57Z"/><path class="cls-9" d="M349.45,222.48l-11.66-17.19-11.65-17.2L314.48,170.9l-11.66-17.19a34.46,34.46,0,0,1,9.19-47.9h0a34.46,34.46,0,0,1,47.9,9.19l11.66,17.19,11.66,17.19,11.66,17.19,11.65,17.19a34.44,34.44,0,0,1,5.33,25.86,34.36,34.36,0,0,1-14.51,22h0a34.47,34.47,0,0,1-47.91-9.19Z"/><polygon class="cls-10" points="397.15 753.61 390.55 754.31 383.94 755.01 377.33 755.71 370.73 756.41 373.72 751.45 376.71 746.49 379.71 741.52 382.7 736.56 373.96 734.19 365.23 731.82 356.5 729.45 347.77 727.09 355.73 724.06 363.7 721.03 371.66 718 379.63 714.97 372.22 708.54 364.82 702.1 357.41 695.67 350.01 689.24 360 690.43 369.99 691.63 379.99 692.83 389.98 694.02 389.13 688.47 388.28 682.92 387.42 677.36 386.57 671.81 392.27 675.39 397.97 678.96 403.66 682.54 409.36 686.12 413.64 676.55 417.93 666.99 422.21 657.43 426.49 647.87 427.58 658.36 428.67 668.85 429.76 679.34 430.85 689.84 438.85 684.76 446.85 679.69 454.85 674.62 462.85 669.55 459 678.36 455.14 687.17 451.29 695.98 447.44 704.8 454.4 706.78 461.36 708.76 468.31 710.74 475.27 712.72 469.12 716.38 462.96 720.03 456.81 723.69 450.65 727.34 456.32 735.53 461.99 743.72 467.66 751.9 473.33 760.09 464.14 756.71 454.94 753.33 445.75 749.96 436.55 746.58 436.98 755.97 437.41 765.37 437.84 774.76 438.27 784.15 432.75 776.53 427.23 768.91 421.71 761.29 416.2 753.66 411.2 763.82 406.2 773.98 401.21 784.14 396.21 794.29 396.45 784.12 396.68 773.95 396.92 763.78 397.15 753.61"/><polygon class="cls-11" points="876.8 232.04 872.75 231.28 868.71 230.51 864.66 229.75 860.62 228.99 863.28 226.58 865.94 224.17 868.6 221.76 871.26 219.35 866.51 216.38 861.75 213.42 856.99 210.46 852.24 207.5 857.5 207.12 862.76 206.75 868.03 206.37 873.29 206 870.05 200.86 866.81 195.72 863.56 190.58 860.32 185.45 866.03 187.94 871.75 190.43 877.46 192.93 883.17 195.42 883.66 191.97 884.14 188.53 884.63 185.08 885.11 181.63 887.86 184.77 890.6 187.91 893.34 191.05 896.08 194.19 900.33 189.28 904.57 184.37 908.82 179.46 913.06 174.56 911.84 180.97 910.61 187.39 909.38 193.81 908.16 200.23 913.81 198.65 919.46 197.06 925.11 195.49 930.76 193.9 926.9 198.44 923.05 202.98 919.19 207.52 915.33 212.06 919.11 214.48 922.88 216.89 926.65 219.31 930.43 221.73 926.12 222.8 921.82 223.87 917.52 224.94 913.21 226.01 915.12 231.87 917.02 237.74 918.92 243.61 920.82 249.47 915.97 245.83 911.12 242.19 906.27 238.54 901.42 234.9 900 240.55 898.58 246.19 897.15 251.84 895.73 257.49 893.82 251.99 891.91 246.48 889.99 240.98 888.08 235.47 883.3 240.6 878.53 245.74 873.75 250.87 868.98 256 870.93 250.01 872.89 244.02 874.84 238.03 876.8 232.04"/><path class="cls-12" d="M858.64,433.7l-.75.26-.88.31-1,.38-1.11.44-3.11,1.27c-.95.41-1.84.81-2.68,1.22s-1.64.85-2.42,1.33a23.07,23.07,0,0,0-2.28,1.6c-.82.64-1.43,1.13-1.92,1.5s-.83.64-1.11.83a4.45,4.45,0,0,1-.66.4,5.81,5.81,0,0,1-.6.23,8.49,8.49,0,0,1-6.82-.6,20.73,20.73,0,0,1-6-5,56.06,56.06,0,0,1-4.93-6.8c-1.43-2.28-2.64-4.41-3.57-6a104,104,0,0,0-8.19-11.89,73,73,0,0,0-9.45-9.77A62.44,62.44,0,0,0,790,395.83a69.77,69.77,0,0,0-13.42-5.4,92.14,92.14,0,0,0-14.49-3,88.52,88.52,0,0,0-14.92-.56A78.11,78.11,0,0,0,732.41,389a67.49,67.49,0,0,0-13.9,5.08,62.22,62.22,0,0,0-18.44,14.21,79,79,0,0,0-12.54,19.12,99.15,99.15,0,0,0-7.14,21.2,98,98,0,0,0-2.3,20.42c0,16,4.46,31.55,12.08,45.91A140.56,140.56,0,0,0,721,553.54a152.92,152.92,0,0,0,41.2,26.31c14.52,6.18,29.36,9.49,43.11,9.11a159.14,159.14,0,0,0,20.84-2.33c7.57-1.27,15.4-2.9,22.49-4.5s13.42-3.19,18-4.37,7.36-2,7.36-2-.13-1.33-.36-3.56-.56-5.37-.93-9-.8-7.69-1.23-11.81-.86-8.29-1.26-12.07c-.43-4-.81-7.63-1.18-11s-.72-6.61-1.08-9.89-.73-6.61-1.14-10.28-.85-7.67-1.36-12.25q-.62-5.54-1.36-12.26c-.5-4.47-1-9.33-1.6-14.54s-1.19-10.79-1.83-16.7S859.35,440.27,858.64,433.7Z"/><path class="cls-13" d="M699.23,460.25c-1.13-5.35-2-10.8-2.72-16.67s-1.23-12.17-1.64-19.23-.73-14.89-1-23.81-.51-18.94-.78-30.38q-.2-8.36-.28-15.94c-.07-5-.1-9.81-.1-14.27s0-8.61,0-12.42.07-7.28.12-10.37q-1.11-3.78-2-7.24c-.61-2.31-1.15-4.51-1.64-6.6s-.92-4.07-1.3-5.91-.72-3.58-1-5.17c-.25-1.33-.47-2.59-.67-3.79s-.39-2.35-.56-3.46-.3-2.18-.43-3.24-.22-2.1-.3-3.13c-.1-1.34-.19-2.69-.26-4s-.12-2.69-.15-4,0-2.69,0-4,0-2.69.06-4c0-1,0-2.43.07-4a29.58,29.58,0,0,1,.57-5,8.48,8.48,0,0,1,1.84-4,3.89,3.89,0,0,1,3.87-1,4.35,4.35,0,0,1,2.17,1.19,7.45,7.45,0,0,1,1.5,2.16,12.06,12.06,0,0,1,.87,2.58,11.65,11.65,0,0,1,.26,2.46c.15,2.81.4,5.23.71,7.31a43.37,43.37,0,0,0,1.1,5.3,21.54,21.54,0,0,0,1.35,3.59,10.28,10.28,0,0,0,1.44,2.22l.17.17.19.16.21.15.23.14a5.51,5.51,0,0,0,1.31.52,5.87,5.87,0,0,0,1.39.16,6,6,0,0,0,1.39-.17,6.52,6.52,0,0,0,1.33-.51l.17-.09.17-.1.17-.1.17-.1a10,10,0,0,0,2.63-2.45,13.86,13.86,0,0,0,1.72-3.11,24.11,24.11,0,0,0,1.08-3.41c.28-1.14.5-2.29.71-3.36s.39-2.37.51-3.41.18-2,.22-2.76,0-1.43,0-1.89,0-.74,0-.79q-.12-3-.22-6.52c-.07-2.35-.13-4.9-.19-7.63s-.13-5.65-.19-8.75-.13-6.4-.19-9.88a16,16,0,0,1-.08-3.51,12.78,12.78,0,0,1,.66-3.13,9.28,9.28,0,0,1,1.37-2.57,7.14,7.14,0,0,1,2-1.81l.56-.29a6.8,6.8,0,0,1,.7-.28,7.64,7.64,0,0,1,.83-.22,6.9,6.9,0,0,1,1-.13s0-.19,0-.49a10.21,10.21,0,0,1,.2-1.23,9.22,9.22,0,0,1,.5-1.58,6.65,6.65,0,0,1,.93-1.55,1.43,1.43,0,0,1,.16-.18l.33-.32c.14-.12.3-.26.49-.4a6.38,6.38,0,0,1,.64-.39,5.19,5.19,0,0,1,2.25-.56,7.32,7.32,0,0,1,2.13.26,10.09,10.09,0,0,1,1.64.6c.43.2.73.37.83.43s.06-.1.17-.25.27-.37.46-.6.4-.49.63-.74a5.93,5.93,0,0,1,.69-.65,4.15,4.15,0,0,1,1.32-.68,5.52,5.52,0,0,1,1.31-.24,6.69,6.69,0,0,1,1,0l.45.06a5,5,0,0,1,2.93,1.83,10.72,10.72,0,0,1,1.73,3.33,36.08,36.08,0,0,1,1,3.87c.27,1.27.5,2.47.78,3.44a5.37,5.37,0,0,1,1.26-.82,4.29,4.29,0,0,1,3.07-.3c1.2.34,2.53,1.3,3.82,3.43s2.51,5.42,3.51,10.41c.14.69.27,1.34.39,1.91s.23,1.09.33,1.51.17.76.22,1,.08.35.08.35c.26,2.72.49,5.56.68,8.5s.33,6,.42,9.12.12,6.39.09,9.73-.13,6.76-.31,10.28-.42,7.07-.72,10.45-.67,6.66-1.08,9.84-.86,6.23-1.35,9.19-1,5.79-1.55,8.51q3.48,16.05,6.95,32.11l7,32.11,7,32.11Q776.19,419,779.67,435l35.14,51.1,25.45,37,15.48,22.5,5.22,7.59s.62,1,1.58,2.81,2.28,4.27,3.67,7.23,2.86,6.36,4.14,9.93a68.23,68.23,0,0,1,3,10.9l0,.18,0,.23c0,.08,0,.16.05.26s0,.19,0,.29a48,48,0,0,1,.45,10.79,56,56,0,0,1-1.63,10,57.7,57.7,0,0,1-2.94,8.55,42.82,42.82,0,0,1-3.49,6.5,34.82,34.82,0,0,1-9.66,9.46,49.79,49.79,0,0,1-12.71,5.94,62.39,62.39,0,0,1-14,2.63,58.61,58.61,0,0,1-13.41-.49,42.56,42.56,0,0,1-18.23-7.58c-5.73-4-11.25-9.62-16.95-16.79a278.3,278.3,0,0,1-18-26.36c-6.45-10.43-13.48-22.51-21.48-36.31-6-10.41-11.29-19.51-15.91-27.77S717,508,713.58,501A199.31,199.31,0,0,1,705,480.75,158.49,158.49,0,0,1,699.23,460.25Z"/><path class="cls-14" d="M602,582.1l22.49,34.67L647,651.44l22.49,34.68,22.49,34.67s7.63-3.32,19.75-8.89,28.73-13.38,46.68-22.36,37.25-19.14,54.74-29.38,33.17-20.57,43.9-29.91c1.18-1,2.57-2.28,4.07-3.78a59.64,59.64,0,0,0,4.63-5.23,51.3,51.3,0,0,0,4.49-6.77,46.08,46.08,0,0,0,3.61-8.38,44.49,44.49,0,0,0,1.91-9.27,50.14,50.14,0,0,0,.07-8.65,68.16,68.16,0,0,0-1.12-8c-.49-2.54-1.08-5-1.64-7.26a104.45,104.45,0,0,0-8.32-22.37,115.52,115.52,0,0,0-10.91-17.38,123.82,123.82,0,0,0-10.63-12.24c-3.18-3.22-5.84-5.56-7.49-7a122,122,0,0,0-11.29-8.72c-3.63-2.48-7.07-4.55-10.17-6.25s-5.88-3-8.16-4.06-4.1-1.74-5.28-2.19l-1.55-.56c-1-.35-2.41-.84-4.13-1.38s-3.73-1.14-5.92-1.73-4.53-1.14-6.92-1.6a88,88,0,0,0-22.12-1.1,154,154,0,0,0-26.2,4.14,207.61,207.61,0,0,0-28.44,9.18,229.56,229.56,0,0,0-54,30.82,235.28,235.28,0,0,0-20.62,17.85c-6.15,6-11.59,11.93-16.39,17.63S605.51,577.11,602,582.1Z"/><path class="cls-13" d="M895,521.47a61.84,61.84,0,0,0,14.73-13.41A66.4,66.4,0,0,0,920,490.23a51.6,51.6,0,0,0,3.57-19.64,38.2,38.2,0,0,0-5.39-18.87,41.69,41.69,0,0,0-13.36-13.64,48.21,48.21,0,0,0-18.09-6.81,57.39,57.39,0,0,0-20.5.41,64.07,64.07,0,0,0-20.56,8c-.49.29-1,.59-1.44.89l-1.4.93c-.47.32-.92.63-1.38,1l-1.34,1-2.36-1.17-2.36-1.18L833,440l-2.36-1.18v6.7c0,1.12,0,2.23,0,3.35v3.35c0,.19-.34.57-.87,1.06s-1.23,1.07-2,1.65-1.48,1.17-2.09,1.65a13.82,13.82,0,0,0-1.24,1q-1.39,1.47-2.64,3.06a39.29,39.29,0,0,0-2.34,3.29,38.16,38.16,0,0,0-2,3.51,36.7,36.7,0,0,0-1.62,3.7,34.62,34.62,0,0,0-2.11,9.94,40.06,40.06,0,0,0,.67,10.12,46,46,0,0,0,3,9.76,49.29,49.29,0,0,0,5,8.88,47.13,47.13,0,0,0,15,13.56,52.49,52.49,0,0,0,18.76,6.36,57.87,57.87,0,0,0,20-.68A56.4,56.4,0,0,0,895,521.47Z"/><path class="cls-1" d="M854.87,458.92a2.86,2.86,0,0,1-1.08.35,2.73,2.73,0,0,1-1.1-.08,2.82,2.82,0,0,1-1.73-1.34,2.86,2.86,0,0,1-.28-2.18,2.85,2.85,0,0,1,.48-1,3,3,0,0,1,.86-.75,2.93,2.93,0,0,1,1.08-.36,3.12,3.12,0,0,1,1.1.08,2.87,2.87,0,0,1,1,.49,2.9,2.9,0,0,1,1.11,1.94,2.92,2.92,0,0,1-.08,1.1,2.82,2.82,0,0,1-.49,1A2.76,2.76,0,0,1,854.87,458.92Z"/><path class="cls-15" d="M829.71,465.74c.15,0,.56-.06,1.14-.07a11.54,11.54,0,0,1,2.18.18,10.66,10.66,0,0,1,2.74.84,10.17,10.17,0,0,1,2.81,1.93,10.31,10.31,0,0,1,1.64,2.11,10.41,10.41,0,0,1,.93,2,12,12,0,0,1,.42,1.71,9.32,9.32,0,0,1,.12,1.06"/><polyline class="cls-15" points="863.92 443.81 865.62 447.88 867.32 451.95 869.01 456.02 870.71 460.09"/><path class="cls-16" d="M861.44,489.84a8.63,8.63,0,0,1-3.3,1.09,8.78,8.78,0,0,1-3.35-.24,8.93,8.93,0,0,1-3-1.49,8.77,8.77,0,0,1-2.29-2.61,8.7,8.7,0,0,1-.85-6.65,8.68,8.68,0,0,1,1.48-3,8.81,8.81,0,0,1,2.62-2.29,8.63,8.63,0,0,1,3.3-1.09,8.8,8.8,0,0,1,8.66,4.34,8.67,8.67,0,0,1,1.09,3.31,8.55,8.55,0,0,1-.25,3.34,8.68,8.68,0,0,1-1.48,3A8.81,8.81,0,0,1,861.44,489.84Z"/><path class="cls-13" d="M883.2,527.07c.69-.25,1.4-.51,2.13-.8s1.47-.6,2.23-.93,1.54-.69,2.32-1.07,1.59-.79,2.4-1.23q2.26-1.23,4.28-2.53t3.77-2.61c1.17-.87,2.25-1.75,3.25-2.6s1.93-1.7,2.77-2.5a18.33,18.33,0,0,1,1.25,1.53,16.14,16.14,0,0,1,1.39,2.25,12.26,12.26,0,0,1,1,2.82,9.59,9.59,0,0,1,.18,3.23,10.52,10.52,0,0,1-2.47,5.44,16.21,16.21,0,0,1-5.09,4,18.3,18.3,0,0,1-6.39,1.95,13.51,13.51,0,0,1-6.37-.77,11.74,11.74,0,0,1-2.43-1.32,12.8,12.8,0,0,1-1.89-1.64,15.68,15.68,0,0,1-1.41-1.71A16.52,16.52,0,0,1,883.2,527.07Z"/><path class="cls-17" d="M602,582.1q-18.51-20.62-33.73-38T541,512.32q-12-14.36-21-25.76t-14.93-20.05c-1.64-2.37-3.51-5.16-5.7-8.17s-4.68-6.26-7.57-9.54a92.8,92.8,0,0,0-9.93-9.73,81,81,0,0,0-12.77-8.77c-1.77-1-4.28-2.26-7-3.65s-5.8-2.88-8.61-4.24-5.39-2.61-7.27-3.51l-3.07-1.47L394.2,393l-48.89-24.48L296.42,344l-48.89-24.48-16.6,30.93-16.61,30.93-16.6,30.93-16.61,30.93,57,24.47,57,24.46,57,24.47,56.95,24.47c12.95,25.07,25.12,48.49,36.32,69.89s21.41,40.77,30.45,57.75,16.89,31.58,23.35,43.4S510.61,733,514.1,739c.47.81,1.1,1.87,1.91,3.13s1.8,2.71,3,4.28,2.58,3.27,4.19,5a63.7,63.7,0,0,0,5.49,5.32,68.11,68.11,0,0,0,14.85,9.71,79.23,79.23,0,0,0,14.56,5.34,90.09,90.09,0,0,0,12.24,2.3c3.46.41,6.2.54,7.87.61,3,.11,5.77.07,8.4-.09s5.11-.42,7.42-.75,4.47-.73,6.48-1.15,3.86-.84,5.58-1.25c3.4-.79,6.54-1.69,9.48-2.64s5.67-2,8.24-3,5-2.14,7.27-3.22,4.46-2.17,6.57-3.22c3.8-1.91,7.31-3.83,10.58-5.75s6.3-3.84,9.13-5.73,5.46-3.74,7.94-5.55,4.81-3.56,7-5.24,4.06-3.11,5.92-4.59,3.62-2.93,5.26-4.3,3.16-2.69,4.57-3.92,2.7-2.38,3.87-3.44l-22.49-34.67Q658.19,668.78,647,651.44t-22.49-34.67Q613.21,599.43,602,582.1Z"/><path class="cls-18" d="M541.34,500.65a9.87,9.87,0,0,0,1.62-3.77,7.47,7.47,0,0,0-.18-3.38,8.47,8.47,0,0,0-1.46-2.83,10.54,10.54,0,0,0-2.23-2.15,11.24,11.24,0,0,0-1.76-1,10,10,0,0,0-2-.68,8.15,8.15,0,0,0-2.1-.22,7.62,7.62,0,0,0-2.14.36,8.32,8.32,0,0,0-1.17.49,7.67,7.67,0,0,0-1.14.71,9,9,0,0,0-1.11,1,10.88,10.88,0,0,0-1.05,1.23c-.59.8-1.16,1.61-1.72,2.42q5.3,6.62,11.5,14.08c.36-.4.73-.78,1.07-1.19A59.41,59.41,0,0,0,541.34,500.65Z"/><path class="cls-18" d="M534.91,522.61a68,68,0,0,1-6.06,4.13c-.52.32-1.28.76-2.23,1.28s-2.13,1.12-3.47,1.77-2.87,1.32-4.56,2-3.53,1.36-5.51,2l-.14.05-.14,0-.14,0-.14.05a75.69,75.69,0,0,0,1.83,15.37,85.44,85.44,0,0,0,4,13,90.8,90.8,0,0,0,4.68,9.94c1.51,2.74,2.87,4.87,3.85,6.31A84.92,84.92,0,0,0,538,591.76a91,91,0,0,0,13.67,10.9,94.72,94.72,0,0,0,15.68,8.24,95.68,95.68,0,0,0,42.66,7,100.18,100.18,0,0,0,14-1.87l-22-34q-18.51-20.62-33.73-38-13.8-15.8-25-29c-.91,1-1.84,1.91-2.8,2.82A68,68,0,0,1,534.91,522.61Z"/><path class="cls-18" d="M669.44,686.12Q658.19,668.78,647,651.44l-16.76-25.83c-1.21.29-2.43.58-3.69.84a112.28,112.28,0,0,1-13.39,1.93,107.44,107.44,0,0,1-14.75.2,109.13,109.13,0,0,1-15.91-2.06,106.57,106.57,0,0,1-19.14-5.87,105,105,0,0,1-17.47-9.21,101.59,101.59,0,0,1-15.24-12.17,95.3,95.3,0,0,1-12.45-14.78c-1.06-1.56-2.54-3.87-4.17-6.82A102.5,102.5,0,0,1,508.87,567,96.82,96.82,0,0,1,504.38,553a86.91,86.91,0,0,1-2.35-16.6,64.2,64.2,0,0,1-7.64.75,58.47,58.47,0,0,1-8.11-.24,56,56,0,0,1-8.43-1.51,54.57,54.57,0,0,1-8.59-3.05,61.38,61.38,0,0,1-16.53-11.15,74.07,74.07,0,0,1-13-16.27A87.34,87.34,0,0,1,431,484.75a97.35,97.35,0,0,1-3.77-23,130.4,130.4,0,0,1,.86-21,184.89,184.89,0,0,1,3.73-20.61c.58-2.48,1.22-4.94,1.87-7.38L394.2,393l-48.89-24.48L296.42,344l-48.89-24.48-16.6,30.93-16.61,30.93-1.88,3.51,1.36-.51a71.11,71.11,0,0,1,12.27-3.24,44.92,44.92,0,0,1,10.83-.54,30.26,30.26,0,0,1,9.26,2.16,25,25,0,0,1,7.55,4.84,24.5,24.5,0,0,1,4.35,5.4,28.5,28.5,0,0,1,2.87,6.57,33,33,0,0,1,1.28,7.41,37.7,37.7,0,0,1-.39,8c-.13.8-.27,1.59-.44,2.37s-.35,1.56-.55,2.33-.43,1.54-.66,2.29-.49,1.51-.75,2.25a96.91,96.91,0,0,1,10.5-3.95,109.84,109.84,0,0,1,11.37-2.88c3.92-.78,8-1.38,12.15-1.79s8.46-.64,12.85-.68a111.8,111.8,0,0,1,14.92.79,77,77,0,0,1,12.89,2.68A55.67,55.67,0,0,1,345,422.92a47.15,47.15,0,0,1,9.06,6.52A45.76,45.76,0,0,1,362,439a52.08,52.08,0,0,1,5.31,11.66,59.36,59.36,0,0,1,2.55,13.15,66.27,66.27,0,0,1-.38,14.1,81.45,81.45,0,0,1-2.87,13A104.78,104.78,0,0,1,362,503.14c-1.72,3.89-3.6,7.59-5.52,11.08-.66,1.19-1.32,2.35-2,3.5l54.43,23.38c12.95,25.07,25.12,48.49,36.32,69.89s21.41,40.77,30.45,57.75,16.89,31.58,23.35,43.4q4.88,8.93,8.68,15.7c.53-1.21,1.09-2.41,1.69-3.58a74.07,74.07,0,0,1,11-16.06,66.9,66.9,0,0,1,12.49-10.84A58.31,58.31,0,0,1,547,690.49a55.63,55.63,0,0,1,15.13-2.75,58.15,58.15,0,0,1,15.7,1.55,75.28,75.28,0,0,1,27.75,13.43A108.71,108.71,0,0,1,628,726a136.61,136.61,0,0,1,15.91,29c.12.29.22.58.33.87,1.36-.75,2.69-1.5,4-2.25,3.28-1.92,6.3-3.84,9.13-5.73s5.46-3.74,7.94-5.55,4.81-3.56,7-5.24,4.06-3.11,5.92-4.59,3.62-2.93,5.26-4.3,3.16-2.69,4.57-3.92,2.7-2.38,3.87-3.44ZM517.37,643.36a9.28,9.28,0,0,1-3.18,6.18,9.2,9.2,0,0,1-3.2,1.79,9.17,9.17,0,0,1-7-.58,9.23,9.23,0,0,1-1.8-15.21,9,9,0,0,1,3.19-1.79,9.22,9.22,0,0,1,9.83,2.76,9.28,9.28,0,0,1,2.2,6.85Z"/><path class="cls-18" d="M523.24,495.38q-1.59,2.58-3,5.26c-.91,1.79-1.75,3.62-2.5,5.48s-1.44,3.76-2,5.69c-.29.91-.55,1.82-.8,2.73s-.47,1.81-.67,2.7-.39,1.79-.55,2.68-.32,1.77-.45,2.64c1.26-.48,2.42-1,3.49-1.44s2-.94,2.89-1.37,1.61-.83,2.23-1.18,1.13-.65,1.5-.87a56.82,56.82,0,0,0,9.84-7.51c1.12-1.06,2.18-2.18,3.21-3.33q-6.2-7.47-11.5-14.08C524.35,493.64,523.79,494.5,523.24,495.38Z"/><path class="cls-18" d="M352.19,499.26a99.14,99.14,0,0,0,4.19-11A71.12,71.12,0,0,0,359,476.56a55.31,55.31,0,0,0,.32-11.47,49.4,49.4,0,0,0-2-10.75,42.66,42.66,0,0,0-4.17-9.48,34.78,34.78,0,0,0-6.18-7.64,37,37,0,0,0-7.45-5.28,46.52,46.52,0,0,0-9.2-3.71,66.69,66.69,0,0,0-11-2.16,102.64,102.64,0,0,0-12.9-.64,131,131,0,0,0-16.15,1.12,106,106,0,0,0-14.77,3,86.16,86.16,0,0,0-13.19,4.89,70.8,70.8,0,0,0-11.43,6.69l-4.51,3.27-4.51,3.26L237.31,451l-4.52,3.26,2.57-4.94,2.57-5,2.56-4.94,2.57-4.94c.88-1.7,1.77-3.42,2.63-5.15s1.68-3.47,2.43-5.23a56.33,56.33,0,0,0,2-5.34,39.61,39.61,0,0,0,1.28-5.43,26.74,26.74,0,0,0,.3-4.56,24.93,24.93,0,0,0-.55-4.84,19.43,19.43,0,0,0-1.65-4.64,14.39,14.39,0,0,0-3-3.95,15.23,15.23,0,0,0-6.73-3.55,25.85,25.85,0,0,0-7.89-.64,44.3,44.3,0,0,0-7.86,1.21,63.41,63.41,0,0,0-6.68,2q-5.94,2.12-11.64,4.74l-1.19.56-6.8,12.67-16.61,30.93,57,24.47,57,24.46,49.7,21.36q1.18-2,2.36-4.12C348.86,506.2,350.6,502.8,352.19,499.26Z"/><path class="cls-18" d="M619.92,733a100.45,100.45,0,0,0-20-21.27,64.84,64.84,0,0,0-24.5-12.15,46.46,46.46,0,0,0-12.83-1.24,45.25,45.25,0,0,0-12.41,2.29,48.53,48.53,0,0,0-11.56,5.7,55.61,55.61,0,0,0-10.3,9A63.26,63.26,0,0,0,518.84,729a65.38,65.38,0,0,0-4.32,10.66c.41.68.9,1.5,1.49,2.41.81,1.26,1.8,2.71,3,4.28s2.58,3.27,4.19,5a63.7,63.7,0,0,0,5.49,5.32,68.11,68.11,0,0,0,14.85,9.71,79.23,79.23,0,0,0,14.56,5.34,90.09,90.09,0,0,0,12.24,2.3c3.46.41,6.2.54,7.87.61,3,.11,5.77.07,8.4-.09s5.11-.42,7.42-.75,4.47-.73,6.48-1.15,3.86-.84,5.58-1.25c3.4-.79,6.54-1.69,9.48-2.64s5.67-2,8.24-3,5-2.14,7.27-3.22c1.27-.6,2.5-1.21,3.71-1.8-.18-.46-.34-.92-.53-1.38A127.92,127.92,0,0,0,619.92,733Z"/><path class="cls-18" d="M438.63,441.73a120.61,120.61,0,0,0-.8,19.57,87.57,87.57,0,0,0,3.23,20.12,76.85,76.85,0,0,0,7.44,17.64,63.34,63.34,0,0,0,11.05,14.12,50.94,50.94,0,0,0,14.07,9.58,42.73,42.73,0,0,0,7.51,2.61,44,44,0,0,0,7.39,1.18,48,48,0,0,0,7.09,0,53.39,53.39,0,0,0,6.65-.86c.13-1.37.28-2.76.48-4.15s.44-2.81.71-4.24.6-2.85,1-4.3.77-2.9,1.23-4.36q1-3.32,2.34-6.52c.87-2.14,1.83-4.23,2.87-6.29s2.18-4.06,3.4-6,2.49-3.83,3.85-5.68q-7.71-9.93-13.05-17.63c-1.64-2.37-3.51-5.16-5.7-8.17s-4.68-6.26-7.57-9.54a92.8,92.8,0,0,0-9.93-9.73,81,81,0,0,0-12.77-8.77c-1.77-1-4.28-2.26-7-3.65s-5.8-2.88-8.61-4.24-5.39-2.61-7.27-3.51l-2.81-1.34q-.63,2.42-1.21,4.86A170.43,170.43,0,0,0,438.63,441.73Z"/><path class="cls-19" d="M428.13,440.74a130.4,130.4,0,0,0-.86,21,97.35,97.35,0,0,0,3.77,23A87.34,87.34,0,0,0,439.76,505a74.07,74.07,0,0,0,13,16.27,61.38,61.38,0,0,0,16.53,11.15,54.57,54.57,0,0,0,8.59,3.05,56,56,0,0,0,8.43,1.51,58.47,58.47,0,0,0,8.11.24,64.2,64.2,0,0,0,7.64-.75,86.91,86.91,0,0,0,2.35,16.6A96.82,96.82,0,0,0,508.87,567,102.5,102.5,0,0,0,514,577.67c1.63,3,3.11,5.26,4.17,6.82a95.3,95.3,0,0,0,12.45,14.78,101.59,101.59,0,0,0,15.24,12.17,105,105,0,0,0,17.47,9.21,106.57,106.57,0,0,0,19.14,5.87,109.13,109.13,0,0,0,15.91,2.06,107.44,107.44,0,0,0,14.75-.2,112.28,112.28,0,0,0,13.39-1.93c1.26-.26,2.48-.55,3.69-.84l-5.73-8.84-.46-.7a100.18,100.18,0,0,1-14,1.87,95.68,95.68,0,0,1-42.66-7,94.72,94.72,0,0,1-15.68-8.24A91,91,0,0,1,538,591.76a84.92,84.92,0,0,1-11.14-13.21c-1-1.44-2.34-3.57-3.85-6.31a90.8,90.8,0,0,1-4.68-9.94,85.44,85.44,0,0,1-4-13A75.69,75.69,0,0,1,512.52,534l.14-.05.14,0,.14,0,.14-.05c2-.64,3.83-1.31,5.51-2s3.21-1.36,4.56-2,2.51-1.25,3.47-1.77,1.71-1,2.23-1.28a68.57,68.57,0,0,0,11.63-8.87c1-.91,1.89-1.85,2.8-2.82L541,512.32c-1.57-1.86-3.08-3.67-4.56-5.46-1,1.15-2.09,2.27-3.21,3.33a56.82,56.82,0,0,1-9.84,7.51c-.37.22-.87.52-1.5.87s-1.37.75-2.23,1.18-1.82.9-2.89,1.37-2.23,1-3.49,1.44c.13-.87.28-1.76.45-2.64s.35-1.78.55-2.68.43-1.8.67-2.7.51-1.82.8-2.73c.6-1.93,1.28-3.82,2-5.69s1.59-3.69,2.5-5.48,1.9-3.54,3-5.26c.55-.88,1.11-1.74,1.69-2.6-1.71-2.14-3.36-4.22-4.94-6.22l-1.88-2.42c-1.36,1.85-2.65,3.74-3.85,5.68s-2.35,4-3.4,6-2,4.15-2.87,6.29-1.65,4.31-2.34,6.52c-.46,1.46-.87,2.92-1.23,4.36s-.69,2.88-1,4.3-.51,2.84-.71,4.24-.35,2.78-.48,4.15a53.39,53.39,0,0,1-6.65.86,48,48,0,0,1-7.09,0,44,44,0,0,1-7.39-1.18,42.73,42.73,0,0,1-7.51-2.61,50.94,50.94,0,0,1-14.07-9.58,63.34,63.34,0,0,1-11.05-14.12,76.85,76.85,0,0,1-7.44-17.64,87.57,87.57,0,0,1-3.23-20.12,120.61,120.61,0,0,1,.8-19.57,170.43,170.43,0,0,1,3.51-19.31q.58-2.44,1.21-4.86l-.26-.13-9.36-4.68c-.65,2.44-1.29,4.9-1.87,7.38A184.89,184.89,0,0,0,428.13,440.74Z"/><path class="cls-19" d="M362,503.14A104.78,104.78,0,0,0,366.59,491a81.45,81.45,0,0,0,2.87-13,66.27,66.27,0,0,0,.38-14.1,59.36,59.36,0,0,0-2.55-13.15A52.08,52.08,0,0,0,362,439a45.76,45.76,0,0,0-7.89-9.6,47.15,47.15,0,0,0-9.06-6.52,55.67,55.67,0,0,0-10.93-4.58,77,77,0,0,0-12.89-2.68,111.8,111.8,0,0,0-14.92-.79q-6.59.06-12.85.68c-4.17.41-8.23,1-12.15,1.79a109.84,109.84,0,0,0-11.37,2.88,96.91,96.91,0,0,0-10.5,3.95q.39-1.11.75-2.25c.23-.75.46-1.52.66-2.29s.39-1.54.55-2.33.31-1.57.44-2.37a37.7,37.7,0,0,0,.39-8,33,33,0,0,0-1.28-7.41,28.5,28.5,0,0,0-2.87-6.57,24.5,24.5,0,0,0-4.35-5.4,25,25,0,0,0-7.55-4.84,30.26,30.26,0,0,0-9.26-2.16,44.92,44.92,0,0,0-10.83.54,71.11,71.11,0,0,0-12.27,3.24l-1.36.51-7.92,14.75,1.19-.56q5.7-2.62,11.64-4.74a63.41,63.41,0,0,1,6.68-2,44.3,44.3,0,0,1,7.86-1.21,25.85,25.85,0,0,1,7.89.64,15.23,15.23,0,0,1,6.73,3.55,14.39,14.39,0,0,1,3,3.95,19.43,19.43,0,0,1,1.65,4.64,24.93,24.93,0,0,1,.55,4.84,26.74,26.74,0,0,1-.3,4.56,39.61,39.61,0,0,1-1.28,5.43,56.33,56.33,0,0,1-2,5.34c-.75,1.76-1.57,3.5-2.43,5.23s-1.75,3.45-2.63,5.15l-2.57,4.94-2.56,4.94-2.57,5-2.57,4.94,4.52-3.26,4.51-3.27,4.51-3.26,4.51-3.27a70.8,70.8,0,0,1,11.43-6.69,86.16,86.16,0,0,1,13.19-4.89,106,106,0,0,1,14.77-3,131,131,0,0,1,16.15-1.12,102.64,102.64,0,0,1,12.9.64,66.69,66.69,0,0,1,11,2.16,46.52,46.52,0,0,1,9.2,3.71,37,37,0,0,1,7.45,5.28,34.78,34.78,0,0,1,6.18,7.64,42.66,42.66,0,0,1,4.17,9.48,49.4,49.4,0,0,1,2,10.75,55.31,55.31,0,0,1-.32,11.47,71.12,71.12,0,0,1-2.61,11.67,99.14,99.14,0,0,1-4.19,11c-1.59,3.54-3.33,6.94-5.1,10.14q-1.17,2.12-2.36,4.12l7.26,3.11,2.52,1.09c.67-1.15,1.33-2.31,2-3.5C358.42,510.73,360.3,507,362,503.14Z"/><path class="cls-19" d="M628,726a108.71,108.71,0,0,0-22.45-23.27,75.28,75.28,0,0,0-27.75-13.43,58.15,58.15,0,0,0-15.7-1.55A55.63,55.63,0,0,0,547,690.49a58.31,58.31,0,0,0-14.06,6.87,66.9,66.9,0,0,0-12.49,10.84,74.07,74.07,0,0,0-11,16.06c-.6,1.17-1.16,2.37-1.69,3.58,2.49,4.45,4.62,8.17,6.36,11.12.12.22.27.46.42.72A65.38,65.38,0,0,1,518.84,729a63.26,63.26,0,0,1,9.44-13.73,55.61,55.61,0,0,1,10.3-9,48.53,48.53,0,0,1,11.56-5.7,45.25,45.25,0,0,1,12.41-2.29,46.46,46.46,0,0,1,12.83,1.24,64.84,64.84,0,0,1,24.5,12.15,100.45,100.45,0,0,1,20,21.27,127.92,127.92,0,0,1,14.33,26.36c.19.46.35.92.53,1.38l2.86-1.42c2.31-1.16,4.51-2.33,6.62-3.5-.11-.29-.21-.58-.33-.87A136.61,136.61,0,0,0,628,726Z"/><path class="cls-19" d="M515.17,636.51a9.23,9.23,0,0,0-9.83-2.76,9,9,0,0,0-3.19,1.79,9.24,9.24,0,0,0,5.2,16.2,9.32,9.32,0,0,0,3.64-.41,9.2,9.2,0,0,0,3.2-1.79,9.25,9.25,0,0,0,1-13Z"/><path class="cls-17" d="M602,582.1l-21.52-24.68-21.53-24.69L537.4,508.05l-21.52-24.69a89.58,89.58,0,0,0-6.64-6.81,119.51,119.51,0,0,0-18.17-14,91,91,0,0,0-27.15-11.63,67.89,67.89,0,0,0-33.53.4l-61.24,19.53-61.24,19.53-61.23,19.52-61.24,19.53,11.28,35.11L208,599.61l11.28,35.11,11.28,35.1,49.19-19.58,49.19-19.59,49.19-19.59,49.19-19.59,22.77,38.74,22.76,38.73,22.77,38.74,22.76,38.74a62.35,62.35,0,0,0,10.72,10.63,80.55,80.55,0,0,0,32.33,15.57c14.4,3.3,32.45,3.35,54.19-3.93s47.15-21.89,76.31-47.9l-22.49-34.67L647,651.44l-22.49-34.67Z"/><path class="cls-18" d="M541.34,500.65a9.87,9.87,0,0,0,1.62-3.77,7.47,7.47,0,0,0-.18-3.38,8.47,8.47,0,0,0-1.46-2.83,10.54,10.54,0,0,0-2.23-2.15,11.24,11.24,0,0,0-1.76-1,10,10,0,0,0-2-.68,8.15,8.15,0,0,0-2.1-.22,7.62,7.62,0,0,0-2.14.36,8.32,8.32,0,0,0-1.17.49,7.67,7.67,0,0,0-1.14.71,9,9,0,0,0-1.11,1,10.88,10.88,0,0,0-1.05,1.23c-.72,1-1.41,2-2.08,3L536.4,506.9c.37-.41.74-.81,1.1-1.23A59.41,59.41,0,0,0,541.34,500.65Z"/><path class="cls-19" d="M630.19,625.61c2.85-.69,5.58-1.46,8.16-2.29,2.82-.9,5.46-1.87,7.93-2.86s4.74-2,6.83-3,4-2,5.63-2.89,3.13-1.79,4.36-2.55a5.16,5.16,0,0,0,1.54-1.43,5.33,5.33,0,0,0,.91-3.87,5.42,5.42,0,0,0-.73-2,5.27,5.27,0,0,0-1.44-1.53,5.14,5.14,0,0,0-1.85-.83,5.27,5.27,0,0,0-2-.08,5.2,5.2,0,0,0-2,.73,94,94,0,0,1-9.72,5.18,109.16,109.16,0,0,1-16.27,6c-2.4.67-4.92,1.29-7.56,1.83l.46.7Z"/><path class="cls-18" d="M523.24,495.38q-1.59,2.58-3,5.26c-.91,1.79-1.75,3.62-2.5,5.48s-1.44,3.76-2,5.69c-.29.91-.55,1.82-.8,2.73s-.47,1.81-.67,2.7-.39,1.79-.55,2.68-.32,1.77-.45,2.64c1.26-.48,2.42-1,3.49-1.44s2-.94,2.89-1.37,1.61-.83,2.23-1.18,1.13-.65,1.5-.87a56.82,56.82,0,0,0,9.84-7.51c1.1-1.05,2.15-2.15,3.18-3.29l-11.83-13.57C524.12,494,523.67,494.69,523.24,495.38Z"/><path class="cls-18" d="M619.92,733a100.45,100.45,0,0,0-20-21.27,64.84,64.84,0,0,0-24.5-12.15,46.46,46.46,0,0,0-12.83-1.24,45.25,45.25,0,0,0-12.41,2.29,48.53,48.53,0,0,0-11.56,5.7,55.61,55.61,0,0,0-10.3,9A63.26,63.26,0,0,0,518.84,729a65.14,65.14,0,0,0-4.35,10.76l3.89,6.64a62.35,62.35,0,0,0,10.72,10.63,80.55,80.55,0,0,0,32.33,15.57c14.4,3.3,32.45,3.35,54.19-3.93a154.56,154.56,0,0,0,19.17-8c-.18-.46-.35-.93-.54-1.39A127.92,127.92,0,0,0,619.92,733Z"/><path class="cls-18" d="M534.91,522.61a68,68,0,0,1-6.06,4.13c-.52.32-1.28.76-2.23,1.28s-2.13,1.12-3.47,1.77-2.87,1.32-4.56,2-3.53,1.36-5.51,2l-.14.05-.14,0-.14,0-.14.05a75.69,75.69,0,0,0,1.83,15.37,85.44,85.44,0,0,0,4,13,90.8,90.8,0,0,0,4.68,9.94c1.51,2.74,2.87,4.87,3.85,6.31A84.92,84.92,0,0,0,538,591.76a91,91,0,0,0,13.67,10.9,94.72,94.72,0,0,0,15.68,8.24,95.68,95.68,0,0,0,42.66,7,100.18,100.18,0,0,0,14-1.87l-22-34-21.52-24.68-21.53-24.69-15.53-17.81c-.94,1-1.91,2-2.91,3A68,68,0,0,1,534.91,522.61Z"/><path class="cls-18" d="M520.44,708.2a66.9,66.9,0,0,1,12.49-10.84A58.31,58.31,0,0,1,547,690.49a55.63,55.63,0,0,1,15.13-2.75,58.15,58.15,0,0,1,15.7,1.55,75.28,75.28,0,0,1,27.75,13.43A108.71,108.71,0,0,1,628,726a136.61,136.61,0,0,1,15.91,29c.11.27.2.54.31.8,14.6-8.24,30.5-19.61,47.69-35l-22.49-34.67L647,651.44l-16.76-25.83c-1.21.29-2.43.58-3.69.84a112.28,112.28,0,0,1-13.39,1.93,107.44,107.44,0,0,1-14.75.2,109.13,109.13,0,0,1-15.91-2.06,106.57,106.57,0,0,1-19.14-5.87,105,105,0,0,1-17.47-9.21,101.59,101.59,0,0,1-15.24-12.17,95.3,95.3,0,0,1-12.45-14.78c-1.06-1.56-2.54-3.87-4.17-6.82A102.5,102.5,0,0,1,508.87,567,96.82,96.82,0,0,1,504.38,553a86.91,86.91,0,0,1-2.35-16.6,64.2,64.2,0,0,1-7.64.75,58.47,58.47,0,0,1-8.11-.24,56,56,0,0,1-8.43-1.51,54.57,54.57,0,0,1-8.59-3.05,61.38,61.38,0,0,1-16.53-11.15,74.07,74.07,0,0,1-13-16.27A87.34,87.34,0,0,1,431,484.75a97.35,97.35,0,0,1-3.77-23c-.14-3.16-.14-6.33,0-9.48l-58.09,18.53L314.62,488.2c1.79,1.65,3.53,3.35,5.15,5.12a75.72,75.72,0,0,1,10,13.57A53.17,53.17,0,0,1,337,535.58a61.21,61.21,0,0,1-2.21,14.53A72.43,72.43,0,0,1,329,564.56a88.58,88.58,0,0,1-9.22,14,104.35,104.35,0,0,1-8,8.92,114.8,114.8,0,0,1-9.13,8.17,120.41,120.41,0,0,1-10,7.2,110.49,110.49,0,0,1-10.5,6,53.1,53.1,0,0,1,7.76,4.27,53.79,53.79,0,0,1,6.93,5.45,52.07,52.07,0,0,1,5.91,6.51,50.83,50.83,0,0,1,4.72,7.44A50.07,50.07,0,0,1,310,638.2l19-7.55,49.19-19.59,49.19-19.59,22.77,38.74,22.76,38.73,22.77,38.74,12,20.42c.57-1.3,1.17-2.58,1.81-3.84A74.07,74.07,0,0,1,520.44,708.2Zm-13.09-56.46a9.24,9.24,0,0,1-8-6.38,9.13,9.13,0,0,1-.41-3.64,9.28,9.28,0,0,1,3.18-6.18,9,9,0,0,1,3.19-1.79,9.22,9.22,0,0,1,9.83,2.76,9.28,9.28,0,0,1,2.2,6.85,9.28,9.28,0,0,1-3.18,6.18,9.2,9.2,0,0,1-3.2,1.79A9.32,9.32,0,0,1,507.35,651.74Z"/><path class="cls-18" d="M292,630.52a41.91,41.91,0,0,0-6.69-6.2,42.53,42.53,0,0,0-7.92-4.66,40.54,40.54,0,0,0-8.76-2.83,7.65,7.65,0,0,1-2.3-.86,7.51,7.51,0,0,1-1.85-1.51,7.61,7.61,0,0,1-1.63-6.85,7.28,7.28,0,0,1,.95-2.17,7.2,7.2,0,0,1,1.59-1.76,7.64,7.64,0,0,1,2.15-1.2,89.57,89.57,0,0,0,11.94-5.39A103.74,103.74,0,0,0,291,589.85a105.22,105.22,0,0,0,10.54-8.73,94.28,94.28,0,0,0,9.09-9.85,76.74,76.74,0,0,0,9.1-14.2,56.66,56.66,0,0,0,4.49-12.82,47.48,47.48,0,0,0,1.07-11.12,41.95,41.95,0,0,0-6-20.94,64.33,64.33,0,0,0-8.47-11.3,73.75,73.75,0,0,0-9.39-8.47l-54.7,17.44-61.24,19.53,11.28,35.11L208,599.61l11.28,35.11,11.28,35.1,49.19-19.58,19.32-7.7a38.44,38.44,0,0,0-2-4.57A37.69,37.69,0,0,0,292,630.52Z"/><path class="cls-18" d="M437.83,461.3a87.57,87.57,0,0,0,3.23,20.12,76.85,76.85,0,0,0,7.44,17.64,63.34,63.34,0,0,0,11.05,14.12,50.94,50.94,0,0,0,14.07,9.58,42.73,42.73,0,0,0,7.51,2.61,44,44,0,0,0,7.39,1.18,48,48,0,0,0,7.09,0,53.39,53.39,0,0,0,6.65-.86c.13-1.37.28-2.76.48-4.15s.44-2.81.71-4.24.6-2.85,1-4.3.77-2.9,1.23-4.36q1-3.32,2.34-6.52c.87-2.14,1.83-4.23,2.87-6.29s2.18-4.06,3.4-6c1-1.6,2-3.16,3.15-4.69l-1.53-1.77a89.58,89.58,0,0,0-6.64-6.81,119.51,119.51,0,0,0-18.17-14,91,91,0,0,0-27.15-11.63,68.65,68.65,0,0,0-26-1.16A114.6,114.6,0,0,0,437.83,461.3Z"/><path class="cls-19" d="M427.27,461.76a97.35,97.35,0,0,0,3.77,23A87.34,87.34,0,0,0,439.76,505a74.07,74.07,0,0,0,13,16.27,61.38,61.38,0,0,0,16.53,11.15,54.57,54.57,0,0,0,8.59,3.05,56,56,0,0,0,8.43,1.51,58.47,58.47,0,0,0,8.11.24,64.2,64.2,0,0,0,7.64-.75,86.91,86.91,0,0,0,2.35,16.6A96.82,96.82,0,0,0,508.87,567,102.5,102.5,0,0,0,514,577.67c1.63,3,3.11,5.26,4.17,6.82a95.3,95.3,0,0,0,12.45,14.78,101.59,101.59,0,0,0,15.24,12.17,105,105,0,0,0,17.47,9.21,106.57,106.57,0,0,0,19.14,5.87,109.13,109.13,0,0,0,15.91,2.06,107.44,107.44,0,0,0,14.75-.2,112.28,112.28,0,0,0,13.39-1.93c1.26-.26,2.48-.55,3.69-.84l-5.73-8.84-.46-.7a100.18,100.18,0,0,1-14,1.87,95.68,95.68,0,0,1-42.66-7,94.72,94.72,0,0,1-15.68-8.24A91,91,0,0,1,538,591.76a84.92,84.92,0,0,1-11.14-13.21c-1-1.44-2.34-3.57-3.85-6.31a90.8,90.8,0,0,1-4.68-9.94,85.44,85.44,0,0,1-4-13A75.69,75.69,0,0,1,512.52,534l.14-.05.14,0,.14,0,.14-.05c2-.64,3.83-1.31,5.51-2s3.21-1.36,4.56-2,2.51-1.25,3.47-1.77,1.71-1,2.23-1.28a68.57,68.57,0,0,0,11.63-8.87c1-1,2-1.94,2.91-3l-6-6.87-1-1.15c-1,1.14-2.08,2.24-3.18,3.29a56.82,56.82,0,0,1-9.84,7.51c-.37.22-.87.52-1.5.87s-1.37.75-2.23,1.18-1.82.9-2.89,1.37-2.23,1-3.49,1.44c.13-.87.28-1.76.45-2.64s.35-1.78.55-2.68.43-1.8.67-2.7.51-1.82.8-2.73c.6-1.93,1.28-3.82,2-5.69s1.59-3.69,2.5-5.48,1.9-3.54,3-5.26c.43-.69.88-1.37,1.33-2.05l-7.16-8.2c-1.1,1.53-2.16,3.09-3.15,4.69q-1.83,3-3.4,6c-1,2.06-2,4.15-2.87,6.29s-1.65,4.31-2.34,6.52c-.46,1.46-.87,2.92-1.23,4.36s-.69,2.88-1,4.3-.51,2.84-.71,4.24-.35,2.78-.48,4.15a53.39,53.39,0,0,1-6.65.86,48,48,0,0,1-7.09,0,44,44,0,0,1-7.39-1.18,42.73,42.73,0,0,1-7.51-2.61,50.94,50.94,0,0,1-14.07-9.58,63.34,63.34,0,0,1-11.05-14.12,76.85,76.85,0,0,1-7.44-17.64,87.57,87.57,0,0,1-3.23-20.12,114.6,114.6,0,0,1,.09-11.58,67.69,67.69,0,0,0-7.53,1.56l-3.15,1C427.13,455.43,427.13,458.6,427.27,461.76Z"/><path class="cls-19" d="M643.93,754.94A136.61,136.61,0,0,0,628,726a108.71,108.71,0,0,0-22.45-23.27,75.28,75.28,0,0,0-27.75-13.43,58.15,58.15,0,0,0-15.7-1.55A55.63,55.63,0,0,0,547,690.49a58.31,58.31,0,0,0-14.06,6.87,66.9,66.9,0,0,0-12.49,10.84,74.07,74.07,0,0,0-11,16.06c-.64,1.26-1.24,2.54-1.81,3.84l6.87,11.68A65.14,65.14,0,0,1,518.84,729a63.26,63.26,0,0,1,9.44-13.73,55.61,55.61,0,0,1,10.3-9,48.53,48.53,0,0,1,11.56-5.7,45.25,45.25,0,0,1,12.41-2.29,46.46,46.46,0,0,1,12.83,1.24,64.84,64.84,0,0,1,24.5,12.15,100.45,100.45,0,0,1,20,21.27,127.92,127.92,0,0,1,14.33,26.36c.19.46.36.93.54,1.39,3.08-1.52,6.24-3.18,9.45-5C644.13,755.48,644,755.21,643.93,754.94Z"/><path class="cls-19" d="M302.8,625.14a52.07,52.07,0,0,0-5.91-6.51,53.79,53.79,0,0,0-6.93-5.45,53.1,53.1,0,0,0-7.76-4.27,110.49,110.49,0,0,0,10.5-6,120.41,120.41,0,0,0,10-7.2,114.8,114.8,0,0,0,9.13-8.17,104.35,104.35,0,0,0,8-8.92,88.58,88.58,0,0,0,9.22-14,72.43,72.43,0,0,0,5.76-14.45A61.21,61.21,0,0,0,337,535.58a53.17,53.17,0,0,0-7.27-28.69,75.72,75.72,0,0,0-10-13.57c-1.62-1.77-3.36-3.47-5.15-5.12l-6.7,2.14-6.54,2.08a73.75,73.75,0,0,1,9.39,8.47,64.33,64.33,0,0,1,8.47,11.3,41.95,41.95,0,0,1,6,20.94,47.48,47.48,0,0,1-1.07,11.12,56.66,56.66,0,0,1-4.49,12.82,76.74,76.74,0,0,1-9.1,14.2,94.28,94.28,0,0,1-9.09,9.85A105.22,105.22,0,0,1,291,589.85a103.74,103.74,0,0,1-11.49,7.24,89.57,89.57,0,0,1-11.94,5.39,7.64,7.64,0,0,0-2.15,1.2,7.2,7.2,0,0,0-1.59,1.76,7.28,7.28,0,0,0-.95,2.17,7.49,7.49,0,0,0,1.63,6.85,7.51,7.51,0,0,0,1.85,1.51,7.65,7.65,0,0,0,2.3.86,40.54,40.54,0,0,1,8.76,2.83,42.53,42.53,0,0,1,7.92,4.66,41.91,41.91,0,0,1,6.69,6.2,37.69,37.69,0,0,1,5.07,7.45,38.44,38.44,0,0,1,2,4.57L310,638.2a50.07,50.07,0,0,0-2.46-5.62A50.83,50.83,0,0,0,302.8,625.14Z"/><path class="cls-19" d="M514.19,649.54a9.25,9.25,0,0,0,1-13,9.23,9.23,0,0,0-9.83-2.76,9,9,0,0,0-3.19,1.79,9.24,9.24,0,0,0,5.2,16.2,9.32,9.32,0,0,0,3.64-.41A9.2,9.2,0,0,0,514.19,649.54Z"/><path class="cls-6" d="M185.49,529.38,195,558.86l9.47,29.48,9.48,29.49,9.47,29.48L198,655.46l-25.36,8.15-25.36,8.14-25.37,8.15a7.41,7.41,0,0,1-7.87-2.21,7.42,7.42,0,0,1-1.43-2.57l-13.3-41.39L86,592.33l-13.3-41.39-13.3-41.4a8.79,8.79,0,0,1,1.63-8.35,8.41,8.41,0,0,1,2.3-1.91A43.5,43.5,0,0,1,73.48,495a33.3,33.3,0,0,1,13.29-1,32.53,32.53,0,0,1,14.88,6.18c5,3.69,10.11,9.22,14.92,17.24q1.44,2.41,3.11,4.67a54.65,54.65,0,0,0,3.56,4.31,50.63,50.63,0,0,0,4,3.89,45.76,45.76,0,0,0,4.44,3.4,42.2,42.2,0,0,0,5.35,3.09A32.14,32.14,0,0,0,143,539a25,25,0,0,0,6.42.83,22.41,22.41,0,0,0,6.71-1l7.35-2.36,7.34-2.36,7.35-2.36Z"/><path class="cls-14" d="M197.07,606.86a12.71,12.71,0,0,0-5.3,3.33,12.66,12.66,0,0,0-3,5.27,13.07,13.07,0,0,0-2.6-1.6,12.83,12.83,0,0,0-2.91-.93,12.33,12.33,0,0,0-3.1-.21,12.8,12.8,0,0,0-6.06,1.94,12.94,12.94,0,0,0-2.39,2,12.47,12.47,0,0,0-1.82,2.45,12.82,12.82,0,0,0-1.19,2.8,12.49,12.49,0,0,0-5.5-2.51,11.77,11.77,0,0,0-3.09-.2,12.6,12.6,0,0,0-7.53,3,12.49,12.49,0,0,0-3,3.82,12.58,12.58,0,0,0-.8,9.66l2.59,8.07,2.6,8.06,2.59,8.07,2.59,8.07,5-1.61,5-1.61,5-1.61,5-1.61,1-.33,1-.33,1-.32,1-.33,4-1.29,4-1.28,4-1.29,4-1.28,1-.32,1-.33,1-.32,1-.33,5-1.61,5-1.61,5-1.62,5-1.61-2.6-8.07-2.59-8.06-2.59-8.07L213,615.05a12.49,12.49,0,0,0-2.46-4.4,12.72,12.72,0,0,0-3.81-3,12.67,12.67,0,0,0-9.67-.79Z"/><polyline class="cls-15" points="188.76 615.47 191.79 624.89 194.82 634.32 197.84 643.74 200.87 653.17"/><polyline class="cls-15" points="168.67 621.92 171.7 631.34 174.73 640.77 177.75 650.2 180.78 659.62"/><polyline class="cls-15" points="106.39 537.78 109.74 533.91 113.1 530.04 116.46 526.17 119.81 522.3"/><path class="cls-15" d="M123.24,552.29l2.92-4.14,2.92-4.14,2.92-4.14,2.92-4.14"/><path class="cls-15" d="M141.91,526.05c1.79,0,3.59-.11,5.4-.25s3.61-.32,5.4-.59,3.58-.59,5.33-1a48,48,0,0,0,5.17-1.54,27.72,27.72,0,0,0,4.29-2.09,33,33,0,0,0,4.89-3.46,15.6,15.6,0,0,0,3.61-4.29,5.39,5.39,0,0,0,.44-4.56,7.46,7.46,0,0,0-5.31-4.47,22.24,22.24,0,0,0-8.49-.26,64.59,64.59,0,0,0-9.06,1.91c-2.83.78-5.31,1.58-7,2.07-2.43.69-4.83,1.5-7.19,2.4s-4.69,1.91-7,3-4.54,2.27-6.74,3.51-4.36,2.57-6.47,4a45.17,45.17,0,0,0,6.7-5.41,60.57,60.57,0,0,0,5.68-6.39c1.77-2.25,3.41-4.61,5-7s3.09-4.84,4.59-7.27c.7-1.11,1.37-2.26,2-3.43s1.25-2.36,1.8-3.58a39.28,39.28,0,0,0,1.46-3.72,32,32,0,0,0,1-3.85,23.74,23.74,0,0,0,.36-3.92,20.3,20.3,0,0,0-.42-4.52,9.56,9.56,0,0,0-1.68-3.86,5,5,0,0,0-3.41-2,5.53,5.53,0,0,0-3.13.66,14.66,14.66,0,0,0-3.09,2.18,32.8,32.8,0,0,0-2.73,2.82c-.82.94-1.53,1.85-2.09,2.56-.81,1-1.56,2.12-2.27,3.23s-1.36,2.25-2,3.42-1.18,2.36-1.7,3.56-1,2.44-1.45,3.67c-.86,2.4-1.61,4.85-2.23,7.34s-1.13,5-1.52,7.55-.65,5.11-.81,7.67-.19,5.12-.12,7.67a8.93,8.93,0,0,0,.63,3.36,4.54,4.54,0,0,0,1.61,2,8.36,8.36,0,0,0,2.56,1.12c1,.29,2.16.52,3.46.78s2.39.42,3.59.57,2.41.26,3.62.33,2.42.12,3.64.14S140.7,526.08,141.91,526.05Z"/><path class="cls-6" d="M247.45,319.49l-14.77,27.22L217.9,373.92l-14.78,27.21-14.78,27.22-23.41-12.72-23.41-12.71L118.11,390.2,94.7,377.49a7.43,7.43,0,0,1-2.26-1.88,7.43,7.43,0,0,1-1.58-5.34,7.46,7.46,0,0,1,.87-2.81l20.75-38.21,20.75-38.2L154,252.84l20.75-38.21a8.74,8.74,0,0,1,1.86-2.35,8.87,8.87,0,0,1,2.46-1.57,8.59,8.59,0,0,1,5.81-.33,44,44,0,0,1,10.08,4.38,33.47,33.47,0,0,1,9.88,8.93,32.53,32.53,0,0,1,5.81,15c.82,6.2.32,13.68-2.16,22.7-.5,1.8-.91,3.63-1.23,5.47s-.53,3.69-.66,5.55a49.47,49.47,0,0,0-.05,5.58,45.23,45.23,0,0,0,.61,5.56,43.26,43.26,0,0,0,1.46,6,32.86,32.86,0,0,0,2.51,5.83,25.76,25.76,0,0,0,3.83,5.22,22.52,22.52,0,0,0,5.4,4.13l6.78,3.68,6.78,3.68,6.77,3.68Z"/><path class="cls-14" d="M199.42,381.39a12.21,12.21,0,0,0-3-1.17,12.67,12.67,0,0,0-6.12,0,12.61,12.61,0,0,0-2.85,1.09,12.76,12.76,0,0,0-.64-3,12.67,12.67,0,0,0-3.32-5.14,12.73,12.73,0,0,0-2.61-1.87,12.71,12.71,0,0,0-6-1.54,12.89,12.89,0,0,0-3,.37,12.69,12.69,0,0,0-2.84,1.08,13.1,13.1,0,0,0-.65-3,12.64,12.64,0,0,0-1.34-2.74,13,13,0,0,0-2-2.37,12.9,12.9,0,0,0-2.6-1.86,12.68,12.68,0,0,0-17.18,5.08l-4,7.45-4.05,7.44-4,7.45-4,7.44,4.62,2.52,4.62,2.51,4.62,2.51,4.63,2.51.94.51.94.51,1,.52.94.51,3.69,2,3.69,2,3.69,2,3.69,2,.93.51.94.51.93.5.93.51,4.64,2.52,4.63,2.51,4.63,2.52,4.64,2.52,4-7.45,4-7.44,4.05-7.45,4-7.45a12.51,12.51,0,0,0,1.48-4.8,12.66,12.66,0,0,0-2.71-9.15A12.53,12.53,0,0,0,199.42,381.39Z"/><polyline class="cls-15" points="187.46 381.32 182.74 390.02 178.01 398.72 173.28 407.42 168.56 416.12"/><polyline class="cls-15" points="168.91 371.25 164.19 379.95 159.47 388.65 154.74 397.35 150.02 406.05"/><polyline class="cls-15" points="186.74 268.09 191.86 267.85 196.98 267.6 202.09 267.36 207.21 267.11"/><path class="cls-15" d="M187.89,290.3l5-.75,5-.74,5-.75,5-.75"/><path class="cls-15" d="M219.76,285.69c1.26,1.26,2.56,2.51,3.91,3.72s2.73,2.39,4.15,3.5,2.9,2.18,4.42,3.15a48.44,48.44,0,0,0,4.69,2.68,27.37,27.37,0,0,0,4.47,1.66,32.39,32.39,0,0,0,5.88,1.14,15.19,15.19,0,0,0,5.59-.35,5.36,5.36,0,0,0,3.6-2.82,7.44,7.44,0,0,0-.43-6.93,22.29,22.29,0,0,0-5.67-6.33,67.37,67.37,0,0,0-7.65-5.23c-2.51-1.5-4.81-2.75-6.34-3.65-2.18-1.27-4.42-2.45-6.7-3.53s-4.62-2.08-7-3-4.76-1.71-7.19-2.44-4.86-1.38-7.32-2a45.24,45.24,0,0,0,8.53,1.12,61.06,61.06,0,0,0,8.55-.31c2.85-.28,5.69-.72,8.51-1.24s5.64-1.1,8.43-1.69c1.29-.27,2.58-.57,3.87-.92s2.57-.73,3.83-1.17a39.89,39.89,0,0,0,3.7-1.52,29.64,29.64,0,0,0,3.48-1.94,23.57,23.57,0,0,0,3.08-2.44,20.39,20.39,0,0,0,3-3.43,9.59,9.59,0,0,0,1.63-3.88,5,5,0,0,0-.94-3.8,5.61,5.61,0,0,0-2.65-1.82,14.28,14.28,0,0,0-3.71-.72,32.13,32.13,0,0,0-3.92,0c-1.25.06-2.39.17-3.3.26-1.31.13-2.61.33-3.9.58s-2.56.58-3.83.94-2.51.79-3.75,1.24-2.45,1-3.65,1.49a75.66,75.66,0,0,0-6.85,3.45c-2.23,1.26-4.4,2.64-6.51,4.12s-4.14,3.05-6.1,4.71-3.84,3.4-5.63,5.21a9,9,0,0,0-2,2.78,4.57,4.57,0,0,0-.32,2.53,8.44,8.44,0,0,0,1,2.63c.49.92,1.12,1.91,1.83,3s1.34,2,2.06,3,1.48,1.92,2.26,2.85,1.59,1.84,2.42,2.73S218.91,284.83,219.76,285.69Z"/><path class="cls-13" d="M797,542.08s1.75.1,4.73.4,7.2.81,12.15,1.64,10.64,2,16.55,3.56a125.94,125.94,0,0,1,17.93,6.16,44.08,44.08,0,0,1,18.46,14.91,45.09,45.09,0,0,1,8,21,44.22,44.22,0,0,1-3.06,22.13A42.81,42.81,0,0,1,857,630.25a69.61,69.61,0,0,1-19.58,9.69A97.18,97.18,0,0,1,816,644a166.38,166.38,0,0,1-22.11.22c-7.36-.36-14.66-1.07-21.7-1.82l-21.56-2.31-21.56-2.31-21.56-2.3L686,633.17c-4.06-.43-8.31-.69-12.64-.92s-8.74-.44-13.13-.77-8.74-.8-13-1.55a66.9,66.9,0,0,1-12.18-3.26,43.84,43.84,0,0,1-17.93-13,71,71,0,0,1-11.43-19.84,129.26,129.26,0,0,1-6.46-22.76,211.61,211.61,0,0,1-3-21.76l-3-28.85-2.94-28.85-3-28.85-2.94-28.85c-.69-.88-1.38-1.81-2.06-2.76s-1.38-1.95-2.06-3-1.35-2.09-2-3.18-1.33-2.23-2-3.39q-1.77-3.18-3.22-6.31c-1-2.08-1.84-4.15-2.62-6.18s-1.47-4-2.09-6-1.15-3.89-1.61-5.77c-.71-2.83-1.43-5.65-2.19-8.46s-1.53-5.62-2.34-8.42-1.65-5.59-2.52-8.37-1.77-5.55-2.71-8.31c-.42-1.22-.78-2.36-1.08-3.41s-.55-2-.74-2.86a20.08,20.08,0,0,1-.37-2.25,6.5,6.5,0,0,1,0-1.59,8.6,8.6,0,0,1,.43-1.65,7,7,0,0,1,.58-1.19,6,6,0,0,1,.5-.72l.22-.25a6.23,6.23,0,0,1,.78-.62,7,7,0,0,1,.8-.43,7.57,7.57,0,0,1,.74-.27,5.54,5.54,0,0,1,.65-.16,4.14,4.14,0,0,1,1.21-.38,5.88,5.88,0,0,1,3.12.36,10.31,10.31,0,0,1,4.23,3.33,30.21,30.21,0,0,1,4.55,8.54s.5,1.35,1.37,3.23a42.64,42.64,0,0,0,3.64,6.41c1.51,2.13,3.27,4,5.17,4.73s3.94.39,6-1.87a10.88,10.88,0,0,0,1.29-1.74,11.91,11.91,0,0,0,.93-1.94,12.74,12.74,0,0,0,.59-2.09,14.13,14.13,0,0,0,.23-2.16l.28-9.58.27-9.57.28-9.57.27-9.58c0-.17,0-.37,0-.59s0-.45,0-.7,0-.52,0-.81,0-.59,0-.9c.05-1.12.1-2.16.18-3.12a21.68,21.68,0,0,1,.33-2.63,9.27,9.27,0,0,1,.66-2.18,5.93,5.93,0,0,1,1.16-1.75,5.21,5.21,0,0,1,.65-.59,6.42,6.42,0,0,1,1.18-.71,8.19,8.19,0,0,1,1.8-.62,12,12,0,0,1,2.5-.27,22.08,22.08,0,0,1-.09-5.18,16.74,16.74,0,0,1,1.07-4.42,11.14,11.14,0,0,1,2-3.34,7.33,7.33,0,0,1,2.82-2,6.33,6.33,0,0,1,.79-.24,6.07,6.07,0,0,1,1-.17,8.29,8.29,0,0,1,1.32,0,10.37,10.37,0,0,1,1.59.27,6.3,6.3,0,0,1,1-1.87,6.84,6.84,0,0,1,1.55-1.39,6.31,6.31,0,0,1,4-1,6.08,6.08,0,0,1,2.07.58,6.33,6.33,0,0,1,3,2.9,6.38,6.38,0,0,1,.63,2.07l0,2.24,0,2.24,0,2.23,0,2.24a5,5,0,0,1,1.21-.18,6.24,6.24,0,0,1,2.78.51,6.8,6.8,0,0,1,3,2.79,16,16,0,0,1,2,6.63c.18,1.55.36,3.1.53,4.64s.35,3.1.53,4.65.37,3.1.57,4.64.41,3.09.63,4.63L638,350.8l2.29,15.67,2.3,15.67,2.29,15.67c.36,2.47.76,4.92,1.21,7.37s.93,4.89,1.46,7.32,1.11,4.86,1.72,7.27,1.27,4.81,2,7.2l8,27.33,8,27.33,8,27.33,8,27.33,28.44,1.45,28.45,1.45,28.44,1.45Z"/><path class="cls-15" d="M624.45,306.82c.1,3.1.21,6.2.31,9.31s.21,6.2.31,9.31.21,6.2.31,9.31.21,6.2.32,9.31"/><path class="cls-15" d="M612.07,296.55q.3,6.07.61,12.15t.61,12.15l.6,12.15q.32,6.08.61,12.15"/><path class="cls-15" d="M601.65,312.61q.21,4.32.41,8.62t.41,8.62c.14,2.87.28,5.75.41,8.62s.28,5.75.41,8.62"/><path class="cls-12" d="M893.78,433a64.57,64.57,0,0,0-12.19,13.18A58.87,58.87,0,0,0,874,461.27a51.14,51.14,0,0,0-2.59,15.87,44.51,44.51,0,0,0,2.68,15.43,43.19,43.19,0,0,0,5.59,10.5,48.62,48.62,0,0,0,6.94,7.69,55.32,55.32,0,0,0,6.7,5.15c2,1.31,3.74,2.24,4.88,2.84l1.27-1,1.15-.87,1-.78.86-.67,1.44-1.13,1.37-1.09,1-.81.4-.32.26.37.59.87c.22.33.45.68.66,1l.45.69a9.57,9.57,0,0,1,1.08,2.47,13.34,13.34,0,0,1,.43,2.41,18.19,18.19,0,0,1,0,1.86c0,.48,0,.79-.06.85a10.71,10.71,0,0,1-1.59,4.41,14,14,0,0,1-2.73,3.13,18.26,18.26,0,0,1-2.68,1.92,15,15,0,0,1-1.45.75,14.48,14.48,0,0,1-2.81.9,15.35,15.35,0,0,1-2.56.31,16.3,16.3,0,0,1-2.15-.06c-.63-.06-1.17-.15-1.58-.23s-.71-.17-1.13-.29a14.08,14.08,0,0,1-1.39-.5,17.23,17.23,0,0,1-1.58-.76,15.31,15.31,0,0,1-1.67-1.09,14.24,14.24,0,0,1-1.28-1.08,14.45,14.45,0,0,1-1-1.08c-.3-.35-.57-.69-.8-1s-.42-.62-.58-.88c-.94.33-2,.67-3.08,1s-2.32.64-3.61.92-2.65.54-4.1.75-3,.37-4.55.47c-1.83.12-3.57.14-5.23.09s-3.23-.16-4.7-.33-2.85-.38-4.11-.62-2.42-.49-3.46-.76q1.54,1.86,3.18,4c1.08,1.43,2.18,2.95,3.28,4.57s2.22,3.33,3.31,5.14,2.18,3.73,3.24,5.74c1.39,2.65,2.61,5.24,3.69,7.77s2,5,2.85,7.32,1.51,4.62,2.1,6.75,1.09,4.16,1.49,6c2.43-.61,5.27-1.43,8.39-2.53A92.35,92.35,0,0,0,892,569.15a90.52,90.52,0,0,0,11-6.38,87.77,87.77,0,0,0,11.22-9c1.44-1.36,3.8-3.59,6.53-6.63a89.16,89.16,0,0,0,8.81-11.5,75.47,75.47,0,0,0,7.83-16,65,65,0,0,0,3.61-20.1c0-.72,0-2-.06-3.68s-.25-3.83-.59-6.29a71.94,71.94,0,0,0-4.91-17.82c-.56-1.32-1.5-3.43-2.9-6a76.08,76.08,0,0,0-5.69-8.92,70.18,70.18,0,0,0-9-9.93,63.93,63.93,0,0,0-12.71-9.08c-1.14-.62-2.24-1.18-3.31-1.69s-2.09-.94-3-1.34-1.88-.74-2.72-1S894.48,433.18,893.78,433Z"/><path class="cls-15" d="M720.36,209.51q1.08,3.09,2.09,6.51c.66,2.27,1.3,4.64,1.89,7.11s1.13,5,1.61,7.7.9,5.41,1.24,8.26q.18,1.57.33,3.12c.1,1,.19,2,.26,3s.14,2,.19,3,.09,1.94.12,2.89"/><path class="cls-15" d="M730.49,204.1c.74,2.38,1.45,4.88,2.12,7.47s1.31,5.3,1.9,8.09,1.12,5.7,1.58,8.69.87,6.07,1.19,9.25c.11,1.15.22,2.28.31,3.4s.16,2.24.23,3.33.12,2.19.17,3.26.08,2.13.1,3.17"/><path class="cls-15" d="M743.39,214.82q.58,2.93,1.09,6c.35,2,.66,4.12,1,6.25s.55,4.31.78,6.53.43,4.49.6,6.8c.06.85.11,1.7.16,2.55s.1,1.68.14,2.51.07,1.66.1,2.48,0,1.63.07,2.44"/><polyline class="cls-15" points="688.26 552.48 687 548.43 685.74 544.38 684.48 540.34 683.22 536.29"/><path class="cls-20" d="M63.35,499.28a8.51,8.51,0,0,0-2.29,1.91A8.77,8.77,0,0,0,59,506.57a8.93,8.93,0,0,0,.42,3l13.3,41.4L86,592.33l13.29,41.4,13.3,41.39a7.42,7.42,0,0,0,1.43,2.57,7.38,7.38,0,0,0,7.87,2.21l1.39-.44,1.39-.45,1.39-.45,1.39-.45-14.58-45.4L98.31,587.3,83.72,541.89,69.14,496.48c-.55.22-1.08.44-1.6.67s-1,.46-1.49.7-1,.47-1.4.71Z"/><path class="cls-20" d="M184.86,210.38a8.59,8.59,0,0,0-5.81.33,8.87,8.87,0,0,0-2.46,1.57,8.74,8.74,0,0,0-1.86,2.35L154,252.84l-20.75,38.21-20.75,38.2L91.73,367.46a7.46,7.46,0,0,0-.87,2.81,7.43,7.43,0,0,0,1.58,5.34,7.43,7.43,0,0,0,2.26,1.88l1.29.7,1.29.7,1.29.7,1.29.71q11.37-21,22.73-41.93l22.73-41.93L168,254.51q11.37-21,22.73-41.93c-.52-.24-1-.46-1.55-.67l-1.52-.59-1.45-.51Z"/></svg>